  0
SECTION
  2
HEADER
  9
$ACADVER
  1
AC1014
  9
$ACADMAINTVER
 70
     9
  9
$DWGCODEPAGE
  3
ANSI_1252
  9
$INSBASE
 10
0.0
 20
0.0
 30
0.0
  9
$EXTMIN
 10
0.038
 20
0.019
 30
-0.175
  9
$EXTMAX
 10
11.0
 20
8.481
 30
0.175
  9
$LIMMIN
 10
0.0
 20
0.0
  9
$LIMMAX
 10
12.0
 20
9.0
  9
$ORTHOMODE
 70
     0
  9
$REGENMODE
 70
     1
  9
$FILLMODE
 70
     1
  9
$QTEXTMODE
 70
     0
  9
$MIRRTEXT
 70
     1
  9
$DRAGMODE
 70
     2
  9
$LTSCALE
 40
0.5
  9
$OSMODE
 70
    23
  9
$ATTMODE
 70
     1
  9
$TEXTSIZE
 40
0.12
  9
$TRACEWID
 40
0.05
  9
$TEXTSTYLE
  7
ONSHAPE-STANDARD
  9
$CLAYER
  8
0
  9
$CELTYPE
  6
BYLAYER
  9
$CECOLOR
 62
   256
  9
$CELTSCALE
 40
1.0
  9
$DELOBJ
 70
     1
  9
$DISPSILH
 70
     0
  9
$DIMSCALE
 40
1.0
  9
$DIMASZ
 40
0.18
  9
$DIMEXO
 40
0.0625
  9
$DIMDLI
 40
0.38
  9
$DIMRND
 40
0.0
  9
$DIMDLE
 40
0.0
  9
$DIMEXE
 40
0.08
  9
$DIMTP
 40
0.0
  9
$DIMTM
 40
0.0
  9
$DIMTXT
 40
0.12
  9
$DIMCEN
 40
0.09
  9
$DIMTSZ
 40
0.0
  9
$DIMTOL
 70
     0
  9
$DIMLIM
 70
     0
  9
$DIMTIH
 70
     1
  9
$DIMTOH
 70
     1
  9
$DIMSE1
 70
     0
  9
$DIMSE2
 70
     0
  9
$DIMTAD
 70
     0
  9
$DIMZIN
 70
     7
  9
$DIMBLK
  1

  9
$DIMASO
 70
     1
  9
$DIMSHO
 70
     1
  9
$DIMPOST
  1

  9
$DIMAPOST
  1

  9
$DIMALT
 70
     0
  9
$DIMALTD
 70
     2
  9
$DIMALTF
 40
25.4
  9
$DIMLFAC
 40
2.0
  9
$DIMTOFL
 70
     0
  9
$DIMTVP
 40
0.0
  9
$DIMTIX
 70
     0
  9
$DIMSOXD
 70
     0
  9
$DIMSAH
 70
     0
  9
$DIMBLK1
  1

  9
$DIMBLK2
  1

  9
$DIMSTYLE
  2
ONSHAPE-STANDARD
  9
$DIMCLRD
 70
     7
  9
$DIMCLRE
 70
     7
  9
$DIMCLRT
 70
     7
  9
$DIMTFAC
 40
1.0
  9
$DIMGAP
 40
0.09
  9
$DIMJUST
 70
     0
  9
$DIMSD1
 70
     0
  9
$DIMSD2
 70
     0
  9
$DIMTOLJ
 70
     1
  9
$DIMTZIN
 70
     7
  9
$DIMALTZ
 70
     7
  9
$DIMALTTZ
 70
     0
  9
$DIMFIT
 70
     3
  9
$DIMUPT
 70
     1
  9
$DIMUNIT
 70
     2
  9
$DIMDEC
 70
     3
  9
$DIMTDEC
 70
     3
  9
$DIMALTU
 70
     2
  9
$DIMALTTD
 70
     2
  9
$DIMTXSTY
  7
ONSHAPE-STANDARD-DIMENSION
  9
$DIMAUNIT
 70
     0
  9
$LUNITS
 70
     2
  9
$LUPREC
 70
     4
  9
$SKETCHINC
 40
0.1
  9
$FILLETRAD
 40
0.5
  9
$AUNITS
 70
     0
  9
$AUPREC
 70
     0
  9
$MENU
  1
.
  9
$ELEVATION
 40
0.0
  9
$PELEVATION
 40
0.0
  9
$THICKNESS
 40
0.0
  9
$LIMCHECK
 70
     0
  9
$CHAMFERA
 40
0.0
  9
$CHAMFERB
 40
0.0
  9
$CHAMFERC
 40
0.0
  9
$CHAMFERD
 40
0.0
  9
$SKPOLY
 70
     0
  9
$TDCREATE
 40
2460803.76855875
  9
$TDUPDATE
 40
2460803.768559606
  9
$TDINDWG
 40
0.0
  9
$TDUSRTIMER
 40
0.0
  9
$USRTIMER
 70
     1
  9
$ANGBASE
 50
0.0
  9
$ANGDIR
 70
     0
  9
$PDMODE
 70
    33
  9
$PDSIZE
 40
0.0393700787401575
  9
$PLINEWID
 40
0.0
  9
$COORDS
 70
     1
  9
$SPLFRAME
 70
     0
  9
$SPLINETYPE
 70
     6
  9
$SPLINESEGS
 70
     8
  9
$ATTDIA
 70
     0
  9
$ATTREQ
 70
     1
  9
$HANDLING
 70
     1
  9
$HANDSEED
  5
378
  9
$SURFTAB1
 70
     6
  9
$SURFTAB2
 70
     6
  9
$SURFTYPE
 70
     6
  9
$SURFU
 70
     6
  9
$SURFV
 70
     6
  9
$UCSNAME
  2

  9
$UCSORG
 10
0.0
 20
0.0
 30
0.0
  9
$UCSXDIR
 10
1.0
 20
0.0
 30
0.0
  9
$UCSYDIR
 10
0.0
 20
1.0
 30
0.0
  9
$PUCSNAME
  2

  9
$PUCSORG
 10
0.0
 20
0.0
 30
0.0
  9
$PUCSXDIR
 10
1.0
 20
0.0
 30
0.0
  9
$PUCSYDIR
 10
0.0
 20
1.0
 30
0.0
  9
$USERI1
 70
     0
  9
$USERI2
 70
     0
  9
$USERI3
 70
     0
  9
$USERI4
 70
     0
  9
$USERI5
 70
     0
  9
$USERR1
 40
0.0
  9
$USERR2
 40
0.0
  9
$USERR3
 40
0.0
  9
$USERR4
 40
0.0
  9
$USERR5
 40
0.0
  9
$WORLDVIEW
 70
     1
  9
$SHADEDGE
 70
     3
  9
$SHADEDIF
 70
    70
  9
$TILEMODE
 70
     1
  9
$MAXACTVP
 70
    64
  9
$PINSBASE
 10
0.0
 20
0.0
 30
0.0
  9
$PLIMCHECK
 70
     0
  9
$PEXTMIN
 10
1.000000000000000E+20
 20
1.000000000000000E+20
 30
1.000000000000000E+20
  9
$PEXTMAX
 10
-1.000000000000000E+20
 20
-1.000000000000000E+20
 30
-1.000000000000000E+20
  9
$PLIMMIN
 10
0.0
 20
0.0
  9
$PLIMMAX
 10
12.0
 20
9.0
  9
$UNITMODE
 70
     0
  9
$VISRETAIN
 70
     1
  9
$PLINEGEN
 70
     0
  9
$PSLTSCALE
 70
     1
  9
$TREEDEPTH
 70
  3020
  9
$PICKSTYLE
 70
     1
  9
$CMLSTYLE
  2
STANDARD
  9
$CMLJUST
 70
     0
  9
$CMLSCALE
 40
1.0
  9
$PROXYGRAPHICS
 70
     1
  9
$MEASUREMENT
 70
     0
  0
ENDSEC
  0
SECTION
  2
CLASSES
  0
CLASS
  1
ACDBDICTIONARYWDFLT
  2
AcDbDictionaryWithDefault
  3
ObjectDBX Classes
 90
        0
280
     0
281
     0
  0
CLASS
  1
VISUALSTYLE
  2
AcDbVisualStyle
  3
ObjectDBX Classes
 90
     4095
280
     0
281
     0
  0
CLASS
  1
MATERIAL
  2
AcDbMaterial
  3
ObjectDBX Classes
 90
     1153
280
     0
281
     0
  0
CLASS
  1
SCALE
  2
AcDbScale
  3
ObjectDBX Classes
 90
     1153
280
     0
281
     0
  0
CLASS
  1
TABLESTYLE
  2
AcDbTableStyle
  3
ObjectDBX Classes
 90
     4095
280
     0
281
     0
  0
CLASS
  1
MLEADERSTYLE
  2
AcDbMLeaderStyle
  3
ACDB_MLEADERSTYLE_CLASS
 90
     4095
280
     0
281
     0
  0
CLASS
  1
SUN
  2
AcDbSun
  3
SCENEOE
 90
     1153
280
     0
281
     0
  0
CLASS
  1
DICTIONARYVAR
  2
AcDbDictionaryVar
  3
ObjectDBX Classes
 90
        0
280
     0
281
     0
  0
CLASS
  1
FIELD
  2
AcDbField
  3
ObjectDBX Classes
 90
     1152
280
     0
281
     0
  0
CLASS
  1
FIELDLIST
  2
AcDbFieldList
  3
ObjectDBX Classes
 90
     1152
280
     0
281
     0
  0
CLASS
  1
XRECORD
  2
AcDbXrecord
  3
ObjectDBX Classes
 90
        0
280
     0
281
     0
  0
CLASS
  1
LWPOLYLINE
  2
AcDbPolyline
  3
ObjectDBX Classes
 90
        0
280
     0
281
     1
  0
CLASS
  1
HATCH
  2
AcDbHatch
  3
ObjectDBX Classes
 90
        0
280
     0
281
     1
  0
CLASS
  1
ACDBPLACEHOLDER
  2
AcDbPlaceHolder
  3
ObjectDBX Classes
 90
        0
280
     0
281
     0
  0
CLASS
  1
LAYOUT
  2
AcDbLayout
  3
ObjectDBX Classes
 90
        0
280
     0
281
     0
  0
ENDSEC
  0
SECTION
  2
TABLES
  0
TABLE
  2
VPORT
  5
8
102
{ACAD_XDICTIONARY
360
36D
102
}
330
0
100
AcDbSymbolTable
 70
     1
  0
VPORT
  5
29
330
8
100
AcDbSymbolTableRecord
100
AcDbViewportTableRecord
  2
*ACTIVE
 70
     0
 10
0.0
 20
0.0
 11
1.0
 21
1.0
 12
5.519
 22
4.389959809264305
 13
0.0
 23
0.0
 14
0.5
 24
0.5
 15
0.5
 25
0.5
 16
0.0
 26
0.0
 36
1.0
 17
0.0
 27
0.0
 37
0.0
 40
8.916758010899182
 41
1.253957995308708
 42
50.0
 43
0.0
 44
0.0
 50
0.0
 51
0.0
 71
     0
 72
   100
 73
     1
 74
     3
 75
     0
 76
     0
 77
     0
 78
     0
  0
ENDTAB
  0
TABLE
  2
LTYPE
  5
5
330
0
100
AcDbSymbolTable
 70
     3
  0
LTYPE
  5
14
330
5
100
AcDbSymbolTableRecord
100
AcDbLinetypeTableRecord
  2
BYBLOCK
 70
     0
  3

 72
    65
 73
     0
 40
0.0
  0
LTYPE
  5
15
330
5
100
AcDbSymbolTableRecord
100
AcDbLinetypeTableRecord
  2
BYLAYER
 70
     0
  3

 72
    65
 73
     0
 40
0.0
  0
LTYPE
  5
16
330
5
100
AcDbSymbolTableRecord
100
AcDbLinetypeTableRecord
  2
CONTINUOUS
 70
     0
  3
Solid line
 72
    65
 73
     0
 40
0.0
  0
LTYPE
  5
99
330
5
100
AcDbSymbolTableRecord
100
AcDbLinetypeTableRecord
  2
HIDDEN
 70
     0
  3
Hidden line ____ ____ ____ ____ 
 72
    65
 73
     2
 40
0.15
 49
0.1
 74
     0
 49
-0.05
 74
     0
  0
LTYPE
  5
1CB
330
5
100
AcDbSymbolTableRecord
100
AcDbLinetypeTableRecord
  2
CENTER
 70
     0
  3
Center line ____ _ ____ _ ____ _
 72
    65
 73
     4
 40
0.7199999999999999
 49
0.45
 74
     0
 49
-0.09
 74
     0
 49
0.09
 74
     0
 49
-0.09
 74
     0
  0
ENDTAB
  0
TABLE
  2
LAYER
  5
2
330
0
100
AcDbSymbolTable
 70
    11
  0
LAYER
  5
10
330
2
100
AcDbSymbolTableRecord
100
AcDbLayerTableRecord
  2
0
 70
     0
 62
     7
  6
CONTINUOUS
  0
LAYER
  5
73
330
2
100
AcDbSymbolTableRecord
100
AcDbLayerTableRecord
  2
VISIBLE
 70
     0
 62
     7
  6
CONTINUOUS
  0
LAYER
  5
97
330
2
100
AcDbSymbolTableRecord
100
AcDbLayerTableRecord
  2
SURFACE_THREAD_SYMBOLS
 70
     0
 62
     7
  6
HIDDEN
  0
LAYER
  5
9B
330
2
100
AcDbSymbolTableRecord
100
AcDbLayerTableRecord
  2
TANGENT_LINES
 70
     0
 62
     7
  6
CONTINUOUS
  0
LAYER
  5
F0
330
2
100
AcDbSymbolTableRecord
100
AcDbLayerTableRecord
  2
SURFACE_THREAD_SYMBOLS_ON_
 70
     0
 62
     7
  6
HIDDEN
  0
LAYER
  5
115
330
2
100
AcDbSymbolTableRecord
100
AcDbLayerTableRecord
  2
BORDER_FRAME
 70
     0
 62
     7
  6
CONTINUOUS
  0
LAYER
  5
11B
330
2
100
AcDbSymbolTableRecord
100
AcDbLayerTableRecord
  2
BORDER_ZONES
 70
     0
 62
     7
  6
CONTINUOUS
  0
LAYER
  5
129
330
2
100
AcDbSymbolTableRecord
100
AcDbLayerTableRecord
  2
TITLE_BLOCK
 70
     0
 62
     7
  6
CONTINUOUS
  0
LAYER
  5
1C2
330
2
100
AcDbSymbolTableRecord
100
AcDbLayerTableRecord
  2
ANNOTATION_TEXT
 70
     0
 62
     7
  6
CONTINUOUS
  0
LAYER
  5
1CA
330
2
100
AcDbSymbolTableRecord
100
AcDbLayerTableRecord
  2
CENTERMARKS
 70
     0
 62
     7
  6
CONTINUOUS
  0
LAYER
  5
246
330
2
100
AcDbSymbolTableRecord
100
AcDbLayerTableRecord
  2
ANNOTATION_LINES
 70
     0
 62
     7
  6
CONTINUOUS
  0
ENDTAB
  0
TABLE
  2
STYLE
  5
3
330
0
100
AcDbSymbolTable
 70
    36
  0
STYLE
  5
11
330
3
100
AcDbSymbolTableRecord
100
AcDbTextStyleTableRecord
  2
STANDARD
 70
     0
 40
0.0
 41
1.0
 50
0.0
 71
     0
 42
0.12
  3
txt
  4

  0
STYLE
  5
70
330
3
100
AcDbSymbolTableRecord
100
AcDbTextStyleTableRecord
  2
ONSHAPE-STANDARD
 70
     0
 40
0.0
 41
1.0
 50
0.0
 71
     0
 42
0.12
  3
NotoSans-Regular.ttf
  4

1001
ACAD
1000
Noto Sans
1071
        0
  0
STYLE
  5
72
330
3
100
AcDbSymbolTableRecord
100
AcDbTextStyleTableRecord
  2
ONSHAPE-STANDARD-DIMENSION
 70
     0
 40
0.0
 41
1.0
 50
0.0
 71
     0
 42
0.12
  3

  4

1001
ACAD
1000
Noto Sans
1071
        0
  0
STYLE
  5
15D
330
3
100
AcDbSymbolTableRecord
100
AcDbTextStyleTableRecord
  2
ONSHAPE-STANDARD-FIELDS
 70
     0
 40
0.0
 41
1.0
 50
0.0
 71
     0
 42
0.12
  3

  4

1001
ACAD
1000
Noto Sans
1071
        0
  0
STYLE
  5
1C4
330
3
100
AcDbSymbolTableRecord
100
AcDbTextStyleTableRecord
  2
ONSHAPE-STANDARD-VIEW-LABE
 70
     0
 40
0.12
 41
1.0
 50
0.0
 71
     0
 42
0.12
  3
NotoSans-Regular.ttf
  4

1001
ACAD
1000
Noto Sans
1071
        0
  0
STYLE
  5
240
330
3
100
AcDbSymbolTableRecord
100
AcDbTextStyleTableRecord
  2
ONSHAPE-STANDARD-HOLE-CALL
 70
     0
 40
0.12
 41
1.0
 50
0.0
 71
     0
 42
0.12
  3
Noto Sans
  4

1001
ACAD
1000
Noto Sans
1071
        0
  0
STYLE
  5
2F5
330
3
100
AcDbSymbolTableRecord
100
AcDbTextStyleTableRecord
  2
ONSHAPE-STANDARD-BOLD
 70
     0
 40
0.0
 41
1.0
 50
0.0
 71
     0
 42
0.12
  3
NotoSans-Bold.ttf
  4

1001
ACAD
1000
Noto Sans
1071
 33554432
  0
STYLE
  5
2F7
330
3
100
AcDbSymbolTableRecord
100
AcDbTextStyleTableRecord
  2
ONSHAPE-STANDARD-TCFIELDS
 70
     0
 40
0.0
 41
1.0
 50
0.0
 71
     0
 42
0.12
  3
NotoSansTC-Regular.otf
  4

1001
ACAD
1000
Noto Sans TC
1071
        0
  0
STYLE
  5
2F8
330
3
100
AcDbSymbolTableRecord
100
AcDbTextStyleTableRecord
  2
ONSHAPE-STANDARD-SCFIELDS
 70
     0
 40
0.0
 41
1.0
 50
0.0
 71
     0
 42
0.12
  3
NotoSansSC-Regular.otf
  4

1001
ACAD
1000
Noto Sans SC
1071
        0
  0
STYLE
  5
2F9
330
3
100
AcDbSymbolTableRecord
100
AcDbTextStyleTableRecord
  2
ONSHAPE-STANDARD-KOREANFIE
 70
     0
 40
0.0
 41
1.0
 50
0.0
 71
     0
 42
0.12
  3
NotoSansKR-Regular.otf
  4

1001
ACAD
1000
Noto Sans KR
1071
        0
  0
STYLE
  5
2FA
330
3
100
AcDbSymbolTableRecord
100
AcDbTextStyleTableRecord
  2
ONSHAPE-STANDARD-JAPANESEF
 70
     0
 40
0.0
 41
1.0
 50
0.0
 71
     0
 42
0.12
  3
NotoSansJP-Regular.otf
  4

1001
ACAD
1000
Noto Sans JP
1071
        0
  0
STYLE
  5
2FC
330
3
100
AcDbSymbolTableRecord
100
AcDbTextStyleTableRecord
  2
TTFSTYLE
 70
     0
 40
0.0
 41
1.0
 50
0.0
 71
     0
 42
0.12
  3
Verdana.ttf
  4

1001
ACAD
1000
Verdana
1071
       34
  0
STYLE
  5
2FD
330
3
100
AcDbSymbolTableRecord
100
AcDbTextStyleTableRecord
  2
ONSHAPE-STANDARD-GTOLERANC
 70
     0
 40
0.0
 41
1.0
 50
0.0
 71
     0
 42
0.12
  3

  4

1001
ACAD
1000
Noto Sans
1071
        0
  0
STYLE
  5
2FE
330
3
100
AcDbSymbolTableRecord
100
AcDbTextStyleTableRecord
  2
ONSHAPE-STANDARD-TABLE-DAT
 70
     0
 40
0.0
 41
1.0
 50
0.0
 71
     0
 42
0.12
  3
NotoSans-Regular.ttf
  4

1001
ACAD
1000
Noto Sans
1071
        0
  0
STYLE
  5
2FF
330
3
100
AcDbSymbolTableRecord
100
AcDbTextStyleTableRecord
  2
ONSHAPE-STANDARD-TABLE-TIT
 70
     0
 40
0.0
 41
1.0
 50
0.0
 71
     0
 42
0.12
  3
NotoSans-Bold.ttf
  4

1001
ACAD
1000
Noto Sans
1071
 33554432
  0
STYLE
  5
300
330
3
100
AcDbSymbolTableRecord
100
AcDbTextStyleTableRecord
  2
ONSHAPE-STANDARD-TABLE-HEA
 70
     0
 40
0.0
 41
1.0
 50
0.0
 71
     0
 42
0.12
  3
NotoSans-Bold.ttf
  4

1001
ACAD
1000
Noto Sans
1071
 33554432
  0
STYLE
  5
301
330
3
100
AcDbSymbolTableRecord
100
AcDbTextStyleTableRecord
  2
ONSHAPE-STANDARD-BOMTABLE-
 70
     0
 40
0.0
 41
1.0
 50
0.0
 71
     0
 42
0.12
  3
NotoSans-Regular.ttf
  4

1001
ACAD
1000
Noto Sans
1071
        0
  0
STYLE
  5
302
330
3
100
AcDbSymbolTableRecord
100
AcDbTextStyleTableRecord
  2
ONSHAPE-STANDARD-BOMTABLE0
 70
     0
 40
0.0
 41
1.0
 50
0.0
 71
     0
 42
0.12
  3
NotoSans-Bold.ttf
  4

1001
ACAD
1000
Noto Sans
1071
 33554432
  0
STYLE
  5
303
330
3
100
AcDbSymbolTableRecord
100
AcDbTextStyleTableRecord
  2
ONSHAPE-STANDARD-BOMTABLE1
 70
     0
 40
0.0
 41
1.0
 50
0.0
 71
     0
 42
0.12
  3
NotoSans-Bold.ttf
  4

1001
ACAD
1000
Noto Sans
1071
 33554432
  0
STYLE
  5
304
330
3
100
AcDbSymbolTableRecord
100
AcDbTextStyleTableRecord
  2
ONSHAPE-STANDARD-NOTESTYLE
 70
     0
 40
0.12
 41
1.0
 50
0.0
 71
     0
 42
0.12
  3
Noto Sans
  4

1001
ACAD
1000
Noto Sans
1071
        0
  0
STYLE
  5
305
330
3
100
AcDbSymbolTableRecord
100
AcDbTextStyleTableRecord
  2
ONSHAPE-STANDARD-DATUM-DIM
 70
     0
 40
0.12
 41
1.0
 50
0.0
 71
     0
 42
0.12
  3
Noto Sans
  4

1001
ACAD
1000
Noto Sans
1071
        0
  0
STYLE
  5
307
330
3
100
AcDbSymbolTableRecord
100
AcDbTextStyleTableRecord
  2
ONSHAPE-DETAIL-VIEW-LEADER
 70
     0
 40
0.12
 41
1.0
 50
0.0
 71
     0
 42
0.12
  3
Noto Sans
  4

1001
ACAD
1000
Noto Sans
1071
        0
  0
STYLE
  5
308
330
3
100
AcDbSymbolTableRecord
100
AcDbTextStyleTableRecord
  2
ONSHAPE-STANDARD-HOLETABLE
 70
     0
 40
0.0
 41
1.0
 50
0.0
 71
     0
 42
0.12
  3
NotoSans-Regular.ttf
  4

1001
ACAD
1000
Noto Sans
1071
        0
  0
STYLE
  5
309
330
3
100
AcDbSymbolTableRecord
100
AcDbTextStyleTableRecord
  2
ONSHAPE-STANDARD-HOLETABL0
 70
     0
 40
0.0
 41
1.0
 50
0.0
 71
     0
 42
0.12
  3
NotoSans-Bold.ttf
  4

1001
ACAD
1000
Noto Sans
1071
 33554432
  0
STYLE
  5
30A
330
3
100
AcDbSymbolTableRecord
100
AcDbTextStyleTableRecord
  2
ONSHAPE-STANDARD-HOLETABL1
 70
     0
 40
0.0
 41
1.0
 50
0.0
 71
     0
 42
0.12
  3
NotoSans-Bold.ttf
  4

1001
ACAD
1000
Noto Sans
1071
 33554432
  0
STYLE
  5
30B
330
3
100
AcDbSymbolTableRecord
100
AcDbTextStyleTableRecord
  2
ONSHAPE-STANDARD-HOLE-TAG
 70
     0
 40
0.12
 41
1.0
 50
0.0
 71
     0
 42
0.12
  3
Noto Sans
  4

1001
ACAD
1000
Noto Sans
1071
        0
  0
STYLE
  5
30C
330
3
100
AcDbSymbolTableRecord
100
AcDbTextStyleTableRecord
  2
ONSHAPE-STANDARD-REVISIONT
 70
     0
 40
0.0
 41
1.0
 50
0.0
 71
     0
 42
0.12
  3
NotoSans-Regular.ttf
  4

1001
ACAD
1000
Noto Sans
1071
        0
  0
STYLE
  5
30D
330
3
100
AcDbSymbolTableRecord
100
AcDbTextStyleTableRecord
  2
ONSHAPE-STANDARD-REVISION0
 70
     0
 40
0.0
 41
1.0
 50
0.0
 71
     0
 42
0.12
  3
NotoSans-Bold.ttf
  4

1001
ACAD
1000
Noto Sans
1071
 33554432
  0
STYLE
  5
30E
330
3
100
AcDbSymbolTableRecord
100
AcDbTextStyleTableRecord
  2
ONSHAPE-STANDARD-REVISION1
 70
     0
 40
0.0
 41
1.0
 50
0.0
 71
     0
 42
0.12
  3
NotoSans-Bold.ttf
  4

1001
ACAD
1000
Noto Sans
1071
 33554432
  0
STYLE
  5
30F
330
3
100
AcDbSymbolTableRecord
100
AcDbTextStyleTableRecord
  2
ONSHAPE-STANDARD-REVISION-
 70
     0
 40
0.12
 41
1.0
 50
0.0
 71
     0
 42
0.12
  3
Noto Sans
  4

1001
ACAD
1000
Noto Sans
1071
        0
  0
STYLE
  5
310
330
3
100
AcDbSymbolTableRecord
100
AcDbTextStyleTableRecord
  2
ONSHAPE-STANDARD-CUTLISTTA
 70
     0
 40
0.0
 41
1.0
 50
0.0
 71
     0
 42
0.12
  3
NotoSans-Regular.ttf
  4

1001
ACAD
1000
Noto Sans
1071
        0
  0
STYLE
  5
311
330
3
100
AcDbSymbolTableRecord
100
AcDbTextStyleTableRecord
  2
ONSHAPE-STANDARD-CUTLISTT0
 70
     0
 40
0.0
 41
1.0
 50
0.0
 71
     0
 42
0.12
  3
NotoSans-Bold.ttf
  4

1001
ACAD
1000
Noto Sans
1071
 33554432
  0
STYLE
  5
312
330
3
100
AcDbSymbolTableRecord
100
AcDbTextStyleTableRecord
  2
ONSHAPE-STANDARD-CUTLISTT1
 70
     0
 40
0.0
 41
1.0
 50
0.0
 71
     0
 42
0.12
  3
NotoSans-Bold.ttf
  4

1001
ACAD
1000
Noto Sans
1071
 33554432
  0
STYLE
  5
313
330
3
100
AcDbSymbolTableRecord
100
AcDbTextStyleTableRecord
  2
ONSHAPE-STANDARD-CUSTOMTAB
 70
     0
 40
0.0
 41
1.0
 50
0.0
 71
     0
 42
0.12
  3
NotoSans-Regular.ttf
  4

1001
ACAD
1000
Noto Sans
1071
        0
  0
STYLE
  5
314
330
3
100
AcDbSymbolTableRecord
100
AcDbTextStyleTableRecord
  2
ONSHAPE-STANDARD-CUSTOMTA0
 70
     0
 40
0.0
 41
1.0
 50
0.0
 71
     0
 42
0.12
  3
NotoSans-Bold.ttf
  4

1001
ACAD
1000
Noto Sans
1071
 33554432
  0
STYLE
  5
315
330
3
100
AcDbSymbolTableRecord
100
AcDbTextStyleTableRecord
  2
ONSHAPE-STANDARD-CUSTOMTA1
 70
     0
 40
0.0
 41
1.0
 50
0.0
 71
     0
 42
0.12
  3
NotoSans-Bold.ttf
  4

1001
ACAD
1000
Noto Sans
1071
 33554432
  0
ENDTAB
  0
TABLE
  2
VIEW
  5
6
330
0
100
AcDbSymbolTable
 70
     0
  0
ENDTAB
  0
TABLE
  2
UCS
  5
7
330
0
100
AcDbSymbolTable
 70
     0
  0
ENDTAB
  0
TABLE
  2
APPID
  5
9
330
0
100
AcDbSymbolTable
 70
     4
  0
APPID
  5
12
330
9
100
AcDbSymbolTableRecord
100
AcDbRegAppTableRecord
  2
ACAD
 70
     0
  0
APPID
  5
1C9
330
9
100
AcDbSymbolTableRecord
100
AcDbRegAppTableRecord
  2
ONSHAPE_NOTES_ANNOTATION_D
 70
     0
  0
APPID
  5
245
330
9
100
AcDbSymbolTableRecord
100
AcDbRegAppTableRecord
  2
ONSHAPE_HOLECALLOUT_TEXT_J
 70
     0
  0
APPID
  5
377
330
9
100
AcDbSymbolTableRecord
100
AcDbRegAppTableRecord
  2
ACAD_MLEADERVER
 70
     0
  0
ENDTAB
  0
TABLE
  2
DIMSTYLE
  5
A
330
0
100
AcDbSymbolTable
 70
    21
  0
DIMSTYLE
105
27
330
A
100
AcDbSymbolTableRecord
100
AcDbDimStyleTableRecord
  2
STANDARD
 70
     0
  3

  4

  5

  6

  7

 40
1.0
 41
0.18
 42
0.0625
 43
0.38
 44
0.18
 45
0.0
 46
0.0
 47
0.0
 48
0.0
140
0.18
141
0.09
142
0.0
143
25.4
144
1.0
145
0.0
146
1.0
147
0.09
 71
     0
 72
     0
 73
     1
 74
     1
 75
     0
 76
     0
 77
     0
 78
     0
170
     0
171
     2
172
     0
173
     0
174
     0
175
     0
176
     0
177
     0
178
     0
270
     2
271
     4
272
     4
273
     2
274
     2
340
11
275
     0
280
     0
281
     0
282
     0
283
     1
284
     0
285
     0
286
     0
287
     3
288
     0
  0
DIMSTYLE
105
71
330
A
100
AcDbSymbolTableRecord
100
AcDbDimStyleTableRecord
  2
ONSHAPE-STANDARD
 70
     0
  3

  4

  5

  6

  7

 40
1.0
 41
0.18
 42
0.0625
 43
0.38
 44
0.08
 45
0.0
 46
0.0
 47
0.0
 48
0.0
140
0.12
141
0.09
142
0.0
143
25.4
144
1.0
145
0.0
146
1.0
147
0.09
 71
     0
 72
     0
 73
     1
 74
     1
 75
     0
 76
     0
 77
     0
 78
     7
170
     0
171
     2
172
     0
173
     0
174
     0
175
     0
176
     7
177
     7
178
     7
179
     1
270
     2
271
     3
272
     3
273
     2
274
     2
340
72
275
     0
280
     0
281
     0
282
     0
283
     1
284
     7
285
     7
286
     0
287
     3
288
     1
  0
DIMSTYLE
105
317
330
A
100
AcDbSymbolTableRecord
100
AcDbDimStyleTableRecord
  2
ANSI
 70
     0
  3

  4
mm
  5

  6

  7

 40
1.0
 41
0.12
 42
0.05
 43
0.5
 44
0.1
 45
0.0
 46
0.0
 47
0.1
 48
0.1
140
0.12
141
0.0
142
0.0
143
25.4
144
1.0
145
0.0
146
0.71
147
0.06
 71
     0
 72
     0
 73
     1
 74
     1
 75
     0
 76
     0
 77
     0
 78
     7
170
     0
171
     2
172
     0
173
     0
174
     0
175
     0
176
     7
177
     7
178
     7
270
     2
271
     3
272
     4
273
     2
274
     2
340
11
275
     0
280
     0
281
     0
282
     0
283
     1
284
     7
285
     7
286
     0
287
     3
288
     1
  0
DIMSTYLE
105
318
330
A
100
AcDbSymbolTableRecord
100
AcDbDimStyleTableRecord
  2
ANSI$3
 70
     0
  3

  4
mm
  5

  6

  7

 40
1.0
 41
0.12
 42
0.05
 43
0.5
 44
0.1
 45
0.0
 46
0.0
 47
0.1
 48
0.1
140
0.12
141
0.0
142
0.0
143
25.4
144
1.0
145
0.0
146
0.71
147
0.06
 71
     0
 72
     0
 73
     1
 74
     1
 75
     0
 76
     0
 77
     0
 78
     7
170
     0
171
     2
172
     0
173
     0
174
     0
175
     0
176
     7
177
     7
178
     7
270
     2
271
     3
272
     4
273
     2
274
     2
340
11
275
     0
280
     0
281
     0
282
     0
283
     1
284
     7
285
     7
286
     0
288
     1
  0
DIMSTYLE
105
319
330
A
100
AcDbSymbolTableRecord
100
AcDbDimStyleTableRecord
  2
ANSI$4
 70
     0
  3

  4
mm
  5

  6

  7

 40
1.0
 41
0.12
 42
0.05
 43
0.5
 44
0.1
 45
0.0
 46
0.0
 47
0.1
 48
0.1
140
0.12
141
0.0
142
0.0
143
25.4
144
1.0
145
0.0
146
0.71
147
0.06
 71
     0
 72
     0
 73
     1
 74
     1
 75
     0
 76
     0
 77
     0
 78
     7
170
     0
171
     2
172
     0
173
     0
174
     0
175
     0
176
     7
177
     7
178
     7
270
     2
271
     3
272
     4
273
     2
274
     2
340
11
275
     0
280
     0
281
     0
282
     0
283
     1
284
     7
285
     7
286
     0
287
     3
288
     1
  0
DIMSTYLE
105
31A
330
A
100
AcDbSymbolTableRecord
100
AcDbDimStyleTableRecord
  2
ANSI$7
 70
     0
  3

  4
mm
  5

  6

  7

 40
1.0
 41
0.12
 42
0.05
 43
0.5
 44
0.1
 45
0.0
 46
0.0
 47
0.1
 48
0.1
140
0.12
141
0.0
142
0.0
143
25.4
144
1.0
145
0.0
146
0.71
147
0.06
 71
     0
 72
     0
 73
     1
 74
     1
 75
     0
 76
     0
 77
     0
 78
     7
170
     0
171
     2
172
     0
173
     0
174
     0
175
     0
176
     7
177
     7
178
     7
270
     2
271
     3
272
     4
273
     2
274
     2
340
11
275
     0
280
     0
281
     0
282
     0
283
     1
284
     7
285
     7
286
     0
287
     3
288
     1
  0
DIMSTYLE
105
31B
330
A
100
AcDbSymbolTableRecord
100
AcDbDimStyleTableRecord
  2
ANSI$SF
 70
     0
  3

  4
mm
  5

  6

  7

 40
1.0
 41
0.12
 42
0.05
 43
0.5
 44
0.1
 45
0.0
 46
0.0
 47
0.1
 48
0.1
140
0.12
141
0.0
142
0.0
143
25.4
144
1.0
145
0.0
146
0.71
147
0.06
 71
     0
 72
     0
 73
     1
 74
     1
 75
     1
 76
     1
 77
     0
 78
     7
170
     0
171
     2
172
     0
173
     0
174
     0
175
     0
176
     7
177
     7
178
     7
270
     2
271
     3
272
     4
273
     2
274
     2
340
11
275
     0
280
     0
281
     0
282
     0
283
     1
284
     7
285
     7
286
     0
287
     3
288
     1
  0
DIMSTYLE
105
31C
330
A
100
AcDbSymbolTableRecord
100
AcDbDimStyleTableRecord
  2
ANSI$SH
 70
     0
  3

  4
mm
  5

  6

  7

 40
1.0
 41
0.12
 42
0.05
 43
0.5
 44
0.1
 45
0.0
 46
0.0
 47
0.1
 48
0.1
140
0.12
141
0.0
142
0.0
143
25.4
144
1.0
145
0.0
146
0.71
147
0.06
 71
     0
 72
     0
 73
     1
 74
     1
 75
     1
 76
     1
 77
     0
 78
     7
170
     0
171
     2
172
     0
173
     1
174
     0
175
     0
176
     7
177
     7
178
     7
270
     2
271
     3
272
     4
273
     2
274
     2
340
11
275
     0
280
     0
281
     0
282
     0
283
     1
284
     7
285
     7
286
     0
287
     3
288
     1
  0
DIMSTYLE
105
31F
330
A
100
AcDbSymbolTableRecord
100
AcDbDimStyleTableRecord
  2
ONSHAPE-STANDARD$0
 70
     0
  3

  4

  5

  6

  7

 40
1.0
 41
0.18
 42
0.0625
 43
0.38
 44
0.08
 45
0.0
 46
0.0
 47
0.0
 48
0.0
140
0.12
141
0.09
142
0.0
143
25.4
144
1.0
145
0.0
146
1.0
147
0.09
 71
     0
 72
     0
 73
     1
 74
     1
 75
     0
 76
     0
 77
     0
 78
     7
170
     0
171
     2
172
     0
173
     0
174
     0
175
     0
176
     7
177
     7
178
     7
179
     1
270
     2
271
     3
272
     3
273
     2
274
     2
340
72
275
     0
280
     0
281
     0
282
     0
283
     1
284
     7
285
     7
286
     0
287
     3
288
     1
  0
DIMSTYLE
105
320
330
A
100
AcDbSymbolTableRecord
100
AcDbDimStyleTableRecord
  2
ONSHAPE-STANDARD$2
 70
     0
  3

  4

  5

  6

  7

 40
1.0
 41
0.18
 42
0.0625
 43
0.38
 44
0.08
 45
0.0
 46
0.0
 47
0.0
 48
0.0
140
0.12
141
0.09
142
0.0
143
25.4
144
1.0
145
0.0
146
1.0
147
0.09
 71
     0
 72
     0
 73
     1
 74
     1
 75
     0
 76
     0
 77
     0
 78
     7
170
     0
171
     2
172
     0
173
     0
174
     0
175
     0
176
     7
177
     7
178
     7
179
     1
270
     2
271
     3
272
     3
273
     2
274
     2
340
72
275
     0
280
     0
281
     0
282
     0
283
     1
284
     7
285
     7
286
     0
287
     3
288
     1
  0
DIMSTYLE
105
321
330
A
100
AcDbSymbolTableRecord
100
AcDbDimStyleTableRecord
  2
ONSHAPE-STANDARD$3
 70
     0
  3

  4

  5

  6

  7

 40
1.0
 41
0.18
 42
0.0625
 43
0.38
 44
0.08
 45
0.0
 46
0.0
 47
0.0
 48
0.0
140
0.12
141
0.0
142
0.0
143
25.4
144
1.0
145
0.0
146
1.0
147
0.09
 71
     0
 72
     0
 73
     1
 74
     1
 75
     0
 76
     0
 77
     0
 78
     7
170
     0
171
     2
172
     0
173
     0
174
     0
175
     0
176
     7
177
     7
178
     7
179
     1
270
     2
271
     3
272
     3
273
     2
274
     2
340
72
275
     0
280
     0
281
     0
282
     0
283
     1
284
     7
285
     7
286
     0
287
     3
288
     1
  0
DIMSTYLE
105
322
330
A
100
AcDbSymbolTableRecord
100
AcDbDimStyleTableRecord
  2
ONSHAPE-STANDARD$4
 70
     0
  3

  4

  5

  6

  7

 40
1.0
 41
0.18
 42
0.0625
 43
0.38
 44
0.08
 45
0.0
 46
0.0
 47
0.0
 48
0.0
140
0.12
141
0.0
142
0.0
143
25.4
144
1.0
145
0.0
146
1.0
147
0.09
 71
     0
 72
     0
 73
     1
 74
     1
 75
     0
 76
     0
 77
     0
 78
     7
170
     0
171
     2
172
     0
173
     0
174
     0
175
     0
176
     7
177
     7
178
     7
179
     1
270
     2
271
     3
272
     3
273
     2
274
     2
340
72
275
     0
280
     0
281
     0
282
     0
283
     1
284
     7
285
     7
286
     0
287
     3
288
     1
  0
DIMSTYLE
105
323
330
A
100
AcDbSymbolTableRecord
100
AcDbDimStyleTableRecord
  2
ONSHAPE-STANDARD$6
 70
     0
  3

  4

  5

  6

  7

 40
1.0
 41
0.02
 42
0.0625
 43
0.38
 44
0.08
 45
0.0
 46
0.0
 47
0.0
 48
0.0
140
0.12
141
0.09
142
0.0
143
25.4
144
1.0
145
0.0
146
1.0
147
0.09
 71
     0
 72
     0
 73
     1
 74
     1
 75
     0
 76
     0
 77
     0
 78
     7
170
     0
171
     2
172
     0
173
     0
174
     0
175
     0
176
     7
177
     7
178
     7
179
     1
270
     2
271
     3
272
     3
273
     2
274
     2
340
72
275
     0
280
     0
281
     0
282
     0
283
     1
284
     7
285
     7
286
     0
287
     3
288
     1
  0
DIMSTYLE
105
324
330
A
100
AcDbSymbolTableRecord
100
AcDbDimStyleTableRecord
  2
ONSHAPE-STANDARD$7
 70
     0
  3

  4

  5

  6

  7

 40
1.0
 41
0.18
 42
0.0625
 43
0.38
 44
0.08
 45
0.0
 46
0.0
 47
0.0
 48
0.0
140
0.12
141
0.09
142
0.0
143
25.4
144
1.0
145
0.0
146
1.0
147
0.09
 71
     0
 72
     0
 73
     1
 74
     1
 75
     0
 76
     0
 77
     0
 78
     7
170
     0
171
     2
172
     0
173
     0
174
     0
175
     0
176
     7
177
     7
178
     7
179
     1
270
     2
271
     3
272
     3
273
     2
274
     2
340
72
275
     0
280
     0
281
     0
282
     0
283
     1
284
     7
285
     7
286
     0
287
     3
288
     1
  0
DIMSTYLE
105
325
330
A
100
AcDbSymbolTableRecord
100
AcDbDimStyleTableRecord
  2
ONSHAPE-STANDARD-GTOLERANC
 70
     0
  3

  4

  5

  6

  7

 40
1.0
 41
0.18
 42
0.0625
 43
0.38
 44
0.08
 45
0.0
 46
0.0
 47
0.0
 48
0.0
140
0.12
141
0.09
142
0.0
143
25.4
144
1.0
145
0.0
146
1.0
147
0.09
 71
     0
 72
     0
 73
     1
 74
     1
 75
     0
 76
     0
 77
     0
 78
     7
170
     0
171
     2
172
     0
173
     0
174
     0
175
     0
176
     7
177
     7
178
     7
179
     1
270
     2
271
     3
272
     3
273
     2
274
     2
340
2FD
275
     0
280
     0
281
     0
282
     0
283
     1
284
     7
285
     7
286
     0
287
     3
288
     1
  0
DIMSTYLE
105
327
330
A
100
AcDbSymbolTableRecord
100
AcDbDimStyleTableRecord
  2
ONSHAPE-ORDINATESTYLE
 70
     0
  3

  4

  5

  6

  7

 40
1.0
 41
0.02
 42
0.0625
 43
0.38
 44
0.08
 45
0.0
 46
0.0
 47
0.0
 48
0.0
140
0.12
141
0.09
142
0.0
143
25.4
144
1.0
145
0.0
146
1.0
147
0.09
 71
     0
 72
     0
 73
     1
 74
     1
 75
     0
 76
     0
 77
     0
 78
     7
170
     0
171
     2
172
     0
173
     0
174
     0
175
     0
176
     7
177
     7
178
     7
179
     1
270
     2
271
     3
272
     3
273
     2
274
     2
340
72
275
     0
280
     0
281
     0
282
     0
283
     1
284
     7
285
     7
286
     0
287
     3
288
     1
  0
DIMSTYLE
105
328
330
A
100
AcDbSymbolTableRecord
100
AcDbDimStyleTableRecord
  2
ONSHAPE-CHAMFERDIMSTYLE
 70
     0
  3

  4

  5

  6

  7

 40
1.0
 41
0.18
 42
0.0625
 43
0.38
 44
0.08
 45
0.0
 46
0.0
 47
0.0
 48
0.0
140
0.12
141
0.09
142
0.0
143
25.4
144
1.0
145
0.0
146
1.0
147
0.09
 71
     0
 72
     0
 73
     1
 74
     1
 75
     0
 76
     0
 77
     0
 78
     7
170
     0
171
     2
172
     0
173
     0
174
     0
175
     0
176
     7
177
     7
178
     7
179
     1
270
     2
271
     3
272
     3
273
     2
274
     2
340
72
275
     0
280
     0
281
     0
282
     0
283
     1
284
     7
285
     7
286
     0
287
     3
288
     1
  0
DIMSTYLE
105
329
330
A
100
AcDbSymbolTableRecord
100
AcDbDimStyleTableRecord
  2
ONSHAPE-SKETCHDRIVENDIMSTY
 70
     0
  3

  4

  5

  6

  7

 40
1.0
 41
0.18
 42
0.0625
 43
0.38
 44
0.08
 45
0.0
 46
0.0
 47
0.0
 48
0.0
140
0.12
141
0.09
142
0.0
143
25.4
144
1.0
145
0.0
146
1.0
147
0.09
 71
     0
 72
     0
 73
     1
 74
     1
 75
     0
 76
     0
 77
     0
 78
     7
170
     0
171
     2
172
     0
173
     0
174
     0
175
     0
176
   251
177
   251
178
   251
179
     1
270
     2
271
     3
272
     3
273
     2
274
     2
340
72
275
     0
280
     0
281
     0
282
     0
283
     1
284
     7
285
     7
286
     0
287
     3
288
     1
  0
DIMSTYLE
105
32A
330
A
100
AcDbSymbolTableRecord
100
AcDbDimStyleTableRecord
  2
ONSHAPE-SKETCHDRIVENDIMST0
 70
     0
  3

  4

  5

  6

  7

 40
1.0
 41
0.18
 42
0.0625
 43
0.38
 44
0.08
 45
0.0
 46
0.0
 47
0.0
 48
0.0
140
0.12
141
0.09
142
0.0
143
25.4
144
1.0
145
0.0
146
1.0
147
0.09
 71
     0
 72
     0
 73
     1
 74
     1
 75
     0
 76
     0
 77
     0
 78
     7
170
     0
171
     2
172
     0
173
     0
174
     0
175
     0
176
   251
177
   251
178
   251
179
     1
270
     2
271
     3
272
     3
273
     2
274
     2
340
72
275
     0
280
     0
281
     0
282
     0
283
     1
284
     7
285
     7
286
     0
287
     3
288
     1
  0
DIMSTYLE
105
32B
330
A
100
AcDbSymbolTableRecord
100
AcDbDimStyleTableRecord
  2
ONSHAPE-SKETCHDRIVENDIMST1
 70
     0
  3

  4

  5

  6

  7

 40
1.0
 41
0.18
 42
0.0625
 43
0.38
 44
0.08
 45
0.0
 46
0.0
 47
0.0
 48
0.0
140
0.12
141
0.0
142
0.0
143
25.4
144
1.0
145
0.0
146
1.0
147
0.09
 71
     0
 72
     0
 73
     1
 74
     1
 75
     0
 76
     0
 77
     0
 78
     7
170
     0
171
     2
172
     0
173
     0
174
     0
175
     0
176
   251
177
   251
178
   251
179
     1
270
     2
271
     3
272
     3
273
     2
274
     2
340
72
275
     0
280
     0
281
     0
282
     0
283
     1
284
     7
285
     7
286
     0
287
     3
288
     1
  0
DIMSTYLE
105
32C
330
A
100
AcDbSymbolTableRecord
100
AcDbDimStyleTableRecord
  2
ONSHAPE-SKETCHDRIVENDIMST2
 70
     0
  3

  4

  5

  6

  7

 40
1.0
 41
0.18
 42
0.0625
 43
0.38
 44
0.08
 45
0.0
 46
0.0
 47
0.0
 48
0.0
140
0.12
141
0.0
142
0.0
143
25.4
144
1.0
145
0.0
146
1.0
147
0.09
 71
     0
 72
     0
 73
     1
 74
     1
 75
     0
 76
     0
 77
     0
 78
     7
170
     0
171
     2
172
     0
173
     0
174
     0
175
     0
176
   251
177
   251
178
   251
179
     1
270
     2
271
     3
272
     3
273
     2
274
     2
340
72
275
     0
280
     0
281
     0
282
     0
283
     1
284
     7
285
     7
286
     0
287
     3
288
     1
  0
ENDTAB
  0
TABLE
  2
BLOCK_RECORD
  5
1
330
0
100
AcDbSymbolTable
 70
     4
  0
BLOCK_RECORD
  5
1F
330
1
100
AcDbSymbolTableRecord
100
AcDbBlockTableRecord
  2
*MODEL_SPACE
  0
BLOCK_RECORD
  5
1B
330
1
100
AcDbSymbolTableRecord
100
AcDbBlockTableRecord
  2
*PAPER_SPACE
  0
BLOCK_RECORD
  5
233
330
1
100
AcDbSymbolTableRecord
100
AcDbBlockTableRecord
  2
*U1
1001
ONSHAPE_HOLECALLOUT_TEXT_J
1070
     5
  0
BLOCK_RECORD
  5
251
330
1
100
AcDbSymbolTableRecord
100
AcDbBlockTableRecord
  2
*U2
1001
ONSHAPE_HOLECALLOUT_TEXT_J
1070
     5
  0
BLOCK_RECORD
  5
26D
330
1
100
AcDbSymbolTableRecord
100
AcDbBlockTableRecord
  2
*U3
1001
ONSHAPE_HOLECALLOUT_TEXT_J
1070
     5
  0
BLOCK_RECORD
  5
2D2
330
1
100
AcDbSymbolTableRecord
100
AcDbBlockTableRecord
  2
*U4
1001
ONSHAPE_HOLECALLOUT_TEXT_J
1070
     5
  0
ENDTAB
  0
ENDSEC
  0
SECTION
  2
BLOCKS
  0
BLOCK
  5
20
330
1F
100
AcDbEntity
  8
0
100
AcDbBlockBegin
  2
*MODEL_SPACE
 70
     0
 10
0.0
 20
0.0
 30
0.0
  3
*MODEL_SPACE
  1

  0
ENDBLK
  5
21
330
1F
100
AcDbEntity
  8
0
100
AcDbBlockEnd
  0
BLOCK
  5
1C
330
1B
100
AcDbEntity
 67
     1
  8
0
100
AcDbBlockBegin
  2
*PAPER_SPACE
 70
     0
 10
0.0
 20
0.0
 30
0.0
  3
*PAPER_SPACE
  1

  0
ENDBLK
  5
1D
330
1B
100
AcDbEntity
 67
     1
  8
0
100
AcDbBlockEnd
  0
BLOCK
  5
237
330
233
100
AcDbEntity
  8
0
100
AcDbBlockBegin
  2
*U1
 70
     3
 10
1.360562794154075
 20
-0.1682319048798613
 30
0.0
  3
*U1
  1

  0
MTEXT
  5
23F
330
233
100
AcDbEntity
  8
ANNOTATION_TEXT
 62
     0
100
AcDbMText
 10
0.1734285360416152
 20
-0.1300544959128065
 30
0.0
 40
0.12
 41
0.0
 71
     7
 72
     1
  1
%%c.257
  7
ONSHAPE-STANDARD-HOLE-CALL
  0
MTEXT
  5
241
330
233
100
AcDbEntity
  8
ANNOTATION_TEXT
 62
     0
100
AcDbMText
 10
0.6251451572950211
 20
-0.1265395095367847
 30
0.0
 40
0.12
 41
0.0
 71
     7
 72
     1
  1
 THRU
  7
ONSHAPE-STANDARD-HOLE-CALL
  0
MTEXT
  5
242
330
233
100
AcDbEntity
  8
ANNOTATION_TEXT
 62
     0
100
AcDbMText
 10
0.0
 20
-0.3364638097597226
 30
0.0
 40
0.12
 41
0.0
 71
     7
 72
     1
  1
{\fDrawing Symbols Sans|c0;\U+2334}%%c.400
  7
ONSHAPE-STANDARD-HOLE-CALL
  0
MTEXT
  5
243
330
233
100
AcDbEntity
  8
ANNOTATION_TEXT
 62
     0
100
AcDbMText
 10
0.7347156799603667
 20
-0.3364638097597226
 30
0.0
 40
0.12
 41
0.0
 71
     7
 72
     1
  1
 {\fDrawing Symbols Sans|c0;\U+21A7}.300
  7
ONSHAPE-STANDARD-HOLE-CALL
  0
ENDBLK
  5
244
330
233
100
AcDbEntity
  8
0
100
AcDbBlockEnd
  0
BLOCK
  5
255
330
251
100
AcDbEntity
  8
0
100
AcDbBlockBegin
  2
*U2
 70
     3
 10
1.013705722070845
 20
-0.0650272479564033
 30
0.0
  3
*U2
  1

  0
MTEXT
  5
25D
330
251
100
AcDbEntity
  8
ANNOTATION_TEXT
 62
     0
100
AcDbMText
 10
0.0
 20
-0.1300544959128065
 30
0.0
 40
0.12
 41
0.0
 71
     7
 72
     1
  1
%%c.257
  7
ONSHAPE-STANDARD-HOLE-CALL
  0
MTEXT
  5
25F
330
251
100
AcDbEntity
  8
ANNOTATION_TEXT
 62
     0
100
AcDbMText
 10
0.4517166212534059
 20
-0.1265395095367847
 30
0.0
 40
0.12
 41
0.0
 71
     7
 72
     1
  1
 THRU
  7
ONSHAPE-STANDARD-HOLE-CALL
  0
ENDBLK
  5
260
330
251
100
AcDbEntity
  8
0
100
AcDbBlockEnd
  0
BLOCK
  5
271
330
26D
100
AcDbEntity
  8
0
100
AcDbBlockBegin
  2
*U3
 70
     3
 10
-0.09
 20
-0.1682319048798613
 30
0.0
  3
*U3
  1

  0
MTEXT
  5
279
330
26D
100
AcDbEntity
  8
ANNOTATION_TEXT
 62
     0
100
AcDbMText
 10
0.1734285360416151
 20
-0.1300544959128065
 30
0.0
 40
0.12
 41
0.0
 71
     7
 72
     1
  1
%%c.173
  7
ONSHAPE-STANDARD-HOLE-CALL
  0
MTEXT
  5
27B
330
26D
100
AcDbEntity
  8
ANNOTATION_TEXT
 62
     0
100
AcDbMText
 10
0.6251451572950211
 20
-0.1265395095367847
 30
0.0
 40
0.12
 41
0.0
 71
     7
 72
     1
  1
 THRU
  7
ONSHAPE-STANDARD-HOLE-CALL
  0
MTEXT
  5
27C
330
26D
100
AcDbEntity
  8
ANNOTATION_TEXT
 62
     0
100
AcDbMText
 10
0.0
 20
-0.3364638097597226
 30
0.0
 40
0.12
 41
0.0
 71
     7
 72
     1
  1
{\fDrawing Symbols Sans|c0;\U+2334}%%c.500
  7
ONSHAPE-STANDARD-HOLE-CALL
  0
MTEXT
  5
27D
330
26D
100
AcDbEntity
  8
ANNOTATION_TEXT
 62
     0
100
AcDbMText
 10
0.7347156799603667
 20
-0.3364638097597226
 30
0.0
 40
0.12
 41
0.0
 71
     7
 72
     1
  1
 {\fDrawing Symbols Sans|c0;\U+21A7}.400
  7
ONSHAPE-STANDARD-HOLE-CALL
  0
ENDBLK
  5
27E
330
26D
100
AcDbEntity
  8
0
100
AcDbBlockEnd
  0
BLOCK
  5
2D6
330
2D2
100
AcDbEntity
  8
0
100
AcDbBlockBegin
  2
*U4
 70
     3
 10
1.311187713648749
 20
-0.1664744116918504
 30
0.0
  3
*U4
  1

  0
MTEXT
  5
2DE
330
2D2
100
AcDbEntity
  8
ANNOTATION_TEXT
 62
     0
100
AcDbMText
 10
0.0
 20
-0.1249046321525885
 30
0.0
 40
0.12
 41
0.0
 71
     7
 72
     1
  1
4x 
  7
ONSHAPE-STANDARD-HOLE-CALL
  0
MTEXT
  5
2E0
330
2D2
100
AcDbEntity
  8
ANNOTATION_TEXT
 62
     0
100
AcDbMText
 10
0.234441416893733
 20
-0.1300544959128065
 30
0.0
 40
0.12
 41
0.0
 71
     7
 72
     1
  1
%%c.089
  7
ONSHAPE-STANDARD-HOLE-CALL
  0
MTEXT
  5
2E1
330
2D2
100
AcDbEntity
  8
ANNOTATION_TEXT
 62
     0
100
AcDbMText
 10
0.6861580381471389
 20
-0.131559177607134
 30
0.0
 40
0.12
 41
0.0
 71
     7
 72
     1
  1
 {\fDrawing Symbols Sans|c0;\U+21A7}.787
  7
ONSHAPE-STANDARD-HOLE-CALL
  0
MTEXT
  5
2E2
330
2D2
100
AcDbEntity
  8
ANNOTATION_TEXT
 62
     0
100
AcDbMText
 10
0.100299727520436
 20
-0.3279291553133514
 30
0.0
 40
0.12
 41
0.0
 71
     7
 72
     1
  1
#4\U+221240
  7
ONSHAPE-STANDARD-HOLE-CALL
  0
MTEXT
  5
2E3
330
2D2
100
AcDbEntity
  8
ANNOTATION_TEXT
 62
     0
100
AcDbMText
 10
0.5863487738419619
 20
-0.3329488233837007
 30
0.0
 40
0.12
 41
0.0
 71
     7
 72
     1
  1
 {\fDrawing Symbols Sans|c0;\U+21A7}.472
  7
ONSHAPE-STANDARD-HOLE-CALL
  0
ENDBLK
  5
2E4
330
2D2
100
AcDbEntity
  8
0
100
AcDbBlockEnd
  0
ENDSEC
  0
SECTION
  2
ENTITIES
  0
LINE
  5
75
330
1F
100
AcDbEntity
  8
VISIBLE
100
AcDbLine
 10
4.045044645266304
 20
7.008795760758646
 30
0.0
 11
4.045044645266304
 21
6.883795760758646
 31
0.0
  0
LINE
  5
76
330
1F
100
AcDbEntity
  8
VISIBLE
100
AcDbLine
 10
1.295044645266304
 20
6.883795760758646
 30
0.0
 11
1.295044645266304
 21
6.258795760758646
 31
0.0
  0
LINE
  5
77
330
1F
100
AcDbEntity
  8
VISIBLE
100
AcDbLine
 10
4.045044645266304
 20
7.008795760758646
 30
0.0
 11
1.945044645266304
 21
7.008795760758646
 31
0.0
  0
LINE
  5
78
330
1F
100
AcDbEntity
  8
VISIBLE
100
AcDbLine
 10
4.295044645266304
 20
6.883795760758646
 30
0.0
 11
4.295044645266304
 21
6.258795760758646
 31
0.0
  0
LINE
  5
79
330
1F
100
AcDbEntity
  8
VISIBLE
100
AcDbLine
 10
4.295044645266304
 20
6.883795760758646
 30
0.0
 11
1.295044645266304
 21
6.883795760758646
 31
0.0
  0
LINE
  5
7A
330
1F
100
AcDbEntity
  8
VISIBLE
100
AcDbLine
 10
4.295044645266304
 20
6.258795760758646
 30
0.0
 11
1.295044645266304
 21
6.258795760758646
 31
0.0
  0
LINE
  5
7B
330
1F
100
AcDbEntity
  8
VISIBLE
100
AcDbLine
 10
1.945044645266304
 20
7.008795760758646
 30
0.0
 11
1.945044645266304
 21
6.883795760758646
 31
0.0
  0
CIRCLE
  5
7E
330
1F
100
AcDbEntity
  8
VISIBLE
100
AcDbCircle
 10
3.991862948035145
 20
3.95079253439135
 30
0.0
 40
0.04325
  0
CIRCLE
  5
7F
330
1F
100
AcDbEntity
  8
VISIBLE
100
AcDbCircle
 10
3.991862948035145
 20
4.55079253439135
 30
0.0
 40
0.04325
  0
CIRCLE
  5
80
330
1F
100
AcDbEntity
  8
VISIBLE
100
AcDbCircle
 10
2.191862948035145
 20
3.950792534391348
 30
0.0
 40
0.04325
  0
CIRCLE
  5
81
330
1F
100
AcDbEntity
  8
VISIBLE
100
AcDbCircle
 10
2.191862948035145
 20
4.55079253439135
 30
0.0
 40
0.04325
  0
CIRCLE
  5
82
330
1F
100
AcDbEntity
  8
VISIBLE
100
AcDbCircle
 10
4.189953716422155
 20
3.75079253439135
 30
0.0
 40
0.1000000000000002
  0
CIRCLE
  5
83
330
1F
100
AcDbEntity
  8
VISIBLE
100
AcDbCircle
 10
4.189953716422155
 20
4.75079253439135
 30
0.0
 40
0.1000000000000002
  0
CIRCLE
  5
84
330
1F
100
AcDbEntity
  8
VISIBLE
100
AcDbCircle
 10
4.189953716422155
 20
4.75079253439135
 30
0.0
 40
0.06425
  0
CIRCLE
  5
85
330
1F
100
AcDbEntity
  8
VISIBLE
100
AcDbCircle
 10
4.189953716422155
 20
3.75079253439135
 30
0.0
 40
0.06425
  0
CIRCLE
  5
86
330
1F
100
AcDbEntity
  8
VISIBLE
100
AcDbCircle
 10
1.689953716422155
 20
4.25079253439135
 30
0.0
 40
0.06425
  0
LINE
  5
87
330
1F
100
AcDbEntity
  8
VISIBLE
100
AcDbLine
 10
1.991224456583748
 20
4.75079253439135
 30
0.0
 11
1.991224456583748
 21
3.75079253439135
 31
0.0
  0
LINE
  5
88
330
1F
100
AcDbEntity
  8
VISIBLE
100
AcDbLine
 10
4.341862948035145
 20
4.90079253439135
 30
0.0
 11
1.341862948035145
 21
4.90079253439135
 31
0.0
  0
LINE
  5
89
330
1F
100
AcDbEntity
  8
VISIBLE
100
AcDbLine
 10
1.341862948035145
 20
3.60079253439135
 30
0.0
 11
1.341862948035145
 21
4.90079253439135
 31
0.0
  0
LINE
  5
8A
330
1F
100
AcDbEntity
  8
VISIBLE
100
AcDbLine
 10
1.941224456583748
 20
3.70079253439135
 30
0.0
 11
1.491862948035145
 21
3.70079253439135
 31
0.0
  0
LINE
  5
8B
330
1F
100
AcDbEntity
  8
VISIBLE
100
AcDbLine
 10
4.341862948035145
 20
4.90079253439135
 30
0.0
 11
4.341862948035145
 21
3.60079253439135
 31
0.0
  0
LINE
  5
8C
330
1F
100
AcDbEntity
  8
VISIBLE
100
AcDbLine
 10
4.091862948035145
 20
4.65079253439135
 30
0.0
 11
1.991862948035145
 21
4.65079253439135
 31
0.0
  0
LINE
  5
8D
330
1F
100
AcDbEntity
  8
VISIBLE
100
AcDbLine
 10
1.941224456583748
 20
4.80079253439135
 30
0.0
 11
1.491862948035144
 21
4.80079253439135
 31
0.0
  0
LINE
  5
8E
330
1F
100
AcDbEntity
  8
VISIBLE
100
AcDbLine
 10
4.091862948035145
 20
4.65079253439135
 30
0.0
 11
4.091862948035145
 21
3.85079253439135
 31
0.0
  0
LINE
  5
8F
330
1F
100
AcDbEntity
  8
VISIBLE
100
AcDbLine
 10
1.441862948035144
 20
4.75079253439135
 30
0.0
 11
1.441862948035145
 21
3.75079253439135
 31
0.0
  0
LINE
  5
90
330
1F
100
AcDbEntity
  8
VISIBLE
100
AcDbLine
 10
4.091862948035145
 20
3.85079253439135
 30
0.0
 11
1.991862948035145
 21
3.85079253439135
 31
0.0
  0
LINE
  5
91
330
1F
100
AcDbEntity
  8
VISIBLE
100
AcDbLine
 10
1.991862948035145
 20
4.65079253439135
 30
0.0
 11
1.991862948035145
 21
3.85079253439135
 31
0.0
  0
LINE
  5
92
330
1F
100
AcDbEntity
  8
VISIBLE
100
AcDbLine
 10
4.341862948035145
 20
3.60079253439135
 30
0.0
 11
1.341862948035145
 21
3.60079253439135
 31
0.0
  0
ARC
  5
93
330
1F
100
AcDbEntity
  8
VISIBLE
100
AcDbCircle
 10
1.491862948035144
 20
4.75079253439135
 30
0.0
 40
0.05
100
AcDbArc
 50
90.0
 51
180.0
  0
ARC
  5
94
330
1F
100
AcDbEntity
  8
VISIBLE
100
AcDbCircle
 10
1.941224456583748
 20
4.75079253439135
 30
0.0
 40
0.05
100
AcDbArc
 50
0.0
 51
90.0
  0
ARC
  5
95
330
1F
100
AcDbEntity
  8
VISIBLE
100
AcDbCircle
 10
1.491862948035145
 20
3.75079253439135
 30
0.0
 40
0.05
100
AcDbArc
 50
180.0
 51
270.0
  0
ARC
  5
96
330
1F
100
AcDbEntity
  8
VISIBLE
100
AcDbCircle
 10
1.941224456583748
 20
3.75079253439135
 30
0.0
 40
0.05
100
AcDbArc
 50
270.0
 51
0.0
  0
LINE
  5
9C
330
1F
100
AcDbEntity
  8
VISIBLE
100
AcDbLine
 10
1.676069078454517
 20
2.559427763945304
 30
0.0
 11
1.720263252278676
 21
2.584943282099295
 31
0.0
  0
LINE
  5
9D
330
1F
100
AcDbEntity
  8
TANGENT_LINES
100
AcDbLine
 10
1.743244222667239
 20
2.57167521265922
 30
0.0
 11
1.720263252278676
 21
2.584943282099295
 31
0.0
  0
LINE
  5
9E
330
1F
100
AcDbEntity
  8
TANGENT_LINES
100
AcDbLine
 10
1.831632570315557
 20
2.622706248967203
 30
0.0
 11
1.764457426102835
 21
2.66148983656127
 31
0.0
  0
LINE
  5
9F
330
1F
100
AcDbEntity
  8
TANGENT_LINES
100
AcDbLine
 10
1.83516810422149
 20
2.865613981793202
 30
0.0
 11
1.790973930397331
 21
2.891129499947193
 31
0.0
  0
LINE
  5
A0
330
1F
100
AcDbEntity
  8
VISIBLE
100
AcDbLine
 10
1.441522798330345
 20
2.424012405978188
 30
0.0
 11
1.472775878863384
 21
2.442056380436943
 31
0.0
  0
LINE
  5
A1
330
1F
100
AcDbEntity
  8
VISIBLE
100
AcDbLine
 10
4.063121189579473
 20
1.379917403116859
 30
0.0
 11
3.14388237403696
 21
0.8491946255138367
 31
0.0
  0
LINE
  5
A2
330
1F
100
AcDbEntity
  8
VISIBLE
100
AcDbLine
 10
1.587680730806198
 20
2.477778105852531
 30
0.0
 11
1.587680730806198
 21
2.722727080130849
 31
0.0
  0
LINE
  5
A3
330
1F
100
AcDbEntity
  8
VISIBLE
100
AcDbLine
 10
4.063121189579473
 20
1.890227766196688
 30
0.0
 11
4.063121189579473
 21
1.379917403116859
 31
0.0
  0
LINE
  5
A4
330
1F
100
AcDbEntity
  8
VISIBLE
100
AcDbLine
 10
4.063121189579473
 20
1.890227766196688
 30
0.0
 11
3.14388237403696
 21
1.359504988593666
 31
0.0
  0
LINE
  5
A5
330
1F
100
AcDbEntity
  8
VISIBLE
100
AcDbLine
 10
4.063121189579473
 20
1.890227766196688
 30
0.0
 11
1.941800846019828
 21
3.114972637588277
 31
0.0
  0
LINE
  5
A6
330
1F
100
AcDbEntity
  8
VISIBLE
100
AcDbLine
 10
2.29490275497809
 20
2.829459497307081
 30
0.0
 11
1.977156185079155
 21
3.012910564972311
 31
0.0
  0
LINE
  5
A7
330
1F
100
AcDbEntity
  8
VISIBLE
100
AcDbLine
 10
1.676069078454517
 20
2.532891625065153
 30
0.0
 11
1.676069078454516
 21
2.773758116438832
 31
0.0
  0
LINE
  5
A8
330
1F
100
AcDbEntity
  8
VISIBLE
100
AcDbLine
 10
1.022562030477316
 20
2.584249859985255
 30
0.0
 11
1.022562030477316
 21
2.073939496905426
 31
0.0
  0
LINE
  5
A9
330
1F
100
AcDbEntity
  8
VISIBLE
100
AcDbLine
 10
3.14388237403696
 20
1.665691206441563
 30
0.0
 11
1.658958133545209
 21
2.523012616415675
 31
0.0
  0
LINE
  5
AA
330
1F
100
AcDbEntity
  8
VISIBLE
100
AcDbLine
 10
3.709567798986198
 20
1.890227766196688
 30
0.0
 11
3.14388237403696
 21
1.563629133825597
 31
0.0
  0
LINE
  5
AB
330
1F
100
AcDbEntity
  8
VISIBLE
100
AcDbLine
 10
1.9064455069605
 20
3.012910564972311
 30
0.0
 11
1.199338725773953
 21
2.604662274508448
 31
0.0
  0
LINE
  5
AC
330
1F
100
AcDbEntity
  8
VISIBLE
100
AcDbLine
 10
1.764457426102835
 20
2.66148983656127
 30
0.0
 11
1.764457426102835
 21
2.875820189054798
 31
0.0
  0
LINE
  5
AD
330
1F
100
AcDbEntity
  8
VISIBLE
100
AcDbLine
 10
3.14388237403696
 20
1.359504988593666
 30
0.0
 11
1.022562030477316
 21
2.584249859985255
 31
0.0
  0
LINE
  5
AE
330
1F
100
AcDbEntity
  8
VISIBLE
100
AcDbLine
 10
3.14388237403696
 20
1.665691206441563
 30
0.0
 11
3.14388237403696
 21
1.563629133825597
 31
0.0
  0
LINE
  5
AF
330
1F
100
AcDbEntity
  8
VISIBLE
100
AcDbLine
 10
1.022562030477316
 20
2.584249859985255
 30
0.0
 11
1.941800846019828
 21
3.114972637588277
 31
0.0
  0
LINE
  5
B0
330
1F
100
AcDbEntity
  8
VISIBLE
100
AcDbLine
 10
3.14388237403696
 20
1.563629133825597
 30
0.0
 11
1.658958133545209
 21
2.42095054379971
 31
0.0
  0
LINE
  5
B1
330
1F
100
AcDbEntity
  8
VISIBLE
100
AcDbLine
 10
1.512233476449
 20
2.383187576931802
 30
0.0
 11
1.543486556982039
 21
2.401231551390557
 31
0.0
  0
LINE
  5
B2
330
1F
100
AcDbEntity
  8
VISIBLE
100
AcDbLine
 10
1.720263252278676
 20
2.850304670900806
 30
0.0
 11
1.790973930397331
 21
2.891129499947193
 31
0.0
  0
LINE
  5
B3
330
1F
100
AcDbEntity
  8
VISIBLE
100
AcDbLine
 10
3.14388237403696
 20
1.359504988593666
 30
0.0
 11
3.14388237403696
 21
0.8491946255138367
 31
0.0
  0
LINE
  5
B4
330
1F
100
AcDbEntity
  8
VISIBLE
100
AcDbLine
 10
1.658958133545209
 20
2.523012616415675
 30
0.0
 11
1.658958133545209
 21
2.42095054379971
 31
0.0
  0
LINE
  5
B5
330
1F
100
AcDbEntity
  8
VISIBLE
100
AcDbLine
 10
3.14388237403696
 20
0.8491946255138367
 30
0.0
 11
1.022562030477316
 21
2.073939496905426
 31
0.0
  0
LINE
  5
B6
330
1F
100
AcDbEntity
  8
TANGENT_LINES
100
AcDbLine
 10
1.9064455069605
 20
2.665899518078027
 30
0.0
 11
1.9064455069605
 21
3.012910564972311
 31
0.0
  0
LINE
  5
B7
330
1F
100
AcDbEntity
  8
VISIBLE
100
AcDbLine
 10
3.709567798986198
 20
1.992289838812653
 30
0.0
 11
3.14388237403696
 21
1.665691206441563
 31
0.0
  0
LINE
  5
B8
330
1F
100
AcDbEntity
  8
VISIBLE
100
AcDbLine
 10
2.224643558494448
 20
2.849611248786766
 30
0.0
 11
1.658958133545209
 21
2.523012616415675
 31
0.0
  0
LINE
  5
B9
330
1F
100
AcDbEntity
  8
VISIBLE
100
AcDbLine
 10
3.709567798986198
 20
1.992289838812653
 30
0.0
 11
2.224643558494448
 21
2.849611248786766
 31
0.0
  0
LINE
  5
BA
330
1F
100
AcDbEntity
  8
VISIBLE
100
AcDbLine
 10
1.517085295672887
 20
2.380386377796832
 30
0.0
 11
1.199338725773953
 21
2.563837445462061
 31
0.0
  0
LINE
  5
BB
330
1F
100
AcDbEntity
  8
VISIBLE
100
AcDbLine
 10
1.472775878863384
 20
2.707417769238455
 30
0.0
 11
1.543486556982039
 21
2.748242598284841
 31
0.0
  0
LINE
  5
BC
330
1F
100
AcDbEntity
  8
VISIBLE
100
AcDbLine
 10
3.709567798986198
 20
1.992289838812653
 30
0.0
 11
3.709567798986198
 21
1.890227766196688
 31
0.0
  0
LINE
  5
BD
330
1F
100
AcDbEntity
  8
TANGENT_LINES
100
AcDbLine
 10
1.977156185079155
 20
3.012910564972311
 30
0.0
 11
1.977156185079155
 21
2.706724347124413
 31
0.0
  0
LINE
  5
BE
330
1F
100
AcDbEntity
  8
VISIBLE
100
AcDbLine
 10
1.83516810422149
 20
2.624747490419522
 30
0.0
 11
1.83516810422149
 21
2.865613981793202
 31
0.0
  0
LINE
  5
BF
330
1F
100
AcDbEntity
  8
TANGENT_LINES
100
AcDbLine
 10
1.587680730806198
 20
2.477778105852531
 30
0.0
 11
1.516970052687544
 21
2.518602934898918
 31
0.0
  0
LINE
  5
C0
330
1F
100
AcDbEntity
  8
TANGENT_LINES
100
AcDbLine
 10
1.199338725773953
 20
2.604662274508448
 30
0.0
 11
1.199338725773953
 21
2.563837445462061
 31
0.0
  0
LINE
  5
C1
330
1F
100
AcDbEntity
  8
VISIBLE
100
AcDbLine
 10
1.428581705039225
 20
2.431483949673425
 30
0.0
 11
1.428581705039225
 21
2.63087121477648
 31
0.0
  0
LINE
  5
C2
330
1F
100
AcDbEntity
  8
TANGENT_LINES
100
AcDbLine
 10
2.29490275497809
 20
2.809047082783888
 30
0.0
 11
2.29490275497809
 21
2.829459497307081
 31
0.0
  0
LINE
  5
C3
330
1F
100
AcDbEntity
  8
TANGENT_LINES
100
AcDbLine
 10
1.543486556982039
 20
2.401231551390557
 30
0.0
 11
1.472775878863384
 21
2.442056380436943
 31
0.0
  0
LINE
  5
C4
330
1F
100
AcDbEntity
  8
VISIBLE
100
AcDbLine
 10
1.658958133545209
 20
2.421471869886727
 30
0.0
 11
1.587795973791541
 21
2.380386377796832
 31
0.0
  0
LINE
  5
C5
330
1F
100
AcDbEntity
  8
TANGENT_LINES
100
AcDbLine
 10
1.587680730806198
 20
2.722727080130849
 30
0.0
 11
1.543486556982039
 21
2.748242598284841
 31
0.0
  0
LINE
  5
C6
330
1F
100
AcDbEntity
  8
VISIBLE
100
AcDbLine
 10
1.516970052687544
 20
2.518602934898918
 30
0.0
 11
1.516970052687544
 21
2.732933287392446
 31
0.0
  0
ELLIPSE
  5
C7
330
1F
100
AcDbEntity
  8
VISIBLE
100
AcDbEllipse
 10
1.720263252278676
 20
2.635974318407279
 30
0.0
 11
-0.03125
 21
-0.05412658773652756
 31
0.0
210
0.0
220
0.0
230
-1.0
 40
0.5773502691896235
 41
3.926990816987241
 42
5.497787143782133
  0
ELLIPSE
  5
C8
330
1F
100
AcDbEntity
  8
VISIBLE
100
AcDbEllipse
 10
1.472775878863384
 20
2.493087416744927
 30
0.0
 11
-0.03125
 21
-0.05412658773652756
 31
0.0
210
0.0
220
0.0
230
-1.0
 40
0.5773502691896235
 41
3.926990816987241
 42
5.497787143782142
  0
ELLIPSE
  5
C9
330
1F
100
AcDbEntity
  8
VISIBLE
100
AcDbEllipse
 10
1.216449670683261
 20
2.54309783232675
 30
0.0
 11
-0.046875
 21
-0.08118988160479113
 31
0.0
210
0.0
220
0.0
230
-1.0
 40
0.577350269189625
 41
3.996099538661272
 42
4.611893944887949
  0
ELLIPSE
  5
CA
330
1F
100
AcDbEntity
  8
VISIBLE
100
AcDbEllipse
 10
1.508131217922712
 20
2.754366322641799
 30
0.0
 11
0.011125
 21
0.01926906523420378
 31
0.0
210
0.0
220
0.0
230
1.0
 40
0.5773502691896253
 41
0.0
 42
6.283185307179586
  0
ELLIPSE
  5
CB
330
1F
100
AcDbEntity
  8
VISIBLE
100
AcDbEllipse
 10
1.755618591338003
 20
2.897253224304151
 30
0.0
 11
0.011125
 21
0.01926906523420378
 31
0.0
210
0.0
220
0.0
230
1.0
 40
0.5773502691896253
 41
0.0
 42
6.283185307179586
  0
ELLIPSE
  5
CC
330
1F
100
AcDbEntity
  8
VISIBLE
100
AcDbEllipse
 10
3.849639124603107
 20
1.89100720673879
 30
0.0
 11
0.1000000000000002
 21
0.0
 31
0.0
210
0.0
220
0.0
230
-1.0
 40
0.5773502691896258
 41
0.0
 42
6.283185307179586
  0
ELLIPSE
  5
CD
330
1F
100
AcDbEntity
  8
VISIBLE
100
AcDbEllipse
 10
2.259547415918762
 20
2.809047082783888
 30
0.0
 11
0.04999999999999982
 21
0.0
 31
0.0
210
0.0
220
0.0
230
-1.0
 40
0.5773502691896246
 41
5.497787143782129
 42
6.544984694978736
  0
ELLIPSE
  5
CE
330
1F
100
AcDbEntity
  8
VISIBLE
100
AcDbEllipse
 10
1.552440634732214
 20
2.400798792320025
 30
0.0
 11
0.05000000000000004
 21
0.0
 31
0.0
210
0.0
220
0.0
230
-1.0
 40
0.5773502691896221
 41
0.7853981633974593
 42
2.356194490192345
  0
ELLIPSE
  5
CF
330
1F
100
AcDbEntity
  8
VISIBLE
100
AcDbEllipse
 10
2.295354236613103
 20
2.727136761647607
 30
0.0
 11
0.04325000000000001
 21
0.0
 31
0.0
210
0.0
220
0.0
230
-1.0
 40
0.5773502691896258
 41
0.0
 42
6.283185307179586
  0
ELLIPSE
  5
D0
330
1F
100
AcDbEntity
  8
VISIBLE
100
AcDbEllipse
 10
1.941800846019828
 20
2.992498150449117
 30
0.0
 11
0.05000000000000004
 21
0.0
 31
0.0
210
0.0
220
0.0
230
-1.0
 40
0.5773502691896221
 41
3.926990816987241
 42
5.497787143782142
  0
ELLIPSE
  5
D1
330
1F
100
AcDbEntity
  8
VISIBLE
100
AcDbEllipse
 10
3.142532343416559
 20
1.482758916274927
 30
0.0
 11
0.1000000000000002
 21
0.0
 31
0.0
210
0.0
220
0.0
230
-1.0
 40
0.5773502691896258
 41
0.0
 42
6.283185307179586
  0
ELLIPSE
  5
D2
330
1F
100
AcDbEntity
  8
VISIBLE
100
AcDbEllipse
 10
1.23469406483328
 20
2.584249859985255
 30
0.0
 11
0.05000000000000004
 21
0.0
 31
0.0
210
0.0
220
0.0
230
-1.0
 40
0.5773502691896221
 41
2.356194490192331
 42
3.926990816987237
  0
ELLIPSE
  5
D3
330
1F
100
AcDbEntity
  8
VISIBLE
100
AcDbEllipse
 10
1.871090167901173
 20
2.482187787369289
 30
0.0
 11
0.04325000000000001
 21
0.0
 31
0.0
210
0.0
220
0.0
230
-1.0
 40
0.5773502691896258
 41
0.0
 42
6.283185307179586
  0
ELLIPSE
  5
D4
330
1F
100
AcDbEntity
  8
VISIBLE
100
AcDbEllipse
 10
3.14388237403696
 20
1.747340864534335
 30
0.0
 11
0.04325000000000001
 21
0.0
 31
0.0
210
0.0
220
0.0
230
-1.0
 40
0.5773502691896258
 41
0.0
 42
6.283185307179586
  0
ELLIPSE
  5
D5
330
1F
100
AcDbEntity
  8
VISIBLE
100
AcDbEllipse
 10
3.568146442748889
 20
1.992289838812653
 30
0.0
 11
0.04325000000000001
 21
0.0
 31
0.0
210
0.0
220
0.0
230
-1.0
 40
0.5773502691896258
 41
0.0
 42
6.283185307179586
  0
ELLIPSE
  5
D6
330
1F
100
AcDbEntity
  8
VISIBLE
100
AcDbEllipse
 10
1.790973930397331
 20
2.84009846363921
 30
0.0
 11
-0.03125
 21
-0.05412658773652756
 31
0.0
210
0.0
220
0.0
230
-1.0
 40
0.5773502691896235
 41
2.356194490192345
 42
3.926990816987249
  0
ELLIPSE
  5
D7
330
1F
100
AcDbEntity
  8
VISIBLE
100
AcDbEllipse
 10
1.720263252278676
 20
2.799273634592824
 30
0.0
 11
-0.03125
 21
-0.05412658773652756
 31
0.0
210
0.0
220
0.0
230
-1.0
 40
0.5773502691896235
 41
0.7853981633974485
 42
2.35619449019234
  0
ELLIPSE
  5
D8
330
1F
100
AcDbEntity
  8
VISIBLE
100
AcDbEllipse
 10
1.543486556982039
 20
2.697211561976857
 30
0.0
 11
-0.03125
 21
-0.05412658773652756
 31
0.0
210
0.0
220
0.0
230
-1.0
 40
0.5773502691896235
 41
2.356194490192349
 42
3.926990816987229
  0
ELLIPSE
  5
D9
330
1F
100
AcDbEntity
  8
VISIBLE
100
AcDbEllipse
 10
1.472775878863384
 20
2.656386732930472
 30
0.0
 11
-0.03125
 21
-0.05412658773652756
 31
0.0
210
0.0
220
0.0
230
-1.0
 40
0.5773502691896235
 41
0.785398163397446
 42
2.356194490192334
  0
ELLIPSE
  5
DA
330
1F
100
AcDbEntity
  8
VISIBLE
100
AcDbEllipse
 10
1.543486556982039
 20
2.45226258769854
 30
0.0
 11
-0.03125
 21
-0.05412658773652756
 31
0.0
210
0.0
220
0.0
230
-1.0
 40
0.5773502691896235
 41
3.926990816987241
 42
5.497787143782133
  0
ELLIPSE
  5
DB
330
1F
100
AcDbEntity
  8
VISIBLE
100
AcDbEllipse
 10
1.287160348801915
 20
2.502273003280363
 30
0.0
 11
-0.046875
 21
-0.08118988160479113
 31
0.0
210
0.0
220
0.0
230
-1.0
 40
0.577350269189625
 41
1.671291362291639
 42
4.611893944887944
  0
ELLIPSE
  5
DC
330
1F
100
AcDbEntity
  8
SURFACE_THREAD_SYMBOLS
100
AcDbEllipse
 10
1.508131217922712
 20
2.754366322641799
 30
0.0
 11
0.01399999999999999
 21
0.0242487113059643
 31
0.0
210
0.0
220
0.0
230
1.0
 40
0.5773502691896253
 41
0.0
 42
6.283185307179586
  0
ELLIPSE
  5
DD
330
1F
100
AcDbEntity
  8
SURFACE_THREAD_SYMBOLS
100
AcDbEllipse
 10
1.508131217922711
 20
2.354282997987213
 30
0.0
 11
0.01400000000000001
 21
0.0242487113059644
 31
0.0
210
0.0
220
0.0
230
1.0
 40
0.5773502691896273
 41
6.130083179481493
 42
6.537554043117677
  0
ELLIPSE
  5
DE
330
1F
100
AcDbEntity
  8
SURFACE_THREAD_SYMBOLS
100
AcDbEllipse
 10
1.755618591338003
 20
2.897253224304151
 30
0.0
 11
0.01399999999999999
 21
0.0242487113059643
 31
0.0
210
0.0
220
0.0
230
1.0
 40
0.5773502691896253
 41
0.0
 42
6.283185307179586
  0
CIRCLE
  5
E1
330
1F
100
AcDbEntity
  8
VISIBLE
100
AcDbCircle
 10
7.518728232681083
 20
4.613622425164237
 30
0.0
 40
0.125
  0
CIRCLE
  5
E2
330
1F
100
AcDbEntity
  8
VISIBLE
100
AcDbCircle
 10
9.318728232681083
 20
4.613622425164237
 30
0.0
 40
0.125
  0
CIRCLE
  5
E3
330
1F
100
AcDbEntity
  8
VISIBLE
100
AcDbCircle
 10
9.318728232681082
 20
4.013622425164236
 30
0.0
 40
0.125
  0
CIRCLE
  5
E4
330
1F
100
AcDbEntity
  8
VISIBLE
100
AcDbCircle
 10
7.518728232681083
 20
4.013622425164236
 30
0.0
 40
0.125
  0
CIRCLE
  5
E5
330
1F
100
AcDbEntity
  8
VISIBLE
100
AcDbCircle
 10
9.516819001068093
 20
4.813622425164237
 30
0.0
 40
0.06425
  0
CIRCLE
  5
E6
330
1F
100
AcDbEntity
  8
VISIBLE
100
AcDbCircle
 10
9.516819001068093
 20
3.813622425164237
 30
0.0
 40
0.06425
  0
CIRCLE
  5
E7
330
1F
100
AcDbEntity
  8
VISIBLE
100
AcDbCircle
 10
7.016819001068092
 20
4.313622425164237
 30
0.0
 40
0.06425
  0
CIRCLE
  5
E8
330
1F
100
AcDbEntity
  8
VISIBLE
100
AcDbCircle
 10
7.518728232681083
 20
4.013622425164236
 30
0.0
 40
0.04325
  0
CIRCLE
  5
E9
330
1F
100
AcDbEntity
  8
VISIBLE
100
AcDbCircle
 10
9.318728232681082
 20
4.013622425164236
 30
0.0
 40
0.04325
  0
CIRCLE
  5
EA
330
1F
100
AcDbEntity
  8
VISIBLE
100
AcDbCircle
 10
7.518728232681083
 20
4.613622425164237
 30
0.0
 40
0.04325
  0
CIRCLE
  5
EB
330
1F
100
AcDbEntity
  8
VISIBLE
100
AcDbCircle
 10
9.318728232681083
 20
4.613622425164237
 30
0.0
 40
0.04325
  0
LINE
  5
EC
330
1F
100
AcDbEntity
  8
VISIBLE
100
AcDbLine
 10
9.668728232681083
 20
3.663622425164236
 30
0.0
 11
6.668728232681082
 21
3.663622425164236
 31
0.0
  0
LINE
  5
ED
330
1F
100
AcDbEntity
  8
VISIBLE
100
AcDbLine
 10
6.668728232681082
 20
4.963622425164237
 30
0.0
 11
6.668728232681082
 21
3.663622425164236
 31
0.0
  0
LINE
  5
EE
330
1F
100
AcDbEntity
  8
VISIBLE
100
AcDbLine
 10
9.668728232681083
 20
3.663622425164236
 30
0.0
 11
9.668728232681083
 21
4.963622425164237
 31
0.0
  0
LINE
  5
EF
330
1F
100
AcDbEntity
  8
VISIBLE
100
AcDbLine
 10
9.668728232681083
 20
4.963622425164237
 30
0.0
 11
6.668728232681082
 21
4.963622425164237
 31
0.0
  0
CIRCLE
  5
F4
330
1F
100
AcDbEntity
  8
VISIBLE
100
AcDbCircle
 10
5.881724275457176
 20
4.332479164694327
 30
0.0
 40
0.09375
  0
CIRCLE
  5
F5
330
1F
100
AcDbEntity
  8
VISIBLE
100
AcDbCircle
 10
5.219224275457177
 20
4.484979164694327
 30
0.0
 40
0.02225
  0
CIRCLE
  5
F6
330
1F
100
AcDbEntity
  8
VISIBLE
100
AcDbCircle
 10
5.569224275457176
 20
4.484979164694327
 30
0.0
 40
0.02225
  0
CIRCLE
  5
F7
330
1F
100
AcDbEntity
  8
VISIBLE
100
AcDbCircle
 10
5.569224275457176
 20
3.994979164694327
 30
0.0
 40
0.02225
  0
CIRCLE
  5
F8
330
1F
100
AcDbEntity
  8
VISIBLE
100
AcDbCircle
 10
5.219224275457177
 20
3.994979164694327
 30
0.0
 40
0.02225
  0
LINE
  5
F9
330
1F
100
AcDbEntity
  8
VISIBLE
100
AcDbLine
 10
5.105922805812939
 20
4.644979164694327
 30
0.0
 11
5.905922805812938
 21
4.644979164694327
 31
0.0
  0
LINE
  5
FA
330
1F
100
AcDbEntity
  8
VISIBLE
100
AcDbLine
 10
5.905922805812938
 20
4.644979164694327
 30
0.0
 11
5.905922805812938
 21
4.519979164694327
 31
0.0
  0
LINE
  5
FB
330
1F
100
AcDbEntity
  8
VISIBLE
100
AcDbLine
 10
5.106724275457177
 20
4.089979164694327
 30
0.0
 11
5.106724275457176
 21
4.389979164694327
 31
0.0
  0
LINE
  5
FC
330
1F
100
AcDbEntity
  8
VISIBLE
100
AcDbLine
 10
5.105922805812939
 20
4.644979164694327
 30
0.0
 11
5.105922805812939
 21
4.519979164694327
 31
0.0
  0
LINE
  5
FD
330
1F
100
AcDbEntity
  8
VISIBLE
100
AcDbLine
 10
5.331724275457177
 20
4.089979164694327
 30
0.0
 11
5.331724275457177
 21
4.389979164694327
 31
0.0
  0
LINE
  5
FE
330
1F
100
AcDbEntity
  8
VISIBLE
100
AcDbLine
 10
5.619224275457176
 20
4.452479164694327
 30
0.0
 11
5.519224275457177
 21
4.452479164694327
 31
0.0
  0
LINE
  5
FF
330
1F
100
AcDbEntity
  8
VISIBLE
100
AcDbLine
 10
6.155922805812938
 20
4.519979164694327
 30
0.0
 11
4.855922805812939
 21
4.519979164694327
 31
0.0
  0
LINE
  5
100
330
1F
100
AcDbEntity
  8
VISIBLE
100
AcDbLine
 10
5.456724275457177
 20
4.089979164694327
 30
0.0
 11
5.456724275457177
 21
4.389979164694327
 31
0.0
  0
LINE
  5
101
330
1F
100
AcDbEntity
  8
VISIBLE
100
AcDbLine
 10
4.855922805812939
 20
4.519979164694327
 30
0.0
 11
4.855922805812939
 21
3.894979164694327
 31
0.0
  0
LINE
  5
102
330
1F
100
AcDbEntity
  8
VISIBLE
100
AcDbLine
 10
5.269224275457177
 20
4.452479164694327
 30
0.0
 11
5.169224275457176
 21
4.452479164694327
 31
0.0
  0
LINE
  5
103
330
1F
100
AcDbEntity
  8
VISIBLE
100
AcDbLine
 10
6.155922805812938
 20
4.519979164694327
 30
0.0
 11
6.155922805812938
 21
3.894979164694327
 31
0.0
  0
LINE
  5
104
330
1F
100
AcDbEntity
  8
VISIBLE
100
AcDbLine
 10
5.681724275457176
 20
4.089979164694327
 30
0.0
 11
5.681724275457177
 21
4.389979164694327
 31
0.0
  0
LINE
  5
105
330
1F
100
AcDbEntity
  8
VISIBLE
100
AcDbLine
 10
6.155922805812938
 20
3.894979164694327
 30
0.0
 11
4.855922805812939
 21
3.894979164694327
 31
0.0
  0
LINE
  5
106
330
1F
100
AcDbEntity
  8
VISIBLE
100
AcDbLine
 10
5.269224275457177
 20
4.027479164694326
 30
0.0
 11
5.169224275457177
 21
4.027479164694327
 31
0.0
  0
LINE
  5
107
330
1F
100
AcDbEntity
  8
VISIBLE
100
AcDbLine
 10
5.619224275457176
 20
4.027479164694326
 30
0.0
 11
5.519224275457177
 21
4.027479164694327
 31
0.0
  0
ARC
  5
108
330
1F
100
AcDbEntity
  8
VISIBLE
100
AcDbCircle
 10
5.169224275457177
 20
4.389979164694327
 30
0.0
 40
0.0625000000000002
100
AcDbArc
 50
90.00000000000082
 51
179.9999999999992
  0
ARC
  5
109
330
1F
100
AcDbEntity
  8
VISIBLE
100
AcDbCircle
 10
5.169224275457177
 20
4.089979164694327
 30
0.0
 40
0.0625000000000002
100
AcDbArc
 50
180.0000000000008
 51
270.0
  0
ARC
  5
10A
330
1F
100
AcDbEntity
  8
VISIBLE
100
AcDbCircle
 10
5.619224275457177
 20
4.389979164694327
 30
0.0
 40
0.0625000000000001
100
AcDbArc
 50
0.0000000000008142
 51
90.00000000000082
  0
ARC
  5
10B
330
1F
100
AcDbEntity
  8
VISIBLE
100
AcDbCircle
 10
5.619224275457177
 20
4.089979164694327
 30
0.0
 40
0.0625000000000001
100
AcDbArc
 50
269.9999999999992
 51
0.0000000000008142
  0
ARC
  5
10C
330
1F
100
AcDbEntity
  8
VISIBLE
100
AcDbCircle
 10
5.269224275457177
 20
4.089979164694327
 30
0.0
 40
0.0625000000000001
100
AcDbArc
 50
270.0
 51
359.9999999999992
  0
ARC
  5
10D
330
1F
100
AcDbEntity
  8
VISIBLE
100
AcDbCircle
 10
5.519224275457177
 20
4.389979164694327
 30
0.0
 40
0.0625000000000002
100
AcDbArc
 50
90.0
 51
179.9999999999992
  0
ARC
  5
10E
330
1F
100
AcDbEntity
  8
VISIBLE
100
AcDbCircle
 10
5.519224275457177
 20
4.089979164694327
 30
0.0
 40
0.0625000000000002
100
AcDbArc
 50
180.0000000000008
 51
270.0
  0
ARC
  5
10F
330
1F
100
AcDbEntity
  8
VISIBLE
100
AcDbCircle
 10
5.269224275457177
 20
4.389979164694327
 30
0.0
 40
0.0625000000000001
100
AcDbArc
 50
0.0000000000008142
 51
90.0
  0
CIRCLE
  5
110
330
1F
100
AcDbEntity
  8
SURFACE_THREAD_SYMBOLS_ON_
100
AcDbCircle
 10
5.569224275457176
 20
4.484979164694327
 30
0.0
 40
0.028
  0
CIRCLE
  5
111
330
1F
100
AcDbEntity
  8
SURFACE_THREAD_SYMBOLS_ON_
100
AcDbCircle
 10
5.219224275457177
 20
4.484979164694327
 30
0.0
 40
0.028
  0
CIRCLE
  5
112
330
1F
100
AcDbEntity
  8
SURFACE_THREAD_SYMBOLS_ON_
100
AcDbCircle
 10
5.569224275457176
 20
3.994979164694327
 30
0.0
 40
0.028
  0
CIRCLE
  5
113
330
1F
100
AcDbEntity
  8
SURFACE_THREAD_SYMBOLS_ON_
100
AcDbCircle
 10
5.219224275457177
 20
3.994979164694327
 30
0.0
 40
0.028
  0
LINE
  5
114
330
1F
100
AcDbEntity
  8
BORDER_FRAME
100
AcDbLine
 10
0.399
 20
0.38
 30
0.0
 11
0.399
 21
8.12
 31
0.0
  0
LINE
  5
117
330
1F
100
AcDbEntity
  8
BORDER_FRAME
100
AcDbLine
 10
0.399
 20
8.12
 30
0.0
 11
10.639
 21
8.12
 31
0.0
  0
LINE
  5
118
330
1F
100
AcDbEntity
  8
BORDER_FRAME
100
AcDbLine
 10
10.639
 20
8.12
 30
0.0
 11
10.639
 21
0.38
 31
0.0
  0
LINE
  5
119
330
1F
100
AcDbEntity
  8
BORDER_FRAME
100
AcDbLine
 10
10.639
 20
0.38
 30
0.0
 11
0.399
 21
0.38
 31
0.0
  0
LINE
  5
11A
330
1F
100
AcDbEntity
  8
BORDER_ZONES
100
AcDbLine
 10
5.519
 20
0.38
 30
0.0
 11
5.519
 21
0.019
 31
0.0
  0
LINE
  5
11C
330
1F
100
AcDbEntity
  8
BORDER_ZONES
100
AcDbLine
 10
5.519
 20
8.12
 30
0.0
 11
5.519
 21
8.481
 31
0.0
  0
MTEXT
  5
11D
330
1F
100
AcDbEntity
  8
BORDER_ZONES
100
AcDbMText
 10
2.769
 20
0.19
 30
0.0
 40
0.18
 41
0.0
 71
     5
 72
     1
  1
2
  7
ONSHAPE-STANDARD
  0
MTEXT
  5
11F
330
1F
100
AcDbEntity
  8
BORDER_ZONES
100
AcDbMText
 10
2.769
 20
8.309999999999999
 30
0.0
 40
0.18
 41
0.0
 71
     5
 72
     1
  1
2
  7
ONSHAPE-STANDARD
  0
MTEXT
  5
120
330
1F
100
AcDbEntity
  8
BORDER_ZONES
100
AcDbMText
 10
8.269
 20
0.19
 30
0.0
 40
0.18
 41
0.0
 71
     5
 72
     1
  1
1
  7
ONSHAPE-STANDARD
  0
MTEXT
  5
121
330
1F
100
AcDbEntity
  8
BORDER_ZONES
100
AcDbMText
 10
8.269
 20
8.309999999999999
 30
0.0
 40
0.18
 41
0.0
 71
     5
 72
     1
  1
1
  7
ONSHAPE-STANDARD
  0
LINE
  5
122
330
1F
100
AcDbEntity
  8
BORDER_ZONES
100
AcDbLine
 10
0.399
 20
4.25
 30
0.0
 11
0.038
 21
4.25
 31
0.0
  0
LINE
  5
123
330
1F
100
AcDbEntity
  8
BORDER_ZONES
100
AcDbLine
 10
10.639
 20
4.25
 30
0.0
 11
11.0
 21
4.25
 31
0.0
  0
MTEXT
  5
124
330
1F
100
AcDbEntity
  8
BORDER_ZONES
100
AcDbMText
 10
0.209
 20
2.125
 30
0.0
 40
0.18
 41
0.0
 71
     5
 72
     1
  1
A
  7
ONSHAPE-STANDARD
  0
MTEXT
  5
125
330
1F
100
AcDbEntity
  8
BORDER_ZONES
100
AcDbMText
 10
10.829
 20
2.125
 30
0.0
 40
0.18
 41
0.0
 71
     5
 72
     1
  1
A
  7
ONSHAPE-STANDARD
  0
MTEXT
  5
126
330
1F
100
AcDbEntity
  8
BORDER_ZONES
100
AcDbMText
 10
0.209
 20
6.375
 30
0.0
 40
0.18
 41
0.0
 71
     5
 72
     1
  1
B
  7
ONSHAPE-STANDARD
  0
MTEXT
  5
127
330
1F
100
AcDbEntity
  8
BORDER_ZONES
100
AcDbMText
 10
10.829
 20
6.375
 30
0.0
 40
0.18
 41
0.0
 71
     5
 72
     1
  1
B
  7
ONSHAPE-STANDARD
  0
LINE
  5
128
330
1F
100
AcDbEntity
  8
TITLE_BLOCK
100
AcDbLine
 10
4.563999999999999
 20
0.38
 30
0.0
 11
4.563999999999999
 21
1.88
 31
0.0
  0
LINE
  5
12A
330
1F
100
AcDbEntity
  8
TITLE_BLOCK
100
AcDbLine
 10
4.563999999999999
 20
0.38
 30
0.0
 11
5.763999999999999
 21
0.38
 31
0.0
  0
LINE
  5
12B
330
1F
100
AcDbEntity
  8
TITLE_BLOCK
100
AcDbLine
 10
4.563999999999999
 20
0.6799999999999999
 30
0.0
 11
5.763999999999999
 21
0.6799999999999999
 31
0.0
  0
LINE
  5
12C
330
1F
100
AcDbEntity
  8
TITLE_BLOCK
100
AcDbLine
 10
4.563999999999999
 20
0.8
 30
0.0
 11
5.763999999999999
 21
0.8
 31
0.0
  0
LINE
  5
12D
330
1F
100
AcDbEntity
  8
TITLE_BLOCK
100
AcDbLine
 10
4.563999999999999
 20
1.004
 30
0.0
 11
5.763999999999999
 21
1.004
 31
0.0
  0
LINE
  5
12E
330
1F
100
AcDbEntity
  8
TITLE_BLOCK
100
AcDbLine
 10
4.563999999999999
 20
1.178
 30
0.0
 11
5.763999999999999
 21
1.178
 31
0.0
  0
LINE
  5
12F
330
1F
100
AcDbEntity
  8
TITLE_BLOCK
100
AcDbLine
 10
4.563999999999999
 20
1.88
 30
0.0
 11
5.763999999999999
 21
1.88
 31
0.0
  0
MTEXT
  5
130
330
1F
100
AcDbEntity
  8
TITLE_BLOCK
100
AcDbMText
 10
4.590399999999999
 20
1.8368
 30
0.0
 40
0.048
 41
1.176
 71
     1
 72
     1
  1
UNLESS OTHERWISE SPECIFIED, DIMENSIONS ARE IN INCHES
  7
ONSHAPE-STANDARD
  0
MTEXT
  5
131
330
1F
100
AcDbEntity
  8
TITLE_BLOCK
100
AcDbMText
 10
4.590399999999999
 20
1.6568
 30
0.0
 40
0.048
 41
0.5880000000000005
 71
     1
 72
     1
  1
    .XX = ±.0-^J  .XXX = ±.00-^J.XXXX = ±.000-
  7
ONSHAPE-STANDARD
  0
MTEXT
  5
132
330
1F
100
AcDbEntity
  8
TITLE_BLOCK
100
AcDbMText
 10
5.18776
 20
1.66112
 30
0.0
 40
0.0432
 41
0.5879999999999996
 71
     1
 72
     1
  1
^JANGULAR = ± °^JFRACTIONAL = ±
  7
ONSHAPE-STANDARD
  0
MTEXT
  5
133
330
1F
100
AcDbEntity
  8
TITLE_BLOCK
100
AcDbMText
 10
4.590399999999999
 20
1.3688
 30
0.0
 40
0.048
 41
0.5880000000000005
 71
     1
 72
     1
  1
SURFACE FINISH
  7
ONSHAPE-STANDARD
  0
LINE
  5
134
330
1F
100
AcDbEntity
  8
TITLE_BLOCK
100
AcDbLine
 10
5.104
 20
1.298
 30
0.0
 11
5.134
 21
1.246038475772934
 31
0.0
  0
LINE
  5
135
330
1F
100
AcDbEntity
  8
TITLE_BLOCK
100
AcDbLine
 10
5.134
 20
1.246038475772934
 30
0.0
 11
5.197
 21
1.355157676649773
 31
0.0
  0
LINE
  5
136
330
1F
100
AcDbEntity
  8
TITLE_BLOCK
100
AcDbLine
 10
5.197
 20
1.355157676649773
 30
0.0
 11
5.263
 21
1.355157676649773
 31
0.0
  0
MTEXT
  5
137
330
1F
100
AcDbEntity
  8
TITLE_BLOCK
100
AcDbMText
 10
5.164
 20
1.12184
 30
0.0
 40
0.0624
 41
1.176
 71
     2
 72
     1
  1
DO NOT SCALE DRAWING
  7
ONSHAPE-STANDARD
  0
MTEXT
  5
138
330
1F
100
AcDbEntity
  8
TITLE_BLOCK
100
AcDbMText
 10
5.164
 20
0.9608
 30
0.0
 40
0.048
 41
1.176
 71
     2
 72
     1
  1
BREAK ALL SHARP EDGES AND REMOVE BURRS
  7
ONSHAPE-STANDARD
  0
CIRCLE
  5
139
330
1F
100
AcDbEntity
  8
TITLE_BLOCK
100
AcDbCircle
 10
5.029
 20
0.5287999999999999
 30
0.0
 40
0.054
  0
CIRCLE
  5
13A
330
1F
100
AcDbEntity
  8
TITLE_BLOCK
100
AcDbCircle
 10
5.029
 20
0.5287999999999999
 30
0.0
 40
0.108
  0
LINE
  5
13B
330
1F
100
AcDbEntity
  8
TITLE_BLOCK
100
AcDbLine
 10
5.056
 20
0.5287999999999999
 30
0.0
 11
5.002
 21
0.5287999999999999
 31
0.0
  0
LINE
  5
13C
330
1F
100
AcDbEntity
  8
TITLE_BLOCK
100
AcDbLine
 10
5.029
 20
0.5558
 30
0.0
 11
5.029
 21
0.5017999999999999
 31
0.0
  0
LINE
  5
13D
330
1F
100
AcDbEntity
  8
TITLE_BLOCK
100
AcDbLine
 10
5.083
 20
0.5287999999999999
 30
0.0
 11
5.164
 21
0.5287999999999999
 31
0.0
  0
LINE
  5
13E
330
1F
100
AcDbEntity
  8
TITLE_BLOCK
100
AcDbLine
 10
5.029
 20
0.5828
 30
0.0
 11
5.029
 21
0.6638
 31
0.0
  0
LINE
  5
13F
330
1F
100
AcDbEntity
  8
TITLE_BLOCK
100
AcDbLine
 10
4.975
 20
0.5287999999999999
 30
0.0
 11
4.894
 21
0.5287999999999999
 31
0.0
  0
LINE
  5
140
330
1F
100
AcDbEntity
  8
TITLE_BLOCK
100
AcDbLine
 10
5.029
 20
0.4747999999999999
 30
0.0
 11
5.029
 21
0.3937999999999999
 31
0.0
  0
LINE
  5
141
330
1F
100
AcDbEntity
  8
TITLE_BLOCK
100
AcDbLine
 10
5.406999999999999
 20
0.4208
 30
0.0
 11
5.406999999999999
 21
0.6367999999999999
 31
0.0
  0
LINE
  5
142
330
1F
100
AcDbEntity
  8
TITLE_BLOCK
100
AcDbLine
 10
5.406999999999999
 20
0.6367999999999999
 30
0.0
 11
5.191
 21
0.5828
 31
0.0
  0
LINE
  5
143
330
1F
100
AcDbEntity
  8
TITLE_BLOCK
100
AcDbLine
 10
5.191
 20
0.5828
 30
0.0
 11
5.191
 21
0.4747999999999999
 31
0.0
  0
LINE
  5
144
330
1F
100
AcDbEntity
  8
TITLE_BLOCK
100
AcDbLine
 10
5.191
 20
0.4747999999999999
 30
0.0
 11
5.406999999999999
 21
0.4208
 31
0.0
  0
LINE
  5
145
330
1F
100
AcDbEntity
  8
TITLE_BLOCK
100
AcDbLine
 10
5.326
 20
0.5287999999999999
 30
0.0
 11
5.4205
 21
0.5287999999999999
 31
0.0
  0
LINE
  5
146
330
1F
100
AcDbEntity
  8
TITLE_BLOCK
100
AcDbLine
 10
5.309799999999999
 20
0.5287999999999999
 30
0.0
 11
5.2882
 21
0.5287999999999999
 31
0.0
  0
LINE
  5
147
330
1F
100
AcDbEntity
  8
TITLE_BLOCK
100
AcDbLine
 10
5.271999999999999
 20
0.5287999999999999
 30
0.0
 11
5.177499999999999
 21
0.5287999999999999
 31
0.0
  0
MTEXT
  5
148
330
1F
100
AcDbEntity
  8
TITLE_BLOCK
100
AcDbMText
 10
5.164
 20
0.7568
 30
0.0
 40
0.048
 41
1.176
 71
     2
 72
     1
  1
THIRD ANGLE PROJECTION
  7
ONSHAPE-STANDARD
  0
LINE
  5
149
330
1F
100
AcDbEntity
  8
TITLE_BLOCK
100
AcDbLine
 10
5.763999999999999
 20
0.38
 30
0.0
 11
5.763999999999999
 21
1.88
 31
0.0
  0
LINE
  5
14A
330
1F
100
AcDbEntity
  8
TITLE_BLOCK
100
AcDbLine
 10
6.364
 20
0.8
 30
0.0
 11
6.364
 21
1.88
 31
0.0
  0
LINE
  5
14B
330
1F
100
AcDbEntity
  8
TITLE_BLOCK
100
AcDbLine
 10
7.113999999999999
 20
0.8
 30
0.0
 11
7.113999999999999
 21
1.88
 31
0.0
  0
LINE
  5
14C
330
1F
100
AcDbEntity
  8
TITLE_BLOCK
100
AcDbLine
 10
6.664
 20
0.38
 30
0.0
 11
6.664
 21
0.8
 31
0.0
  0
LINE
  5
14D
330
1F
100
AcDbEntity
  8
TITLE_BLOCK
100
AcDbLine
 10
5.763999999999999
 20
1.88
 30
0.0
 11
7.564
 21
1.88
 31
0.0
  0
LINE
  5
14E
330
1F
100
AcDbEntity
  8
TITLE_BLOCK
100
AcDbLine
 10
5.763999999999999
 20
1.7
 30
0.0
 11
7.564
 21
1.7
 31
0.0
  0
LINE
  5
14F
330
1F
100
AcDbEntity
  8
TITLE_BLOCK
100
AcDbLine
 10
5.763999999999999
 20
1.52
 30
0.0
 11
7.564
 21
1.52
 31
0.0
  0
LINE
  5
150
330
1F
100
AcDbEntity
  8
TITLE_BLOCK
100
AcDbLine
 10
5.763999999999999
 20
1.34
 30
0.0
 11
7.564
 21
1.34
 31
0.0
  0
LINE
  5
151
330
1F
100
AcDbEntity
  8
TITLE_BLOCK
100
AcDbLine
 10
5.763999999999999
 20
1.16
 30
0.0
 11
7.564
 21
1.16
 31
0.0
  0
LINE
  5
152
330
1F
100
AcDbEntity
  8
TITLE_BLOCK
100
AcDbLine
 10
5.763999999999999
 20
0.98
 30
0.0
 11
7.564
 21
0.98
 31
0.0
  0
LINE
  5
153
330
1F
100
AcDbEntity
  8
TITLE_BLOCK
100
AcDbLine
 10
5.763999999999999
 20
0.8
 30
0.0
 11
7.564
 21
0.8
 31
0.0
  0
MTEXT
  5
154
330
1F
100
AcDbEntity
  8
TITLE_BLOCK
100
AcDbMText
 10
6.3904
 20
1.8368
 30
0.0
 40
0.048
 41
0.7349999999999991
 71
     1
 72
     1
  1
NAME
  7
ONSHAPE-STANDARD
  0
MTEXT
  5
155
330
1F
100
AcDbEntity
  8
TITLE_BLOCK
100
AcDbMText
 10
7.339
 20
1.8368
 30
0.0
 40
0.048
 41
0.4410000000000011
 71
     2
 72
     1
  1
DATE
  7
ONSHAPE-STANDARD
  0
MTEXT
  5
156
330
1F
100
AcDbEntity
  8
TITLE_BLOCK
100
AcDbMText
 10
5.790399999999999
 20
1.6568
 30
0.0
 40
0.048
 41
0.5880000000000005
 71
     1
 72
     1
  1
DRAWN
  7
ONSHAPE-STANDARD
  0
MTEXT
  5
157
102
{ACAD_XDICTIONARY
360
158
102
}
330
1F
100
AcDbEntity
  8
TITLE_BLOCK
100
AcDbMText
 10
6.738999999999999
 20
1.61
 30
0.0
 40
0.04032
 41
0.7499999999999991
 71
     5
 72
     1
  1
ROBERT XI
  7
ONSHAPE-STANDARD-FIELDS
1001
ACAD
1000
ACAD_MTEXT_DEFINED_HEIGHT_BEGIN
1070
    46
1040
0.1800000000000002
1000
ACAD_MTEXT_DEFINED_HEIGHT_END
  0
MTEXT
  5
15E
102
{ACAD_XDICTIONARY
360
15F
102
}
330
1F
100
AcDbEntity
  8
TITLE_BLOCK
100
AcDbMText
 10
7.339
 20
1.61
 30
0.0
 40
0.04032
 41
0.4500000000000011
 71
     5
 72
     1
  1
03/17/2025
  7
ONSHAPE-STANDARD-FIELDS
1001
ACAD
1000
ACAD_MTEXT_DEFINED_HEIGHT_BEGIN
1070
    46
1040
0.1800000000000002
1000
ACAD_MTEXT_DEFINED_HEIGHT_END
  0
MTEXT
  5
164
330
1F
100
AcDbEntity
  8
TITLE_BLOCK
100
AcDbMText
 10
5.790399999999999
 20
1.4768
 30
0.0
 40
0.048
 41
0.5880000000000005
 71
     1
 72
     1
  1
CHECKED
  7
ONSHAPE-STANDARD
  0
MTEXT
  5
165
330
1F
100
AcDbEntity
  8
TITLE_BLOCK
100
AcDbMText
 10
6.738999999999999
 20
1.43
 30
0.0
 40
0.04032
 41
0.7499999999999991
 71
     5
 72
     1
  1
 
  7
ONSHAPE-STANDARD-FIELDS
1001
ACAD
1000
ACAD_MTEXT_DEFINED_HEIGHT_BEGIN
1070
    46
1040
0.1800000000000002
1000
ACAD_MTEXT_DEFINED_HEIGHT_END
  0
MTEXT
  5
166
330
1F
100
AcDbEntity
  8
TITLE_BLOCK
100
AcDbMText
 10
7.339
 20
1.43
 30
0.0
 40
0.04032
 41
0.4500000000000011
 71
     5
 72
     1
  1
 
  7
ONSHAPE-STANDARD-FIELDS
1001
ACAD
1000
ACAD_MTEXT_DEFINED_HEIGHT_BEGIN
1070
    46
1040
0.1800000000000002
1000
ACAD_MTEXT_DEFINED_HEIGHT_END
  0
MTEXT
  5
167
330
1F
100
AcDbEntity
  8
TITLE_BLOCK
100
AcDbMText
 10
5.790399999999999
 20
1.2968
 30
0.0
 40
0.048
 41
0.5880000000000005
 71
     1
 72
     1
  1
APPROVED
  7
ONSHAPE-STANDARD
  0
MTEXT
  5
168
102
{ACAD_XDICTIONARY
360
169
102
}
330
1F
100
AcDbEntity
  8
TITLE_BLOCK
100
AcDbMText
 10
6.738999999999999
 20
1.25
 30
0.0
 40
0.04032
 41
0.7499999999999991
 71
     5
 72
     1
  1
----
  7
ONSHAPE-STANDARD-FIELDS
1001
ACAD
1000
ACAD_MTEXT_DEFINED_HEIGHT_BEGIN
1070
    46
1040
0.1799999999999997
1000
ACAD_MTEXT_DEFINED_HEIGHT_END
  0
MTEXT
  5
16E
102
{ACAD_XDICTIONARY
360
16F
102
}
330
1F
100
AcDbEntity
  8
TITLE_BLOCK
100
AcDbMText
 10
7.339
 20
1.25
 30
0.0
 40
0.04032
 41
0.4500000000000011
 71
     5
 72
     1
  1
----
  7
ONSHAPE-STANDARD-FIELDS
1001
ACAD
1000
ACAD_MTEXT_DEFINED_HEIGHT_BEGIN
1070
    46
1040
0.1799999999999997
1000
ACAD_MTEXT_DEFINED_HEIGHT_END
  0
MTEXT
  5
174
330
1F
100
AcDbEntity
  8
TITLE_BLOCK
100
AcDbMText
 10
6.064
 20
1.07
 30
0.0
 40
0.072
 41
0.6000000000000005
 71
     5
 72
     1
  1
 
  7
ONSHAPE-STANDARD-FIELDS
1001
ACAD
1000
ACAD_MTEXT_DEFINED_HEIGHT_BEGIN
1070
    46
1040
0.1800000000000002
1000
ACAD_MTEXT_DEFINED_HEIGHT_END
  0
MTEXT
  5
175
330
1F
100
AcDbEntity
  8
TITLE_BLOCK
100
AcDbMText
 10
6.738999999999999
 20
1.07
 30
0.0
 40
0.04032
 41
0.7499999999999991
 71
     5
 72
     1
  1
 
  7
ONSHAPE-STANDARD-FIELDS
1001
ACAD
1000
ACAD_MTEXT_DEFINED_HEIGHT_BEGIN
1070
    46
1040
0.1800000000000002
1000
ACAD_MTEXT_DEFINED_HEIGHT_END
  0
MTEXT
  5
176
330
1F
100
AcDbEntity
  8
TITLE_BLOCK
100
AcDbMText
 10
7.339
 20
1.07
 30
0.0
 40
0.04032
 41
0.4500000000000011
 71
     5
 72
     1
  1
 
  7
ONSHAPE-STANDARD-FIELDS
1001
ACAD
1000
ACAD_MTEXT_DEFINED_HEIGHT_BEGIN
1070
    46
1040
0.1800000000000002
1000
ACAD_MTEXT_DEFINED_HEIGHT_END
  0
MTEXT
  5
177
330
1F
100
AcDbEntity
  8
TITLE_BLOCK
100
AcDbMText
 10
6.064
 20
0.89
 30
0.0
 40
0.072
 41
0.6000000000000005
 71
     5
 72
     1
  1
 
  7
ONSHAPE-STANDARD-FIELDS
1001
ACAD
1000
ACAD_MTEXT_DEFINED_HEIGHT_BEGIN
1070
    46
1040
0.1799999999999999
1000
ACAD_MTEXT_DEFINED_HEIGHT_END
  0
MTEXT
  5
178
330
1F
100
AcDbEntity
  8
TITLE_BLOCK
100
AcDbMText
 10
6.738999999999999
 20
0.89
 30
0.0
 40
0.04032
 41
0.7499999999999991
 71
     5
 72
     1
  1
 
  7
ONSHAPE-STANDARD-FIELDS
1001
ACAD
1000
ACAD_MTEXT_DEFINED_HEIGHT_BEGIN
1070
    46
1040
0.1799999999999999
1000
ACAD_MTEXT_DEFINED_HEIGHT_END
  0
MTEXT
  5
179
330
1F
100
AcDbEntity
  8
TITLE_BLOCK
100
AcDbMText
 10
7.339
 20
0.89
 30
0.0
 40
0.04032
 41
0.4500000000000011
 71
     5
 72
     1
  1
 
  7
ONSHAPE-STANDARD-FIELDS
1001
ACAD
1000
ACAD_MTEXT_DEFINED_HEIGHT_BEGIN
1070
    46
1040
0.1799999999999999
1000
ACAD_MTEXT_DEFINED_HEIGHT_END
  0
MTEXT
  5
17A
330
1F
100
AcDbEntity
  8
TITLE_BLOCK
100
AcDbMText
 10
5.790399999999999
 20
0.7568
 30
0.0
 40
0.048
 41
0.8820000000000003
 71
     1
 72
     1
  1
MATERIAL
  7
ONSHAPE-STANDARD
  0
MTEXT
  5
17B
330
1F
100
AcDbEntity
  8
TITLE_BLOCK
100
AcDbMText
 10
6.214
 20
0.5900000000000001
 30
0.0
 40
0.072
 41
0.9000000000000004
 71
     5
 72
     1
  1
 
  7
ONSHAPE-STANDARD-FIELDS
1001
ACAD
1000
ACAD_MTEXT_DEFINED_HEIGHT_BEGIN
1070
    46
1040
0.42
1000
ACAD_MTEXT_DEFINED_HEIGHT_END
  0
MTEXT
  5
17C
330
1F
100
AcDbEntity
  8
TITLE_BLOCK
100
AcDbMText
 10
6.690399999999999
 20
0.7568
 30
0.0
 40
0.048
 41
0.8820000000000003
 71
     1
 72
     1
  1
FINISH
  7
ONSHAPE-STANDARD
  0
MTEXT
  5
17D
330
1F
100
AcDbEntity
  8
TITLE_BLOCK
100
AcDbMText
 10
7.114
 20
0.5900000000000001
 30
0.0
 40
0.072
 41
0.9000000000000004
 71
     5
 72
     1
  1
 
  7
ONSHAPE-STANDARD-FIELDS
1001
ACAD
1000
ACAD_MTEXT_DEFINED_HEIGHT_BEGIN
1070
    46
1040
0.42
1000
ACAD_MTEXT_DEFINED_HEIGHT_END
  0
LINE
  5
17E
330
1F
100
AcDbEntity
  8
TITLE_BLOCK
100
AcDbLine
 10
7.564
 20
0.38
 30
0.0
 11
7.564
 21
1.88
 31
0.0
  0
LINE
  5
17F
330
1F
100
AcDbEntity
  8
TITLE_BLOCK
100
AcDbLine
 10
7.939
 20
0.575
 30
0.0
 11
7.939
 21
0.875
 31
0.0
  0
LINE
  5
180
330
1F
100
AcDbEntity
  8
TITLE_BLOCK
100
AcDbLine
 10
8.223999999999998
 20
0.38
 30
0.0
 11
8.223999999999998
 21
0.575
 31
0.0
  0
LINE
  5
181
330
1F
100
AcDbEntity
  8
TITLE_BLOCK
100
AcDbLine
 10
9.588999999999999
 20
0.38
 30
0.0
 11
9.588999999999999
 21
0.575
 31
0.0
  0
LINE
  5
182
330
1F
100
AcDbEntity
  8
TITLE_BLOCK
100
AcDbLine
 10
10.339
 20
0.575
 30
0.0
 11
10.339
 21
0.875
 31
0.0
  0
LINE
  5
183
330
1F
100
AcDbEntity
  8
TITLE_BLOCK
100
AcDbLine
 10
7.564
 20
0.575
 30
0.0
 11
10.639
 21
0.575
 31
0.0
  0
LINE
  5
184
330
1F
100
AcDbEntity
  8
TITLE_BLOCK
100
AcDbLine
 10
7.564
 20
0.875
 30
0.0
 11
10.639
 21
0.875
 31
0.0
  0
LINE
  5
185
330
1F
100
AcDbEntity
  8
TITLE_BLOCK
100
AcDbLine
 10
7.564
 20
1.505
 30
0.0
 11
10.639
 21
1.505
 31
0.0
  0
LINE
  5
186
330
1F
100
AcDbEntity
  8
TITLE_BLOCK
100
AcDbLine
 10
7.564
 20
1.88
 30
0.0
 11
10.639
 21
1.88
 31
0.0
  0
MTEXT
  5
187
330
1F
100
AcDbEntity
  8
TITLE_BLOCK
100
AcDbMText
 10
7.5904
 20
1.4618
 30
0.0
 40
0.048
 41
0.3675
 71
     1
 72
     1
  1
TITLE
  7
ONSHAPE-STANDARD
  0
MTEXT
  5
188
102
{ACAD_XDICTIONARY
360
189
102
}
330
1F
100
AcDbEntity
  8
TITLE_BLOCK
100
AcDbMText
 10
9.1015
 20
1.385
 30
0.0
 40
0.1152
 41
2.774999999999999
 71
     5
 72
     1
  1
----
  7
ONSHAPE-STANDARD-FIELDS
1001
ACAD
1000
ACAD_MTEXT_DEFINED_HEIGHT_BEGIN
1070
    46
1040
0.189
1000
ACAD_MTEXT_DEFINED_HEIGHT_END
  0
MTEXT
  5
18E
102
{ACAD_XDICTIONARY
360
18F
102
}
330
1F
100
AcDbEntity
  8
TITLE_BLOCK
100
AcDbMText
 10
9.1015
 20
1.196
 30
0.0
 40
0.1152
 41
2.774999999999999
 71
     5
 72
     1
  1
----
  7
ONSHAPE-STANDARD-FIELDS
1001
ACAD
1000
ACAD_MTEXT_DEFINED_HEIGHT_BEGIN
1070
    46
1040
0.189
1000
ACAD_MTEXT_DEFINED_HEIGHT_END
  0
MTEXT
  5
194
102
{ACAD_XDICTIONARY
360
195
102
}
330
1F
100
AcDbEntity
  8
TITLE_BLOCK
100
AcDbMText
 10
9.1015
 20
1.007
 30
0.0
 40
0.1152
 41
2.774999999999999
 71
     5
 72
     1
  1
----
  7
ONSHAPE-STANDARD-FIELDS
1001
ACAD
1000
ACAD_MTEXT_DEFINED_HEIGHT_BEGIN
1070
    46
1040
0.189
1000
ACAD_MTEXT_DEFINED_HEIGHT_END
  0
MTEXT
  5
19A
330
1F
100
AcDbEntity
  8
TITLE_BLOCK
100
AcDbMText
 10
7.58512
 20
0.84044
 30
0.0
 40
0.0384
 41
0.3675
 71
     1
 72
     1
  1
SIZE
  7
ONSHAPE-STANDARD
  0
MTEXT
  5
19B
102
{ACAD_XDICTIONARY
360
19C
102
}
330
1F
100
AcDbEntity
  8
TITLE_BLOCK
100
AcDbMText
 10
7.7515
 20
0.725
 30
0.0
 40
0.144
 41
0.375
 71
     5
 72
     1
  1
A
  7
ONSHAPE-STANDARD-FIELDS
1001
ACAD
1000
ACAD_MTEXT_DEFINED_HEIGHT_BEGIN
1070
    46
1040
0.3
1000
ACAD_MTEXT_DEFINED_HEIGHT_END
  0
MTEXT
  5
1A1
330
1F
100
AcDbEntity
  8
TITLE_BLOCK
100
AcDbMText
 10
7.96012
 20
0.84044
 30
0.0
 40
0.0384
 41
2.351999999999999
 71
     1
 72
     1
  1
DWG NO.
  7
ONSHAPE-STANDARD
  0
MTEXT
  5
1A2
102
{ACAD_XDICTIONARY
360
1A3
102
}
330
1F
100
AcDbEntity
  8
TITLE_BLOCK
100
AcDbMText
 10
9.139
 20
0.725
 30
0.0
 40
0.144
 41
2.399999999999999
 71
     5
 72
     1
  1
----
  7
ONSHAPE-STANDARD-FIELDS
1001
ACAD
1000
ACAD_MTEXT_DEFINED_HEIGHT_BEGIN
1070
    46
1040
0.3
1000
ACAD_MTEXT_DEFINED_HEIGHT_END
  0
MTEXT
  5
1A8
330
1F
100
AcDbEntity
  8
TITLE_BLOCK
100
AcDbMText
 10
10.36012
 20
0.84044
 30
0.0
 40
0.0384
 41
0.2940000000000007
 71
     1
 72
     1
  1
REV.
  7
ONSHAPE-STANDARD
  0
MTEXT
  5
1A9
102
{ACAD_XDICTIONARY
360
1AA
102
}
330
1F
100
AcDbEntity
  8
TITLE_BLOCK
100
AcDbMText
 10
10.504
 20
0.725
 30
0.0
 40
0.144
 41
0.2700000000000014
 71
     5
 72
     1
  1
-
  7
ONSHAPE-STANDARD-FIELDS
1001
ACAD
1000
ACAD_MTEXT_DEFINED_HEIGHT_BEGIN
1070
    46
1040
0.3
1000
ACAD_MTEXT_DEFINED_HEIGHT_END
  0
MTEXT
  5
1AF
330
1F
100
AcDbEntity
  8
TITLE_BLOCK
100
AcDbMText
 10
7.58512
 20
0.5404399999999999
 30
0.0
 40
0.0384
 41
0.6467999999999984
 71
     1
 72
     1
  1
SCALE
  7
ONSHAPE-STANDARD
  0
MTEXT
  5
1B0
102
{ACAD_XDICTIONARY
360
1B1
102
}
330
1F
100
AcDbEntity
  8
TITLE_BLOCK
100
AcDbMText
 10
7.923999999999999
 20
0.4775
 30
0.0
 40
0.0864
 41
0.5999999999999988
 71
     5
 72
     1
  1
1:2
  7
ONSHAPE-STANDARD-FIELDS
1001
ACAD
1000
ACAD_MTEXT_DEFINED_HEIGHT_BEGIN
1070
    46
1040
0.195
1000
ACAD_MTEXT_DEFINED_HEIGHT_END
  0
MTEXT
  5
1B6
330
1F
100
AcDbEntity
  8
TITLE_BLOCK
100
AcDbMText
 10
8.245119999999998
 20
0.5404399999999999
 30
0.0
 40
0.0384
 41
1.3377
 71
     1
 72
     1
  1
WEIGHT
  7
ONSHAPE-STANDARD
  0
MTEXT
  5
1B7
330
1F
100
AcDbEntity
  8
TITLE_BLOCK
100
AcDbMText
 10
8.9065
 20
0.4775
 30
0.0
 40
0.0864
 41
1.365
 71
     5
 72
     1
  1
 
  7
ONSHAPE-STANDARD-FIELDS
1001
ACAD
1000
ACAD_MTEXT_DEFINED_HEIGHT_BEGIN
1070
    46
1040
0.195
1000
ACAD_MTEXT_DEFINED_HEIGHT_END
  0
MTEXT
  5
1B8
330
1F
100
AcDbEntity
  8
TITLE_BLOCK
100
AcDbMText
 10
9.610119999999998
 20
0.5404399999999999
 30
0.0
 40
0.0384
 41
1.029000000000001
 71
     1
 72
     1
  1
SHEET
  7
ONSHAPE-STANDARD
  0
MTEXT
  5
1B9
102
{ACAD_XDICTIONARY
360
1BA
102
}
330
1F
100
AcDbEntity
  8
TITLE_BLOCK
100
AcDbMText
 10
10.144
 20
0.4775
 30
0.0
 40
0.0864
 41
0.9900000000000002
 71
     5
 72
     1
  1
1 of 1
  7
ONSHAPE-STANDARD-FIELDS
1001
ACAD
1000
ACAD_MTEXT_DEFINED_HEIGHT_BEGIN
1070
    46
1040
0.195
1000
ACAD_MTEXT_DEFINED_HEIGHT_END
  0
MTEXT
  5
1BF
102
{ACAD_XDICTIONARY
360
1C0
102
}
330
1F
100
AcDbEntity
  8
ANNOTATION_TEXT
 62
     7
 60
     1
100
AcDbMText
 10
2.795044645266304
 20
6.048795760758646
 30
0.0
 40
0.12
 41
0.0
 71
     2
 72
     1
  1

  7
ONSHAPE-STANDARD-VIEW-LABE
1001
ACAD
1000
ACAD_MTEXT_DEFINED_HEIGHT_BEGIN
1070
    46
1040
0.12
1000
ACAD_MTEXT_DEFINED_HEIGHT_END
  0
MTEXT
  5
1C5
102
{ACAD_XDICTIONARY
360
1C6
102
}
330
1F
100
AcDbEntity
  8
ANNOTATION_TEXT
 62
     7
 60
     1
100
AcDbMText
 10
2.841862948035145
 20
3.390792534391349
 30
0.0
 40
0.12
 41
0.0
 71
     2
 72
     1
  1

  7
ONSHAPE-STANDARD-VIEW-LABE
1001
ACAD
1000
ACAD_MTEXT_DEFINED_HEIGHT_BEGIN
1070
    46
1040
0.12
1000
ACAD_MTEXT_DEFINED_HEIGHT_END
  0
LINE
  5
1CC
330
1F
100
AcDbEntity
  8
CENTERMARKS
  6
CONTINUOUS
100
AcDbLine
 10
2.176725448035145
 20
4.55079253439135
 30
0.0
 11
2.207000448035145
 21
4.55079253439135
 31
0.0
  0
LINE
  5
1CD
330
1F
100
AcDbEntity
  8
CENTERMARKS
  6
CONTINUOUS
100
AcDbLine
 10
2.191862948035145
 20
4.53565503439135
 30
0.0
 11
2.191862948035145
 21
4.56593003439135
 31
0.0
  0
LINE
  5
1CE
330
1F
100
AcDbEntity
  8
CENTERMARKS
  6
CENTER
100
AcDbLine
 10
2.161587948035145
 20
4.55079253439135
 30
0.0
 11
2.118337948035145
 21
4.55079253439135
 31
0.0
  0
LINE
  5
1CF
330
1F
100
AcDbEntity
  8
CENTERMARKS
  6
CENTER
100
AcDbLine
 10
2.222137948035145
 20
4.55079253439135
 30
0.0
 11
2.265387948035145
 21
4.55079253439135
 31
0.0
  0
LINE
  5
1D0
330
1F
100
AcDbEntity
  8
CENTERMARKS
  6
CENTER
100
AcDbLine
 10
2.191862948035145
 20
4.58106753439135
 30
0.0
 11
2.191862948035145
 21
4.62431753439135
 31
0.0
  0
LINE
  5
1D1
330
1F
100
AcDbEntity
  8
CENTERMARKS
  6
CENTER
100
AcDbLine
 10
2.191862948035145
 20
4.520517534391351
 30
0.0
 11
2.191862948035145
 21
4.47726753439135
 31
0.0
  0
LINE
  5
1D4
330
1F
100
AcDbEntity
  8
CENTERMARKS
  6
CONTINUOUS
100
AcDbLine
 10
4.144953716422156
 20
3.75079253439135
 30
0.0
 11
4.234953716422156
 21
3.75079253439135
 31
0.0
  0
LINE
  5
1D5
330
1F
100
AcDbEntity
  8
CENTERMARKS
  6
CONTINUOUS
100
AcDbLine
 10
4.189953716422156
 20
3.70579253439135
 30
0.0
 11
4.189953716422156
 21
3.795792534391349
 31
0.0
  0
LINE
  5
1D6
330
1F
100
AcDbEntity
  8
CENTERMARKS
  6
CENTER
100
AcDbLine
 10
4.099953716422156
 20
3.75079253439135
 30
0.0
 11
3.999953716422156
 21
3.75079253439135
 31
0.0
  0
LINE
  5
1D7
330
1F
100
AcDbEntity
  8
CENTERMARKS
  6
CENTER
100
AcDbLine
 10
4.279953716422156
 20
3.75079253439135
 30
0.0
 11
4.379953716422157
 21
3.75079253439135
 31
0.0
  0
LINE
  5
1D8
330
1F
100
AcDbEntity
  8
CENTERMARKS
  6
CENTER
100
AcDbLine
 10
4.189953716422156
 20
3.840792534391349
 30
0.0
 11
4.189953716422155
 21
3.940792534391349
 31
0.0
  0
LINE
  5
1D9
330
1F
100
AcDbEntity
  8
CENTERMARKS
  6
CENTER
100
AcDbLine
 10
4.189953716422156
 20
3.66079253439135
 30
0.0
 11
4.189953716422157
 21
3.56079253439135
 31
0.0
  0
LINE
  5
1DC
330
1F
100
AcDbEntity
  8
CENTERMARKS
  6
CONTINUOUS
100
AcDbLine
 10
4.144953716422155
 20
4.75079253439135
 30
0.0
 11
4.234953716422155
 21
4.75079253439135
 31
0.0
  0
LINE
  5
1DD
330
1F
100
AcDbEntity
  8
CENTERMARKS
  6
CONTINUOUS
100
AcDbLine
 10
4.189953716422155
 20
4.70579253439135
 30
0.0
 11
4.189953716422155
 21
4.795792534391349
 31
0.0
  0
LINE
  5
1DE
330
1F
100
AcDbEntity
  8
CENTERMARKS
  6
CENTER
100
AcDbLine
 10
4.099953716422156
 20
4.75079253439135
 30
0.0
 11
3.999953716422155
 21
4.75079253439135
 31
0.0
  0
LINE
  5
1DF
330
1F
100
AcDbEntity
  8
CENTERMARKS
  6
CENTER
100
AcDbLine
 10
4.279953716422155
 20
4.75079253439135
 30
0.0
 11
4.379953716422156
 21
4.75079253439135
 31
0.0
  0
LINE
  5
1E0
330
1F
100
AcDbEntity
  8
CENTERMARKS
  6
CENTER
100
AcDbLine
 10
4.189953716422155
 20
4.840792534391349
 30
0.0
 11
4.189953716422155
 21
4.94079253439135
 31
0.0
  0
LINE
  5
1E1
330
1F
100
AcDbEntity
  8
CENTERMARKS
  6
CENTER
100
AcDbLine
 10
4.189953716422155
 20
4.66079253439135
 30
0.0
 11
4.189953716422155
 21
4.560792534391349
 31
0.0
  0
LINE
  5
1E4
330
1F
100
AcDbEntity
  8
CENTERMARKS
  6
CONTINUOUS
100
AcDbLine
 10
1.667466216422155
 20
4.25079253439135
 30
0.0
 11
1.712441216422155
 21
4.25079253439135
 31
0.0
  0
LINE
  5
1E5
330
1F
100
AcDbEntity
  8
CENTERMARKS
  6
CONTINUOUS
100
AcDbLine
 10
1.689953716422155
 20
4.228305034391349
 30
0.0
 11
1.689953716422155
 21
4.27328003439135
 31
0.0
  0
LINE
  5
1E6
330
1F
100
AcDbEntity
  8
CENTERMARKS
  6
CENTER
100
AcDbLine
 10
1.644978716422155
 20
4.25079253439135
 30
0.0
 11
1.580728716422155
 21
4.25079253439135
 31
0.0
  0
LINE
  5
1E7
330
1F
100
AcDbEntity
  8
CENTERMARKS
  6
CENTER
100
AcDbLine
 10
1.734928716422155
 20
4.25079253439135
 30
0.0
 11
1.799178716422155
 21
4.25079253439135
 31
0.0
  0
LINE
  5
1E8
330
1F
100
AcDbEntity
  8
CENTERMARKS
  6
CENTER
100
AcDbLine
 10
1.689953716422155
 20
4.29576753439135
 30
0.0
 11
1.689953716422155
 21
4.360017534391351
 31
0.0
  0
LINE
  5
1E9
330
1F
100
AcDbEntity
  8
CENTERMARKS
  6
CENTER
100
AcDbLine
 10
1.689953716422155
 20
4.205817534391349
 30
0.0
 11
1.689953716422155
 21
4.141567534391348
 31
0.0
  0
MTEXT
  5
1EA
102
{ACAD_XDICTIONARY
360
1EB
102
}
330
1F
100
AcDbEntity
  8
ANNOTATION_TEXT
 62
     7
 60
     1
100
AcDbMText
 10
2.542841610028394
 20
0.6371666675587289
 30
0.0
 40
0.12
 41
0.0
 71
     2
 72
     1
  1

  7
ONSHAPE-STANDARD-VIEW-LABE
1001
ACAD
1000
ACAD_MTEXT_DEFINED_HEIGHT_BEGIN
1070
    46
1040
0.12
1000
ACAD_MTEXT_DEFINED_HEIGHT_END
  0
MTEXT
  5
1F1
102
{ACAD_XDICTIONARY
360
1F2
102
}
330
1F
100
AcDbEntity
  8
ANNOTATION_TEXT
 62
     7
 60
     1
100
AcDbMText
 10
8.168728232681081
 20
3.453622425164236
 30
0.0
 40
0.12
 41
0.0
 71
     2
 72
     1
  1

  7
ONSHAPE-STANDARD-VIEW-LABE
1001
ACAD
1000
ACAD_MTEXT_DEFINED_HEIGHT_BEGIN
1070
    46
1040
0.12
1000
ACAD_MTEXT_DEFINED_HEIGHT_END
  0
LINE
  5
1F6
330
1F
100
AcDbEntity
  8
CENTERMARKS
  6
CONTINUOUS
100
AcDbLine
 10
7.473728232681083
 20
4.613622425164237
 30
0.0
 11
7.563728232681083
 21
4.613622425164237
 31
0.0
  0
LINE
  5
1F7
330
1F
100
AcDbEntity
  8
CENTERMARKS
  6
CONTINUOUS
100
AcDbLine
 10
7.518728232681083
 20
4.568622425164238
 30
0.0
 11
7.518728232681083
 21
4.658622425164237
 31
0.0
  0
LINE
  5
1F8
330
1F
100
AcDbEntity
  8
CENTERMARKS
  6
CENTER
100
AcDbLine
 10
7.428728232681083
 20
4.613622425164237
 30
0.0
 11
7.303728232681083
 21
4.613622425164237
 31
0.0
  0
LINE
  5
1F9
330
1F
100
AcDbEntity
  8
CENTERMARKS
  6
CENTER
100
AcDbLine
 10
7.608728232681083
 20
4.613622425164237
 30
0.0
 11
7.733728232681083
 21
4.613622425164237
 31
0.0
  0
LINE
  5
1FA
330
1F
100
AcDbEntity
  8
CENTERMARKS
  6
CENTER
100
AcDbLine
 10
7.518728232681083
 20
4.703622425164237
 30
0.0
 11
7.518728232681083
 21
4.828622425164237
 31
0.0
  0
LINE
  5
1FB
330
1F
100
AcDbEntity
  8
CENTERMARKS
  6
CENTER
100
AcDbLine
 10
7.518728232681083
 20
4.523622425164238
 30
0.0
 11
7.518728232681083
 21
4.398622425164238
 31
0.0
  0
LINE
  5
1FE
330
1F
100
AcDbEntity
  8
CENTERMARKS
  6
CONTINUOUS
100
AcDbLine
 10
9.273728232681083
 20
4.613622425164237
 30
0.0
 11
9.363728232681083
 21
4.613622425164237
 31
0.0
  0
LINE
  5
1FF
330
1F
100
AcDbEntity
  8
CENTERMARKS
  6
CONTINUOUS
100
AcDbLine
 10
9.318728232681083
 20
4.568622425164237
 30
0.0
 11
9.318728232681083
 21
4.658622425164237
 31
0.0
  0
LINE
  5
200
330
1F
100
AcDbEntity
  8
CENTERMARKS
  6
CENTER
100
AcDbLine
 10
9.228728232681084
 20
4.613622425164237
 30
0.0
 11
9.103728232681084
 21
4.613622425164237
 31
0.0
  0
LINE
  5
201
330
1F
100
AcDbEntity
  8
CENTERMARKS
  6
CENTER
100
AcDbLine
 10
9.408728232681083
 20
4.613622425164237
 30
0.0
 11
9.533728232681083
 21
4.613622425164237
 31
0.0
  0
LINE
  5
202
330
1F
100
AcDbEntity
  8
CENTERMARKS
  6
CENTER
100
AcDbLine
 10
9.318728232681083
 20
4.703622425164236
 30
0.0
 11
9.318728232681083
 21
4.828622425164236
 31
0.0
  0
LINE
  5
203
330
1F
100
AcDbEntity
  8
CENTERMARKS
  6
CENTER
100
AcDbLine
 10
9.318728232681083
 20
4.523622425164237
 30
0.0
 11
9.318728232681083
 21
4.398622425164237
 31
0.0
  0
LINE
  5
206
330
1F
100
AcDbEntity
  8
CENTERMARKS
  6
CONTINUOUS
100
AcDbLine
 10
9.273728232681083
 20
4.013622425164236
 30
0.0
 11
9.363728232681083
 21
4.013622425164236
 31
0.0
  0
LINE
  5
207
330
1F
100
AcDbEntity
  8
CENTERMARKS
  6
CONTINUOUS
100
AcDbLine
 10
9.318728232681083
 20
3.968622425164236
 30
0.0
 11
9.318728232681083
 21
4.058622425164236
 31
0.0
  0
LINE
  5
208
330
1F
100
AcDbEntity
  8
CENTERMARKS
  6
CENTER
100
AcDbLine
 10
9.228728232681084
 20
4.013622425164236
 30
0.0
 11
9.103728232681084
 21
4.013622425164236
 31
0.0
  0
LINE
  5
209
330
1F
100
AcDbEntity
  8
CENTERMARKS
  6
CENTER
100
AcDbLine
 10
9.408728232681083
 20
4.013622425164236
 30
0.0
 11
9.533728232681083
 21
4.013622425164236
 31
0.0
  0
LINE
  5
20A
330
1F
100
AcDbEntity
  8
CENTERMARKS
  6
CENTER
100
AcDbLine
 10
9.318728232681083
 20
4.103622425164236
 30
0.0
 11
9.318728232681082
 21
4.228622425164236
 31
0.0
  0
LINE
  5
20B
330
1F
100
AcDbEntity
  8
CENTERMARKS
  6
CENTER
100
AcDbLine
 10
9.318728232681083
 20
3.923622425164236
 30
0.0
 11
9.318728232681085
 21
3.798622425164236
 31
0.0
  0
LINE
  5
20E
330
1F
100
AcDbEntity
  8
CENTERMARKS
  6
CONTINUOUS
100
AcDbLine
 10
7.473728232681083
 20
4.013622425164237
 30
0.0
 11
7.563728232681083
 21
4.013622425164237
 31
0.0
  0
LINE
  5
20F
330
1F
100
AcDbEntity
  8
CENTERMARKS
  6
CONTINUOUS
100
AcDbLine
 10
7.518728232681083
 20
3.968622425164237
 30
0.0
 11
7.518728232681083
 21
4.058622425164237
 31
0.0
  0
LINE
  5
210
330
1F
100
AcDbEntity
  8
CENTERMARKS
  6
CENTER
100
AcDbLine
 10
7.428728232681083
 20
4.013622425164237
 30
0.0
 11
7.303728232681083
 21
4.013622425164238
 31
0.0
  0
LINE
  5
211
330
1F
100
AcDbEntity
  8
CENTERMARKS
  6
CENTER
100
AcDbLine
 10
7.608728232681083
 20
4.013622425164237
 30
0.0
 11
7.733728232681083
 21
4.013622425164236
 31
0.0
  0
LINE
  5
212
330
1F
100
AcDbEntity
  8
CENTERMARKS
  6
CENTER
100
AcDbLine
 10
7.518728232681083
 20
4.103622425164237
 30
0.0
 11
7.518728232681083
 21
4.228622425164237
 31
0.0
  0
LINE
  5
213
330
1F
100
AcDbEntity
  8
CENTERMARKS
  6
CENTER
100
AcDbLine
 10
7.518728232681083
 20
3.923622425164237
 30
0.0
 11
7.518728232681083
 21
3.798622425164237
 31
0.0
  0
LINE
  5
216
330
1F
100
AcDbEntity
  8
CENTERMARKS
  6
CONTINUOUS
100
AcDbLine
 10
9.49433150106809
 20
4.813622425164237
 30
0.0
 11
9.539306501068092
 21
4.813622425164237
 31
0.0
  0
LINE
  5
217
330
1F
100
AcDbEntity
  8
CENTERMARKS
  6
CONTINUOUS
100
AcDbLine
 10
9.516819001068091
 20
4.791134925164236
 30
0.0
 11
9.516819001068091
 21
4.836109925164237
 31
0.0
  0
LINE
  5
218
330
1F
100
AcDbEntity
  8
CENTERMARKS
  6
CENTER
100
AcDbLine
 10
9.47184400106809
 20
4.813622425164237
 30
0.0
 11
9.407594001068091
 21
4.813622425164237
 31
0.0
  0
LINE
  5
219
330
1F
100
AcDbEntity
  8
CENTERMARKS
  6
CENTER
100
AcDbLine
 10
9.561794001068092
 20
4.813622425164237
 30
0.0
 11
9.626044001068092
 21
4.813622425164237
 31
0.0
  0
LINE
  5
21A
330
1F
100
AcDbEntity
  8
CENTERMARKS
  6
CENTER
100
AcDbLine
 10
9.516819001068091
 20
4.858597425164238
 30
0.0
 11
9.516819001068093
 21
4.922847425164238
 31
0.0
  0
LINE
  5
21B
330
1F
100
AcDbEntity
  8
CENTERMARKS
  6
CENTER
100
AcDbLine
 10
9.516819001068091
 20
4.768647425164236
 30
0.0
 11
9.51681900106809
 21
4.704397425164236
 31
0.0
  0
LINE
  5
21E
330
1F
100
AcDbEntity
  8
CENTERMARKS
  6
CONTINUOUS
100
AcDbLine
 10
9.49433150106809
 20
3.813622425164237
 30
0.0
 11
9.539306501068092
 21
3.813622425164237
 31
0.0
  0
LINE
  5
21F
330
1F
100
AcDbEntity
  8
CENTERMARKS
  6
CONTINUOUS
100
AcDbLine
 10
9.516819001068091
 20
3.791134925164237
 30
0.0
 11
9.516819001068091
 21
3.836109925164237
 31
0.0
  0
LINE
  5
220
330
1F
100
AcDbEntity
  8
CENTERMARKS
  6
CENTER
100
AcDbLine
 10
9.47184400106809
 20
3.813622425164237
 30
0.0
 11
9.407594001068091
 21
3.813622425164237
 31
0.0
  0
LINE
  5
221
330
1F
100
AcDbEntity
  8
CENTERMARKS
  6
CENTER
100
AcDbLine
 10
9.561794001068092
 20
3.813622425164237
 30
0.0
 11
9.626044001068092
 21
3.813622425164237
 31
0.0
  0
LINE
  5
222
330
1F
100
AcDbEntity
  8
CENTERMARKS
  6
CENTER
100
AcDbLine
 10
9.516819001068091
 20
3.858597425164237
 30
0.0
 11
9.516819001068093
 21
3.922847425164237
 31
0.0
  0
LINE
  5
223
330
1F
100
AcDbEntity
  8
CENTERMARKS
  6
CENTER
100
AcDbLine
 10
9.516819001068091
 20
3.768647425164237
 30
0.0
 11
9.51681900106809
 21
3.704397425164237
 31
0.0
  0
LINE
  5
226
330
1F
100
AcDbEntity
  8
CENTERMARKS
  6
CONTINUOUS
100
AcDbLine
 10
6.994331501068092
 20
4.313622425164237
 30
0.0
 11
7.039306501068093
 21
4.313622425164237
 31
0.0
  0
LINE
  5
227
330
1F
100
AcDbEntity
  8
CENTERMARKS
  6
CONTINUOUS
100
AcDbLine
 10
7.016819001068092
 20
4.291134925164236
 30
0.0
 11
7.016819001068092
 21
4.336109925164237
 31
0.0
  0
LINE
  5
228
330
1F
100
AcDbEntity
  8
CENTERMARKS
  6
CENTER
100
AcDbLine
 10
6.971844001068091
 20
4.313622425164237
 30
0.0
 11
6.907594001068091
 21
4.313622425164237
 31
0.0
  0
LINE
  5
229
330
1F
100
AcDbEntity
  8
CENTERMARKS
  6
CENTER
100
AcDbLine
 10
7.061794001068093
 20
4.313622425164237
 30
0.0
 11
7.126044001068093
 21
4.313622425164237
 31
0.0
  0
LINE
  5
22A
330
1F
100
AcDbEntity
  8
CENTERMARKS
  6
CENTER
100
AcDbLine
 10
7.016819001068092
 20
4.358597425164238
 30
0.0
 11
7.016819001068092
 21
4.422847425164238
 31
0.0
  0
LINE
  5
22B
330
1F
100
AcDbEntity
  8
CENTERMARKS
  6
CENTER
100
AcDbLine
 10
7.016819001068092
 20
4.268647425164236
 30
0.0
 11
7.016819001068092
 21
4.204397425164236
 31
0.0
  0
INSERT
  5
22C
102
{ACAD_REACTORS
102
}
102
{ACAD_XDICTIONARY
360
22D
102
}
330
1F
100
AcDbEntity
  8
ANNOTATION_TEXT
 62
     7
100
AcDbBlockReference
  2
*U1
 10
4.215442106827347
 20
5.467181445934282
 30
0.0
  0
SOLID
  5
247
330
1F
100
AcDbEntity
  8
ANNOTATION_LINES
100
AcDbTrace
 10
4.295992630409255
 20
5.011667501991609
 30
0.0
 11
4.217525780594135
 21
4.846916315409869
 31
0.0
 12
4.238318361798144
 22
5.028210740494798
 32
0.0
 13
4.238318361798144
 23
5.028210740494798
 33
0.0
  0
LINE
  5
248
330
1F
100
AcDbEntity
  8
ANNOTATION_LINES
100
AcDbLine
 10
4.217525780594135
 20
4.846916315409869
 30
0.1125
 11
4.395442106827347
 21
5.467181445934282
 31
-0.1125
  0
LINE
  5
249
330
1F
100
AcDbEntity
  8
ANNOTATION_LINES
100
AcDbLine
 10
4.395442106827347
 20
5.467181445934282
 30
0.0
 11
4.215442106827347
 21
5.467181445934282
 31
0.0
  0
INSERT
  5
24A
102
{ACAD_REACTORS
102
}
102
{ACAD_XDICTIONARY
360
24B
102
}
330
1F
100
AcDbEntity
  8
ANNOTATION_TEXT
 62
     7
100
AcDbBlockReference
  2
*U2
 10
1.792585152605941
 20
5.198570805017523
 30
0.0
  0
SOLID
  5
263
330
1F
100
AcDbEntity
  8
ANNOTATION_LINES
100
AcDbTrace
 10
1.788501669067205
 20
4.476283916775397
 30
0.0
 11
1.708314352391322
 21
4.312363221790531
 31
0.0
 12
1.731003750873416
 22
4.493430035968395
 32
0.0
 13
1.731003750873416
 23
4.493430035968395
 33
0.0
  0
LINE
  5
264
330
1F
100
AcDbEntity
  8
ANNOTATION_LINES
100
AcDbLine
 10
1.708314352391322
 20
4.312363221790531
 30
-0.175
 11
1.972585152605941
 21
5.198570805017523
 31
0.175
  0
LINE
  5
265
330
1F
100
AcDbEntity
  8
ANNOTATION_LINES
100
AcDbLine
 10
1.972585152605941
 20
5.198570805017523
 30
0.0
 11
1.792585152605941
 21
5.198570805017523
 31
0.0
  0
INSERT
  5
266
102
{ACAD_REACTORS
102
}
102
{ACAD_XDICTIONARY
360
267
102
}
330
1F
100
AcDbEntity
  8
ANNOTATION_TEXT
 62
     7
100
AcDbBlockReference
  2
*U3
 10
8.167426482156733
 20
5.439915726871183
 30
0.0
  0
SOLID
  5
281
330
1F
100
AcDbEntity
  8
ANNOTATION_LINES
100
AcDbTrace
 10
7.695304511607736
 20
4.864113578142574
 30
0.0
 11
7.580401150545441
 21
4.722348922404312
 31
0.0
 12
7.6431157929325
 22
4.893716578717466
 32
0.0
 13
7.6431157929325
 23
4.893716578717466
 33
0.0
  0
LINE
  5
282
330
1F
100
AcDbEntity
  8
ANNOTATION_LINES
100
AcDbLine
 10
7.580401150545441
 20
4.722348922404312
 30
0.05
 11
7.987426482156733
 21
5.439915726871183
 31
-0.05
  0
LINE
  5
283
330
1F
100
AcDbEntity
  8
ANNOTATION_LINES
100
AcDbLine
 10
7.987426482156733
 20
5.439915726871183
 30
0.0
 11
8.167426482156733
 21
5.439915726871183
 31
0.0
  0
LINE
  5
286
330
1F
100
AcDbEntity
  8
CENTERMARKS
  6
CONTINUOUS
100
AcDbLine
 10
3.976725448035145
 20
3.95079253439135
 30
0.0
 11
4.007000448035145
 21
3.95079253439135
 31
0.0
  0
LINE
  5
287
330
1F
100
AcDbEntity
  8
CENTERMARKS
  6
CONTINUOUS
100
AcDbLine
 10
3.991862948035145
 20
3.93565503439135
 30
0.0
 11
3.991862948035145
 21
3.96593003439135
 31
0.0
  0
LINE
  5
288
330
1F
100
AcDbEntity
  8
CENTERMARKS
  6
CENTER
100
AcDbLine
 10
3.961587948035146
 20
3.95079253439135
 30
0.0
 11
3.918337948035146
 21
3.95079253439135
 31
0.0
  0
LINE
  5
289
330
1F
100
AcDbEntity
  8
CENTERMARKS
  6
CENTER
100
AcDbLine
 10
4.022137948035145
 20
3.95079253439135
 30
0.0
 11
4.065387948035145
 21
3.95079253439135
 31
0.0
  0
LINE
  5
28A
330
1F
100
AcDbEntity
  8
CENTERMARKS
  6
CENTER
100
AcDbLine
 10
3.991862948035145
 20
3.981067534391349
 30
0.0
 11
3.991862948035145
 21
4.024317534391349
 31
0.0
  0
LINE
  5
28B
330
1F
100
AcDbEntity
  8
CENTERMARKS
  6
CENTER
100
AcDbLine
 10
3.991862948035145
 20
3.92051753439135
 30
0.0
 11
3.991862948035145
 21
3.87726753439135
 31
0.0
  0
LINE
  5
28E
330
1F
100
AcDbEntity
  8
CENTERMARKS
  6
CONTINUOUS
100
AcDbLine
 10
3.976725448035145
 20
4.55079253439135
 30
0.0
 11
4.007000448035145
 21
4.55079253439135
 31
0.0
  0
LINE
  5
28F
330
1F
100
AcDbEntity
  8
CENTERMARKS
  6
CONTINUOUS
100
AcDbLine
 10
3.991862948035145
 20
4.53565503439135
 30
0.0
 11
3.991862948035145
 21
4.56593003439135
 31
0.0
  0
LINE
  5
290
330
1F
100
AcDbEntity
  8
CENTERMARKS
  6
CENTER
100
AcDbLine
 10
3.961587948035146
 20
4.55079253439135
 30
0.0
 11
3.918337948035146
 21
4.55079253439135
 31
0.0
  0
LINE
  5
291
330
1F
100
AcDbEntity
  8
CENTERMARKS
  6
CENTER
100
AcDbLine
 10
4.022137948035145
 20
4.55079253439135
 30
0.0
 11
4.065387948035145
 21
4.55079253439135
 31
0.0
  0
LINE
  5
292
330
1F
100
AcDbEntity
  8
CENTERMARKS
  6
CENTER
100
AcDbLine
 10
3.991862948035145
 20
4.58106753439135
 30
0.0
 11
3.991862948035145
 21
4.62431753439135
 31
0.0
  0
LINE
  5
293
330
1F
100
AcDbEntity
  8
CENTERMARKS
  6
CENTER
100
AcDbLine
 10
3.991862948035145
 20
4.520517534391351
 30
0.0
 11
3.991862948035145
 21
4.47726753439135
 31
0.0
  0
LINE
  5
296
330
1F
100
AcDbEntity
  8
CENTERMARKS
  6
CONTINUOUS
100
AcDbLine
 10
2.176725448035146
 20
3.950792534391348
 30
0.0
 11
2.207000448035145
 21
3.950792534391348
 31
0.0
  0
LINE
  5
297
330
1F
100
AcDbEntity
  8
CENTERMARKS
  6
CONTINUOUS
100
AcDbLine
 10
2.191862948035145
 20
3.935655034391349
 30
0.0
 11
2.191862948035145
 21
3.965930034391348
 31
0.0
  0
LINE
  5
298
330
1F
100
AcDbEntity
  8
CENTERMARKS
  6
CENTER
100
AcDbLine
 10
2.161587948035146
 20
3.950792534391348
 30
0.0
 11
2.118337948035146
 21
3.950792534391348
 31
0.0
  0
LINE
  5
299
330
1F
100
AcDbEntity
  8
CENTERMARKS
  6
CENTER
100
AcDbLine
 10
2.222137948035145
 20
3.950792534391348
 30
0.0
 11
2.265387948035145
 21
3.950792534391348
 31
0.0
  0
LINE
  5
29A
330
1F
100
AcDbEntity
  8
CENTERMARKS
  6
CENTER
100
AcDbLine
 10
2.191862948035145
 20
3.981067534391348
 30
0.0
 11
2.191862948035145
 21
4.024317534391348
 31
0.0
  0
LINE
  5
29B
330
1F
100
AcDbEntity
  8
CENTERMARKS
  6
CENTER
100
AcDbLine
 10
2.191862948035145
 20
3.920517534391349
 30
0.0
 11
2.191862948035145
 21
3.877267534391349
 31
0.0
  0
MTEXT
  5
29C
102
{ACAD_XDICTIONARY
360
29D
102
}
330
1F
100
AcDbEntity
  8
ANNOTATION_TEXT
 62
     7
 60
     1
100
AcDbMText
 10
5.505922805812939
 20
3.769979164694327
 30
0.0
 40
0.12
 41
0.0
 71
     2
 72
     1
  1

  7
ONSHAPE-STANDARD-VIEW-LABE
1001
ACAD
1000
ACAD_MTEXT_DEFINED_HEIGHT_BEGIN
1070
    46
1040
0.12
1000
ACAD_MTEXT_DEFINED_HEIGHT_END
  0
LINE
  5
2A5
330
1F
100
AcDbEntity
  8
CENTERMARKS
  6
CONTINUOUS
100
AcDbLine
 10
5.836724275457176
 20
4.332479164694327
 30
0.0
 11
5.926724275457176
 21
4.332479164694327
 31
0.0
  0
LINE
  5
2A6
330
1F
100
AcDbEntity
  8
CENTERMARKS
  6
CONTINUOUS
100
AcDbLine
 10
5.881724275457176
 20
4.287479164694327
 30
0.0
 11
5.881724275457176
 21
4.377479164694327
 31
0.0
  0
LINE
  5
2A7
330
1F
100
AcDbEntity
  8
CENTERMARKS
  6
CENTER
100
AcDbLine
 10
5.791724275457176
 20
4.332479164694327
 30
0.0
 11
5.697974275457176
 21
4.332479164694327
 31
0.0
  0
LINE
  5
2A8
330
1F
100
AcDbEntity
  8
CENTERMARKS
  6
CENTER
100
AcDbLine
 10
5.971724275457176
 20
4.332479164694327
 30
0.0
 11
6.065474275457176
 21
4.332479164694327
 31
0.0
  0
LINE
  5
2A9
330
1F
100
AcDbEntity
  8
CENTERMARKS
  6
CENTER
100
AcDbLine
 10
5.881724275457176
 20
4.422479164694327
 30
0.0
 11
5.881724275457176
 21
4.516229164694327
 31
0.0
  0
LINE
  5
2AA
330
1F
100
AcDbEntity
  8
CENTERMARKS
  6
CENTER
100
AcDbLine
 10
5.881724275457176
 20
4.242479164694327
 30
0.0
 11
5.881724275457176
 21
4.148729164694327
 31
0.0
  0
LINE
  5
2AD
330
1F
100
AcDbEntity
  8
CENTERMARKS
  6
CONTINUOUS
100
AcDbLine
 10
5.211436775457177
 20
4.484979164694327
 30
0.0
 11
5.227011775457177
 21
4.484979164694327
 31
0.0
  0
LINE
  5
2AE
330
1F
100
AcDbEntity
  8
CENTERMARKS
  6
CONTINUOUS
100
AcDbLine
 10
5.219224275457177
 20
4.477191664694327
 30
0.0
 11
5.219224275457177
 21
4.492766664694327
 31
0.0
  0
LINE
  5
2AF
330
1F
100
AcDbEntity
  8
CENTERMARKS
  6
CENTER
100
AcDbLine
 10
5.203649275457177
 20
4.484979164694327
 30
0.0
 11
5.181399275457177
 21
4.484979164694327
 31
0.0
  0
LINE
  5
2B0
330
1F
100
AcDbEntity
  8
CENTERMARKS
  6
CENTER
100
AcDbLine
 10
5.234799275457177
 20
4.484979164694327
 30
0.0
 11
5.257049275457176
 21
4.484979164694327
 31
0.0
  0
LINE
  5
2B1
330
1F
100
AcDbEntity
  8
CENTERMARKS
  6
CENTER
100
AcDbLine
 10
5.219224275457177
 20
4.500554164694327
 30
0.0
 11
5.219224275457177
 21
4.522804164694326
 31
0.0
  0
LINE
  5
2B2
330
1F
100
AcDbEntity
  8
CENTERMARKS
  6
CENTER
100
AcDbLine
 10
5.219224275457177
 20
4.469404164694327
 30
0.0
 11
5.219224275457177
 21
4.447154164694327
 31
0.0
  0
LINE
  5
2B5
330
1F
100
AcDbEntity
  8
CENTERMARKS
  6
CONTINUOUS
100
AcDbLine
 10
5.561436775457176
 20
4.484979164694327
 30
0.0
 11
5.577011775457176
 21
4.484979164694327
 31
0.0
  0
LINE
  5
2B6
330
1F
100
AcDbEntity
  8
CENTERMARKS
  6
CONTINUOUS
100
AcDbLine
 10
5.569224275457176
 20
4.477191664694327
 30
0.0
 11
5.569224275457176
 21
4.492766664694327
 31
0.0
  0
LINE
  5
2B7
330
1F
100
AcDbEntity
  8
CENTERMARKS
  6
CENTER
100
AcDbLine
 10
5.553649275457176
 20
4.484979164694327
 30
0.0
 11
5.531399275457177
 21
4.484979164694327
 31
0.0
  0
LINE
  5
2B8
330
1F
100
AcDbEntity
  8
CENTERMARKS
  6
CENTER
100
AcDbLine
 10
5.584799275457176
 20
4.484979164694327
 30
0.0
 11
5.607049275457176
 21
4.484979164694327
 31
0.0
  0
LINE
  5
2B9
330
1F
100
AcDbEntity
  8
CENTERMARKS
  6
CENTER
100
AcDbLine
 10
5.569224275457176
 20
4.500554164694327
 30
0.0
 11
5.569224275457176
 21
4.522804164694326
 31
0.0
  0
LINE
  5
2BA
330
1F
100
AcDbEntity
  8
CENTERMARKS
  6
CENTER
100
AcDbLine
 10
5.569224275457176
 20
4.469404164694327
 30
0.0
 11
5.569224275457176
 21
4.447154164694327
 31
0.0
  0
LINE
  5
2BD
330
1F
100
AcDbEntity
  8
CENTERMARKS
  6
CONTINUOUS
100
AcDbLine
 10
5.561436775457176
 20
3.994979164694327
 30
0.0
 11
5.577011775457176
 21
3.994979164694327
 31
0.0
  0
LINE
  5
2BE
330
1F
100
AcDbEntity
  8
CENTERMARKS
  6
CONTINUOUS
100
AcDbLine
 10
5.569224275457176
 20
3.987191664694327
 30
0.0
 11
5.569224275457176
 21
4.002766664694327
 31
0.0
  0
LINE
  5
2BF
330
1F
100
AcDbEntity
  8
CENTERMARKS
  6
CENTER
100
AcDbLine
 10
5.553649275457176
 20
3.994979164694327
 30
0.0
 11
5.531399275457177
 21
3.994979164694327
 31
0.0
  0
LINE
  5
2C0
330
1F
100
AcDbEntity
  8
CENTERMARKS
  6
CENTER
100
AcDbLine
 10
5.584799275457176
 20
3.994979164694327
 30
0.0
 11
5.607049275457176
 21
3.994979164694327
 31
0.0
  0
LINE
  5
2C1
330
1F
100
AcDbEntity
  8
CENTERMARKS
  6
CENTER
100
AcDbLine
 10
5.569224275457176
 20
4.010554164694327
 30
0.0
 11
5.569224275457176
 21
4.032804164694326
 31
0.0
  0
LINE
  5
2C2
330
1F
100
AcDbEntity
  8
CENTERMARKS
  6
CENTER
100
AcDbLine
 10
5.569224275457176
 20
3.979404164694327
 30
0.0
 11
5.569224275457176
 21
3.957154164694327
 31
0.0
  0
LINE
  5
2C5
330
1F
100
AcDbEntity
  8
CENTERMARKS
  6
CONTINUOUS
100
AcDbLine
 10
5.211436775457177
 20
3.994979164694326
 30
0.0
 11
5.227011775457177
 21
3.994979164694326
 31
0.0
  0
LINE
  5
2C6
330
1F
100
AcDbEntity
  8
CENTERMARKS
  6
CONTINUOUS
100
AcDbLine
 10
5.219224275457177
 20
3.987191664694326
 30
0.0
 11
5.219224275457177
 21
4.002766664694327
 31
0.0
  0
LINE
  5
2C7
330
1F
100
AcDbEntity
  8
CENTERMARKS
  6
CENTER
100
AcDbLine
 10
5.203649275457177
 20
3.994979164694326
 30
0.0
 11
5.181399275457177
 21
3.994979164694326
 31
0.0
  0
LINE
  5
2C8
330
1F
100
AcDbEntity
  8
CENTERMARKS
  6
CENTER
100
AcDbLine
 10
5.234799275457177
 20
3.994979164694326
 30
0.0
 11
5.257049275457176
 21
3.994979164694327
 31
0.0
  0
LINE
  5
2C9
330
1F
100
AcDbEntity
  8
CENTERMARKS
  6
CENTER
100
AcDbLine
 10
5.219224275457177
 20
4.010554164694327
 30
0.0
 11
5.219224275457177
 21
4.032804164694326
 31
0.0
  0
LINE
  5
2CA
330
1F
100
AcDbEntity
  8
CENTERMARKS
  6
CENTER
100
AcDbLine
 10
5.219224275457177
 20
3.979404164694326
 30
0.0
 11
5.219224275457177
 21
3.957154164694326
 31
0.0
  0
INSERT
  5
2CB
102
{ACAD_REACTORS
102
}
102
{ACAD_XDICTIONARY
360
2CC
102
}
330
1F
100
AcDbEntity
  8
ANNOTATION_TEXT
 62
     7
100
AcDbBlockReference
  2
*U4
 10
6.158792976917987
 20
3.363071886075641
 30
0.0
  0
SOLID
  5
2E7
330
1F
100
AcDbEntity
  8
ANNOTATION_LINES
100
AcDbTrace
 10
5.70649401862828
 20
3.843446725560856
 30
0.0
 11
5.586420047542208
 21
3.980859394072973
 31
0.0
 12
5.744569804573504
 22
3.889817346913751
 32
0.0
 13
5.744569804573504
 23
3.889817346913751
 33
0.0
  0
LINE
  5
2E8
330
1F
100
AcDbEntity
  8
ANNOTATION_LINES
100
AcDbLine
 10
5.586420047542208
 20
3.980859394072973
 30
0.1625000000000003
 11
6.338792976917986
 21
3.363071886075641
 31
-0.1625000000000003
  0
LINE
  5
2E9
330
1F
100
AcDbEntity
  8
ANNOTATION_LINES
100
AcDbLine
 10
6.338792976917986
 20
3.363071886075641
 30
0.0
 11
6.158792976917987
 21
3.363071886075641
 31
0.0
  0
ENDSEC
  0
SECTION
  2
OBJECTS
  0
DICTIONARY
  5
C
330
0
100
AcDbDictionary
  3
ACAD_FIELDLIST
350
1C8
  3
ACAD_GROUP
350
D
  3
ACAD_LAYOUT
350
1A
  3
ACAD_MATERIAL
350
43
  3
ACAD_MLEADERSTYLE
350
6B
  3
ACAD_MLINESTYLE
350
17
  3
ACAD_PLOTSETTINGS
350
19
  3
ACAD_SCALELIST
350
47
  3
ACAD_VISUALSTYLE
350
2A
  3
ACDBHEADERROUNDTRIPXREC
350
346
  3
ACDBVARIABLEDICTIONARY
350
6E
  3
ONSHAPE_DATA
350
2EA
  0
DICTIONARY
  5
36D
330
8
100
AcDbDictionary
280
     1
  3
ACAD_XREC_ROUNDTRIP
360
36E
  0
DICTIONARY
  5
158
330
157
100
AcDbDictionary
280
     1
  0
DICTIONARY
  5
15F
330
15E
100
AcDbDictionary
280
     1
  0
DICTIONARY
  5
169
330
168
100
AcDbDictionary
280
     1
  0
DICTIONARY
  5
16F
330
16E
100
AcDbDictionary
280
     1
  0
DICTIONARY
  5
189
330
188
100
AcDbDictionary
280
     1
  0
DICTIONARY
  5
18F
330
18E
100
AcDbDictionary
280
     1
  0
DICTIONARY
  5
195
330
194
100
AcDbDictionary
280
     1
  0
DICTIONARY
  5
19C
330
19B
100
AcDbDictionary
280
     1
  0
DICTIONARY
  5
1A3
330
1A2
100
AcDbDictionary
280
     1
  0
DICTIONARY
  5
1AA
330
1A9
100
AcDbDictionary
280
     1
  0
DICTIONARY
  5
1B1
330
1B0
100
AcDbDictionary
280
     1
  0
DICTIONARY
  5
1BA
330
1B9
100
AcDbDictionary
280
     1
  0
DICTIONARY
  5
1C0
330
1BF
100
AcDbDictionary
280
     1
  3
ONSHAPE_VIEW_ID
360
1C1
  0
DICTIONARY
  5
1C6
330
1C5
100
AcDbDictionary
280
     1
  3
ONSHAPE_VIEW_ID
360
1C7
  0
DICTIONARY
  5
1EB
330
1EA
100
AcDbDictionary
280
     1
  3
ONSHAPE_VIEW_ID
360
1EC
  0
DICTIONARY
  5
1F2
330
1F1
100
AcDbDictionary
280
     1
  3
ONSHAPE_VIEW_ID
360
1F3
  0
DICTIONARY
  5
22D
330
22C
100
AcDbDictionary
280
     1
  3
OS_DIM_DISPLAY_FLAG_DATA
360
22F
  3
OS_HOLECALLOUTDIM_DATA
360
22E
  0
DICTIONARY
  5
24B
330
24A
100
AcDbDictionary
280
     1
  3
OS_DIM_DISPLAY_FLAG_DATA
360
24D
  3
OS_HOLECALLOUTDIM_DATA
360
24C
  0
DICTIONARY
  5
267
330
266
100
AcDbDictionary
280
     1
  3
OS_DIM_DISPLAY_FLAG_DATA
360
269
  3
OS_HOLECALLOUTDIM_DATA
360
268
  0
DICTIONARY
  5
29D
330
29C
100
AcDbDictionary
280
     1
  3
ONSHAPE_VIEW_ID
360
29E
  0
DICTIONARY
  5
2CC
330
2CB
100
AcDbDictionary
280
     1
  3
OS_DIM_DISPLAY_FLAG_DATA
360
2CE
  3
OS_HOLECALLOUTDIM_DATA
360
2CD
  0
ACAD_PROXY_OBJECT
  5
1C8
102
{ACAD_REACTORS
330
C
102
}
330
C
100
AcDbProxyObject
 90
      499
 91
      509
 93
       11
310
4600
330
15B
330
15C
330
162
330
163
330
16C
330
16D
330
172
330
173
330
18C
330
18D
330
192
330
193
330
198
330
199
330
19F
330
1A0
330
1A6
330
1A7
330
1AD
330
1AE
330
1B4
330
1B5
330
1BD
330
1BE
 94
        0
  0
DICTIONARY
  5
D
102
{ACAD_REACTORS
330
C
102
}
330
C
100
AcDbDictionary
  0
DICTIONARY
  5
1A
102
{ACAD_REACTORS
330
C
102
}
330
C
100
AcDbDictionary
  0
DICTIONARY
  5
43
102
{ACAD_REACTORS
330
C
102
}
330
C
100
AcDbDictionary
  3
BYBLOCK
350
45
  3
BYLAYER
350
44
  3
GLOBAL
350
46
  0
DICTIONARY
  5
6B
102
{ACAD_REACTORS
330
C
102
}
330
C
100
AcDbDictionary
  3
STANDARD
350
6C
  0
DICTIONARY
  5
17
102
{ACAD_REACTORS
330
C
102
}
330
C
100
AcDbDictionary
  3
STANDARD
350
18
  0
DICTIONARY
  5
19
102
{ACAD_REACTORS
330
C
102
}
330
C
100
AcDbDictionary
  0
DICTIONARY
  5
47
102
{ACAD_REACTORS
330
C
102
}
330
C
100
AcDbDictionary
  3
A0
350
48
  3
A1
350
49
  3
A2
350
4A
  3
A3
350
4B
  3
A4
350
4C
  3
A5
350
4D
  3
A6
350
4E
  3
A7
350
4F
  3
A8
350
50
  3
A9
350
51
  3
B0
350
52
  3
B1
350
53
  3
B2
350
54
  3
B3
350
55
  3
B4
350
56
  3
B5
350
57
  3
B6
350
58
  3
B7
350
59
  3
B8
350
5A
  3
B9
350
5B
  3
C0
350
5C
  3
C1
350
5D
  3
C2
350
5E
  3
C3
350
5F
  3
C4
350
60
  3
C5
350
61
  3
C6
350
62
  3
C7
350
63
  3
C8
350
64
  3
C9
350
65
  3
D0
350
66
  3
D1
350
67
  3
D2
350
68
  0
DICTIONARY
  5
2A
102
{ACAD_REACTORS
330
C
102
}
330
C
100
AcDbDictionary
  3
2DWIREFRAME
350
2F
  3
BASIC
350
32
  3
BRIGHTEN
350
36
  3
COLORCHANGE
350
3A
  3
CONCEPTUAL
350
34
  3
DIM
350
35
  3
EDGECOLOROFF
350
3D
  3
FACEPATTERN
350
39
  3
FLAT
350
2B
  3
FLATWITHEDGES
350
2C
  3
GOURAUD
350
2D
  3
GOURAUDWITHEDGES
350
2E
  3
HIDDEN
350
31
  3
JITTEROFF
350
3B
  3
LINEPATTERN
350
38
  3
OVERHANGOFF
350
3C
  3
REALISTIC
350
33
  3
SHADED
350
42
  3
SHADED_WITH_EDGES
350
41
  3
SHADES_OF_GRAY
350
3E
  3
SKETCHY
350
3F
  3
THICKEN
350
37
  3
WIREFRAME
350
30
  3
X-RAY
350
40
  0
DICTIONARY
  5
346
102
{ACAD_REACTORS
330
C
102
}
330
C
100
AcDbDictionary
  3
CEPSNID
350
350
  3
CEPSNTYPE
350
34F
  3
DIMSTYLEDATA
350
366
  3
FINGERPRINTGUID
350
351
  3
HYPERLINKBASE
350
349
  3
INSUNITS
350
34E
  3
LAYOUTDICT
350
34B
  3
LWETCUNION
350
34D
  3
PLOTSETDICT
350
34C
  3
PSVPSCALE
350
353
  3
PUCSBASE
350
356
  3
PUCSORGBACK
350
35C
  3
PUCSORGBOTTOM
350
358
  3
PUCSORGFRONT
350
35B
  3
PUCSORGLEFT
350
359
  3
PUCSORGRIGHT
350
35A
  3
PUCSORGTOP
350
357
  3
PUCSORTHOREF
350
354
  3
PUCSORTHOVIEW
350
355
  3
STYLESHEET
350
34A
  3
TSTACKALIGN
350
347
  3
TSTACKSIZE
350
348
  3
UCSBASE
350
35F
  3
UCSORGBACK
350
365
  3
UCSORGBOTTOM
350
361
  3
UCSORGFRONT
350
364
  3
UCSORGLEFT
350
362
  3
UCSORGRIGHT
350
363
  3
UCSORGTOP
350
360
  3
UCSORTHOREF
350
35D
  3
UCSORTHOVIEW
350
35E
  3
VERSIONGUID
350
352
  0
DICTIONARY
  5
6E
102
{ACAD_REACTORS
330
C
102
}
330
C
100
AcDbDictionary
  3
CANNOSCALE
350
36F
  3
CMLEADERSTYLE
350
368
  3
CTABLESTYLE
350
367
  3
DIMASSOC
350
36B
  3
HIDETEXT
350
36C
  3
MSLTSCALE
350
370
  3
OLEFRAME
350
6F
  0
DICTIONARY
  5
2EA
102
{ACAD_REACTORS
330
C
102
}
330
C
100
AcDbDictionary
280
     1
  3
DIM_UNITS
360
2EB
  3
ONSHAPE_ANG_TOL_PRECISION
360
2EE
  3
ONSHAPE_BREAK_DIMENSION_DEFAULT
360
2F3
  3
ONSHAPE_DIMENSION_TEXT_HOR
360
2F2
  3
ONSHAPE_JOGDIMENSION_LOCK_
360
2F0
  3
ONSHAPE_SHOWDIMENSIONSLINE
360
2F1
  3
ONSHAPE_UNDERLINEOVERRIDEN
360
2EF
  3
ONSHAPE_VSHARP_EXTENSION
360
2ED
  3
ONSHAPE_WELD_STANDARD
360
2EC
  0
XRECORD
  5
36E
102
{ACAD_REACTORS
330
36D
102
}
330
36D
100
AcDbXrecord
102
VTR_0.000_0.000_1.000_1.000_VISUALSTYLE
340
2F
102
VTR_0.000_0.000_1.000_1.000_GRIDDISPLAY
 70
     3
102
VTR_0.000_0.000_1.000_1.000_GRIDMAJOR
 70
     5
102
VTR_0.000_0.000_1.000_1.000_DEFAULTLIGHTING
280
     1
102
VTR_0.000_0.000_1.000_1.000_DEFAULTLIGHTINGTYPE
 70
     1
102
VTR_0.000_0.000_1.000_1.000_BRIGHTNESS
141
0.0
102
VTR_0.000_0.000_1.000_1.000_CONTRAST
142
0.0
  0
XRECORD
  5
1C1
102
{ACAD_REACTORS
330
1C0
102
}
330
1C0
100
AcDbXrecord
330
0
  0
XRECORD
  5
1C7
102
{ACAD_REACTORS
330
1C6
102
}
330
1C6
100
AcDbXrecord
330
0
  0
XRECORD
  5
1EC
102
{ACAD_REACTORS
330
1EB
102
}
330
1EB
100
AcDbXrecord
330
0
  0
XRECORD
  5
1F3
102
{ACAD_REACTORS
330
1F2
102
}
330
1F2
100
AcDbXrecord
330
0
  0
XRECORD
  5
22F
102
{ACAD_REACTORS
330
22D
102
}
330
22D
100
AcDbXrecord
 90
        1
 90
        0
  0
ACAD_PROXY_OBJECT
  5
22E
102
{ACAD_REACTORS
330
22D
102
}
330
22D
100
AcDbProxyObject
 90
      499
 91
      510
 93
      754
310
57568000400000100040000000000000001680000000000880401680008000001680008000000A000000000000003C2FCA000000000000003C2FD6803FFFFFFFC880400880400B004000078B004080079B5B48804008804016803FFFFFFFC0
  0
XRECORD
  5
24D
102
{ACAD_REACTORS
330
24B
102
}
330
24B
100
AcDbXrecord
 90
        1
 90
        0
  0
ACAD_PROXY_OBJECT
  5
24C
102
{ACAD_REACTORS
330
24B
102
}
330
24B
100
AcDbProxyObject
 90
      499
 91
      510
 93
      754
310
57568000400000100040000000000000001680241F55CE0880401680008000001680008000000A000000000000003C2FCA000000000000003C2FD6803FFFFFFFC880400880400B004000078B004080079B5B48804008804016803FFFFFFFC0
  0
XRECORD
  5
269
102
{ACAD_REACTORS
330
267
102
}
330
267
100
AcDbXrecord
 90
        1
 90
        0
  0
ACAD_PROXY_OBJECT
  5
268
102
{ACAD_REACTORS
330
267
102
}
330
267
100
AcDbProxyObject
 90
      499
 91
      510
 93
      754
310
57568000400000100040000000000000001680241F55CE0880401680008000001680008000000A000000000000003C2FCA000000000000003C2FD6803FFFFFFFC880400880400B004000078B004080079B5B48804008804016803FFFFFFFC0
  0
XRECORD
  5
29E
102
{ACAD_REACTORS
330
29D
102
}
330
29D
100
AcDbXrecord
330
0
  0
XRECORD
  5
2CE
102
{ACAD_REACTORS
330
2CC
102
}
330
2CC
100
AcDbXrecord
 90
        1
 90
        0
  0
ACAD_PROXY_OBJECT
  5
2CD
102
{ACAD_REACTORS
330
2CC
102
}
330
2CC
100
AcDbProxyObject
 90
      499
 91
      510
 93
      754
310
57568000400000100040000000000000001680000000000880401680008000001680008000000A000000000000003C2FCA000000000000003C2FD6803FFFFFFFC880400880400B004000078B004080079B5B48804008804016803FFFFFFFC0
  0
MATERIAL
  5
45
102
{ACAD_REACTORS
330
43
102
}
102
{ACAD_XDICTIONARY
360
373
102
}
330
43
100
AcDbMaterial
  1
BYBLOCK
  0
MATERIAL
  5
44
102
{ACAD_REACTORS
330
43
102
}
102
{ACAD_XDICTIONARY
360
371
102
}
330
43
100
AcDbMaterial
  1
BYLAYER
  0
MATERIAL
  5
46
102
{ACAD_REACTORS
330
43
102
}
102
{ACAD_XDICTIONARY
360
375
102
}
330
43
100
AcDbMaterial
  1
GLOBAL
  0
ACAD_PROXY_OBJECT
  5
6C
102
{ACAD_REACTORS
330
6B
102
}
330
6B
100
AcDbProxyObject
 90
      499
 91
      505
 93
      610
310
40901902A4063FBFFFFFE056BD1B81E855B9FC0AD7A3703D0AD73F4214DD185B99185C9900AD7A3703D0AC73F90140501A02B5E8DC0F42B1CFC02B5E8DC0F42B1CFE5764000000000000300FC0
340
14
340
0
340
11
340
0
 94
        0
1001
ACAD_MLEADERVER
1070
     2
  0
MLINESTYLE
  5
18
102
{ACAD_REACTORS
330
17
102
}
330
17
100
AcDbMlineStyle
  2
Standard
 70
     0
  3

 62
   256
 51
90.0
 52
90.0
 71
     2
 49
0.5
 62
   256
  6
BYLAYER
 49
-0.5
 62
   256
  6
BYLAYER
  0
ACAD_PROXY_OBJECT
  5
48
102
{ACAD_REACTORS
330
47
102
}
330
47
100
AcDbProxyObject
 90
      499
 91
      503
 93
       41
310
903313A31580
  0
ACAD_PROXY_OBJECT
  5
49
102
{ACAD_REACTORS
330
47
102
}
330
47
100
AcDbProxyObject
 90
      499
 91
      503
 93
      105
310
903313A324000000000000004000
  0
ACAD_PROXY_OBJECT
  5
4A
102
{ACAD_REACTORS
330
47
102
}
330
47
100
AcDbProxyObject
 90
      499
 91
      503
 93
      105
310
903313A344000000000000104000
  0
ACAD_PROXY_OBJECT
  5
4B
102
{ACAD_REACTORS
330
47
102
}
330
47
100
AcDbProxyObject
 90
      499
 91
      503
 93
      105
310
903313A354000000000000144000
  0
ACAD_PROXY_OBJECT
  5
4C
102
{ACAD_REACTORS
330
47
102
}
330
47
100
AcDbProxyObject
 90
      499
 91
      503
 93
      105
310
903313A384000000000000204000
  0
ACAD_PROXY_OBJECT
  5
4D
102
{ACAD_REACTORS
330
47
102
}
330
47
100
AcDbProxyObject
 90
      499
 91
      503
 93
      113
310
904313A31304000000000000244000
  0
ACAD_PROXY_OBJECT
  5
4E
102
{ACAD_REACTORS
330
47
102
}
330
47
100
AcDbProxyObject
 90
      499
 91
      503
 93
      113
310
904313A31364000000000000304000
  0
ACAD_PROXY_OBJECT
  5
4F
102
{ACAD_REACTORS
330
47
102
}
330
47
100
AcDbProxyObject
 90
      499
 91
      503
 93
      113
310
904313A32304000000000000344000
  0
ACAD_PROXY_OBJECT
  5
50
102
{ACAD_REACTORS
330
47
102
}
330
47
100
AcDbProxyObject
 90
      499
 91
      503
 93
      113
310
904313A333040000000000003E4000
  0
ACAD_PROXY_OBJECT
  5
51
102
{ACAD_REACTORS
330
47
102
}
330
47
100
AcDbProxyObject
 90
      499
 91
      503
 93
      113
310
904313A34304000000000000444000
  0
ACAD_PROXY_OBJECT
  5
52
102
{ACAD_REACTORS
330
47
102
}
330
47
100
AcDbProxyObject
 90
      499
 91
      503
 93
      113
310
904313A35304000000000000494000
  0
ACAD_PROXY_OBJECT
  5
53
102
{ACAD_REACTORS
330
47
102
}
330
47
100
AcDbProxyObject
 90
      499
 91
      503
 93
      121
310
905313A3130304000000000000594000
  0
ACAD_PROXY_OBJECT
  5
54
102
{ACAD_REACTORS
330
47
102
}
330
47
100
AcDbProxyObject
 90
      499
 91
      503
 93
      105
310
903323A310000000000000010100
  0
ACAD_PROXY_OBJECT
  5
55
102
{ACAD_REACTORS
330
47
102
}
330
47
100
AcDbProxyObject
 90
      499
 91
      503
 93
      105
310
903343A310000000000000410100
  0
ACAD_PROXY_OBJECT
  5
56
102
{ACAD_REACTORS
330
47
102
}
330
47
100
AcDbProxyObject
 90
      499
 91
      503
 93
      105
310
903383A310000000000000810100
  0
ACAD_PROXY_OBJECT
  5
57
102
{ACAD_REACTORS
330
47
102
}
330
47
100
AcDbProxyObject
 90
      499
 91
      503
 93
      113
310
90431303A310000000000000910100
  0
ACAD_PROXY_OBJECT
  5
58
102
{ACAD_REACTORS
330
47
102
}
330
47
100
AcDbProxyObject
 90
      499
 91
      503
 93
      121
310
9053130303A310000000000001650100
  0
ACAD_PROXY_OBJECT
  5
59
102
{ACAD_REACTORS
330
47
102
}
330
47
100
AcDbProxyObject
 90
      499
 91
      503
 93
      257
310
90E312F31323822203D2031272D3022000000000000200FC000000000000284000
  0
ACAD_PROXY_OBJECT
  5
5A
102
{ACAD_REACTORS
330
47
102
}
330
47
100
AcDbProxyObject
 90
      499
 91
      503
 93
      249
310
90D312F363422203D2031272D3022000000000000240FC000000000000284000
  0
ACAD_PROXY_OBJECT
  5
5B
102
{ACAD_REACTORS
330
47
102
}
330
47
100
AcDbProxyObject
 90
      499
 91
      503
 93
      249
310
90D312F333222203D2031272D3022000000000000280FC000000000000284000
  0
ACAD_PROXY_OBJECT
  5
5C
102
{ACAD_REACTORS
330
47
102
}
330
47
100
AcDbProxyObject
 90
      499
 91
      503
 93
      249
310
90D312F313622203D2031272D30220000000000002C0FC000000000000284000
  0
ACAD_PROXY_OBJECT
  5
5D
102
{ACAD_REACTORS
330
47
102
}
330
47
100
AcDbProxyObject
 90
      499
 91
      503
 93
      249
310
90D332F333222203D2031272D30220000000000002E0FC000000000000284000
  0
ACAD_PROXY_OBJECT
  5
5E
102
{ACAD_REACTORS
330
47
102
}
330
47
100
AcDbProxyObject
 90
      499
 91
      503
 93
      241
310
90C312F3822203D2031272D3022000000000000300FC000000000000284000
  0
ACAD_PROXY_OBJECT
  5
5F
102
{ACAD_REACTORS
330
47
102
}
330
47
100
AcDbProxyObject
 90
      499
 91
      503
 93
      249
310
90D332F313622203D2031272D3022000000000000320FC000000000000284000
  0
ACAD_PROXY_OBJECT
  5
60
102
{ACAD_REACTORS
330
47
102
}
330
47
100
AcDbProxyObject
 90
      499
 91
      503
 93
      241
310
90C312F3422203D2031272D3022000000000000340FC000000000000284000
  0
ACAD_PROXY_OBJECT
  5
61
102
{ACAD_REACTORS
330
47
102
}
330
47
100
AcDbProxyObject
 90
      499
 91
      503
 93
      241
310
90C332F3822203D2031272D3022000000000000360FC000000000000284000
  0
ACAD_PROXY_OBJECT
  5
62
102
{ACAD_REACTORS
330
47
102
}
330
47
100
AcDbProxyObject
 90
      499
 91
      503
 93
      241
310
90C312F3222203D2031272D3022000000000000380FC000000000000284000
  0
ACAD_PROXY_OBJECT
  5
63
102
{ACAD_REACTORS
330
47
102
}
330
47
100
AcDbProxyObject
 90
      499
 91
      503
 93
      241
310
90C332F3422203D2031272D30220000000000003A0FC000000000000284000
  0
ACAD_PROXY_OBJECT
  5
64
102
{ACAD_REACTORS
330
47
102
}
330
47
100
AcDbProxyObject
 90
      499
 91
      503
 93
      161
310
90A3122203D2031272D30224000000000000284000
  0
ACAD_PROXY_OBJECT
  5
65
102
{ACAD_REACTORS
330
47
102
}
330
47
100
AcDbProxyObject
 90
      499
 91
      503
 93
      257
310
90E312D312F3222203D2031272D30220000000000003E0FC000000000000284000
  0
ACAD_PROXY_OBJECT
  5
66
102
{ACAD_REACTORS
330
47
102
}
330
47
100
AcDbProxyObject
 90
      499
 91
      503
 93
      225
310
90A3322203D2031272D302200000000000002100000000000000284000
  0
ACAD_PROXY_OBJECT
  5
67
102
{ACAD_REACTORS
330
47
102
}
330
47
100
AcDbProxyObject
 90
      499
 91
      503
 93
      225
310
90A3622203D2031272D302200000000000006100000000000000284000
  0
ACAD_PROXY_OBJECT
  5
68
102
{ACAD_REACTORS
330
47
102
}
330
47
100
AcDbProxyObject
 90
      499
 91
      503
 93
      249
310
90D31272D3022203D2031272D30220000000000000A100000000000000284000
  0
ACAD_PROXY_OBJECT
  5
2F
102
{ACAD_REACTORS
330
2A
102
}
330
2A
100
AcDbProxyObject
 90
      499
 91
      501
 93
      436
310
42CC9915DA5C99599C985B595049028333333333333E33F0000000000000F90107901411070040501600405405064090741402480A0340
1001
ACAD
1000
AcDbSavedByObjectVersion
1070
     0
  0
ACAD_PROXY_OBJECT
  5
32
102
{ACAD_REACTORS
330
2A
102
}
330
2A
100
AcDbProxyObject
 90
      499
 91
      501
 93
      388
310
4150985CDA58D07406404333333333333E33F0000000000000F90107A41107004050150841D405064090741402480A0350
1001
ACAD
1000
AcDbSavedByObjectVersion
1070
     0
  0
ACAD_PROXY_OBJECT
  5
36
102
{ACAD_REACTORS
330
2A
102
}
330
2A
100
AcDbProxyObject
 90
      499
 91
      501
 93
      428
310
42109C9A59DA1D195B90C409028333333333333E33F0000000000000F9010790141107004050150841D405064090741402480A029950
1001
ACAD
1000
AcDbSavedByObjectVersion
1070
     0
  0
ACAD_PROXY_OBJECT
  5
3A
102
{ACAD_REACTORS
330
2A
102
}
330
2A
100
AcDbProxyObject
 90
      499
 91
      501
 93
      452
310
42D0DBDB1BDC90DA185B99D95104090240C333333333333E33F0000000000000F90108901411070040501508421405064090741402480A0350
1001
ACAD
1000
AcDbSavedByObjectVersion
1070
     0
  0
ACAD_PROXY_OBJECT
  5
34
102
{ACAD_REACTORS
330
2A
102
}
330
2A
100
AcDbProxyObject
 90
      499
 91
      501
 93
      500
310
4290DBDB98D95C1D1D585B10940D028333333333333E33F0000000000000F90107902409070040501000000000018199010841D405064090740C02480A0340
1001
ACAD
1000
AcDbSavedByObjectVersion
1070
     0
  0
ACAD_PROXY_OBJECT
  5
35
102
{ACAD_REACTORS
330
2A
102
}
330
2A
100
AcDbProxyObject
 90
      499
 91
      501
 93
      412
310
40D11A5B50B409028333333333333E33F0000000000000F9010790141107004050150841D405064090741402480A02677FFFFFD0
1001
ACAD
1000
AcDbSavedByObjectVersion
1070
     0
  0
ACAD_PROXY_OBJECT
  5
3D
102
{ACAD_REACTORS
330
2A
102
}
330
2A
100
AcDbProxyObject
 90
      499
 91
      501
 93
      452
310
43115919D950DBDB1BDC93D999916409028333333333333E33F0000000000000F9010790141107004050150841D405064090741402480A0350
1001
ACAD
1000
AcDbSavedByObjectVersion
1070
     0
  0
ACAD_PROXY_OBJECT
  5
39
102
{ACAD_REACTORS
330
2A
102
}
330
2A
100
AcDbProxyObject
 90
      499
 91
      501
 93
      444
310
42D19858D95C185D1D195C9B90F409028333333333333E33F0000000000000F9010790141107004050150841D405064090741402480A0350
1001
ACAD
1000
AcDbSavedByObjectVersion
1070
     0
  0
ACAD_PROXY_OBJECT
  5
2B
102
{ACAD_REACTORS
330
2A
102
}
330
2A
100
AcDbProxyObject
 90
      499
 91
      501
 93
      380
310
41119B185D240901404333333333333E33F0000000000000F9010740A907004050150841D405064090741402480A1B50
1001
ACAD
1000
AcDbSavedByObjectVersion
1070
     0
  0
ACAD_PROXY_OBJECT
  5
2C
102
{ACAD_REACTORS
330
2A
102
}
330
2A
100
AcDbProxyObject
 90
      499
 91
      501
 93
      468
310
43519B185D15DA5D1A115919D95CD0140901404333333333333E33F0000000000000F90107409019070040501600405405064090741402480A1B50
1001
ACAD
1000
AcDbSavedByObjectVersion
1070
     0
  0
ACAD_PROXY_OBJECT
  5
2D
102
{ACAD_REACTORS
330
2A
102
}
330
2A
100
AcDbProxyObject
 90
      499
 91
      501
 93
      404
310
41D1DBDD5C985D5910240902404333333333333E33F0000000000000F9010740A9070040501641D405064090741402480A1B50
1001
ACAD
1000
AcDbSavedByObjectVersion
1070
     0
  0
ACAD_PROXY_OBJECT
  5
2E
102
{ACAD_REACTORS
330
2A
102
}
330
2A
100
AcDbProxyObject
 90
      499
 91
      501
 93
      492
310
4411DBDD5C985D5915DA5D1A115919D95CD0340902404333333333333E33F0000000000000F90107409019070040501600405405064090741402480A1B50
1001
ACAD
1000
AcDbSavedByObjectVersion
1070
     0
  0
ACAD_PROXY_OBJECT
  5
31
102
{ACAD_REACTORS
330
2A
102
}
330
2A
100
AcDbProxyObject
 90
      499
 91
      501
 93
      476
310
41921A5919195B90640502408333333333333E33F0000000000000F901079024090700405020000000000001110200405405064090740C02480A0340
1001
ACAD
1000
AcDbSavedByObjectVersion
1070
     0
  0
ACAD_PROXY_OBJECT
  5
3B
102
{ACAD_REACTORS
330
2A
102
}
330
2A
100
AcDbProxyObject
 90
      499
 91
      501
 93
      428
310
42529A5D1D195C93D999914409028333333333333E33F0000000000000F9010790141107004050150A41D405064090741402480A0350
1001
ACAD
1000
AcDbSavedByObjectVersion
1070
     0
  0
ACAD_PROXY_OBJECT
  5
38
102
{ACAD_REACTORS
330
2A
102
}
330
2A
100
AcDbProxyObject
 90
      499
 91
      501
 93
      444
310
42D31A5B995C185D1D195C9B90E409028333333333333E33F0000000000000F9010790141107004050750841D405064090741402483A0350
1001
ACAD
1000
AcDbSavedByObjectVersion
1070
     0
  0
ACAD_PROXY_OBJECT
  5
3C
102
{ACAD_REACTORS
330
2A
102
}
330
2A
100
AcDbProxyObject
 90
      499
 91
      501
 93
      444
310
42D3DD995C9A185B99D3D999915409028333333333333E33F0000000000000F9010790141107004050150941D405064090741402480A0350
1001
ACAD
1000
AcDbSavedByObjectVersion
1070
     0
  0
ACAD_PROXY_OBJECT
  5
33
102
{ACAD_REACTORS
330
2A
102
}
330
2A
100
AcDbProxyObject
 90
      499
 91
      501
 93
      428
310
425499585B1A5CDD1A58D08409038333333333333E33F0000000000000F9010740A907004050150800405405064090740C02480A1B40
1001
ACAD
1000
AcDbSavedByObjectVersion
1070
     0
  0
ACAD_PROXY_OBJECT
  5
42
102
{ACAD_REACTORS
330
2A
102
}
330
2A
100
AcDbProxyObject
 90
      499
 91
      501
 93
      420
310
4194DA1859195911B40902404333333333333E33F0000000000000F9010740A41107004050150800405405064090840C02480A0B40
1001
ACAD
1000
AcDbSavedByObjectVersion
1070
     0
  0
ACAD_PROXY_OBJECT
  5
41
102
{ACAD_REACTORS
330
2A
102
}
330
2A
100
AcDbProxyObject
 90
      499
 91
      501
 93
      516
310
4454DA18591959081DDA5D1A08195919D95CD1A40902404333333333333E33F0000000000000F901074090142907004050250800405405064090740C02480A0B40
1001
ACAD
1000
AcDbSavedByObjectVersion
1070
     0
  0
ACAD_PROXY_OBJECT
  5
3E
102
{ACAD_REACTORS
330
2A
102
}
330
2A
100
AcDbProxyObject
 90
      499
 91
      501
 93
      532
310
4394DA1859195CC81BD98811DC985E5174090240C333333333333E33F0000000000000F901079024090741D01000000000000111010841D405064090740C02480A0340
1001
ACAD
1000
AcDbSavedByObjectVersion
1070
     0
  0
ACAD_PROXY_OBJECT
  5
3F
102
{ACAD_REACTORS
330
2A
102
}
330
2A
100
AcDbProxyObject
 90
      499
 91
      501
 93
      476
310
41D4DAD95D18DA1E51840502408333333333333E33F0000000000000F901079024090741D01000000000000111010B41D405064090741802480A0340
1001
ACAD
1000
AcDbSavedByObjectVersion
1070
     0
  0
ACAD_PROXY_OBJECT
  5
37
102
{ACAD_REACTORS
330
2A
102
}
330
2A
100
AcDbProxyObject
 90
      499
 91
      501
 93
      412
310
41D51A1A58DAD95B90D409028333333333333E33F0000000000000F9010790141107004050150C41D405064090741402480A0350
1001
ACAD
1000
AcDbSavedByObjectVersion
1070
     0
  0
ACAD_PROXY_OBJECT
  5
30
102
{ACAD_REACTORS
330
2A
102
}
330
2A
100
AcDbProxyObject
 90
      499
 91
      501
 93
      420
310
4255DA5C99599C985B595059028333333333333E33F0000000000000F90107901411070040501600405405064090740C02480A0340
1001
ACAD
1000
AcDbSavedByObjectVersion
1070
     0
  0
ACAD_PROXY_OBJECT
  5
40
102
{ACAD_REACTORS
330
2A
102
}
330
2A
100
AcDbProxyObject
 90
      499
 91
      501
 93
      404
310
41560B54985E51940902404000000000000E03F0000000000000F9010740501907004050150841D405064090740C02480A1B40
1001
ACAD
1000
AcDbSavedByObjectVersion
1070
     0
  0
XRECORD
  5
350
102
{ACAD_REACTORS
330
346
102
}
330
346
100
AcDbXrecord
340
0
  0
XRECORD
  5
34F
102
{ACAD_REACTORS
330
346
102
}
330
346
100
AcDbXrecord
 90
        0
  0
XRECORD
  5
366
102
{ACAD_REACTORS
330
346
102
}
330
346
100
AcDbXrecord
1000
DSTYLE
1002
{
1070
   179
 70
     1
1070
   285
 70
     7
1070
   176
 70
     7
1070
   177
 70
     7
1070
   178
 70
     7
1070
   271
 70
     3
1070
    44
 40
0.08
1070
   144
 40
2.0
1070
   371
 70
    13
1070
   372
 70
    13
1070
   272
 70
     3
1070
   340
340
72
1070
   140
 40
0.12
1070
   284
 70
     7
1070
   288
 70
     1
1070
    78
 70
     7
1070
    90
 70
     1
1002
}
  0
XRECORD
  5
351
102
{ACAD_REACTORS
330
346
102
}
330
346
100
AcDbXrecord
  1
{38363377-7238-3278-f576-71387930b4f2}
  0
XRECORD
  5
349
102
{ACAD_REACTORS
330
346
102
}
330
346
100
AcDbXrecord
  1

  0
XRECORD
  5
34E
102
{ACAD_REACTORS
330
346
102
}
330
346
100
AcDbXrecord
 90
        1
  0
XRECORD
  5
34B
102
{ACAD_REACTORS
330
346
102
}
330
346
100
AcDbXrecord
340
1A
  0
XRECORD
  5
34D
102
{ACAD_REACTORS
330
346
102
}
330
346
100
AcDbXrecord
 90
    10269
  0
XRECORD
  5
34C
102
{ACAD_REACTORS
330
346
102
}
330
346
100
AcDbXrecord
340
19
  0
XRECORD
  5
353
102
{ACAD_REACTORS
330
346
102
}
330
346
100
AcDbXrecord
 40
0.0
  0
XRECORD
  5
356
102
{ACAD_REACTORS
330
346
102
}
330
346
100
AcDbXrecord
340
0
  0
XRECORD
  5
35C
102
{ACAD_REACTORS
330
346
102
}
330
346
100
AcDbXrecord
 10
0.0
 20
0.0
 30
0.0
  0
XRECORD
  5
358
102
{ACAD_REACTORS
330
346
102
}
330
346
100
AcDbXrecord
 10
0.0
 20
0.0
 30
0.0
  0
XRECORD
  5
35B
102
{ACAD_REACTORS
330
346
102
}
330
346
100
AcDbXrecord
 10
0.0
 20
0.0
 30
0.0
  0
XRECORD
  5
359
102
{ACAD_REACTORS
330
346
102
}
330
346
100
AcDbXrecord
 10
0.0
 20
0.0
 30
0.0
  0
XRECORD
  5
35A
102
{ACAD_REACTORS
330
346
102
}
330
346
100
AcDbXrecord
 10
0.0
 20
0.0
 30
0.0
  0
XRECORD
  5
357
102
{ACAD_REACTORS
330
346
102
}
330
346
100
AcDbXrecord
 10
0.0
 20
0.0
 30
0.0
  0
XRECORD
  5
354
102
{ACAD_REACTORS
330
346
102
}
330
346
100
AcDbXrecord
340
0
  0
XRECORD
  5
355
102
{ACAD_REACTORS
330
346
102
}
330
346
100
AcDbXrecord
 70
     0
  0
XRECORD
  5
34A
102
{ACAD_REACTORS
330
346
102
}
330
346
100
AcDbXrecord
  1

  0
XRECORD
  5
347
102
{ACAD_REACTORS
330
346
102
}
330
346
100
AcDbXrecord
 90
        1
  0
XRECORD
  5
348
102
{ACAD_REACTORS
330
346
102
}
330
346
100
AcDbXrecord
 90
       70
  0
XRECORD
  5
35F
102
{ACAD_REACTORS
330
346
102
}
330
346
100
AcDbXrecord
340
0
  0
XRECORD
  5
365
102
{ACAD_REACTORS
330
346
102
}
330
346
100
AcDbXrecord
 10
0.0
 20
0.0
 30
0.0
  0
XRECORD
  5
361
102
{ACAD_REACTORS
330
346
102
}
330
346
100
AcDbXrecord
 10
0.0
 20
0.0
 30
0.0
  0
XRECORD
  5
364
102
{ACAD_REACTORS
330
346
102
}
330
346
100
AcDbXrecord
 10
0.0
 20
0.0
 30
0.0
  0
XRECORD
  5
362
102
{ACAD_REACTORS
330
346
102
}
330
346
100
AcDbXrecord
 10
0.0
 20
0.0
 30
0.0
  0
XRECORD
  5
363
102
{ACAD_REACTORS
330
346
102
}
330
346
100
AcDbXrecord
 10
0.0
 20
0.0
 30
0.0
  0
XRECORD
  5
360
102
{ACAD_REACTORS
330
346
102
}
330
346
100
AcDbXrecord
 10
0.0
 20
0.0
 30
0.0
  0
XRECORD
  5
35D
102
{ACAD_REACTORS
330
346
102
}
330
346
100
AcDbXrecord
340
0
  0
XRECORD
  5
35E
102
{ACAD_REACTORS
330
346
102
}
330
346
100
AcDbXrecord
 70
     0
  0
XRECORD
  5
352
102
{ACAD_REACTORS
330
346
102
}
330
346
100
AcDbXrecord
  1
{FAEB1C32-E019-11D5-929B-00C0DF256EC4}
  0
DICTIONARYVAR
  5
36F
102
{ACAD_REACTORS
330
6E
102
}
330
6E
100
DictionaryVariables
280
     0
  1
1:1
  0
DICTIONARYVAR
  5
368
102
{ACAD_REACTORS
330
6E
102
}
330
6E
100
DictionaryVariables
280
     0
  1
Standard
  0
DICTIONARYVAR
  5
367
102
{ACAD_REACTORS
330
6E
102
}
330
6E
100
DictionaryVariables
280
     0
  1
Onshape-Standard
  0
DICTIONARYVAR
  5
36B
102
{ACAD_REACTORS
330
6E
102
}
330
6E
100
DictionaryVariables
280
     0
  1
2
  0
DICTIONARYVAR
  5
36C
102
{ACAD_REACTORS
330
6E
102
}
330
6E
100
DictionaryVariables
280
     0
  1
1
  0
DICTIONARYVAR
  5
370
102
{ACAD_REACTORS
330
6E
102
}
330
6E
100
DictionaryVariables
280
     0
  1
1
  0
DICTIONARYVAR
  5
6F
102
{ACAD_REACTORS
330
6E
102
}
330
6E
100
DictionaryVariables
280
     0
  1
0
  0
XRECORD
  5
2EB
102
{ACAD_REACTORS
330
2EA
102
}
330
2EA
100
AcDbXrecord
 70
     1
  0
XRECORD
  5
2EE
102
{ACAD_REACTORS
330
2EA
102
}
330
2EA
100
AcDbXrecord
 90
        0
  0
ACAD_PROXY_OBJECT
  5
2F3
102
{ACAD_REACTORS
330
2EA
102
}
330
2EA
100
AcDbProxyObject
 90
      499
 91
      510
 93
       34
310
40C8804040
  0
XRECORD
  5
2F2
102
{ACAD_REACTORS
330
2EA
102
}
330
2EA
100
AcDbXrecord
 90
        5
  0
XRECORD
  5
2F0
102
{ACAD_REACTORS
330
2EA
102
}
330
2EA
100
AcDbXrecord
 90
        0
  0
ACAD_PROXY_OBJECT
  5
2F1
102
{ACAD_REACTORS
330
2EA
102
}
330
2EA
100
AcDbProxyObject
 90
      499
 91
      510
 93
       34
310
40C8804000
  0
ACAD_PROXY_OBJECT
  5
2EF
102
{ACAD_REACTORS
330
2EA
102
}
330
2EA
100
AcDbProxyObject
 90
      499
 91
      510
 93
       34
310
40C8804040
  0
XRECORD
  5
2ED
102
{ACAD_REACTORS
330
2EA
102
}
330
2EA
100
AcDbXrecord
 90
        0
  0
XRECORD
  5
2EC
102
{ACAD_REACTORS
330
2EA
102
}
330
2EA
100
AcDbXrecord
 90
        0
  0
DICTIONARY
  5
373
330
45
100
AcDbDictionary
280
     1
  3
ACAD_XREC_ROUNDTRIP
360
374
  0
DICTIONARY
  5
371
330
44
100
AcDbDictionary
280
     1
  3
ACAD_XREC_ROUNDTRIP
360
372
  0
DICTIONARY
  5
375
330
46
100
AcDbDictionary
280
     1
  3
ACAD_XREC_ROUNDTRIP
360
376
  0
XRECORD
  5
374
102
{ACAD_REACTORS
330
373
102
}
330
373
100
AcDbXrecord
102
MATERIAL
148
0.0
149
0.0
149
0.0
 93
        0
 94
      127
282
     0
 72
     1
 77
     1
171
     1
175
     1
179
     1
273
     0
  0
XRECORD
  5
372
102
{ACAD_REACTORS
330
371
102
}
330
371
100
AcDbXrecord
102
MATERIAL
148
0.0
149
0.0
149
0.0
 93
        0
 94
      127
282
     0
 72
     1
 77
     1
171
     1
175
     1
179
     1
273
     0
  0
XRECORD
  5
376
102
{ACAD_REACTORS
330
375
102
}
330
375
100
AcDbXrecord
102
MATERIAL
148
0.0
149
0.0
149
0.0
 93
        0
 94
      127
282
     0
 72
     1
 77
     1
171
     1
175
     1
179
     1
273
     0
  0
ENDSEC
  0
EOF
