ISO-10303-21;
HEADER;
/* Generated by software containing ST-Developer
 * from STEP Tools, Inc. (www.steptools.com) 
 */
/* OPTION: using custom renumber hook */

FILE_DESCRIPTION(
/* description */ ('STEP AP242',
'CAx-IF Rec.Pracs.---Representation and Presentation of Product Manufa
cturing Information (PMI)---4.0---2014-10-13',
'CAx-IF Rec.Pracs.---3D Tessellated Geometry---0.4---2014-09-14','2;1'),

/* implementation_level */ '2;1');

FILE_NAME(
/* name */ '681ba5a7e6240f3e66ccbea6',
/* time_stamp */ '2025-05-07T18:25:43Z',
/* author */ (''),
/* organization */ (''),
/* preprocessor_version */ 'ST-DEVELOPER v20',
/* originating_system */ 'ONSHAPE BY PTC INC, 1.197',
/* authorisation */ '  ');

FILE_SCHEMA (('AP242_MANAGED_MODEL_BASED_3D_ENGINEERING_MIM_LF { 1 0 10303 442 1 1 4 }'));
ENDSEC;

DATA;
#10=SHAPE_REPRESENTATION_RELATIONSHIP('','',#1071,#11);
#11=ADVANCED_BREP_SHAPE_REPRESENTATION('',(#1069),#1801);
#12=CYLINDRICAL_SURFACE('',#1137,0.0021971);
#13=CYLINDRICAL_SURFACE('',#1141,0.00635);
#14=CYLINDRICAL_SURFACE('',#1142,0.0021971);
#15=CYLINDRICAL_SURFACE('',#1146,0.00635);
#16=CYLINDRICAL_SURFACE('',#1147,0.0021971);
#17=CYLINDRICAL_SURFACE('',#1151,0.00635);
#18=CYLINDRICAL_SURFACE('',#1152,0.0021971);
#19=CYLINDRICAL_SURFACE('',#1156,0.00635);
#20=CYLINDRICAL_SURFACE('',#1157,0.0032639);
#21=CYLINDRICAL_SURFACE('',#1161,0.00508);
#22=CYLINDRICAL_SURFACE('',#1162,0.0032639);
#23=CYLINDRICAL_SURFACE('',#1166,0.00508);
#24=CYLINDRICAL_SURFACE('',#1167,0.0032639);
#25=CYLINDRICAL_SURFACE('',#1169,0.003175);
#26=CYLINDRICAL_SURFACE('',#1171,0.003175);
#27=CYLINDRICAL_SURFACE('',#1173,0.003175);
#28=CYLINDRICAL_SURFACE('',#1175,0.003175);
#29=CYLINDRICAL_SURFACE('',#1177,0.003175);
#30=CYLINDRICAL_SURFACE('',#1179,0.003175);
#31=CYLINDRICAL_SURFACE('',#1181,0.003175);
#32=CYLINDRICAL_SURFACE('',#1183,0.003175);
#33=CYLINDRICAL_SURFACE('',#1184,0.0047625);
#34=CYLINDRICAL_SURFACE('',#1185,0.00254);
#35=CYLINDRICAL_SURFACE('',#1186,0.00254);
#36=CYLINDRICAL_SURFACE('',#1187,0.00254);
#37=CYLINDRICAL_SURFACE('',#1188,0.00254);
#38=CYLINDRICAL_SURFACE('',#1189,0.0011303);
#39=CYLINDRICAL_SURFACE('',#1190,0.0011303);
#40=CYLINDRICAL_SURFACE('',#1191,0.0011303);
#41=CYLINDRICAL_SURFACE('',#1192,0.0011303);
#42=LINE('',#1519,#114);
#43=LINE('',#1524,#115);
#44=LINE('',#1528,#116);
#45=LINE('',#1532,#117);
#46=LINE('',#1535,#118);
#47=LINE('',#1538,#119);
#48=LINE('',#1540,#120);
#49=LINE('',#1542,#121);
#50=LINE('',#1543,#122);
#51=LINE('',#1548,#123);
#52=LINE('',#1552,#124);
#53=LINE('',#1556,#125);
#54=LINE('',#1564,#126);
#55=LINE('',#1567,#127);
#56=LINE('',#1569,#128);
#57=LINE('',#1571,#129);
#58=LINE('',#1572,#130);
#59=LINE('',#1575,#131);
#60=LINE('',#1577,#132);
#61=LINE('',#1579,#133);
#62=LINE('',#1580,#134);
#63=LINE('',#1585,#135);
#64=LINE('',#1589,#136);
#65=LINE('',#1594,#137);
#66=LINE('',#1597,#138);
#67=LINE('',#1598,#139);
#68=LINE('',#1600,#140);
#69=LINE('',#1602,#141);
#70=LINE('',#1604,#142);
#71=LINE('',#1606,#143);
#72=LINE('',#1619,#144);
#73=LINE('',#1623,#145);
#74=LINE('',#1627,#146);
#75=LINE('',#1631,#147);
#76=LINE('',#1635,#148);
#77=LINE('',#1639,#149);
#78=LINE('',#1643,#150);
#79=LINE('',#1647,#151);
#80=LINE('',#1650,#152);
#81=LINE('',#1675,#153);
#82=LINE('',#1678,#154);
#83=LINE('',#1680,#155);
#84=LINE('',#1682,#156);
#85=LINE('',#1684,#157);
#86=LINE('',#1685,#158);
#87=LINE('',#1687,#159);
#88=LINE('',#1689,#160);
#89=LINE('',#1692,#161);
#90=LINE('',#1694,#162);
#91=LINE('',#1696,#163);
#92=LINE('',#1698,#164);
#93=LINE('',#1700,#165);
#94=LINE('',#1702,#166);
#95=LINE('',#1704,#167);
#96=LINE('',#1706,#168);
#97=LINE('',#1708,#169);
#98=LINE('',#1760,#170);
#99=LINE('',#1761,#171);
#100=LINE('',#1763,#172);
#101=LINE('',#1765,#173);
#102=LINE('',#1767,#174);
#103=LINE('',#1769,#175);
#104=LINE('',#1771,#176);
#105=LINE('',#1773,#177);
#106=LINE('',#1776,#178);
#107=LINE('',#1777,#179);
#108=LINE('',#1779,#180);
#109=LINE('',#1781,#181);
#110=LINE('',#1783,#182);
#111=LINE('',#1785,#183);
#112=LINE('',#1787,#184);
#113=LINE('',#1789,#185);
#114=VECTOR('',#1207,1.);
#115=VECTOR('',#1210,1.);
#116=VECTOR('',#1213,1.);
#117=VECTOR('',#1216,1.);
#118=VECTOR('',#1219,1.);
#119=VECTOR('',#1220,1.);
#120=VECTOR('',#1221,1.);
#121=VECTOR('',#1222,1.);
#122=VECTOR('',#1223,1.);
#123=VECTOR('',#1226,1.);
#124=VECTOR('',#1229,1.);
#125=VECTOR('',#1232,1.);
#126=VECTOR('',#1241,1.);
#127=VECTOR('',#1242,1.);
#128=VECTOR('',#1243,1.);
#129=VECTOR('',#1244,1.);
#130=VECTOR('',#1245,1.);
#131=VECTOR('',#1246,1.);
#132=VECTOR('',#1247,1.);
#133=VECTOR('',#1248,1.);
#134=VECTOR('',#1249,1.);
#135=VECTOR('',#1252,1.);
#136=VECTOR('',#1255,1.);
#137=VECTOR('',#1262,1.);
#138=VECTOR('',#1263,1.);
#139=VECTOR('',#1264,1.);
#140=VECTOR('',#1267,1.);
#141=VECTOR('',#1268,1.);
#142=VECTOR('',#1271,1.);
#143=VECTOR('',#1272,1.);
#144=VECTOR('',#1285,1.);
#145=VECTOR('',#1288,1.);
#146=VECTOR('',#1291,1.);
#147=VECTOR('',#1294,1.);
#148=VECTOR('',#1297,1.);
#149=VECTOR('',#1300,1.);
#150=VECTOR('',#1303,1.);
#151=VECTOR('',#1306,1.);
#152=VECTOR('',#1309,1.);
#153=VECTOR('',#1336,1.);
#154=VECTOR('',#1337,1.);
#155=VECTOR('',#1338,1.);
#156=VECTOR('',#1339,1.);
#157=VECTOR('',#1342,1.);
#158=VECTOR('',#1343,1.);
#159=VECTOR('',#1346,1.);
#160=VECTOR('',#1349,1.);
#161=VECTOR('',#1354,1.);
#162=VECTOR('',#1355,1.);
#163=VECTOR('',#1356,1.);
#164=VECTOR('',#1359,1.);
#165=VECTOR('',#1360,1.);
#166=VECTOR('',#1361,1.);
#167=VECTOR('',#1364,1.);
#168=VECTOR('',#1365,1.);
#169=VECTOR('',#1366,1.);
#170=VECTOR('',#1443,1.);
#171=VECTOR('',#1444,1.);
#172=VECTOR('',#1447,1.);
#173=VECTOR('',#1450,1.);
#174=VECTOR('',#1453,1.);
#175=VECTOR('',#1456,1.);
#176=VECTOR('',#1459,1.);
#177=VECTOR('',#1462,1.);
#178=VECTOR('',#1467,1.);
#179=VECTOR('',#1468,1.);
#180=VECTOR('',#1471,1.);
#181=VECTOR('',#1474,1.);
#182=VECTOR('',#1477,1.);
#183=VECTOR('',#1480,1.);
#184=VECTOR('',#1483,1.);
#185=VECTOR('',#1486,1.);
#186=ORIENTED_EDGE('',*,*,#450,.F.);
#187=ORIENTED_EDGE('',*,*,#451,.F.);
#188=ORIENTED_EDGE('',*,*,#452,.F.);
#189=ORIENTED_EDGE('',*,*,#453,.F.);
#190=ORIENTED_EDGE('',*,*,#454,.T.);
#191=ORIENTED_EDGE('',*,*,#455,.F.);
#192=ORIENTED_EDGE('',*,*,#456,.T.);
#193=ORIENTED_EDGE('',*,*,#457,.F.);
#194=ORIENTED_EDGE('',*,*,#458,.T.);
#195=ORIENTED_EDGE('',*,*,#459,.T.);
#196=ORIENTED_EDGE('',*,*,#460,.T.);
#197=ORIENTED_EDGE('',*,*,#461,.T.);
#198=ORIENTED_EDGE('',*,*,#462,.T.);
#199=ORIENTED_EDGE('',*,*,#463,.F.);
#200=ORIENTED_EDGE('',*,*,#464,.T.);
#201=ORIENTED_EDGE('',*,*,#465,.T.);
#202=ORIENTED_EDGE('',*,*,#466,.T.);
#203=ORIENTED_EDGE('',*,*,#467,.F.);
#204=ORIENTED_EDGE('',*,*,#468,.T.);
#205=ORIENTED_EDGE('',*,*,#469,.F.);
#206=ORIENTED_EDGE('',*,*,#470,.T.);
#207=ORIENTED_EDGE('',*,*,#471,.T.);
#208=ORIENTED_EDGE('',*,*,#472,.T.);
#209=ORIENTED_EDGE('',*,*,#473,.T.);
#210=ORIENTED_EDGE('',*,*,#474,.T.);
#211=ORIENTED_EDGE('',*,*,#475,.T.);
#212=ORIENTED_EDGE('',*,*,#476,.T.);
#213=ORIENTED_EDGE('',*,*,#477,.F.);
#214=ORIENTED_EDGE('',*,*,#478,.F.);
#215=ORIENTED_EDGE('',*,*,#479,.T.);
#216=ORIENTED_EDGE('',*,*,#480,.F.);
#217=ORIENTED_EDGE('',*,*,#481,.F.);
#218=ORIENTED_EDGE('',*,*,#482,.F.);
#219=ORIENTED_EDGE('',*,*,#483,.T.);
#220=ORIENTED_EDGE('',*,*,#484,.T.);
#221=ORIENTED_EDGE('',*,*,#485,.F.);
#222=ORIENTED_EDGE('',*,*,#486,.T.);
#223=ORIENTED_EDGE('',*,*,#487,.T.);
#224=ORIENTED_EDGE('',*,*,#488,.T.);
#225=ORIENTED_EDGE('',*,*,#489,.T.);
#226=ORIENTED_EDGE('',*,*,#490,.T.);
#227=ORIENTED_EDGE('',*,*,#465,.F.);
#228=ORIENTED_EDGE('',*,*,#491,.T.);
#229=ORIENTED_EDGE('',*,*,#492,.F.);
#230=ORIENTED_EDGE('',*,*,#493,.F.);
#231=ORIENTED_EDGE('',*,*,#477,.T.);
#232=ORIENTED_EDGE('',*,*,#494,.T.);
#233=ORIENTED_EDGE('',*,*,#495,.F.);
#234=ORIENTED_EDGE('',*,*,#496,.F.);
#235=ORIENTED_EDGE('',*,*,#478,.T.);
#236=ORIENTED_EDGE('',*,*,#493,.T.);
#237=ORIENTED_EDGE('',*,*,#497,.T.);
#238=ORIENTED_EDGE('',*,*,#498,.F.);
#239=ORIENTED_EDGE('',*,*,#479,.F.);
#240=ORIENTED_EDGE('',*,*,#496,.T.);
#241=ORIENTED_EDGE('',*,*,#499,.T.);
#242=ORIENTED_EDGE('',*,*,#500,.T.);
#243=ORIENTED_EDGE('',*,*,#501,.T.);
#244=ORIENTED_EDGE('',*,*,#502,.T.);
#245=ORIENTED_EDGE('',*,*,#503,.F.);
#246=ORIENTED_EDGE('',*,*,#504,.T.);
#247=ORIENTED_EDGE('',*,*,#505,.F.);
#248=ORIENTED_EDGE('',*,*,#506,.F.);
#249=ORIENTED_EDGE('',*,*,#507,.F.);
#250=ORIENTED_EDGE('',*,*,#508,.F.);
#251=ORIENTED_EDGE('',*,*,#509,.F.);
#252=ORIENTED_EDGE('',*,*,#510,.T.);
#253=ORIENTED_EDGE('',*,*,#511,.F.);
#254=ORIENTED_EDGE('',*,*,#512,.T.);
#255=ORIENTED_EDGE('',*,*,#513,.F.);
#256=ORIENTED_EDGE('',*,*,#514,.F.);
#257=ORIENTED_EDGE('',*,*,#515,.F.);
#258=ORIENTED_EDGE('',*,*,#516,.F.);
#259=ORIENTED_EDGE('',*,*,#517,.F.);
#260=ORIENTED_EDGE('',*,*,#518,.T.);
#261=ORIENTED_EDGE('',*,*,#519,.F.);
#262=ORIENTED_EDGE('',*,*,#520,.F.);
#263=ORIENTED_EDGE('',*,*,#494,.F.);
#264=ORIENTED_EDGE('',*,*,#480,.T.);
#265=ORIENTED_EDGE('',*,*,#498,.T.);
#266=ORIENTED_EDGE('',*,*,#521,.F.);
#267=ORIENTED_EDGE('',*,*,#522,.F.);
#268=ORIENTED_EDGE('',*,*,#523,.F.);
#269=ORIENTED_EDGE('',*,*,#524,.T.);
#270=ORIENTED_EDGE('',*,*,#525,.T.);
#271=ORIENTED_EDGE('',*,*,#526,.T.);
#272=ORIENTED_EDGE('',*,*,#527,.T.);
#273=ORIENTED_EDGE('',*,*,#492,.T.);
#274=ORIENTED_EDGE('',*,*,#520,.T.);
#275=ORIENTED_EDGE('',*,*,#497,.F.);
#276=ORIENTED_EDGE('',*,*,#495,.T.);
#277=ORIENTED_EDGE('',*,*,#528,.T.);
#278=ORIENTED_EDGE('',*,*,#529,.T.);
#279=ORIENTED_EDGE('',*,*,#530,.T.);
#280=ORIENTED_EDGE('',*,*,#531,.T.);
#281=ORIENTED_EDGE('',*,*,#532,.T.);
#282=ORIENTED_EDGE('',*,*,#533,.T.);
#283=ORIENTED_EDGE('',*,*,#534,.F.);
#284=ORIENTED_EDGE('',*,*,#535,.F.);
#285=ORIENTED_EDGE('',*,*,#536,.T.);
#286=ORIENTED_EDGE('',*,*,#483,.F.);
#287=ORIENTED_EDGE('',*,*,#537,.F.);
#288=ORIENTED_EDGE('',*,*,#535,.T.);
#289=ORIENTED_EDGE('',*,*,#538,.T.);
#290=ORIENTED_EDGE('',*,*,#484,.F.);
#291=ORIENTED_EDGE('',*,*,#536,.F.);
#292=ORIENTED_EDGE('',*,*,#534,.T.);
#293=ORIENTED_EDGE('',*,*,#481,.T.);
#294=ORIENTED_EDGE('',*,*,#538,.F.);
#295=ORIENTED_EDGE('',*,*,#533,.F.);
#296=ORIENTED_EDGE('',*,*,#539,.T.);
#297=ORIENTED_EDGE('',*,*,#482,.T.);
#298=ORIENTED_EDGE('',*,*,#539,.F.);
#299=ORIENTED_EDGE('',*,*,#532,.F.);
#300=ORIENTED_EDGE('',*,*,#537,.T.);
#301=ORIENTED_EDGE('',*,*,#487,.F.);
#302=ORIENTED_EDGE('',*,*,#540,.T.);
#303=ORIENTED_EDGE('',*,*,#541,.T.);
#304=ORIENTED_EDGE('',*,*,#542,.T.);
#305=ORIENTED_EDGE('',*,*,#485,.T.);
#306=ORIENTED_EDGE('',*,*,#543,.T.);
#307=ORIENTED_EDGE('',*,*,#544,.F.);
#308=ORIENTED_EDGE('',*,*,#545,.T.);
#309=ORIENTED_EDGE('',*,*,#489,.F.);
#310=ORIENTED_EDGE('',*,*,#546,.T.);
#311=ORIENTED_EDGE('',*,*,#547,.T.);
#312=ORIENTED_EDGE('',*,*,#548,.T.);
#313=ORIENTED_EDGE('',*,*,#549,.T.);
#314=ORIENTED_EDGE('',*,*,#544,.T.);
#315=ORIENTED_EDGE('',*,*,#550,.T.);
#316=ORIENTED_EDGE('',*,*,#463,.T.);
#317=ORIENTED_EDGE('',*,*,#551,.T.);
#318=ORIENTED_EDGE('',*,*,#547,.F.);
#319=ORIENTED_EDGE('',*,*,#552,.T.);
#320=ORIENTED_EDGE('',*,*,#541,.F.);
#321=ORIENTED_EDGE('',*,*,#553,.T.);
#322=ORIENTED_EDGE('',*,*,#531,.F.);
#323=ORIENTED_EDGE('',*,*,#554,.F.);
#324=ORIENTED_EDGE('',*,*,#554,.T.);
#325=ORIENTED_EDGE('',*,*,#555,.F.);
#326=ORIENTED_EDGE('',*,*,#555,.T.);
#327=ORIENTED_EDGE('',*,*,#527,.F.);
#328=ORIENTED_EDGE('',*,*,#530,.F.);
#329=ORIENTED_EDGE('',*,*,#556,.F.);
#330=ORIENTED_EDGE('',*,*,#556,.T.);
#331=ORIENTED_EDGE('',*,*,#557,.F.);
#332=ORIENTED_EDGE('',*,*,#557,.T.);
#333=ORIENTED_EDGE('',*,*,#526,.F.);
#334=ORIENTED_EDGE('',*,*,#529,.F.);
#335=ORIENTED_EDGE('',*,*,#558,.F.);
#336=ORIENTED_EDGE('',*,*,#558,.T.);
#337=ORIENTED_EDGE('',*,*,#559,.F.);
#338=ORIENTED_EDGE('',*,*,#559,.T.);
#339=ORIENTED_EDGE('',*,*,#525,.F.);
#340=ORIENTED_EDGE('',*,*,#528,.F.);
#341=ORIENTED_EDGE('',*,*,#560,.F.);
#342=ORIENTED_EDGE('',*,*,#560,.T.);
#343=ORIENTED_EDGE('',*,*,#561,.F.);
#344=ORIENTED_EDGE('',*,*,#561,.T.);
#345=ORIENTED_EDGE('',*,*,#524,.F.);
#346=ORIENTED_EDGE('',*,*,#562,.F.);
#347=ORIENTED_EDGE('',*,*,#523,.T.);
#348=ORIENTED_EDGE('',*,*,#562,.T.);
#349=ORIENTED_EDGE('',*,*,#563,.F.);
#350=ORIENTED_EDGE('',*,*,#563,.T.);
#351=ORIENTED_EDGE('',*,*,#476,.F.);
#352=ORIENTED_EDGE('',*,*,#564,.F.);
#353=ORIENTED_EDGE('',*,*,#522,.T.);
#354=ORIENTED_EDGE('',*,*,#564,.T.);
#355=ORIENTED_EDGE('',*,*,#565,.F.);
#356=ORIENTED_EDGE('',*,*,#565,.T.);
#357=ORIENTED_EDGE('',*,*,#475,.F.);
#358=ORIENTED_EDGE('',*,*,#549,.F.);
#359=ORIENTED_EDGE('',*,*,#521,.T.);
#360=ORIENTED_EDGE('',*,*,#455,.T.);
#361=ORIENTED_EDGE('',*,*,#566,.T.);
#362=ORIENTED_EDGE('',*,*,#512,.F.);
#363=ORIENTED_EDGE('',*,*,#567,.F.);
#364=ORIENTED_EDGE('',*,*,#567,.T.);
#365=ORIENTED_EDGE('',*,*,#511,.T.);
#366=ORIENTED_EDGE('',*,*,#568,.F.);
#367=ORIENTED_EDGE('',*,*,#456,.F.);
#368=ORIENTED_EDGE('',*,*,#457,.T.);
#369=ORIENTED_EDGE('',*,*,#568,.T.);
#370=ORIENTED_EDGE('',*,*,#518,.F.);
#371=ORIENTED_EDGE('',*,*,#569,.F.);
#372=ORIENTED_EDGE('',*,*,#569,.T.);
#373=ORIENTED_EDGE('',*,*,#517,.T.);
#374=ORIENTED_EDGE('',*,*,#570,.F.);
#375=ORIENTED_EDGE('',*,*,#458,.F.);
#376=ORIENTED_EDGE('',*,*,#570,.T.);
#377=ORIENTED_EDGE('',*,*,#516,.T.);
#378=ORIENTED_EDGE('',*,*,#571,.F.);
#379=ORIENTED_EDGE('',*,*,#459,.F.);
#380=ORIENTED_EDGE('',*,*,#571,.T.);
#381=ORIENTED_EDGE('',*,*,#515,.T.);
#382=ORIENTED_EDGE('',*,*,#572,.F.);
#383=ORIENTED_EDGE('',*,*,#460,.F.);
#384=ORIENTED_EDGE('',*,*,#572,.T.);
#385=ORIENTED_EDGE('',*,*,#514,.T.);
#386=ORIENTED_EDGE('',*,*,#573,.F.);
#387=ORIENTED_EDGE('',*,*,#461,.F.);
#388=ORIENTED_EDGE('',*,*,#573,.T.);
#389=ORIENTED_EDGE('',*,*,#513,.T.);
#390=ORIENTED_EDGE('',*,*,#566,.F.);
#391=ORIENTED_EDGE('',*,*,#462,.F.);
#392=ORIENTED_EDGE('',*,*,#467,.T.);
#393=ORIENTED_EDGE('',*,*,#574,.T.);
#394=ORIENTED_EDGE('',*,*,#504,.F.);
#395=ORIENTED_EDGE('',*,*,#575,.F.);
#396=ORIENTED_EDGE('',*,*,#575,.T.);
#397=ORIENTED_EDGE('',*,*,#503,.T.);
#398=ORIENTED_EDGE('',*,*,#576,.F.);
#399=ORIENTED_EDGE('',*,*,#468,.F.);
#400=ORIENTED_EDGE('',*,*,#469,.T.);
#401=ORIENTED_EDGE('',*,*,#576,.T.);
#402=ORIENTED_EDGE('',*,*,#510,.F.);
#403=ORIENTED_EDGE('',*,*,#577,.F.);
#404=ORIENTED_EDGE('',*,*,#577,.T.);
#405=ORIENTED_EDGE('',*,*,#509,.T.);
#406=ORIENTED_EDGE('',*,*,#578,.F.);
#407=ORIENTED_EDGE('',*,*,#470,.F.);
#408=ORIENTED_EDGE('',*,*,#578,.T.);
#409=ORIENTED_EDGE('',*,*,#508,.T.);
#410=ORIENTED_EDGE('',*,*,#579,.F.);
#411=ORIENTED_EDGE('',*,*,#471,.F.);
#412=ORIENTED_EDGE('',*,*,#579,.T.);
#413=ORIENTED_EDGE('',*,*,#507,.T.);
#414=ORIENTED_EDGE('',*,*,#580,.F.);
#415=ORIENTED_EDGE('',*,*,#472,.F.);
#416=ORIENTED_EDGE('',*,*,#580,.T.);
#417=ORIENTED_EDGE('',*,*,#506,.T.);
#418=ORIENTED_EDGE('',*,*,#581,.F.);
#419=ORIENTED_EDGE('',*,*,#473,.F.);
#420=ORIENTED_EDGE('',*,*,#581,.T.);
#421=ORIENTED_EDGE('',*,*,#505,.T.);
#422=ORIENTED_EDGE('',*,*,#574,.F.);
#423=ORIENTED_EDGE('',*,*,#474,.F.);
#424=ORIENTED_EDGE('',*,*,#519,.T.);
#425=ORIENTED_EDGE('',*,*,#454,.F.);
#426=ORIENTED_EDGE('',*,*,#550,.F.);
#427=ORIENTED_EDGE('',*,*,#543,.F.);
#428=ORIENTED_EDGE('',*,*,#491,.F.);
#429=ORIENTED_EDGE('',*,*,#464,.F.);
#430=ORIENTED_EDGE('',*,*,#553,.F.);
#431=ORIENTED_EDGE('',*,*,#540,.F.);
#432=ORIENTED_EDGE('',*,*,#486,.F.);
#433=ORIENTED_EDGE('',*,*,#545,.F.);
#434=ORIENTED_EDGE('',*,*,#552,.F.);
#435=ORIENTED_EDGE('',*,*,#546,.F.);
#436=ORIENTED_EDGE('',*,*,#488,.F.);
#437=ORIENTED_EDGE('',*,*,#542,.F.);
#438=ORIENTED_EDGE('',*,*,#551,.F.);
#439=ORIENTED_EDGE('',*,*,#466,.F.);
#440=ORIENTED_EDGE('',*,*,#490,.F.);
#441=ORIENTED_EDGE('',*,*,#548,.F.);
#442=ORIENTED_EDGE('',*,*,#502,.F.);
#443=ORIENTED_EDGE('',*,*,#453,.T.);
#444=ORIENTED_EDGE('',*,*,#501,.F.);
#445=ORIENTED_EDGE('',*,*,#452,.T.);
#446=ORIENTED_EDGE('',*,*,#500,.F.);
#447=ORIENTED_EDGE('',*,*,#451,.T.);
#448=ORIENTED_EDGE('',*,*,#499,.F.);
#449=ORIENTED_EDGE('',*,*,#450,.T.);
#450=EDGE_CURVE('',#582,#582,#682,.F.);
#451=EDGE_CURVE('',#583,#583,#683,.F.);
#452=EDGE_CURVE('',#584,#584,#684,.F.);
#453=EDGE_CURVE('',#585,#585,#685,.F.);
#454=EDGE_CURVE('',#586,#586,#686,.T.);
#455=EDGE_CURVE('',#587,#588,#42,.T.);
#456=EDGE_CURVE('',#587,#589,#687,.T.);
#457=EDGE_CURVE('',#590,#589,#43,.T.);
#458=EDGE_CURVE('',#590,#591,#688,.T.);
#459=EDGE_CURVE('',#591,#592,#44,.T.);
#460=EDGE_CURVE('',#592,#593,#689,.T.);
#461=EDGE_CURVE('',#593,#594,#45,.T.);
#462=EDGE_CURVE('',#594,#588,#690,.T.);
#463=EDGE_CURVE('',#595,#596,#46,.T.);
#464=EDGE_CURVE('',#595,#597,#47,.T.);
#465=EDGE_CURVE('',#597,#598,#48,.T.);
#466=EDGE_CURVE('',#598,#596,#49,.F.);
#467=EDGE_CURVE('',#599,#600,#50,.T.);
#468=EDGE_CURVE('',#599,#601,#691,.T.);
#469=EDGE_CURVE('',#602,#601,#51,.T.);
#470=EDGE_CURVE('',#602,#603,#692,.T.);
#471=EDGE_CURVE('',#603,#604,#52,.T.);
#472=EDGE_CURVE('',#604,#605,#693,.T.);
#473=EDGE_CURVE('',#605,#606,#53,.T.);
#474=EDGE_CURVE('',#606,#600,#694,.T.);
#475=EDGE_CURVE('',#607,#607,#695,.T.);
#476=EDGE_CURVE('',#608,#608,#696,.T.);
#477=EDGE_CURVE('',#609,#610,#54,.T.);
#478=EDGE_CURVE('',#611,#609,#55,.T.);
#479=EDGE_CURVE('',#611,#612,#56,.T.);
#480=EDGE_CURVE('',#610,#612,#57,.T.);
#481=EDGE_CURVE('',#613,#614,#58,.T.);
#482=EDGE_CURVE('',#615,#613,#59,.T.);
#483=EDGE_CURVE('',#615,#616,#60,.T.);
#484=EDGE_CURVE('',#616,#614,#61,.T.);
#485=EDGE_CURVE('',#617,#618,#62,.T.);
#486=EDGE_CURVE('',#617,#619,#697,.F.);
#487=EDGE_CURVE('',#619,#620,#63,.T.);
#488=EDGE_CURVE('',#620,#621,#698,.F.);
#489=EDGE_CURVE('',#621,#622,#64,.T.);
#490=EDGE_CURVE('',#622,#598,#699,.F.);
#491=EDGE_CURVE('',#597,#618,#700,.F.);
#492=EDGE_CURVE('',#623,#624,#65,.T.);
#493=EDGE_CURVE('',#609,#623,#66,.T.);
#494=EDGE_CURVE('',#610,#624,#67,.T.);
#495=EDGE_CURVE('',#625,#623,#68,.T.);
#496=EDGE_CURVE('',#611,#625,#69,.T.);
#497=EDGE_CURVE('',#625,#626,#70,.T.);
#498=EDGE_CURVE('',#612,#626,#71,.T.);
#499=EDGE_CURVE('',#627,#627,#701,.T.);
#500=EDGE_CURVE('',#628,#628,#702,.T.);
#501=EDGE_CURVE('',#629,#629,#703,.T.);
#502=EDGE_CURVE('',#630,#630,#704,.T.);
#503=EDGE_CURVE('',#631,#632,#705,.T.);
#504=EDGE_CURVE('',#631,#633,#72,.T.);
#505=EDGE_CURVE('',#634,#633,#706,.T.);
#506=EDGE_CURVE('',#635,#634,#73,.T.);
#507=EDGE_CURVE('',#636,#635,#707,.T.);
#508=EDGE_CURVE('',#637,#636,#74,.T.);
#509=EDGE_CURVE('',#638,#637,#708,.T.);
#510=EDGE_CURVE('',#638,#632,#75,.T.);
#511=EDGE_CURVE('',#639,#640,#709,.T.);
#512=EDGE_CURVE('',#639,#641,#76,.T.);
#513=EDGE_CURVE('',#642,#641,#710,.T.);
#514=EDGE_CURVE('',#643,#642,#77,.T.);
#515=EDGE_CURVE('',#644,#643,#711,.T.);
#516=EDGE_CURVE('',#645,#644,#78,.T.);
#517=EDGE_CURVE('',#646,#645,#712,.T.);
#518=EDGE_CURVE('',#646,#640,#79,.T.);
#519=EDGE_CURVE('',#647,#647,#713,.T.);
#520=EDGE_CURVE('',#624,#626,#80,.T.);
#521=EDGE_CURVE('',#648,#648,#714,.F.);
#522=EDGE_CURVE('',#649,#649,#715,.F.);
#523=EDGE_CURVE('',#650,#650,#716,.F.);
#524=EDGE_CURVE('',#651,#651,#717,.T.);
#525=EDGE_CURVE('',#652,#652,#718,.T.);
#526=EDGE_CURVE('',#653,#653,#719,.T.);
#527=EDGE_CURVE('',#654,#654,#720,.T.);
#528=EDGE_CURVE('',#655,#655,#721,.F.);
#529=EDGE_CURVE('',#656,#656,#722,.F.);
#530=EDGE_CURVE('',#657,#657,#723,.F.);
#531=EDGE_CURVE('',#658,#658,#724,.F.);
#532=EDGE_CURVE('',#659,#660,#81,.T.);
#533=EDGE_CURVE('',#660,#661,#82,.T.);
#534=EDGE_CURVE('',#662,#661,#83,.T.);
#535=EDGE_CURVE('',#659,#662,#84,.T.);
#536=EDGE_CURVE('',#662,#616,#85,.T.);
#537=EDGE_CURVE('',#659,#615,#86,.T.);
#538=EDGE_CURVE('',#661,#614,#87,.T.);
#539=EDGE_CURVE('',#660,#613,#88,.T.);
#540=EDGE_CURVE('',#619,#663,#89,.F.);
#541=EDGE_CURVE('',#663,#664,#90,.T.);
#542=EDGE_CURVE('',#664,#620,#91,.T.);
#543=EDGE_CURVE('',#618,#665,#92,.F.);
#544=EDGE_CURVE('',#666,#665,#93,.T.);
#545=EDGE_CURVE('',#666,#617,#94,.T.);
#546=EDGE_CURVE('',#621,#667,#95,.F.);
#547=EDGE_CURVE('',#667,#668,#96,.T.);
#548=EDGE_CURVE('',#668,#622,#97,.T.);
#549=EDGE_CURVE('',#669,#669,#725,.F.);
#550=EDGE_CURVE('',#665,#595,#726,.T.);
#551=EDGE_CURVE('',#596,#668,#727,.T.);
#552=EDGE_CURVE('',#667,#664,#728,.T.);
#553=EDGE_CURVE('',#663,#666,#729,.T.);
#554=EDGE_CURVE('',#670,#670,#730,.T.);
#555=EDGE_CURVE('',#671,#671,#731,.T.);
#556=EDGE_CURVE('',#672,#672,#732,.T.);
#557=EDGE_CURVE('',#673,#673,#733,.T.);
#558=EDGE_CURVE('',#674,#674,#734,.T.);
#559=EDGE_CURVE('',#675,#675,#735,.T.);
#560=EDGE_CURVE('',#676,#676,#736,.T.);
#561=EDGE_CURVE('',#677,#677,#737,.T.);
#562=EDGE_CURVE('',#678,#678,#738,.T.);
#563=EDGE_CURVE('',#679,#679,#739,.T.);
#564=EDGE_CURVE('',#680,#680,#740,.T.);
#565=EDGE_CURVE('',#681,#681,#741,.T.);
#566=EDGE_CURVE('',#588,#641,#98,.T.);
#567=EDGE_CURVE('',#587,#639,#99,.T.);
#568=EDGE_CURVE('',#589,#640,#100,.T.);
#569=EDGE_CURVE('',#590,#646,#101,.T.);
#570=EDGE_CURVE('',#591,#645,#102,.T.);
#571=EDGE_CURVE('',#592,#644,#103,.T.);
#572=EDGE_CURVE('',#593,#643,#104,.T.);
#573=EDGE_CURVE('',#594,#642,#105,.T.);
#574=EDGE_CURVE('',#600,#633,#106,.T.);
#575=EDGE_CURVE('',#599,#631,#107,.T.);
#576=EDGE_CURVE('',#601,#632,#108,.T.);
#577=EDGE_CURVE('',#602,#638,#109,.T.);
#578=EDGE_CURVE('',#603,#637,#110,.T.);
#579=EDGE_CURVE('',#604,#636,#111,.T.);
#580=EDGE_CURVE('',#605,#635,#112,.T.);
#581=EDGE_CURVE('',#606,#634,#113,.T.);
#582=VERTEX_POINT('',#1510);
#583=VERTEX_POINT('',#1512);
#584=VERTEX_POINT('',#1514);
#585=VERTEX_POINT('',#1516);
#586=VERTEX_POINT('',#1518);
#587=VERTEX_POINT('',#1520);
#588=VERTEX_POINT('',#1521);
#589=VERTEX_POINT('',#1523);
#590=VERTEX_POINT('',#1525);
#591=VERTEX_POINT('',#1527);
#592=VERTEX_POINT('',#1529);
#593=VERTEX_POINT('',#1531);
#594=VERTEX_POINT('',#1533);
#595=VERTEX_POINT('',#1536);
#596=VERTEX_POINT('',#1537);
#597=VERTEX_POINT('',#1539);
#598=VERTEX_POINT('',#1541);
#599=VERTEX_POINT('',#1544);
#600=VERTEX_POINT('',#1545);
#601=VERTEX_POINT('',#1547);
#602=VERTEX_POINT('',#1549);
#603=VERTEX_POINT('',#1551);
#604=VERTEX_POINT('',#1553);
#605=VERTEX_POINT('',#1555);
#606=VERTEX_POINT('',#1557);
#607=VERTEX_POINT('',#1561);
#608=VERTEX_POINT('',#1563);
#609=VERTEX_POINT('',#1565);
#610=VERTEX_POINT('',#1566);
#611=VERTEX_POINT('',#1568);
#612=VERTEX_POINT('',#1570);
#613=VERTEX_POINT('',#1573);
#614=VERTEX_POINT('',#1574);
#615=VERTEX_POINT('',#1576);
#616=VERTEX_POINT('',#1578);
#617=VERTEX_POINT('',#1581);
#618=VERTEX_POINT('',#1582);
#619=VERTEX_POINT('',#1584);
#620=VERTEX_POINT('',#1586);
#621=VERTEX_POINT('',#1588);
#622=VERTEX_POINT('',#1590);
#623=VERTEX_POINT('',#1595);
#624=VERTEX_POINT('',#1596);
#625=VERTEX_POINT('',#1601);
#626=VERTEX_POINT('',#1605);
#627=VERTEX_POINT('',#1609);
#628=VERTEX_POINT('',#1611);
#629=VERTEX_POINT('',#1613);
#630=VERTEX_POINT('',#1615);
#631=VERTEX_POINT('',#1617);
#632=VERTEX_POINT('',#1618);
#633=VERTEX_POINT('',#1620);
#634=VERTEX_POINT('',#1622);
#635=VERTEX_POINT('',#1624);
#636=VERTEX_POINT('',#1626);
#637=VERTEX_POINT('',#1628);
#638=VERTEX_POINT('',#1630);
#639=VERTEX_POINT('',#1633);
#640=VERTEX_POINT('',#1634);
#641=VERTEX_POINT('',#1636);
#642=VERTEX_POINT('',#1638);
#643=VERTEX_POINT('',#1640);
#644=VERTEX_POINT('',#1642);
#645=VERTEX_POINT('',#1644);
#646=VERTEX_POINT('',#1646);
#647=VERTEX_POINT('',#1649);
#648=VERTEX_POINT('',#1653);
#649=VERTEX_POINT('',#1655);
#650=VERTEX_POINT('',#1657);
#651=VERTEX_POINT('',#1659);
#652=VERTEX_POINT('',#1661);
#653=VERTEX_POINT('',#1663);
#654=VERTEX_POINT('',#1665);
#655=VERTEX_POINT('',#1668);
#656=VERTEX_POINT('',#1670);
#657=VERTEX_POINT('',#1672);
#658=VERTEX_POINT('',#1674);
#659=VERTEX_POINT('',#1676);
#660=VERTEX_POINT('',#1677);
#661=VERTEX_POINT('',#1679);
#662=VERTEX_POINT('',#1681);
#663=VERTEX_POINT('',#1693);
#664=VERTEX_POINT('',#1695);
#665=VERTEX_POINT('',#1699);
#666=VERTEX_POINT('',#1701);
#667=VERTEX_POINT('',#1705);
#668=VERTEX_POINT('',#1707);
#669=VERTEX_POINT('',#1711);
#670=VERTEX_POINT('',#1718);
#671=VERTEX_POINT('',#1721);
#672=VERTEX_POINT('',#1725);
#673=VERTEX_POINT('',#1728);
#674=VERTEX_POINT('',#1732);
#675=VERTEX_POINT('',#1735);
#676=VERTEX_POINT('',#1739);
#677=VERTEX_POINT('',#1742);
#678=VERTEX_POINT('',#1746);
#679=VERTEX_POINT('',#1749);
#680=VERTEX_POINT('',#1753);
#681=VERTEX_POINT('',#1756);
#682=CIRCLE('',#1074,0.0011303);
#683=CIRCLE('',#1075,0.0011303);
#684=CIRCLE('',#1076,0.0011303);
#685=CIRCLE('',#1077,0.0011303);
#686=CIRCLE('',#1078,0.0047625);
#687=CIRCLE('',#1079,0.003175);
#688=CIRCLE('',#1080,0.003175);
#689=CIRCLE('',#1081,0.003175);
#690=CIRCLE('',#1082,0.003175);
#691=CIRCLE('',#1083,0.003175);
#692=CIRCLE('',#1084,0.003175);
#693=CIRCLE('',#1085,0.003175);
#694=CIRCLE('',#1086,0.003175);
#695=CIRCLE('',#1088,0.00508);
#696=CIRCLE('',#1089,0.00508);
#697=CIRCLE('',#1090,0.00254);
#698=CIRCLE('',#1091,0.00254);
#699=CIRCLE('',#1092,0.00254);
#700=CIRCLE('',#1093,0.00254);
#701=CIRCLE('',#1098,0.0011303);
#702=CIRCLE('',#1099,0.0011303);
#703=CIRCLE('',#1100,0.0011303);
#704=CIRCLE('',#1101,0.0011303);
#705=CIRCLE('',#1102,0.003175);
#706=CIRCLE('',#1103,0.003175);
#707=CIRCLE('',#1104,0.003175);
#708=CIRCLE('',#1105,0.003175);
#709=CIRCLE('',#1106,0.003175);
#710=CIRCLE('',#1107,0.003175);
#711=CIRCLE('',#1108,0.003175);
#712=CIRCLE('',#1109,0.003175);
#713=CIRCLE('',#1110,0.0047625);
#714=CIRCLE('',#1112,0.0032639);
#715=CIRCLE('',#1113,0.0032639);
#716=CIRCLE('',#1114,0.0032639);
#717=CIRCLE('',#1115,0.00635);
#718=CIRCLE('',#1116,0.00635);
#719=CIRCLE('',#1117,0.00635);
#720=CIRCLE('',#1118,0.00635);
#721=CIRCLE('',#1120,0.0021971);
#722=CIRCLE('',#1121,0.0021971);
#723=CIRCLE('',#1122,0.0021971);
#724=CIRCLE('',#1123,0.0021971);
#725=CIRCLE('',#1132,0.0032639);
#726=CIRCLE('',#1133,0.00254);
#727=CIRCLE('',#1134,0.00254);
#728=CIRCLE('',#1135,0.00254);
#729=CIRCLE('',#1136,0.00254);
#730=CIRCLE('',#1138,0.0021971);
#731=CIRCLE('',#1140,0.00635);
#732=CIRCLE('',#1143,0.0021971);
#733=CIRCLE('',#1145,0.00635);
#734=CIRCLE('',#1148,0.0021971);
#735=CIRCLE('',#1150,0.00635);
#736=CIRCLE('',#1153,0.0021971);
#737=CIRCLE('',#1155,0.00635);
#738=CIRCLE('',#1158,0.0032639);
#739=CIRCLE('',#1160,0.00508);
#740=CIRCLE('',#1163,0.0032639);
#741=CIRCLE('',#1165,0.00508);
#742=EDGE_LOOP('',(#186));
#743=EDGE_LOOP('',(#187));
#744=EDGE_LOOP('',(#188));
#745=EDGE_LOOP('',(#189));
#746=EDGE_LOOP('',(#190));
#747=EDGE_LOOP('',(#191,#192,#193,#194,#195,#196,#197,#198));
#748=EDGE_LOOP('',(#199,#200,#201,#202));
#749=EDGE_LOOP('',(#203,#204,#205,#206,#207,#208,#209,#210));
#750=EDGE_LOOP('',(#211));
#751=EDGE_LOOP('',(#212));
#752=EDGE_LOOP('',(#213,#214,#215,#216));
#753=EDGE_LOOP('',(#217,#218,#219,#220));
#754=EDGE_LOOP('',(#221,#222,#223,#224,#225,#226,#227,#228));
#755=EDGE_LOOP('',(#229,#230,#231,#232));
#756=EDGE_LOOP('',(#233,#234,#235,#236));
#757=EDGE_LOOP('',(#237,#238,#239,#240));
#758=EDGE_LOOP('',(#241));
#759=EDGE_LOOP('',(#242));
#760=EDGE_LOOP('',(#243));
#761=EDGE_LOOP('',(#244));
#762=EDGE_LOOP('',(#245,#246,#247,#248,#249,#250,#251,#252));
#763=EDGE_LOOP('',(#253,#254,#255,#256,#257,#258,#259,#260));
#764=EDGE_LOOP('',(#261));
#765=EDGE_LOOP('',(#262,#263,#264,#265));
#766=EDGE_LOOP('',(#266));
#767=EDGE_LOOP('',(#267));
#768=EDGE_LOOP('',(#268));
#769=EDGE_LOOP('',(#269));
#770=EDGE_LOOP('',(#270));
#771=EDGE_LOOP('',(#271));
#772=EDGE_LOOP('',(#272));
#773=EDGE_LOOP('',(#273,#274,#275,#276));
#774=EDGE_LOOP('',(#277));
#775=EDGE_LOOP('',(#278));
#776=EDGE_LOOP('',(#279));
#777=EDGE_LOOP('',(#280));
#778=EDGE_LOOP('',(#281,#282,#283,#284));
#779=EDGE_LOOP('',(#285,#286,#287,#288));
#780=EDGE_LOOP('',(#289,#290,#291,#292));
#781=EDGE_LOOP('',(#293,#294,#295,#296));
#782=EDGE_LOOP('',(#297,#298,#299,#300));
#783=EDGE_LOOP('',(#301,#302,#303,#304));
#784=EDGE_LOOP('',(#305,#306,#307,#308));
#785=EDGE_LOOP('',(#309,#310,#311,#312));
#786=EDGE_LOOP('',(#313));
#787=EDGE_LOOP('',(#314,#315,#316,#317,#318,#319,#320,#321));
#788=EDGE_LOOP('',(#322));
#789=EDGE_LOOP('',(#323));
#790=EDGE_LOOP('',(#324));
#791=EDGE_LOOP('',(#325));
#792=EDGE_LOOP('',(#326));
#793=EDGE_LOOP('',(#327));
#794=EDGE_LOOP('',(#328));
#795=EDGE_LOOP('',(#329));
#796=EDGE_LOOP('',(#330));
#797=EDGE_LOOP('',(#331));
#798=EDGE_LOOP('',(#332));
#799=EDGE_LOOP('',(#333));
#800=EDGE_LOOP('',(#334));
#801=EDGE_LOOP('',(#335));
#802=EDGE_LOOP('',(#336));
#803=EDGE_LOOP('',(#337));
#804=EDGE_LOOP('',(#338));
#805=EDGE_LOOP('',(#339));
#806=EDGE_LOOP('',(#340));
#807=EDGE_LOOP('',(#341));
#808=EDGE_LOOP('',(#342));
#809=EDGE_LOOP('',(#343));
#810=EDGE_LOOP('',(#344));
#811=EDGE_LOOP('',(#345));
#812=EDGE_LOOP('',(#346));
#813=EDGE_LOOP('',(#347));
#814=EDGE_LOOP('',(#348));
#815=EDGE_LOOP('',(#349));
#816=EDGE_LOOP('',(#350));
#817=EDGE_LOOP('',(#351));
#818=EDGE_LOOP('',(#352));
#819=EDGE_LOOP('',(#353));
#820=EDGE_LOOP('',(#354));
#821=EDGE_LOOP('',(#355));
#822=EDGE_LOOP('',(#356));
#823=EDGE_LOOP('',(#357));
#824=EDGE_LOOP('',(#358));
#825=EDGE_LOOP('',(#359));
#826=EDGE_LOOP('',(#360,#361,#362,#363));
#827=EDGE_LOOP('',(#364,#365,#366,#367));
#828=EDGE_LOOP('',(#368,#369,#370,#371));
#829=EDGE_LOOP('',(#372,#373,#374,#375));
#830=EDGE_LOOP('',(#376,#377,#378,#379));
#831=EDGE_LOOP('',(#380,#381,#382,#383));
#832=EDGE_LOOP('',(#384,#385,#386,#387));
#833=EDGE_LOOP('',(#388,#389,#390,#391));
#834=EDGE_LOOP('',(#392,#393,#394,#395));
#835=EDGE_LOOP('',(#396,#397,#398,#399));
#836=EDGE_LOOP('',(#400,#401,#402,#403));
#837=EDGE_LOOP('',(#404,#405,#406,#407));
#838=EDGE_LOOP('',(#408,#409,#410,#411));
#839=EDGE_LOOP('',(#412,#413,#414,#415));
#840=EDGE_LOOP('',(#416,#417,#418,#419));
#841=EDGE_LOOP('',(#420,#421,#422,#423));
#842=EDGE_LOOP('',(#424));
#843=EDGE_LOOP('',(#425));
#844=EDGE_LOOP('',(#426,#427,#428,#429));
#845=EDGE_LOOP('',(#430,#431,#432,#433));
#846=EDGE_LOOP('',(#434,#435,#436,#437));
#847=EDGE_LOOP('',(#438,#439,#440,#441));
#848=EDGE_LOOP('',(#442));
#849=EDGE_LOOP('',(#443));
#850=EDGE_LOOP('',(#444));
#851=EDGE_LOOP('',(#445));
#852=EDGE_LOOP('',(#446));
#853=EDGE_LOOP('',(#447));
#854=EDGE_LOOP('',(#448));
#855=EDGE_LOOP('',(#449));
#856=FACE_BOUND('',#742,.T.);
#857=FACE_BOUND('',#743,.T.);
#858=FACE_BOUND('',#744,.T.);
#859=FACE_BOUND('',#745,.T.);
#860=FACE_BOUND('',#746,.T.);
#861=FACE_BOUND('',#747,.T.);
#862=FACE_BOUND('',#748,.T.);
#863=FACE_BOUND('',#749,.T.);
#864=FACE_BOUND('',#750,.T.);
#865=FACE_BOUND('',#751,.T.);
#866=FACE_BOUND('',#752,.T.);
#867=FACE_BOUND('',#753,.T.);
#868=FACE_BOUND('',#754,.T.);
#869=FACE_BOUND('',#755,.T.);
#870=FACE_BOUND('',#756,.T.);
#871=FACE_BOUND('',#757,.T.);
#872=FACE_BOUND('',#758,.T.);
#873=FACE_BOUND('',#759,.T.);
#874=FACE_BOUND('',#760,.T.);
#875=FACE_BOUND('',#761,.T.);
#876=FACE_BOUND('',#762,.T.);
#877=FACE_BOUND('',#763,.T.);
#878=FACE_BOUND('',#764,.T.);
#879=FACE_BOUND('',#765,.T.);
#880=FACE_BOUND('',#766,.T.);
#881=FACE_BOUND('',#767,.T.);
#882=FACE_BOUND('',#768,.T.);
#883=FACE_BOUND('',#769,.T.);
#884=FACE_BOUND('',#770,.T.);
#885=FACE_BOUND('',#771,.T.);
#886=FACE_BOUND('',#772,.T.);
#887=FACE_BOUND('',#773,.T.);
#888=FACE_BOUND('',#774,.T.);
#889=FACE_BOUND('',#775,.T.);
#890=FACE_BOUND('',#776,.T.);
#891=FACE_BOUND('',#777,.T.);
#892=FACE_BOUND('',#778,.T.);
#893=FACE_BOUND('',#779,.T.);
#894=FACE_BOUND('',#780,.T.);
#895=FACE_BOUND('',#781,.T.);
#896=FACE_BOUND('',#782,.T.);
#897=FACE_BOUND('',#783,.T.);
#898=FACE_BOUND('',#784,.T.);
#899=FACE_BOUND('',#785,.T.);
#900=FACE_BOUND('',#786,.T.);
#901=FACE_BOUND('',#787,.T.);
#902=FACE_BOUND('',#788,.T.);
#903=FACE_BOUND('',#789,.T.);
#904=FACE_BOUND('',#790,.T.);
#905=FACE_BOUND('',#791,.T.);
#906=FACE_BOUND('',#792,.T.);
#907=FACE_BOUND('',#793,.T.);
#908=FACE_BOUND('',#794,.T.);
#909=FACE_BOUND('',#795,.T.);
#910=FACE_BOUND('',#796,.T.);
#911=FACE_BOUND('',#797,.T.);
#912=FACE_BOUND('',#798,.T.);
#913=FACE_BOUND('',#799,.T.);
#914=FACE_BOUND('',#800,.T.);
#915=FACE_BOUND('',#801,.T.);
#916=FACE_BOUND('',#802,.T.);
#917=FACE_BOUND('',#803,.T.);
#918=FACE_BOUND('',#804,.T.);
#919=FACE_BOUND('',#805,.T.);
#920=FACE_BOUND('',#806,.T.);
#921=FACE_BOUND('',#807,.T.);
#922=FACE_BOUND('',#808,.T.);
#923=FACE_BOUND('',#809,.T.);
#924=FACE_BOUND('',#810,.T.);
#925=FACE_BOUND('',#811,.T.);
#926=FACE_BOUND('',#812,.T.);
#927=FACE_BOUND('',#813,.T.);
#928=FACE_BOUND('',#814,.T.);
#929=FACE_BOUND('',#815,.T.);
#930=FACE_BOUND('',#816,.T.);
#931=FACE_BOUND('',#817,.T.);
#932=FACE_BOUND('',#818,.T.);
#933=FACE_BOUND('',#819,.T.);
#934=FACE_BOUND('',#820,.T.);
#935=FACE_BOUND('',#821,.T.);
#936=FACE_BOUND('',#822,.T.);
#937=FACE_BOUND('',#823,.T.);
#938=FACE_BOUND('',#824,.T.);
#939=FACE_BOUND('',#825,.T.);
#940=FACE_BOUND('',#826,.T.);
#941=FACE_BOUND('',#827,.T.);
#942=FACE_BOUND('',#828,.T.);
#943=FACE_BOUND('',#829,.T.);
#944=FACE_BOUND('',#830,.T.);
#945=FACE_BOUND('',#831,.T.);
#946=FACE_BOUND('',#832,.T.);
#947=FACE_BOUND('',#833,.T.);
#948=FACE_BOUND('',#834,.T.);
#949=FACE_BOUND('',#835,.T.);
#950=FACE_BOUND('',#836,.T.);
#951=FACE_BOUND('',#837,.T.);
#952=FACE_BOUND('',#838,.T.);
#953=FACE_BOUND('',#839,.T.);
#954=FACE_BOUND('',#840,.T.);
#955=FACE_BOUND('',#841,.T.);
#956=FACE_BOUND('',#842,.T.);
#957=FACE_BOUND('',#843,.T.);
#958=FACE_BOUND('',#844,.T.);
#959=FACE_BOUND('',#845,.T.);
#960=FACE_BOUND('',#846,.T.);
#961=FACE_BOUND('',#847,.T.);
#962=FACE_BOUND('',#848,.T.);
#963=FACE_BOUND('',#849,.T.);
#964=FACE_BOUND('',#850,.T.);
#965=FACE_BOUND('',#851,.T.);
#966=FACE_BOUND('',#852,.T.);
#967=FACE_BOUND('',#853,.T.);
#968=FACE_BOUND('',#854,.T.);
#969=FACE_BOUND('',#855,.T.);
#970=PLANE('',#1073);
#971=PLANE('',#1087);
#972=PLANE('',#1094);
#973=PLANE('',#1095);
#974=PLANE('',#1096);
#975=PLANE('',#1097);
#976=PLANE('',#1111);
#977=PLANE('',#1119);
#978=PLANE('',#1124);
#979=PLANE('',#1125);
#980=PLANE('',#1126);
#981=PLANE('',#1127);
#982=PLANE('',#1128);
#983=PLANE('',#1129);
#984=PLANE('',#1130);
#985=PLANE('',#1131);
#986=PLANE('',#1139);
#987=PLANE('',#1144);
#988=PLANE('',#1149);
#989=PLANE('',#1154);
#990=PLANE('',#1159);
#991=PLANE('',#1164);
#992=PLANE('',#1168);
#993=PLANE('',#1170);
#994=PLANE('',#1172);
#995=PLANE('',#1174);
#996=PLANE('',#1176);
#997=PLANE('',#1178);
#998=PLANE('',#1180);
#999=PLANE('',#1182);
#1000=ADVANCED_FACE('',(#856,#857,#858,#859,#860,#861,#862,#863),#970,.F.);
#1001=ADVANCED_FACE('',(#864,#865,#866,#867,#868),#971,.T.);
#1002=ADVANCED_FACE('',(#869),#972,.T.);
#1003=ADVANCED_FACE('',(#870),#973,.T.);
#1004=ADVANCED_FACE('',(#871),#974,.F.);
#1005=ADVANCED_FACE('',(#872,#873,#874,#875,#876,#877,#878,#879),#975,.T.);
#1006=ADVANCED_FACE('',(#880,#881,#882,#883,#884,#885,#886,#887),#976,.F.);
#1007=ADVANCED_FACE('',(#888,#889,#890,#891,#892),#977,.T.);
#1008=ADVANCED_FACE('',(#893),#978,.T.);
#1009=ADVANCED_FACE('',(#894),#979,.T.);
#1010=ADVANCED_FACE('',(#895),#980,.F.);
#1011=ADVANCED_FACE('',(#896),#981,.F.);
#1012=ADVANCED_FACE('',(#897),#982,.T.);
#1013=ADVANCED_FACE('',(#898),#983,.F.);
#1014=ADVANCED_FACE('',(#899),#984,.T.);
#1015=ADVANCED_FACE('',(#900,#901),#985,.T.);
#1016=ADVANCED_FACE('',(#902,#903),#12,.F.);
#1017=ADVANCED_FACE('',(#904,#905),#986,.T.);
#1018=ADVANCED_FACE('',(#906,#907),#13,.F.);
#1019=ADVANCED_FACE('',(#908,#909),#14,.F.);
#1020=ADVANCED_FACE('',(#910,#911),#987,.T.);
#1021=ADVANCED_FACE('',(#912,#913),#15,.F.);
#1022=ADVANCED_FACE('',(#914,#915),#16,.F.);
#1023=ADVANCED_FACE('',(#916,#917),#988,.T.);
#1024=ADVANCED_FACE('',(#918,#919),#17,.F.);
#1025=ADVANCED_FACE('',(#920,#921),#18,.F.);
#1026=ADVANCED_FACE('',(#922,#923),#989,.T.);
#1027=ADVANCED_FACE('',(#924,#925),#19,.F.);
#1028=ADVANCED_FACE('',(#926,#927),#20,.F.);
#1029=ADVANCED_FACE('',(#928,#929),#990,.T.);
#1030=ADVANCED_FACE('',(#930,#931),#21,.F.);
#1031=ADVANCED_FACE('',(#932,#933),#22,.F.);
#1032=ADVANCED_FACE('',(#934,#935),#991,.T.);
#1033=ADVANCED_FACE('',(#936,#937),#23,.F.);
#1034=ADVANCED_FACE('',(#938,#939),#24,.F.);
#1035=ADVANCED_FACE('',(#940),#992,.T.);
#1036=ADVANCED_FACE('',(#941),#25,.F.);
#1037=ADVANCED_FACE('',(#942),#993,.T.);
#1038=ADVANCED_FACE('',(#943),#26,.F.);
#1039=ADVANCED_FACE('',(#944),#994,.F.);
#1040=ADVANCED_FACE('',(#945),#27,.F.);
#1041=ADVANCED_FACE('',(#946),#995,.F.);
#1042=ADVANCED_FACE('',(#947),#28,.F.);
#1043=ADVANCED_FACE('',(#948),#996,.T.);
#1044=ADVANCED_FACE('',(#949),#29,.F.);
#1045=ADVANCED_FACE('',(#950),#997,.T.);
#1046=ADVANCED_FACE('',(#951),#30,.F.);
#1047=ADVANCED_FACE('',(#952),#998,.F.);
#1048=ADVANCED_FACE('',(#953),#31,.F.);
#1049=ADVANCED_FACE('',(#954),#999,.F.);
#1050=ADVANCED_FACE('',(#955),#32,.F.);
#1051=ADVANCED_FACE('',(#956,#957),#33,.F.);
#1052=ADVANCED_FACE('',(#958),#34,.F.);
#1053=ADVANCED_FACE('',(#959),#35,.F.);
#1054=ADVANCED_FACE('',(#960),#36,.F.);
#1055=ADVANCED_FACE('',(#961),#37,.F.);
#1056=ADVANCED_FACE('',(#962,#963),#38,.F.);
#1057=ADVANCED_FACE('',(#964,#965),#39,.F.);
#1058=ADVANCED_FACE('',(#966,#967),#40,.F.);
#1059=ADVANCED_FACE('',(#968,#969),#41,.F.);
#1060=CLOSED_SHELL('',(#1000,#1001,#1002,#1003,#1004,#1005,#1006,#1007,
#1008,#1009,#1010,#1011,#1012,#1013,#1014,#1015,#1016,#1017,#1018,#1019,
#1020,#1021,#1022,#1023,#1024,#1025,#1026,#1027,#1028,#1029,#1030,#1031,
#1032,#1033,#1034,#1035,#1036,#1037,#1038,#1039,#1040,#1041,#1042,#1043,
#1044,#1045,#1046,#1047,#1048,#1049,#1050,#1051,#1052,#1053,#1054,#1055,
#1056,#1057,#1058,#1059));
#1061=STYLED_ITEM('',(#1062),#1069);
#1062=PRESENTATION_STYLE_ASSIGNMENT((#1063));
#1063=SURFACE_STYLE_USAGE(.BOTH.,#1064);
#1064=SURFACE_SIDE_STYLE('',(#1065));
#1065=SURFACE_STYLE_FILL_AREA(#1066);
#1066=FILL_AREA_STYLE('',(#1067));
#1067=FILL_AREA_STYLE_COLOUR('',#1068);
#1068=COLOUR_RGB('',0.901960784313726,0.901960784313726,0.901960784313726);
#1069=MANIFOLD_SOLID_BREP('Part 1',#1060);
#1070=SHAPE_DEFINITION_REPRESENTATION(#1806,#1071);
#1071=SHAPE_REPRESENTATION('Part 1',(#1072),#1801);
#1072=AXIS2_PLACEMENT_3D('',#1507,#1193,#1194);
#1073=AXIS2_PLACEMENT_3D('',#1508,#1195,#1196);
#1074=AXIS2_PLACEMENT_3D('',#1509,#1197,#1198);
#1075=AXIS2_PLACEMENT_3D('',#1511,#1199,#1200);
#1076=AXIS2_PLACEMENT_3D('',#1513,#1201,#1202);
#1077=AXIS2_PLACEMENT_3D('',#1515,#1203,#1204);
#1078=AXIS2_PLACEMENT_3D('',#1517,#1205,#1206);
#1079=AXIS2_PLACEMENT_3D('',#1522,#1208,#1209);
#1080=AXIS2_PLACEMENT_3D('',#1526,#1211,#1212);
#1081=AXIS2_PLACEMENT_3D('',#1530,#1214,#1215);
#1082=AXIS2_PLACEMENT_3D('',#1534,#1217,#1218);
#1083=AXIS2_PLACEMENT_3D('',#1546,#1224,#1225);
#1084=AXIS2_PLACEMENT_3D('',#1550,#1227,#1228);
#1085=AXIS2_PLACEMENT_3D('',#1554,#1230,#1231);
#1086=AXIS2_PLACEMENT_3D('',#1558,#1233,#1234);
#1087=AXIS2_PLACEMENT_3D('',#1559,#1235,#1236);
#1088=AXIS2_PLACEMENT_3D('',#1560,#1237,#1238);
#1089=AXIS2_PLACEMENT_3D('',#1562,#1239,#1240);
#1090=AXIS2_PLACEMENT_3D('',#1583,#1250,#1251);
#1091=AXIS2_PLACEMENT_3D('',#1587,#1253,#1254);
#1092=AXIS2_PLACEMENT_3D('',#1591,#1256,#1257);
#1093=AXIS2_PLACEMENT_3D('',#1592,#1258,#1259);
#1094=AXIS2_PLACEMENT_3D('',#1593,#1260,#1261);
#1095=AXIS2_PLACEMENT_3D('',#1599,#1265,#1266);
#1096=AXIS2_PLACEMENT_3D('',#1603,#1269,#1270);
#1097=AXIS2_PLACEMENT_3D('',#1607,#1273,#1274);
#1098=AXIS2_PLACEMENT_3D('',#1608,#1275,#1276);
#1099=AXIS2_PLACEMENT_3D('',#1610,#1277,#1278);
#1100=AXIS2_PLACEMENT_3D('',#1612,#1279,#1280);
#1101=AXIS2_PLACEMENT_3D('',#1614,#1281,#1282);
#1102=AXIS2_PLACEMENT_3D('',#1616,#1283,#1284);
#1103=AXIS2_PLACEMENT_3D('',#1621,#1286,#1287);
#1104=AXIS2_PLACEMENT_3D('',#1625,#1289,#1290);
#1105=AXIS2_PLACEMENT_3D('',#1629,#1292,#1293);
#1106=AXIS2_PLACEMENT_3D('',#1632,#1295,#1296);
#1107=AXIS2_PLACEMENT_3D('',#1637,#1298,#1299);
#1108=AXIS2_PLACEMENT_3D('',#1641,#1301,#1302);
#1109=AXIS2_PLACEMENT_3D('',#1645,#1304,#1305);
#1110=AXIS2_PLACEMENT_3D('',#1648,#1307,#1308);
#1111=AXIS2_PLACEMENT_3D('',#1651,#1310,#1311);
#1112=AXIS2_PLACEMENT_3D('',#1652,#1312,#1313);
#1113=AXIS2_PLACEMENT_3D('',#1654,#1314,#1315);
#1114=AXIS2_PLACEMENT_3D('',#1656,#1316,#1317);
#1115=AXIS2_PLACEMENT_3D('',#1658,#1318,#1319);
#1116=AXIS2_PLACEMENT_3D('',#1660,#1320,#1321);
#1117=AXIS2_PLACEMENT_3D('',#1662,#1322,#1323);
#1118=AXIS2_PLACEMENT_3D('',#1664,#1324,#1325);
#1119=AXIS2_PLACEMENT_3D('',#1666,#1326,#1327);
#1120=AXIS2_PLACEMENT_3D('',#1667,#1328,#1329);
#1121=AXIS2_PLACEMENT_3D('',#1669,#1330,#1331);
#1122=AXIS2_PLACEMENT_3D('',#1671,#1332,#1333);
#1123=AXIS2_PLACEMENT_3D('',#1673,#1334,#1335);
#1124=AXIS2_PLACEMENT_3D('',#1683,#1340,#1341);
#1125=AXIS2_PLACEMENT_3D('',#1686,#1344,#1345);
#1126=AXIS2_PLACEMENT_3D('',#1688,#1347,#1348);
#1127=AXIS2_PLACEMENT_3D('',#1690,#1350,#1351);
#1128=AXIS2_PLACEMENT_3D('',#1691,#1352,#1353);
#1129=AXIS2_PLACEMENT_3D('',#1697,#1357,#1358);
#1130=AXIS2_PLACEMENT_3D('',#1703,#1362,#1363);
#1131=AXIS2_PLACEMENT_3D('',#1709,#1367,#1368);
#1132=AXIS2_PLACEMENT_3D('',#1710,#1369,#1370);
#1133=AXIS2_PLACEMENT_3D('',#1712,#1371,#1372);
#1134=AXIS2_PLACEMENT_3D('',#1713,#1373,#1374);
#1135=AXIS2_PLACEMENT_3D('',#1714,#1375,#1376);
#1136=AXIS2_PLACEMENT_3D('',#1715,#1377,#1378);
#1137=AXIS2_PLACEMENT_3D('',#1716,#1379,#1380);
#1138=AXIS2_PLACEMENT_3D('',#1717,#1381,#1382);
#1139=AXIS2_PLACEMENT_3D('',#1719,#1383,#1384);
#1140=AXIS2_PLACEMENT_3D('',#1720,#1385,#1386);
#1141=AXIS2_PLACEMENT_3D('',#1722,#1387,#1388);
#1142=AXIS2_PLACEMENT_3D('',#1723,#1389,#1390);
#1143=AXIS2_PLACEMENT_3D('',#1724,#1391,#1392);
#1144=AXIS2_PLACEMENT_3D('',#1726,#1393,#1394);
#1145=AXIS2_PLACEMENT_3D('',#1727,#1395,#1396);
#1146=AXIS2_PLACEMENT_3D('',#1729,#1397,#1398);
#1147=AXIS2_PLACEMENT_3D('',#1730,#1399,#1400);
#1148=AXIS2_PLACEMENT_3D('',#1731,#1401,#1402);
#1149=AXIS2_PLACEMENT_3D('',#1733,#1403,#1404);
#1150=AXIS2_PLACEMENT_3D('',#1734,#1405,#1406);
#1151=AXIS2_PLACEMENT_3D('',#1736,#1407,#1408);
#1152=AXIS2_PLACEMENT_3D('',#1737,#1409,#1410);
#1153=AXIS2_PLACEMENT_3D('',#1738,#1411,#1412);
#1154=AXIS2_PLACEMENT_3D('',#1740,#1413,#1414);
#1155=AXIS2_PLACEMENT_3D('',#1741,#1415,#1416);
#1156=AXIS2_PLACEMENT_3D('',#1743,#1417,#1418);
#1157=AXIS2_PLACEMENT_3D('',#1744,#1419,#1420);
#1158=AXIS2_PLACEMENT_3D('',#1745,#1421,#1422);
#1159=AXIS2_PLACEMENT_3D('',#1747,#1423,#1424);
#1160=AXIS2_PLACEMENT_3D('',#1748,#1425,#1426);
#1161=AXIS2_PLACEMENT_3D('',#1750,#1427,#1428);
#1162=AXIS2_PLACEMENT_3D('',#1751,#1429,#1430);
#1163=AXIS2_PLACEMENT_3D('',#1752,#1431,#1432);
#1164=AXIS2_PLACEMENT_3D('',#1754,#1433,#1434);
#1165=AXIS2_PLACEMENT_3D('',#1755,#1435,#1436);
#1166=AXIS2_PLACEMENT_3D('',#1757,#1437,#1438);
#1167=AXIS2_PLACEMENT_3D('',#1758,#1439,#1440);
#1168=AXIS2_PLACEMENT_3D('',#1759,#1441,#1442);
#1169=AXIS2_PLACEMENT_3D('',#1762,#1445,#1446);
#1170=AXIS2_PLACEMENT_3D('',#1764,#1448,#1449);
#1171=AXIS2_PLACEMENT_3D('',#1766,#1451,#1452);
#1172=AXIS2_PLACEMENT_3D('',#1768,#1454,#1455);
#1173=AXIS2_PLACEMENT_3D('',#1770,#1457,#1458);
#1174=AXIS2_PLACEMENT_3D('',#1772,#1460,#1461);
#1175=AXIS2_PLACEMENT_3D('',#1774,#1463,#1464);
#1176=AXIS2_PLACEMENT_3D('',#1775,#1465,#1466);
#1177=AXIS2_PLACEMENT_3D('',#1778,#1469,#1470);
#1178=AXIS2_PLACEMENT_3D('',#1780,#1472,#1473);
#1179=AXIS2_PLACEMENT_3D('',#1782,#1475,#1476);
#1180=AXIS2_PLACEMENT_3D('',#1784,#1478,#1479);
#1181=AXIS2_PLACEMENT_3D('',#1786,#1481,#1482);
#1182=AXIS2_PLACEMENT_3D('',#1788,#1484,#1485);
#1183=AXIS2_PLACEMENT_3D('',#1790,#1487,#1488);
#1184=AXIS2_PLACEMENT_3D('',#1791,#1489,#1490);
#1185=AXIS2_PLACEMENT_3D('',#1792,#1491,#1492);
#1186=AXIS2_PLACEMENT_3D('',#1793,#1493,#1494);
#1187=AXIS2_PLACEMENT_3D('',#1794,#1495,#1496);
#1188=AXIS2_PLACEMENT_3D('',#1795,#1497,#1498);
#1189=AXIS2_PLACEMENT_3D('',#1796,#1499,#1500);
#1190=AXIS2_PLACEMENT_3D('',#1797,#1501,#1502);
#1191=AXIS2_PLACEMENT_3D('',#1798,#1503,#1504);
#1192=AXIS2_PLACEMENT_3D('',#1799,#1505,#1506);
#1193=DIRECTION('',(0.,0.,1.));
#1194=DIRECTION('',(1.,0.,0.));
#1195=DIRECTION('',(-1.,-4.96699635211684E-16,0.));
#1196=DIRECTION('',(4.96699635211684E-16,-1.,0.));
#1197=DIRECTION('',(-1.,-4.96699635211684E-16,0.));
#1198=DIRECTION('',(4.96699635211684E-16,-1.,0.));
#1199=DIRECTION('',(-1.,-4.96699635211684E-16,0.));
#1200=DIRECTION('',(4.96699635211684E-16,-1.,0.));
#1201=DIRECTION('',(-1.,-4.96699635211684E-16,0.));
#1202=DIRECTION('',(4.96699635211684E-16,-1.,0.));
#1203=DIRECTION('',(-1.,-4.96699635211684E-16,0.));
#1204=DIRECTION('',(4.96699635211684E-16,-1.,0.));
#1205=DIRECTION('',(-1.,-4.96699635211684E-16,0.));
#1206=DIRECTION('',(4.96699635211684E-16,-1.,0.));
#1207=DIRECTION('',(-2.82689146230586E-32,5.69134998680055E-17,1.));
#1208=DIRECTION('',(-1.,-4.96699635211684E-16,0.));
#1209=DIRECTION('',(4.96699635211684E-16,-1.,0.));
#1210=DIRECTION('',(-4.96699635211684E-16,1.,0.));
#1211=DIRECTION('',(-1.,-4.96699635211684E-16,0.));
#1212=DIRECTION('',(4.96699635211684E-16,-1.,0.));
#1213=DIRECTION('',(0.,0.,1.));
#1214=DIRECTION('',(-1.,-4.96699635211684E-16,0.));
#1215=DIRECTION('',(4.96699635211684E-16,-1.,0.));
#1216=DIRECTION('',(-4.96699635211684E-16,1.,0.));
#1217=DIRECTION('',(-1.,-4.96699635211684E-16,0.));
#1218=DIRECTION('',(4.96699635211684E-16,-1.,0.));
#1219=DIRECTION('',(4.96699635211684E-16,-1.,0.));
#1220=DIRECTION('',(0.,0.,1.));
#1221=DIRECTION('',(4.96699635211684E-16,-1.,0.));
#1222=DIRECTION('',(0.,0.,1.));
#1223=DIRECTION('',(0.,0.,1.));
#1224=DIRECTION('',(-1.,-4.96699635211684E-16,0.));
#1225=DIRECTION('',(4.96699635211684E-16,-1.,0.));
#1226=DIRECTION('',(-4.96699635211684E-16,1.,0.));
#1227=DIRECTION('',(-1.,-4.96699635211684E-16,0.));
#1228=DIRECTION('',(4.96699635211684E-16,-1.,0.));
#1229=DIRECTION('',(-2.82689146230586E-32,5.69134998680055E-17,1.));
#1230=DIRECTION('',(-1.,-4.96699635211684E-16,0.));
#1231=DIRECTION('',(4.96699635211684E-16,-1.,0.));
#1232=DIRECTION('',(-4.96699635211684E-16,1.,0.));
#1233=DIRECTION('',(-1.,-4.96699635211684E-16,0.));
#1234=DIRECTION('',(4.96699635211684E-16,-1.,0.));
#1235=DIRECTION('',(0.,0.,1.));
#1236=DIRECTION('',(1.,0.,0.));
#1237=DIRECTION('',(0.,0.,-1.));
#1238=DIRECTION('',(-1.,0.,0.));
#1239=DIRECTION('',(0.,0.,-1.));
#1240=DIRECTION('',(-1.,0.,0.));
#1241=DIRECTION('',(-1.,0.,0.));
#1242=DIRECTION('',(0.,-1.,0.));
#1243=DIRECTION('',(-1.,0.,0.));
#1244=DIRECTION('',(0.,1.,0.));
#1245=DIRECTION('',(0.,-1.,0.));
#1246=DIRECTION('',(-1.,0.,0.));
#1247=DIRECTION('',(0.,-1.,0.));
#1248=DIRECTION('',(-1.,0.,0.));
#1249=DIRECTION('',(-1.,-1.24319230195146E-16,0.));
#1250=DIRECTION('',(0.,0.,1.));
#1251=DIRECTION('',(1.,0.,0.));
#1252=DIRECTION('',(2.48349817605842E-16,-1.,0.));
#1253=DIRECTION('',(0.,0.,1.));
#1254=DIRECTION('',(1.,0.,0.));
#1255=DIRECTION('',(-1.,0.,0.));
#1256=DIRECTION('',(0.,0.,1.));
#1257=DIRECTION('',(1.,0.,0.));
#1258=DIRECTION('',(0.,0.,1.));
#1259=DIRECTION('',(1.,0.,0.));
#1260=DIRECTION('',(0.,-1.,0.));
#1261=DIRECTION('',(0.,0.,-1.));
#1262=DIRECTION('',(-1.,0.,0.));
#1263=DIRECTION('',(0.,0.,-1.));
#1264=DIRECTION('',(0.,0.,-1.));
#1265=DIRECTION('',(1.,0.,0.));
#1266=DIRECTION('',(0.,0.,-1.));
#1267=DIRECTION('',(0.,-1.,0.));
#1268=DIRECTION('',(0.,0.,-1.));
#1269=DIRECTION('',(0.,-1.,0.));
#1270=DIRECTION('',(0.,0.,-1.));
#1271=DIRECTION('',(-1.,0.,0.));
#1272=DIRECTION('',(0.,0.,-1.));
#1273=DIRECTION('',(-1.,0.,0.));
#1274=DIRECTION('',(0.,0.,1.));
#1275=DIRECTION('',(1.,0.,0.));
#1276=DIRECTION('',(0.,0.,-1.));
#1277=DIRECTION('',(1.,0.,0.));
#1278=DIRECTION('',(0.,0.,-1.));
#1279=DIRECTION('',(1.,0.,0.));
#1280=DIRECTION('',(0.,0.,-1.));
#1281=DIRECTION('',(1.,0.,0.));
#1282=DIRECTION('',(0.,0.,-1.));
#1283=DIRECTION('',(-1.,0.,0.));
#1284=DIRECTION('',(0.,0.,1.));
#1285=DIRECTION('',(0.,0.,1.));
#1286=DIRECTION('',(-1.,0.,0.));
#1287=DIRECTION('',(0.,0.,1.));
#1288=DIRECTION('',(0.,1.,0.));
#1289=DIRECTION('',(-1.,0.,0.));
#1290=DIRECTION('',(0.,0.,1.));
#1291=DIRECTION('',(0.,5.69134998680055E-17,1.));
#1292=DIRECTION('',(-1.,0.,0.));
#1293=DIRECTION('',(0.,0.,1.));
#1294=DIRECTION('',(0.,1.,0.));
#1295=DIRECTION('',(-1.,0.,0.));
#1296=DIRECTION('',(0.,0.,1.));
#1297=DIRECTION('',(0.,5.69134998680055E-17,1.));
#1298=DIRECTION('',(-1.,0.,0.));
#1299=DIRECTION('',(0.,0.,1.));
#1300=DIRECTION('',(0.,1.,0.));
#1301=DIRECTION('',(-1.,0.,0.));
#1302=DIRECTION('',(0.,0.,1.));
#1303=DIRECTION('',(0.,0.,1.));
#1304=DIRECTION('',(-1.,0.,0.));
#1305=DIRECTION('',(0.,0.,1.));
#1306=DIRECTION('',(0.,1.,0.));
#1307=DIRECTION('',(-1.,0.,0.));
#1308=DIRECTION('',(0.,0.,1.));
#1309=DIRECTION('',(0.,1.,0.));
#1310=DIRECTION('',(0.,0.,1.));
#1311=DIRECTION('',(1.,0.,0.));
#1312=DIRECTION('',(0.,0.,1.));
#1313=DIRECTION('',(1.,0.,0.));
#1314=DIRECTION('',(0.,0.,1.));
#1315=DIRECTION('',(1.,0.,0.));
#1316=DIRECTION('',(0.,0.,1.));
#1317=DIRECTION('',(1.,0.,0.));
#1318=DIRECTION('',(0.,0.,1.));
#1319=DIRECTION('',(1.,0.,0.));
#1320=DIRECTION('',(0.,0.,1.));
#1321=DIRECTION('',(1.,0.,0.));
#1322=DIRECTION('',(0.,0.,1.));
#1323=DIRECTION('',(1.,0.,0.));
#1324=DIRECTION('',(0.,0.,1.));
#1325=DIRECTION('',(1.,0.,0.));
#1326=DIRECTION('',(0.,0.,1.));
#1327=DIRECTION('',(1.,0.,0.));
#1328=DIRECTION('',(0.,0.,1.));
#1329=DIRECTION('',(1.,0.,0.));
#1330=DIRECTION('',(0.,0.,1.));
#1331=DIRECTION('',(1.,0.,0.));
#1332=DIRECTION('',(0.,0.,1.));
#1333=DIRECTION('',(1.,0.,0.));
#1334=DIRECTION('',(0.,0.,1.));
#1335=DIRECTION('',(1.,0.,0.));
#1336=DIRECTION('',(-1.,0.,0.));
#1337=DIRECTION('',(0.,-1.,0.));
#1338=DIRECTION('',(-1.,0.,0.));
#1339=DIRECTION('',(0.,-1.,0.));
#1340=DIRECTION('',(1.,0.,0.));
#1341=DIRECTION('',(0.,0.,-1.));
#1342=DIRECTION('',(0.,0.,-1.));
#1343=DIRECTION('',(0.,0.,-1.));
#1344=DIRECTION('',(0.,-1.,0.));
#1345=DIRECTION('',(0.,0.,-1.));
#1346=DIRECTION('',(0.,0.,-1.));
#1347=DIRECTION('',(1.,0.,0.));
#1348=DIRECTION('',(0.,0.,-1.));
#1349=DIRECTION('',(0.,0.,-1.));
#1350=DIRECTION('',(0.,-1.,0.));
#1351=DIRECTION('',(0.,0.,-1.));
#1352=DIRECTION('',(-1.,-2.48349817605842E-16,0.));
#1353=DIRECTION('',(2.48349817605842E-16,-1.,0.));
#1354=DIRECTION('',(0.,0.,1.));
#1355=DIRECTION('',(2.48349817605842E-16,-1.,0.));
#1356=DIRECTION('',(0.,0.,1.));
#1357=DIRECTION('',(-1.24319230195146E-16,1.,0.));
#1358=DIRECTION('',(-1.,-1.24319230195146E-16,0.));
#1359=DIRECTION('',(0.,0.,1.));
#1360=DIRECTION('',(-1.,-1.24319230195146E-16,0.));
#1361=DIRECTION('',(0.,0.,1.));
#1362=DIRECTION('',(0.,1.,0.));
#1363=DIRECTION('',(0.,0.,1.));
#1364=DIRECTION('',(0.,0.,1.));
#1365=DIRECTION('',(-1.,0.,0.));
#1366=DIRECTION('',(0.,0.,1.));
#1367=DIRECTION('',(0.,0.,1.));
#1368=DIRECTION('',(1.,0.,0.));
#1369=DIRECTION('',(0.,0.,1.));
#1370=DIRECTION('',(1.,0.,0.));
#1371=DIRECTION('',(0.,0.,1.));
#1372=DIRECTION('',(1.,0.,0.));
#1373=DIRECTION('',(0.,0.,1.));
#1374=DIRECTION('',(1.,0.,0.));
#1375=DIRECTION('',(0.,0.,1.));
#1376=DIRECTION('',(1.,0.,0.));
#1377=DIRECTION('',(0.,0.,1.));
#1378=DIRECTION('',(1.,0.,0.));
#1379=DIRECTION('',(0.,0.,1.));
#1380=DIRECTION('',(1.,0.,0.));
#1381=DIRECTION('',(0.,0.,1.));
#1382=DIRECTION('',(1.,0.,0.));
#1383=DIRECTION('',(0.,0.,-1.));
#1384=DIRECTION('',(-1.,0.,0.));
#1385=DIRECTION('',(0.,0.,1.));
#1386=DIRECTION('',(1.,0.,0.));
#1387=DIRECTION('',(0.,0.,1.));
#1388=DIRECTION('',(1.,0.,0.));
#1389=DIRECTION('',(0.,0.,1.));
#1390=DIRECTION('',(1.,0.,0.));
#1391=DIRECTION('',(0.,0.,1.));
#1392=DIRECTION('',(1.,0.,0.));
#1393=DIRECTION('',(0.,0.,-1.));
#1394=DIRECTION('',(-1.,0.,0.));
#1395=DIRECTION('',(0.,0.,1.));
#1396=DIRECTION('',(1.,0.,0.));
#1397=DIRECTION('',(0.,0.,1.));
#1398=DIRECTION('',(1.,0.,0.));
#1399=DIRECTION('',(0.,0.,1.));
#1400=DIRECTION('',(1.,0.,0.));
#1401=DIRECTION('',(0.,0.,1.));
#1402=DIRECTION('',(1.,0.,0.));
#1403=DIRECTION('',(0.,0.,-1.));
#1404=DIRECTION('',(-1.,0.,0.));
#1405=DIRECTION('',(0.,0.,1.));
#1406=DIRECTION('',(1.,0.,0.));
#1407=DIRECTION('',(0.,0.,1.));
#1408=DIRECTION('',(1.,0.,0.));
#1409=DIRECTION('',(0.,0.,1.));
#1410=DIRECTION('',(1.,0.,0.));
#1411=DIRECTION('',(0.,0.,1.));
#1412=DIRECTION('',(1.,0.,0.));
#1413=DIRECTION('',(0.,0.,-1.));
#1414=DIRECTION('',(-1.,0.,0.));
#1415=DIRECTION('',(0.,0.,1.));
#1416=DIRECTION('',(1.,0.,0.));
#1417=DIRECTION('',(0.,0.,1.));
#1418=DIRECTION('',(1.,0.,0.));
#1419=DIRECTION('',(0.,0.,-1.));
#1420=DIRECTION('',(-1.,0.,0.));
#1421=DIRECTION('',(0.,0.,-1.));
#1422=DIRECTION('',(-1.,0.,0.));
#1423=DIRECTION('',(0.,0.,1.));
#1424=DIRECTION('',(1.,0.,0.));
#1425=DIRECTION('',(0.,0.,-1.));
#1426=DIRECTION('',(-1.,0.,0.));
#1427=DIRECTION('',(0.,0.,-1.));
#1428=DIRECTION('',(-1.,0.,0.));
#1429=DIRECTION('',(0.,0.,-1.));
#1430=DIRECTION('',(-1.,0.,0.));
#1431=DIRECTION('',(0.,0.,-1.));
#1432=DIRECTION('',(-1.,0.,0.));
#1433=DIRECTION('',(0.,0.,1.));
#1434=DIRECTION('',(1.,0.,0.));
#1435=DIRECTION('',(0.,0.,-1.));
#1436=DIRECTION('',(-1.,0.,0.));
#1437=DIRECTION('',(0.,0.,-1.));
#1438=DIRECTION('',(-1.,0.,0.));
#1439=DIRECTION('',(0.,0.,-1.));
#1440=DIRECTION('',(-1.,0.,0.));
#1441=DIRECTION('',(0.,-1.,5.69134998680055E-17));
#1442=DIRECTION('',(0.,-5.69134998680055E-17,-1.));
#1443=DIRECTION('',(-1.,0.,0.));
#1444=DIRECTION('',(-1.,0.,0.));
#1445=DIRECTION('',(-1.,0.,0.));
#1446=DIRECTION('',(0.,0.,1.));
#1447=DIRECTION('',(-1.,0.,0.));
#1448=DIRECTION('',(0.,0.,1.));
#1449=DIRECTION('',(1.,0.,0.));
#1450=DIRECTION('',(-1.,0.,0.));
#1451=DIRECTION('',(-1.,0.,0.));
#1452=DIRECTION('',(0.,0.,1.));
#1453=DIRECTION('',(-1.,0.,0.));
#1454=DIRECTION('',(0.,-1.,0.));
#1455=DIRECTION('',(0.,0.,-1.));
#1456=DIRECTION('',(-1.,0.,0.));
#1457=DIRECTION('',(-1.,0.,0.));
#1458=DIRECTION('',(0.,0.,1.));
#1459=DIRECTION('',(-1.,0.,0.));
#1460=DIRECTION('',(0.,0.,1.));
#1461=DIRECTION('',(1.,0.,0.));
#1462=DIRECTION('',(-1.,0.,0.));
#1463=DIRECTION('',(-1.,0.,0.));
#1464=DIRECTION('',(0.,0.,1.));
#1465=DIRECTION('',(0.,-1.,0.));
#1466=DIRECTION('',(0.,0.,-1.));
#1467=DIRECTION('',(-1.,0.,0.));
#1468=DIRECTION('',(-1.,0.,0.));
#1469=DIRECTION('',(-1.,0.,0.));
#1470=DIRECTION('',(0.,0.,1.));
#1471=DIRECTION('',(-1.,0.,0.));
#1472=DIRECTION('',(0.,0.,1.));
#1473=DIRECTION('',(1.,0.,0.));
#1474=DIRECTION('',(-1.,0.,0.));
#1475=DIRECTION('',(-1.,0.,0.));
#1476=DIRECTION('',(0.,0.,1.));
#1477=DIRECTION('',(-1.,0.,0.));
#1478=DIRECTION('',(0.,-1.,5.69134998680055E-17));
#1479=DIRECTION('',(0.,-5.69134998680055E-17,-1.));
#1480=DIRECTION('',(-1.,0.,0.));
#1481=DIRECTION('',(-1.,0.,0.));
#1482=DIRECTION('',(0.,0.,1.));
#1483=DIRECTION('',(-1.,0.,0.));
#1484=DIRECTION('',(0.,0.,1.));
#1485=DIRECTION('',(1.,0.,0.));
#1486=DIRECTION('',(-1.,0.,0.));
#1487=DIRECTION('',(-1.,0.,0.));
#1488=DIRECTION('',(0.,0.,1.));
#1489=DIRECTION('',(-1.,0.,0.));
#1490=DIRECTION('',(0.,0.,1.));
#1491=DIRECTION('',(0.,0.,-1.));
#1492=DIRECTION('',(-1.,0.,0.));
#1493=DIRECTION('',(0.,0.,1.));
#1494=DIRECTION('',(1.,0.,0.));
#1495=DIRECTION('',(0.,0.,-1.));
#1496=DIRECTION('',(-1.,0.,0.));
#1497=DIRECTION('',(0.,0.,1.));
#1498=DIRECTION('',(1.,0.,0.));
#1499=DIRECTION('',(1.,0.,0.));
#1500=DIRECTION('',(0.,0.,-1.));
#1501=DIRECTION('',(1.,0.,0.));
#1502=DIRECTION('',(0.,0.,-1.));
#1503=DIRECTION('',(1.,0.,0.));
#1504=DIRECTION('',(0.,0.,-1.));
#1505=DIRECTION('',(1.,0.,0.));
#1506=DIRECTION('',(0.,0.,-1.));
#1507=CARTESIAN_POINT('',(0.,0.,0.));
#1508=CARTESIAN_POINT('',(-0.0813969263150155,-0.00453876964238416,0.00254));
#1509=CARTESIAN_POINT('',(-0.0813969263150155,0.0100255156996885,0.00508));
#1510=CARTESIAN_POINT('',(-0.0813969263150155,0.00889521569968854,0.00508));
#1511=CARTESIAN_POINT('',(-0.0813969263150155,-0.00775448430031145,0.00508));
#1512=CARTESIAN_POINT('',(-0.0813969263150155,-0.00888478430031145,0.00508));
#1513=CARTESIAN_POINT('',(-0.0813969263150155,-0.00775448430031144,0.029972));
#1514=CARTESIAN_POINT('',(-0.0813969263150155,-0.00888478430031144,0.029972));
#1515=CARTESIAN_POINT('',(-0.0813969263150155,0.0100255156996886,0.029972));
#1516=CARTESIAN_POINT('',(-0.0813969263150155,0.00889521569968856,0.029972));
#1517=CARTESIAN_POINT('',(-0.0813969263150155,-0.0236294843003114,0.022225));
#1518=CARTESIAN_POINT('',(-0.0813969263150155,-0.0283919843003114,0.022225));
#1519=CARTESIAN_POINT('',(-0.0813969263150155,-0.00203948430031144,0.00254));
#1520=CARTESIAN_POINT('',(-0.0813969263150155,-0.00203948430031144,0.009906));
#1521=CARTESIAN_POINT('',(-0.0813969263150155,-0.00203948430031144,0.025146));
#1522=CARTESIAN_POINT('',(-0.0813969263150155,-0.00521448430031145,0.009906));
#1523=CARTESIAN_POINT('',(-0.0813969263150155,-0.00521448430031145,0.006731));
#1524=CARTESIAN_POINT('',(-0.0813969263150155,-0.00453876964238416,0.006731));
#1525=CARTESIAN_POINT('',(-0.0813969263150155,-0.0102944843003114,0.006731));
#1526=CARTESIAN_POINT('',(-0.0813969263150155,-0.0102944843003114,0.009906));
#1527=CARTESIAN_POINT('',(-0.0813969263150155,-0.0134694843003114,0.009906));
#1528=CARTESIAN_POINT('',(-0.0813969263150155,-0.0134694843003114,0.00254));
#1529=CARTESIAN_POINT('',(-0.0813969263150155,-0.0134694843003114,0.025146));
#1530=CARTESIAN_POINT('',(-0.0813969263150155,-0.0102944843003114,0.025146));
#1531=CARTESIAN_POINT('',(-0.0813969263150155,-0.0102944843003114,0.028321));
#1532=CARTESIAN_POINT('',(-0.0813969263150155,-0.00453876964238416,0.028321));
#1533=CARTESIAN_POINT('',(-0.0813969263150155,-0.00521448430031145,0.028321));
#1534=CARTESIAN_POINT('',(-0.0813969263150155,-0.00521448430031145,0.025146));
#1535=CARTESIAN_POINT('',(-0.0813969263150155,-0.00453876964238416,0.00254));
#1536=CARTESIAN_POINT('',(-0.0813969263150155,0.0208612303576158,0.00254));
#1537=CARTESIAN_POINT('',(-0.0813969263150155,-0.0299387696423841,0.00254));
#1538=CARTESIAN_POINT('',(-0.0813969263150155,0.0208612303576158,0.03175));
#1539=CARTESIAN_POINT('',(-0.0813969263150155,0.0208612303576158,0.03175));
#1540=CARTESIAN_POINT('',(-0.0813969263150155,-0.00453876964238416,0.03175));
#1541=CARTESIAN_POINT('',(-0.0813969263150155,-0.0299387696423841,0.03175));
#1542=CARTESIAN_POINT('',(-0.0813969263150155,-0.0299387696423841,0.00254));
#1543=CARTESIAN_POINT('',(-0.0813969263150155,0.0157405156996886,0.00254));
#1544=CARTESIAN_POINT('',(-0.0813969263150155,0.0157405156996886,0.009906));
#1545=CARTESIAN_POINT('',(-0.0813969263150155,0.0157405156996886,0.025146));
#1546=CARTESIAN_POINT('',(-0.0813969263150155,0.0125655156996886,0.009906));
#1547=CARTESIAN_POINT('',(-0.0813969263150155,0.0125655156996886,0.006731));
#1548=CARTESIAN_POINT('',(-0.0813969263150155,-0.00453876964238416,0.006731));
#1549=CARTESIAN_POINT('',(-0.0813969263150155,0.00748551569968855,0.006731));
#1550=CARTESIAN_POINT('',(-0.0813969263150155,0.00748551569968855,0.009906));
#1551=CARTESIAN_POINT('',(-0.0813969263150155,0.00431051569968855,0.009906));
#1552=CARTESIAN_POINT('',(-0.0813969263150155,0.00431051569968855,0.00254));
#1553=CARTESIAN_POINT('',(-0.0813969263150155,0.00431051569968854,0.025146));
#1554=CARTESIAN_POINT('',(-0.0813969263150155,0.00748551569968855,0.025146));
#1555=CARTESIAN_POINT('',(-0.0813969263150155,0.00748551569968856,0.028321));
#1556=CARTESIAN_POINT('',(-0.0813969263150155,-0.00453876964238416,0.028321));
#1557=CARTESIAN_POINT('',(-0.0813969263150155,0.0125655156996886,0.028321));
#1558=CARTESIAN_POINT('',(-0.0813969263150155,0.0125655156996886,0.025146));
#1559=CARTESIAN_POINT('',(-0.0102769263150155,-0.00453876964238416,0.03175));
#1560=CARTESIAN_POINT('',(0.0582060847190447,0.0208612303576158,0.03175));
#1561=CARTESIAN_POINT('',(0.0531260847190447,0.0208612303576158,0.03175));
#1562=CARTESIAN_POINT('',(0.0582060847190447,-0.0299387696423841,0.03175));
#1563=CARTESIAN_POINT('',(0.0531260847190447,-0.0299387696423841,0.03175));
#1564=CARTESIAN_POINT('',(-0.0763169263150155,-0.0375587696423842,0.03175));
#1565=CARTESIAN_POINT('',(0.0659230736849845,-0.0375587696423842,0.03175));
#1566=CARTESIAN_POINT('',(-0.0864769263150155,-0.0375587696423842,0.03175));
#1567=CARTESIAN_POINT('',(0.0659230736849845,-0.00453876964238416,0.03175));
#1568=CARTESIAN_POINT('',(0.0659230736849845,0.0284812303576158,0.03175));
#1569=CARTESIAN_POINT('',(-0.0763169263150155,0.0284812303576158,0.03175));
#1570=CARTESIAN_POINT('',(-0.0864769263150155,0.0284812303576158,0.03175));
#1571=CARTESIAN_POINT('',(-0.0864769263150155,-0.00453876964238416,0.03175));
#1572=CARTESIAN_POINT('',(-0.0534569263150155,-0.00453876964238416,0.03175));
#1573=CARTESIAN_POINT('',(-0.0534569263150155,0.0157812303576159,0.03175));
#1574=CARTESIAN_POINT('',(-0.0534569263150155,-0.0248587696423841,0.03175));
#1575=CARTESIAN_POINT('',(-0.000116926315015454,0.0157812303576159,0.03175));
#1576=CARTESIAN_POINT('',(0.0532230736849845,0.0157812303576159,0.03175));
#1577=CARTESIAN_POINT('',(0.0532230736849845,-0.00453876964238416,0.03175));
#1578=CARTESIAN_POINT('',(0.0532230736849845,-0.0248587696423841,0.03175));
#1579=CARTESIAN_POINT('',(-0.000116926315015454,-0.0248587696423841,0.03175));
#1580=CARTESIAN_POINT('',(-0.067443143997881,0.0234012303576158,0.03175));
#1581=CARTESIAN_POINT('',(-0.0560293616807465,0.0234012303576158,0.03175));
#1582=CARTESIAN_POINT('',(-0.0788569263150155,0.0234012303576158,0.03175));
#1583=CARTESIAN_POINT('',(-0.0560293616807465,0.0208612303576158,0.03175));
#1584=CARTESIAN_POINT('',(-0.0534893616807464,0.0208612303576158,0.03175));
#1585=CARTESIAN_POINT('',(-0.0534893616807464,-0.00453876964238415,0.03175));
#1586=CARTESIAN_POINT('',(-0.0534893616807464,-0.0299387696423841,0.03175));
#1587=CARTESIAN_POINT('',(-0.0560293616807464,-0.0299387696423841,0.03175));
#1588=CARTESIAN_POINT('',(-0.0560293616807464,-0.0324787696423842,0.03175));
#1589=CARTESIAN_POINT('',(-0.0674431439978809,-0.0324787696423842,0.03175));
#1590=CARTESIAN_POINT('',(-0.0788569263150155,-0.0324787696423842,0.03175));
#1591=CARTESIAN_POINT('',(-0.0788569263150155,-0.0299387696423841,0.03175));
#1592=CARTESIAN_POINT('',(-0.0788569263150155,0.0208612303576158,0.03175));
#1593=CARTESIAN_POINT('',(-0.0763169263150155,-0.0375587696423842,0.03175));
#1594=CARTESIAN_POINT('',(-0.0763169263150155,-0.0375587696423842,0.));
#1595=CARTESIAN_POINT('',(0.0659230736849845,-0.0375587696423842,0.));
#1596=CARTESIAN_POINT('',(-0.0864769263150155,-0.0375587696423842,0.));
#1597=CARTESIAN_POINT('',(0.0659230736849845,-0.0375587696423842,0.03175));
#1598=CARTESIAN_POINT('',(-0.0864769263150155,-0.0375587696423842,0.03175));
#1599=CARTESIAN_POINT('',(0.0659230736849845,-0.00453876964238416,0.03175));
#1600=CARTESIAN_POINT('',(0.0659230736849845,-0.00453876964238416,0.));
#1601=CARTESIAN_POINT('',(0.0659230736849845,0.0284812303576158,0.));
#1602=CARTESIAN_POINT('',(0.0659230736849845,0.0284812303576158,0.03175));
#1603=CARTESIAN_POINT('',(-0.0763169263150155,0.0284812303576158,0.03175));
#1604=CARTESIAN_POINT('',(-0.0763169263150155,0.0284812303576158,0.));
#1605=CARTESIAN_POINT('',(-0.0864769263150155,0.0284812303576158,0.));
#1606=CARTESIAN_POINT('',(-0.0864769263150155,0.0284812303576158,0.03175));
#1607=CARTESIAN_POINT('',(-0.0864769263150155,-0.00453876964238416,0.03175));
#1608=CARTESIAN_POINT('',(-0.0864769263150155,0.0100255156996885,0.00508));
#1609=CARTESIAN_POINT('',(-0.0864769263150155,0.0100255156996885,0.0039497));
#1610=CARTESIAN_POINT('',(-0.0864769263150155,-0.00775448430031145,0.00508));
#1611=CARTESIAN_POINT('',(-0.0864769263150155,-0.00775448430031145,0.0039497));
#1612=CARTESIAN_POINT('',(-0.0864769263150155,-0.00775448430031144,0.029972));
#1613=CARTESIAN_POINT('',(-0.0864769263150155,-0.00775448430031144,0.0288417));
#1614=CARTESIAN_POINT('',(-0.0864769263150155,0.0100255156996886,0.029972));
#1615=CARTESIAN_POINT('',(-0.0864769263150155,0.0100255156996886,0.0288417));
#1616=CARTESIAN_POINT('',(-0.0864769263150155,0.0125655156996886,0.009906));
#1617=CARTESIAN_POINT('',(-0.0864769263150155,0.0157405156996886,0.009906));
#1618=CARTESIAN_POINT('',(-0.0864769263150155,0.0125655156996886,0.006731));
#1619=CARTESIAN_POINT('',(-0.0864769263150155,0.0157405156996886,0.017526));
#1620=CARTESIAN_POINT('',(-0.0864769263150155,0.0157405156996886,0.025146));
#1621=CARTESIAN_POINT('',(-0.0864769263150155,0.0125655156996886,0.025146));
#1622=CARTESIAN_POINT('',(-0.0864769263150155,0.0125655156996886,0.028321));
#1623=CARTESIAN_POINT('',(-0.0864769263150155,0.0100255156996886,0.028321));
#1624=CARTESIAN_POINT('',(-0.0864769263150155,0.00748551569968856,0.028321));
#1625=CARTESIAN_POINT('',(-0.0864769263150155,0.00748551569968855,0.025146));
#1626=CARTESIAN_POINT('',(-0.0864769263150155,0.00431051569968854,0.025146));
#1627=CARTESIAN_POINT('',(-0.0864769263150155,0.00431051569968855,0.017526));
#1628=CARTESIAN_POINT('',(-0.0864769263150155,0.00431051569968855,0.009906));
#1629=CARTESIAN_POINT('',(-0.0864769263150155,0.00748551569968855,0.009906));
#1630=CARTESIAN_POINT('',(-0.0864769263150155,0.00748551569968855,0.006731));
#1631=CARTESIAN_POINT('',(-0.0864769263150155,0.0100255156996886,0.006731));
#1632=CARTESIAN_POINT('',(-0.0864769263150155,-0.00521448430031145,0.009906));
#1633=CARTESIAN_POINT('',(-0.0864769263150155,-0.00203948430031144,0.009906));
#1634=CARTESIAN_POINT('',(-0.0864769263150155,-0.00521448430031145,0.006731));
#1635=CARTESIAN_POINT('',(-0.0864769263150155,-0.00203948430031144,0.017526));
#1636=CARTESIAN_POINT('',(-0.0864769263150155,-0.00203948430031144,0.025146));
#1637=CARTESIAN_POINT('',(-0.0864769263150155,-0.00521448430031145,0.025146));
#1638=CARTESIAN_POINT('',(-0.0864769263150155,-0.00521448430031145,0.028321));
#1639=CARTESIAN_POINT('',(-0.0864769263150155,-0.00775448430031144,0.028321));
#1640=CARTESIAN_POINT('',(-0.0864769263150155,-0.0102944843003114,0.028321));
#1641=CARTESIAN_POINT('',(-0.0864769263150155,-0.0102944843003114,0.025146));
#1642=CARTESIAN_POINT('',(-0.0864769263150155,-0.0134694843003114,0.025146));
#1643=CARTESIAN_POINT('',(-0.0864769263150155,-0.0134694843003114,0.017526));
#1644=CARTESIAN_POINT('',(-0.0864769263150155,-0.0134694843003114,0.009906));
#1645=CARTESIAN_POINT('',(-0.0864769263150155,-0.0102944843003114,0.009906));
#1646=CARTESIAN_POINT('',(-0.0864769263150155,-0.0102944843003114,0.006731));
#1647=CARTESIAN_POINT('',(-0.0864769263150155,-0.00775448430031145,0.006731));
#1648=CARTESIAN_POINT('',(-0.0864769263150155,-0.0236294843003114,0.022225));
#1649=CARTESIAN_POINT('',(-0.0864769263150155,-0.0236294843003114,0.0269875));
#1650=CARTESIAN_POINT('',(-0.0864769263150155,-0.00453876964238416,0.));
#1651=CARTESIAN_POINT('',(-0.0102769263150155,-0.00453876964238416,0.));
#1652=CARTESIAN_POINT('',(-0.0687939152809553,-0.00453876964238417,0.));
#1653=CARTESIAN_POINT('',(-0.0655300152809553,-0.00453876964238417,0.));
#1654=CARTESIAN_POINT('',(0.0582060847190447,0.0208612303576158,0.));
#1655=CARTESIAN_POINT('',(0.0614699847190447,0.0208612303576158,0.));
#1656=CARTESIAN_POINT('',(0.0582060847190447,-0.0299387696423841,0.));
#1657=CARTESIAN_POINT('',(0.0614699847190447,-0.0299387696423841,0.));
#1658=CARTESIAN_POINT('',(-0.0432969263150154,0.0107012303576158,0.));
#1659=CARTESIAN_POINT('',(-0.0369469263150154,0.0107012303576158,0.));
#1660=CARTESIAN_POINT('',(0.0481430736849845,0.0107012303576158,0.));
#1661=CARTESIAN_POINT('',(0.0544930736849845,0.0107012303576158,0.));
#1662=CARTESIAN_POINT('',(0.0481430736849846,-0.0197787696423841,0.));
#1663=CARTESIAN_POINT('',(0.0544930736849846,-0.0197787696423841,0.));
#1664=CARTESIAN_POINT('',(-0.0432969263150154,-0.0197787696423842,0.));
#1665=CARTESIAN_POINT('',(-0.0369469263150154,-0.0197787696423842,0.));
#1666=CARTESIAN_POINT('',(-0.0102769263150155,-0.00453876964238416,0.0381));
#1667=CARTESIAN_POINT('',(-0.0432969263150154,0.0107012303576158,0.0381));
#1668=CARTESIAN_POINT('',(-0.0410998263150154,0.0107012303576158,0.0381));
#1669=CARTESIAN_POINT('',(0.0481430736849845,0.0107012303576158,0.0381));
#1670=CARTESIAN_POINT('',(0.0503401736849845,0.0107012303576158,0.0381));
#1671=CARTESIAN_POINT('',(0.0481430736849846,-0.0197787696423841,0.0381));
#1672=CARTESIAN_POINT('',(0.0503401736849846,-0.0197787696423841,0.0381));
#1673=CARTESIAN_POINT('',(-0.0432969263150154,-0.0197787696423842,0.0381));
#1674=CARTESIAN_POINT('',(-0.0410998263150154,-0.0197787696423842,0.0381));
#1675=CARTESIAN_POINT('',(-0.000116926315015454,0.0157812303576159,0.0381));
#1676=CARTESIAN_POINT('',(0.0532230736849845,0.0157812303576159,0.0381));
#1677=CARTESIAN_POINT('',(-0.0534569263150155,0.0157812303576159,0.0381));
#1678=CARTESIAN_POINT('',(-0.0534569263150155,-0.00453876964238416,0.0381));
#1679=CARTESIAN_POINT('',(-0.0534569263150155,-0.0248587696423841,0.0381));
#1680=CARTESIAN_POINT('',(-0.000116926315015454,-0.0248587696423841,0.0381));
#1681=CARTESIAN_POINT('',(0.0532230736849845,-0.0248587696423841,0.0381));
#1682=CARTESIAN_POINT('',(0.0532230736849845,-0.00453876964238416,0.0381));
#1683=CARTESIAN_POINT('',(0.0532230736849845,-0.00453876964238416,0.0381));
#1684=CARTESIAN_POINT('',(0.0532230736849845,-0.0248587696423841,0.0381));
#1685=CARTESIAN_POINT('',(0.0532230736849845,0.0157812303576159,0.0381));
#1686=CARTESIAN_POINT('',(-0.000116926315015454,-0.0248587696423841,0.0381));
#1687=CARTESIAN_POINT('',(-0.0534569263150155,-0.0248587696423841,0.0381));
#1688=CARTESIAN_POINT('',(-0.0534569263150155,-0.00453876964238416,0.0381));
#1689=CARTESIAN_POINT('',(-0.0534569263150155,0.0157812303576159,0.0381));
#1690=CARTESIAN_POINT('',(-0.000116926315015454,0.0157812303576159,0.0381));
#1691=CARTESIAN_POINT('',(-0.0534893616807464,-0.00453876964238415,0.00254));
#1692=CARTESIAN_POINT('',(-0.0534893616807464,0.0208612303576158,0.00254));
#1693=CARTESIAN_POINT('',(-0.0534893616807464,0.0208612303576158,0.00254));
#1694=CARTESIAN_POINT('',(-0.0534893616807464,-0.00453876964238415,0.00254));
#1695=CARTESIAN_POINT('',(-0.0534893616807464,-0.0299387696423841,0.00254));
#1696=CARTESIAN_POINT('',(-0.0534893616807464,-0.0299387696423841,0.03175));
#1697=CARTESIAN_POINT('',(-0.067443143997881,0.0234012303576158,0.00254));
#1698=CARTESIAN_POINT('',(-0.0788569263150155,0.0234012303576158,0.00254));
#1699=CARTESIAN_POINT('',(-0.0788569263150155,0.0234012303576158,0.00254));
#1700=CARTESIAN_POINT('',(-0.067443143997881,0.0234012303576158,0.00254));
#1701=CARTESIAN_POINT('',(-0.0560293616807465,0.0234012303576158,0.00254));
#1702=CARTESIAN_POINT('',(-0.0560293616807465,0.0234012303576158,0.00254));
#1703=CARTESIAN_POINT('',(-0.0674431439978809,-0.0324787696423842,0.00254));
#1704=CARTESIAN_POINT('',(-0.0560293616807464,-0.0324787696423842,0.00254));
#1705=CARTESIAN_POINT('',(-0.0560293616807464,-0.0324787696423842,0.00254));
#1706=CARTESIAN_POINT('',(-0.0674431439978809,-0.0324787696423842,0.00254));
#1707=CARTESIAN_POINT('',(-0.0788569263150155,-0.0324787696423842,0.00254));
#1708=CARTESIAN_POINT('',(-0.0788569263150155,-0.0324787696423842,0.00254));
#1709=CARTESIAN_POINT('',(-0.0102931439978813,-0.00453876964238416,0.00254));
#1710=CARTESIAN_POINT('',(-0.0687939152809553,-0.00453876964238417,0.00254));
#1711=CARTESIAN_POINT('',(-0.0655300152809553,-0.00453876964238417,0.00254));
#1712=CARTESIAN_POINT('',(-0.0788569263150155,0.0208612303576158,0.00254));
#1713=CARTESIAN_POINT('',(-0.0788569263150155,-0.0299387696423841,0.00254));
#1714=CARTESIAN_POINT('',(-0.0560293616807464,-0.0299387696423841,0.00254));
#1715=CARTESIAN_POINT('',(-0.0560293616807465,0.0208612303576158,0.00254));
#1716=CARTESIAN_POINT('',(-0.0432969263150154,-0.0197787696423842,0.));
#1717=CARTESIAN_POINT('',(-0.0432969263150154,-0.0197787696423842,0.01016));
#1718=CARTESIAN_POINT('',(-0.0410998263150154,-0.0197787696423842,0.01016));
#1719=CARTESIAN_POINT('',(-0.0369469263150154,-0.0197787696423842,0.01016));
#1720=CARTESIAN_POINT('',(-0.0432969263150154,-0.0197787696423842,0.01016));
#1721=CARTESIAN_POINT('',(-0.0369469263150154,-0.0197787696423842,0.01016));
#1722=CARTESIAN_POINT('',(-0.0432969263150154,-0.0197787696423842,0.));
#1723=CARTESIAN_POINT('',(0.0481430736849846,-0.0197787696423841,0.));
#1724=CARTESIAN_POINT('',(0.0481430736849846,-0.0197787696423841,0.01016));
#1725=CARTESIAN_POINT('',(0.0503401736849846,-0.0197787696423841,0.01016));
#1726=CARTESIAN_POINT('',(0.0544930736849846,-0.0197787696423841,0.01016));
#1727=CARTESIAN_POINT('',(0.0481430736849846,-0.0197787696423841,0.01016));
#1728=CARTESIAN_POINT('',(0.0544930736849846,-0.0197787696423841,0.01016));
#1729=CARTESIAN_POINT('',(0.0481430736849846,-0.0197787696423841,0.));
#1730=CARTESIAN_POINT('',(0.0481430736849845,0.0107012303576158,0.));
#1731=CARTESIAN_POINT('',(0.0481430736849845,0.0107012303576158,0.01016));
#1732=CARTESIAN_POINT('',(0.0503401736849845,0.0107012303576158,0.01016));
#1733=CARTESIAN_POINT('',(0.0544930736849845,0.0107012303576158,0.01016));
#1734=CARTESIAN_POINT('',(0.0481430736849845,0.0107012303576158,0.01016));
#1735=CARTESIAN_POINT('',(0.0544930736849845,0.0107012303576158,0.01016));
#1736=CARTESIAN_POINT('',(0.0481430736849845,0.0107012303576158,0.));
#1737=CARTESIAN_POINT('',(-0.0432969263150154,0.0107012303576158,0.));
#1738=CARTESIAN_POINT('',(-0.0432969263150154,0.0107012303576158,0.01016));
#1739=CARTESIAN_POINT('',(-0.0410998263150154,0.0107012303576158,0.01016));
#1740=CARTESIAN_POINT('',(-0.0369469263150154,0.0107012303576158,0.01016));
#1741=CARTESIAN_POINT('',(-0.0432969263150154,0.0107012303576158,0.01016));
#1742=CARTESIAN_POINT('',(-0.0369469263150154,0.0107012303576158,0.01016));
#1743=CARTESIAN_POINT('',(-0.0432969263150154,0.0107012303576158,0.));
#1744=CARTESIAN_POINT('',(0.0582060847190447,-0.0299387696423841,0.03175));
#1745=CARTESIAN_POINT('',(0.0582060847190447,-0.0299387696423841,0.02413));
#1746=CARTESIAN_POINT('',(0.0549421847190447,-0.0299387696423841,0.02413));
#1747=CARTESIAN_POINT('',(0.0632860847190447,-0.0299387696423841,0.02413));
#1748=CARTESIAN_POINT('',(0.0582060847190447,-0.0299387696423841,0.02413));
#1749=CARTESIAN_POINT('',(0.0531260847190447,-0.0299387696423841,0.02413));
#1750=CARTESIAN_POINT('',(0.0582060847190447,-0.0299387696423841,0.03175));
#1751=CARTESIAN_POINT('',(0.0582060847190447,0.0208612303576158,0.03175));
#1752=CARTESIAN_POINT('',(0.0582060847190447,0.0208612303576158,0.02413));
#1753=CARTESIAN_POINT('',(0.0549421847190447,0.0208612303576158,0.02413));
#1754=CARTESIAN_POINT('',(0.0632860847190447,0.0208612303576158,0.02413));
#1755=CARTESIAN_POINT('',(0.0582060847190447,0.0208612303576158,0.02413));
#1756=CARTESIAN_POINT('',(0.0531260847190447,0.0208612303576158,0.02413));
#1757=CARTESIAN_POINT('',(0.0582060847190447,0.0208612303576158,0.03175));
#1758=CARTESIAN_POINT('',(-0.0687939152809553,-0.00453876964238417,0.03175));
#1759=CARTESIAN_POINT('',(-0.0610769263150155,-0.00203948430031144,0.017526));
#1760=CARTESIAN_POINT('',(-0.0610769263150155,-0.00203948430031144,0.025146));
#1761=CARTESIAN_POINT('',(-0.0610769263150155,-0.00203948430031144,0.009906));
#1762=CARTESIAN_POINT('',(-0.0610769263150155,-0.00521448430031145,0.009906));
#1763=CARTESIAN_POINT('',(-0.0610769263150155,-0.00521448430031145,0.006731));
#1764=CARTESIAN_POINT('',(-0.0610769263150155,-0.00775448430031145,0.006731));
#1765=CARTESIAN_POINT('',(-0.0610769263150155,-0.0102944843003114,0.006731));
#1766=CARTESIAN_POINT('',(-0.0610769263150155,-0.0102944843003114,0.009906));
#1767=CARTESIAN_POINT('',(-0.0610769263150155,-0.0134694843003114,0.009906));
#1768=CARTESIAN_POINT('',(-0.0610769263150155,-0.0134694843003114,0.017526));
#1769=CARTESIAN_POINT('',(-0.0610769263150155,-0.0134694843003114,0.025146));
#1770=CARTESIAN_POINT('',(-0.0610769263150155,-0.0102944843003114,0.025146));
#1771=CARTESIAN_POINT('',(-0.0610769263150155,-0.0102944843003114,0.028321));
#1772=CARTESIAN_POINT('',(-0.0610769263150155,-0.00775448430031144,0.028321));
#1773=CARTESIAN_POINT('',(-0.0610769263150155,-0.00521448430031145,0.028321));
#1774=CARTESIAN_POINT('',(-0.0610769263150155,-0.00521448430031145,0.025146));
#1775=CARTESIAN_POINT('',(-0.0610769263150155,0.0157405156996886,0.017526));
#1776=CARTESIAN_POINT('',(-0.0610769263150155,0.0157405156996886,0.025146));
#1777=CARTESIAN_POINT('',(-0.0610769263150155,0.0157405156996886,0.009906));
#1778=CARTESIAN_POINT('',(-0.0610769263150155,0.0125655156996886,0.009906));
#1779=CARTESIAN_POINT('',(-0.0610769263150155,0.0125655156996886,0.006731));
#1780=CARTESIAN_POINT('',(-0.0610769263150155,0.0100255156996886,0.006731));
#1781=CARTESIAN_POINT('',(-0.0610769263150155,0.00748551569968855,0.006731));
#1782=CARTESIAN_POINT('',(-0.0610769263150155,0.00748551569968855,0.009906));
#1783=CARTESIAN_POINT('',(-0.0610769263150155,0.00431051569968855,0.009906));
#1784=CARTESIAN_POINT('',(-0.0610769263150155,0.00431051569968855,0.017526));
#1785=CARTESIAN_POINT('',(-0.0610769263150155,0.00431051569968854,0.025146));
#1786=CARTESIAN_POINT('',(-0.0610769263150155,0.00748551569968855,0.025146));
#1787=CARTESIAN_POINT('',(-0.0610769263150155,0.00748551569968856,0.028321));
#1788=CARTESIAN_POINT('',(-0.0610769263150155,0.0100255156996886,0.028321));
#1789=CARTESIAN_POINT('',(-0.0610769263150155,0.0125655156996886,0.028321));
#1790=CARTESIAN_POINT('',(-0.0610769263150155,0.0125655156996886,0.025146));
#1791=CARTESIAN_POINT('',(-0.0610769263150155,-0.0236294843003114,0.022225));
#1792=CARTESIAN_POINT('',(-0.0788569263150155,0.0208612303576158,0.00254));
#1793=CARTESIAN_POINT('',(-0.0560293616807465,0.0208612303576158,0.00254));
#1794=CARTESIAN_POINT('',(-0.0560293616807464,-0.0299387696423841,0.00254));
#1795=CARTESIAN_POINT('',(-0.0788569263150155,-0.0299387696423841,0.00254));
#1796=CARTESIAN_POINT('',(-0.0864769263150155,0.0100255156996886,0.029972));
#1797=CARTESIAN_POINT('',(-0.0864769263150155,-0.00775448430031144,0.029972));
#1798=CARTESIAN_POINT('',(-0.0864769263150155,-0.00775448430031145,0.00508));
#1799=CARTESIAN_POINT('',(-0.0864769263150155,0.0100255156996885,0.00508));
#1800=MECHANICAL_DESIGN_GEOMETRIC_PRESENTATION_REPRESENTATION('',(#1061),
#1801);
#1801=(
GEOMETRIC_REPRESENTATION_CONTEXT(3)
GLOBAL_UNCERTAINTY_ASSIGNED_CONTEXT((#1802))
GLOBAL_UNIT_ASSIGNED_CONTEXT((#1805,#1804,#1803))
REPRESENTATION_CONTEXT('Part 1','TOP_LEVEL_ASSEMBLY_PART')
);
#1802=UNCERTAINTY_MEASURE_WITH_UNIT(LENGTH_MEASURE(1.E-8),#1805,
'DISTANCE_ACCURACY_VALUE','Maximum Tolerance applied to model');
#1803=(
NAMED_UNIT(*)
SI_UNIT($,.STERADIAN.)
SOLID_ANGLE_UNIT()
);
#1804=(
NAMED_UNIT(*)
PLANE_ANGLE_UNIT()
SI_UNIT($,.RADIAN.)
);
#1805=(
LENGTH_UNIT()
NAMED_UNIT(*)
SI_UNIT($,.METRE.)
);
#1806=PRODUCT_DEFINITION_SHAPE('','',#1807);
#1807=PRODUCT_DEFINITION('','',#1809,#1808);
#1808=PRODUCT_DEFINITION_CONTEXT('',#1815,'design');
#1809=PRODUCT_DEFINITION_FORMATION_WITH_SPECIFIED_SOURCE('','',#1811,
 .NOT_KNOWN.);
#1810=PRODUCT_RELATED_PRODUCT_CATEGORY('','',(#1811));
#1811=PRODUCT('Part 1','Part 1','Part 1',(#1813));
#1812=PRODUCT_CATEGORY('','');
#1813=PRODUCT_CONTEXT('',#1815,'mechanical');
#1814=APPLICATION_PROTOCOL_DEFINITION('international standard',
'ap242_managed_model_based_3d_engineering',2011,#1815);
#1815=APPLICATION_CONTEXT('managed model based 3d engineering');
ENDSEC;
END-ISO-10303-21;
