  0
SECTION
  2
HEADER
  9
$ACADVER
  1
AC1014
  9
$ACADMAINTVER
 70
     9
  9
$DWGCODEPAGE
  3
ANSI_1252
  9
$INSBASE
 10
0.0
 20
0.0
 30
0.0
  9
$EXTMIN
 10
0.038
 20
0.019
 30
-0.365
  9
$EXTMAX
 10
11.0
 20
8.481
 30
0.365
  9
$LIMMIN
 10
0.0
 20
0.0
  9
$LIMMAX
 10
12.0
 20
9.0
  9
$ORTHOMODE
 70
     0
  9
$REGENMODE
 70
     1
  9
$FILLMODE
 70
     1
  9
$QTEXTMODE
 70
     0
  9
$MIRRTEXT
 70
     1
  9
$DRAGMODE
 70
     2
  9
$LTSCALE
 40
0.5
  9
$OSMODE
 70
    23
  9
$ATTMODE
 70
     1
  9
$TEXTSIZE
 40
0.12
  9
$TRACEWID
 40
0.05
  9
$TEXTSTYLE
  7
ONSHAPE-STANDARD
  9
$CLAYER
  8
0
  9
$CELTYPE
  6
BYLAYER
  9
$CECOLOR
 62
   256
  9
$CELTSCALE
 40
1.0
  9
$DELOBJ
 70
     1
  9
$DISPSILH
 70
     0
  9
$DIMSCALE
 40
1.0
  9
$DIMASZ
 40
0.18
  9
$DIMEXO
 40
0.0625
  9
$DIMDLI
 40
0.38
  9
$DIMRND
 40
0.0
  9
$DIMDLE
 40
0.0
  9
$DIMEXE
 40
0.08
  9
$DIMTP
 40
0.0
  9
$DIMTM
 40
0.0
  9
$DIMTXT
 40
0.12
  9
$DIMCEN
 40
0.09
  9
$DIMTSZ
 40
0.0
  9
$DIMTOL
 70
     0
  9
$DIMLIM
 70
     0
  9
$DIMTIH
 70
     1
  9
$DIMTOH
 70
     1
  9
$DIMSE1
 70
     0
  9
$DIMSE2
 70
     0
  9
$DIMTAD
 70
     0
  9
$DIMZIN
 70
     7
  9
$DIMBLK
  1

  9
$DIMASO
 70
     1
  9
$DIMSHO
 70
     1
  9
$DIMPOST
  1

  9
$DIMAPOST
  1

  9
$DIMALT
 70
     0
  9
$DIMALTD
 70
     2
  9
$DIMALTF
 40
25.4
  9
$DIMLFAC
 40
1.0
  9
$DIMTOFL
 70
     0
  9
$DIMTVP
 40
0.0
  9
$DIMTIX
 70
     0
  9
$DIMSOXD
 70
     0
  9
$DIMSAH
 70
     0
  9
$DIMBLK1
  1

  9
$DIMBLK2
  1

  9
$DIMSTYLE
  2
ONSHAPE-STANDARD
  9
$DIMCLRD
 70
     7
  9
$DIMCLRE
 70
     7
  9
$DIMCLRT
 70
     7
  9
$DIMTFAC
 40
1.0
  9
$DIMGAP
 40
0.09
  9
$DIMJUST
 70
     0
  9
$DIMSD1
 70
     0
  9
$DIMSD2
 70
     0
  9
$DIMTOLJ
 70
     1
  9
$DIMTZIN
 70
     7
  9
$DIMALTZ
 70
     7
  9
$DIMALTTZ
 70
     0
  9
$DIMFIT
 70
     3
  9
$DIMUPT
 70
     1
  9
$DIMUNIT
 70
     2
  9
$DIMDEC
 70
     3
  9
$DIMTDEC
 70
     3
  9
$DIMALTU
 70
     2
  9
$DIMALTTD
 70
     2
  9
$DIMTXSTY
  7
ONSHAPE-STANDARD-DIMENSION
  9
$DIMAUNIT
 70
     0
  9
$LUNITS
 70
     2
  9
$LUPREC
 70
     4
  9
$SKETCHINC
 40
0.1
  9
$FILLETRAD
 40
0.5
  9
$AUNITS
 70
     0
  9
$AUPREC
 70
     0
  9
$MENU
  1
.
  9
$ELEVATION
 40
0.0
  9
$PELEVATION
 40
0.0
  9
$THICKNESS
 40
0.0
  9
$LIMCHECK
 70
     0
  9
$CHAMFERA
 40
0.0
  9
$CHAMFERB
 40
0.0
  9
$CHAMFERC
 40
0.0
  9
$CHAMFERD
 40
0.0
  9
$SKPOLY
 70
     0
  9
$TDCREATE
 40
2460752.925124664
  9
$TDUPDATE
 40
2460752.925125289
  9
$TDINDWG
 40
0.0
  9
$TDUSRTIMER
 40
0.0
  9
$USRTIMER
 70
     1
  9
$ANGBASE
 50
0.0
  9
$ANGDIR
 70
     0
  9
$PDMODE
 70
    33
  9
$PDSIZE
 40
0.0393700787401575
  9
$PLINEWID
 40
0.0
  9
$COORDS
 70
     1
  9
$SPLFRAME
 70
     0
  9
$SPLINETYPE
 70
     6
  9
$SPLINESEGS
 70
     8
  9
$ATTDIA
 70
     0
  9
$ATTREQ
 70
     1
  9
$HANDLING
 70
     1
  9
$HANDSEED
  5
34F
  9
$SURFTAB1
 70
     6
  9
$SURFTAB2
 70
     6
  9
$SURFTYPE
 70
     6
  9
$SURFU
 70
     6
  9
$SURFV
 70
     6
  9
$UCSNAME
  2

  9
$UCSORG
 10
0.0
 20
0.0
 30
0.0
  9
$UCSXDIR
 10
1.0
 20
0.0
 30
0.0
  9
$UCSYDIR
 10
0.0
 20
1.0
 30
0.0
  9
$PUCSNAME
  2

  9
$PUCSORG
 10
0.0
 20
0.0
 30
0.0
  9
$PUCSXDIR
 10
1.0
 20
0.0
 30
0.0
  9
$PUCSYDIR
 10
0.0
 20
1.0
 30
0.0
  9
$USERI1
 70
     0
  9
$USERI2
 70
     0
  9
$USERI3
 70
     0
  9
$USERI4
 70
     0
  9
$USERI5
 70
     0
  9
$USERR1
 40
0.0
  9
$USERR2
 40
0.0
  9
$USERR3
 40
0.0
  9
$USERR4
 40
0.0
  9
$USERR5
 40
0.0
  9
$WORLDVIEW
 70
     1
  9
$SHADEDGE
 70
     3
  9
$SHADEDIF
 70
    70
  9
$TILEMODE
 70
     1
  9
$MAXACTVP
 70
    64
  9
$PINSBASE
 10
0.0
 20
0.0
 30
0.0
  9
$PLIMCHECK
 70
     0
  9
$PEXTMIN
 10
1.000000000000000E+20
 20
1.000000000000000E+20
 30
1.000000000000000E+20
  9
$PEXTMAX
 10
-1.000000000000000E+20
 20
-1.000000000000000E+20
 30
-1.000000000000000E+20
  9
$PLIMMIN
 10
0.0
 20
0.0
  9
$PLIMMAX
 10
12.0
 20
9.0
  9
$UNITMODE
 70
     0
  9
$VISRETAIN
 70
     1
  9
$PLINEGEN
 70
     0
  9
$PSLTSCALE
 70
     1
  9
$TREEDEPTH
 70
  3020
  9
$PICKSTYLE
 70
     1
  9
$CMLSTYLE
  2
STANDARD
  9
$CMLJUST
 70
     0
  9
$CMLSCALE
 40
1.0
  9
$PROXYGRAPHICS
 70
     1
  9
$MEASUREMENT
 70
     0
  0
ENDSEC
  0
SECTION
  2
CLASSES
  0
CLASS
  1
ACDBDICTIONARYWDFLT
  2
AcDbDictionaryWithDefault
  3
ObjectDBX Classes
 90
        0
280
     0
281
     0
  0
CLASS
  1
VISUALSTYLE
  2
AcDbVisualStyle
  3
ObjectDBX Classes
 90
     4095
280
     0
281
     0
  0
CLASS
  1
MATERIAL
  2
AcDbMaterial
  3
ObjectDBX Classes
 90
     1153
280
     0
281
     0
  0
CLASS
  1
SCALE
  2
AcDbScale
  3
ObjectDBX Classes
 90
     1153
280
     0
281
     0
  0
CLASS
  1
TABLESTYLE
  2
AcDbTableStyle
  3
ObjectDBX Classes
 90
     4095
280
     0
281
     0
  0
CLASS
  1
MLEADERSTYLE
  2
AcDbMLeaderStyle
  3
ACDB_MLEADERSTYLE_CLASS
 90
     4095
280
     0
281
     0
  0
CLASS
  1
SUN
  2
AcDbSun
  3
SCENEOE
 90
     1153
280
     0
281
     0
  0
CLASS
  1
DICTIONARYVAR
  2
AcDbDictionaryVar
  3
ObjectDBX Classes
 90
        0
280
     0
281
     0
  0
CLASS
  1
FIELD
  2
AcDbField
  3
ObjectDBX Classes
 90
     1152
280
     0
281
     0
  0
CLASS
  1
FIELDLIST
  2
AcDbFieldList
  3
ObjectDBX Classes
 90
     1152
280
     0
281
     0
  0
CLASS
  1
DIMASSOC
  2
AcDbDimAssoc
  3
"AcDbDimAssoc|Product Desc:     AcDim ARX App For Dimension|Company:          Autodesk, Inc.|WEB Address:      www.autodesk.com"
 90
        0
280
     0
281
     0
  0
CLASS
  1
BREAKDATA
  2
AcDbBreakData
  3
ObjectDBX Classes
 90
     1024
280
     0
281
     0
  0
CLASS
  1
XRECORD
  2
AcDbXrecord
  3
ObjectDBX Classes
 90
        0
280
     0
281
     0
  0
CLASS
  1
LWPOLYLINE
  2
AcDbPolyline
  3
ObjectDBX Classes
 90
        0
280
     0
281
     1
  0
CLASS
  1
HATCH
  2
AcDbHatch
  3
ObjectDBX Classes
 90
        0
280
     0
281
     1
  0
CLASS
  1
ACDBPLACEHOLDER
  2
AcDbPlaceHolder
  3
ObjectDBX Classes
 90
        0
280
     0
281
     0
  0
CLASS
  1
LAYOUT
  2
AcDbLayout
  3
ObjectDBX Classes
 90
        0
280
     0
281
     0
  0
ENDSEC
  0
SECTION
  2
TABLES
  0
TABLE
  2
VPORT
  5
8
102
{ACAD_XDICTIONARY
360
344
102
}
330
0
100
AcDbSymbolTable
 70
     1
  0
VPORT
  5
29
330
8
100
AcDbSymbolTableRecord
100
AcDbViewportTableRecord
  2
*ACTIVE
 70
     0
 10
0.0
 20
0.0
 11
1.0
 21
1.0
 12
5.519
 22
4.389959809264305
 13
0.0
 23
0.0
 14
0.5
 24
0.5
 15
0.5
 25
0.5
 16
0.0
 26
0.0
 36
1.0
 17
0.0
 27
0.0
 37
0.0
 40
8.916758010899182
 41
1.253957995308708
 42
50.0
 43
0.0
 44
0.0
 50
0.0
 51
0.0
 71
     0
 72
   100
 73
     1
 74
     3
 75
     0
 76
     0
 77
     0
 78
     0
  0
ENDTAB
  0
TABLE
  2
LTYPE
  5
5
330
0
100
AcDbSymbolTable
 70
     3
  0
LTYPE
  5
14
330
5
100
AcDbSymbolTableRecord
100
AcDbLinetypeTableRecord
  2
BYBLOCK
 70
     0
  3

 72
    65
 73
     0
 40
0.0
  0
LTYPE
  5
15
330
5
100
AcDbSymbolTableRecord
100
AcDbLinetypeTableRecord
  2
BYLAYER
 70
     0
  3

 72
    65
 73
     0
 40
0.0
  0
LTYPE
  5
16
330
5
100
AcDbSymbolTableRecord
100
AcDbLinetypeTableRecord
  2
CONTINUOUS
 70
     0
  3
Solid line
 72
    65
 73
     0
 40
0.0
  0
LTYPE
  5
93
330
5
100
AcDbSymbolTableRecord
100
AcDbLinetypeTableRecord
  2
HIDDEN
 70
     0
  3
Hidden line ____ ____ ____ ____ 
 72
    65
 73
     2
 40
0.15
 49
0.1
 74
     0
 49
-0.05
 74
     0
  0
LTYPE
  5
181
330
5
100
AcDbSymbolTableRecord
100
AcDbLinetypeTableRecord
  2
CENTER
 70
     0
  3
Center line ____ _ ____ _ ____ _
 72
    65
 73
     4
 40
0.7199999999999999
 49
0.45
 74
     0
 49
-0.09
 74
     0
 49
0.09
 74
     0
 49
-0.09
 74
     0
  0
ENDTAB
  0
TABLE
  2
LAYER
  5
2
330
0
100
AcDbSymbolTable
 70
    10
  0
LAYER
  5
10
330
2
100
AcDbSymbolTableRecord
100
AcDbLayerTableRecord
  2
0
 70
     0
 62
     7
  6
CONTINUOUS
  0
LAYER
  5
70
330
2
100
AcDbSymbolTableRecord
100
AcDbLayerTableRecord
  2
DEFPOINTS
 70
     0
 62
     7
  6
CONTINUOUS
  0
LAYER
  5
74
330
2
100
AcDbSymbolTableRecord
100
AcDbLayerTableRecord
  2
VISIBLE
 70
     0
 62
     7
  6
CONTINUOUS
  0
LAYER
  5
91
330
2
100
AcDbSymbolTableRecord
100
AcDbLayerTableRecord
  2
SURFACE_THREAD_SYMBOLS_ON_
 70
     0
 62
     7
  6
HIDDEN
  0
LAYER
  5
CE
330
2
100
AcDbSymbolTableRecord
100
AcDbLayerTableRecord
  2
BORDER_FRAME
 70
     0
 62
     7
  6
CONTINUOUS
  0
LAYER
  5
D4
330
2
100
AcDbSymbolTableRecord
100
AcDbLayerTableRecord
  2
BORDER_ZONES
 70
     0
 62
     7
  6
CONTINUOUS
  0
LAYER
  5
E2
330
2
100
AcDbSymbolTableRecord
100
AcDbLayerTableRecord
  2
TITLE_BLOCK
 70
     0
 62
     7
  6
CONTINUOUS
  0
LAYER
  5
17B
330
2
100
AcDbSymbolTableRecord
100
AcDbLayerTableRecord
  2
ANNOTATION_TEXT
 70
     0
 62
     7
  6
CONTINUOUS
  0
LAYER
  5
180
330
2
100
AcDbSymbolTableRecord
100
AcDbLayerTableRecord
  2
CENTERMARKS
 70
     0
 62
     7
  6
CONTINUOUS
  0
LAYER
  5
240
330
2
100
AcDbSymbolTableRecord
100
AcDbLayerTableRecord
  2
ANNOTATION_LINES
 70
     0
 62
     7
  6
CONTINUOUS
  0
ENDTAB
  0
TABLE
  2
STYLE
  5
3
330
0
100
AcDbSymbolTable
 70
    36
  0
STYLE
  5
11
330
3
100
AcDbSymbolTableRecord
100
AcDbTextStyleTableRecord
  2
STANDARD
 70
     0
 40
0.0
 41
1.0
 50
0.0
 71
     0
 42
0.12
  3
txt
  4

  0
STYLE
  5
71
330
3
100
AcDbSymbolTableRecord
100
AcDbTextStyleTableRecord
  2
ONSHAPE-STANDARD
 70
     0
 40
0.0
 41
1.0
 50
0.0
 71
     0
 42
0.12
  3
NotoSans-Regular.ttf
  4

1001
ACAD
1000
Noto Sans
1071
        0
  0
STYLE
  5
73
330
3
100
AcDbSymbolTableRecord
100
AcDbTextStyleTableRecord
  2
ONSHAPE-STANDARD-DIMENSION
 70
     0
 40
0.0
 41
1.0
 50
0.0
 71
     0
 42
0.12
  3

  4

1001
ACAD
1000
Noto Sans
1071
        0
  0
STYLE
  5
116
330
3
100
AcDbSymbolTableRecord
100
AcDbTextStyleTableRecord
  2
ONSHAPE-STANDARD-FIELDS
 70
     0
 40
0.0
 41
1.0
 50
0.0
 71
     0
 42
0.12
  3

  4

1001
ACAD
1000
Noto Sans
1071
        0
  0
STYLE
  5
17D
330
3
100
AcDbSymbolTableRecord
100
AcDbTextStyleTableRecord
  2
ONSHAPE-STANDARD-VIEW-LABE
 70
     0
 40
0.12
 41
1.0
 50
0.0
 71
     0
 42
0.12
  3
NotoSans-Regular.ttf
  4

1001
ACAD
1000
Noto Sans
1071
        0
  0
STYLE
  5
239
330
3
100
AcDbSymbolTableRecord
100
AcDbTextStyleTableRecord
  2
ONSHAPE-STANDARD-HOLE-CALL
 70
     0
 40
0.12
 41
1.0
 50
0.0
 71
     0
 42
0.12
  3
Noto Sans
  4

1001
ACAD
1000
Noto Sans
1071
        0
  0
STYLE
  5
2CD
330
3
100
AcDbSymbolTableRecord
100
AcDbTextStyleTableRecord
  2
ONSHAPE-STANDARD-BOLD
 70
     0
 40
0.0
 41
1.0
 50
0.0
 71
     0
 42
0.12
  3
NotoSans-Bold.ttf
  4

1001
ACAD
1000
Noto Sans
1071
 33554432
  0
STYLE
  5
2CF
330
3
100
AcDbSymbolTableRecord
100
AcDbTextStyleTableRecord
  2
ONSHAPE-STANDARD-TCFIELDS
 70
     0
 40
0.0
 41
1.0
 50
0.0
 71
     0
 42
0.12
  3
NotoSansTC-Regular.otf
  4

1001
ACAD
1000
Noto Sans TC
1071
        0
  0
STYLE
  5
2D0
330
3
100
AcDbSymbolTableRecord
100
AcDbTextStyleTableRecord
  2
ONSHAPE-STANDARD-SCFIELDS
 70
     0
 40
0.0
 41
1.0
 50
0.0
 71
     0
 42
0.12
  3
NotoSansSC-Regular.otf
  4

1001
ACAD
1000
Noto Sans SC
1071
        0
  0
STYLE
  5
2D1
330
3
100
AcDbSymbolTableRecord
100
AcDbTextStyleTableRecord
  2
ONSHAPE-STANDARD-KOREANFIE
 70
     0
 40
0.0
 41
1.0
 50
0.0
 71
     0
 42
0.12
  3
NotoSansKR-Regular.otf
  4

1001
ACAD
1000
Noto Sans KR
1071
        0
  0
STYLE
  5
2D2
330
3
100
AcDbSymbolTableRecord
100
AcDbTextStyleTableRecord
  2
ONSHAPE-STANDARD-JAPANESEF
 70
     0
 40
0.0
 41
1.0
 50
0.0
 71
     0
 42
0.12
  3
NotoSansJP-Regular.otf
  4

1001
ACAD
1000
Noto Sans JP
1071
        0
  0
STYLE
  5
2D3
330
3
100
AcDbSymbolTableRecord
100
AcDbTextStyleTableRecord
  2
TTFSTYLE
 70
     0
 40
0.0
 41
1.0
 50
0.0
 71
     0
 42
0.12
  3
Verdana.ttf
  4

1001
ACAD
1000
Verdana
1071
       34
  0
STYLE
  5
2D4
330
3
100
AcDbSymbolTableRecord
100
AcDbTextStyleTableRecord
  2
ONSHAPE-STANDARD-GTOLERANC
 70
     0
 40
0.0
 41
1.0
 50
0.0
 71
     0
 42
0.12
  3

  4

1001
ACAD
1000
Noto Sans
1071
        0
  0
STYLE
  5
2D5
330
3
100
AcDbSymbolTableRecord
100
AcDbTextStyleTableRecord
  2
ONSHAPE-STANDARD-TABLE-DAT
 70
     0
 40
0.0
 41
1.0
 50
0.0
 71
     0
 42
0.12
  3
NotoSans-Regular.ttf
  4

1001
ACAD
1000
Noto Sans
1071
        0
  0
STYLE
  5
2D6
330
3
100
AcDbSymbolTableRecord
100
AcDbTextStyleTableRecord
  2
ONSHAPE-STANDARD-TABLE-TIT
 70
     0
 40
0.0
 41
1.0
 50
0.0
 71
     0
 42
0.12
  3
NotoSans-Bold.ttf
  4

1001
ACAD
1000
Noto Sans
1071
 33554432
  0
STYLE
  5
2D7
330
3
100
AcDbSymbolTableRecord
100
AcDbTextStyleTableRecord
  2
ONSHAPE-STANDARD-TABLE-HEA
 70
     0
 40
0.0
 41
1.0
 50
0.0
 71
     0
 42
0.12
  3
NotoSans-Bold.ttf
  4

1001
ACAD
1000
Noto Sans
1071
 33554432
  0
STYLE
  5
2D8
330
3
100
AcDbSymbolTableRecord
100
AcDbTextStyleTableRecord
  2
ONSHAPE-STANDARD-BOMTABLE-
 70
     0
 40
0.0
 41
1.0
 50
0.0
 71
     0
 42
0.12
  3
NotoSans-Regular.ttf
  4

1001
ACAD
1000
Noto Sans
1071
        0
  0
STYLE
  5
2D9
330
3
100
AcDbSymbolTableRecord
100
AcDbTextStyleTableRecord
  2
ONSHAPE-STANDARD-BOMTABLE0
 70
     0
 40
0.0
 41
1.0
 50
0.0
 71
     0
 42
0.12
  3
NotoSans-Bold.ttf
  4

1001
ACAD
1000
Noto Sans
1071
 33554432
  0
STYLE
  5
2DA
330
3
100
AcDbSymbolTableRecord
100
AcDbTextStyleTableRecord
  2
ONSHAPE-STANDARD-BOMTABLE1
 70
     0
 40
0.0
 41
1.0
 50
0.0
 71
     0
 42
0.12
  3
NotoSans-Bold.ttf
  4

1001
ACAD
1000
Noto Sans
1071
 33554432
  0
STYLE
  5
2DB
330
3
100
AcDbSymbolTableRecord
100
AcDbTextStyleTableRecord
  2
ONSHAPE-STANDARD-NOTESTYLE
 70
     0
 40
0.12
 41
1.0
 50
0.0
 71
     0
 42
0.12
  3
Noto Sans
  4

1001
ACAD
1000
Noto Sans
1071
        0
  0
STYLE
  5
2DC
330
3
100
AcDbSymbolTableRecord
100
AcDbTextStyleTableRecord
  2
ONSHAPE-STANDARD-DATUM-DIM
 70
     0
 40
0.12
 41
1.0
 50
0.0
 71
     0
 42
0.12
  3
Noto Sans
  4

1001
ACAD
1000
Noto Sans
1071
        0
  0
STYLE
  5
2DE
330
3
100
AcDbSymbolTableRecord
100
AcDbTextStyleTableRecord
  2
ONSHAPE-DETAIL-VIEW-LEADER
 70
     0
 40
0.12
 41
1.0
 50
0.0
 71
     0
 42
0.12
  3
Noto Sans
  4

1001
ACAD
1000
Noto Sans
1071
        0
  0
STYLE
  5
2E0
330
3
100
AcDbSymbolTableRecord
100
AcDbTextStyleTableRecord
  2
ONSHAPE-STANDARD-HOLETABLE
 70
     0
 40
0.0
 41
1.0
 50
0.0
 71
     0
 42
0.12
  3
NotoSans-Regular.ttf
  4

1001
ACAD
1000
Noto Sans
1071
        0
  0
STYLE
  5
2E1
330
3
100
AcDbSymbolTableRecord
100
AcDbTextStyleTableRecord
  2
ONSHAPE-STANDARD-HOLETABL0
 70
     0
 40
0.0
 41
1.0
 50
0.0
 71
     0
 42
0.12
  3
NotoSans-Bold.ttf
  4

1001
ACAD
1000
Noto Sans
1071
 33554432
  0
STYLE
  5
2E2
330
3
100
AcDbSymbolTableRecord
100
AcDbTextStyleTableRecord
  2
ONSHAPE-STANDARD-HOLETABL1
 70
     0
 40
0.0
 41
1.0
 50
0.0
 71
     0
 42
0.12
  3
NotoSans-Bold.ttf
  4

1001
ACAD
1000
Noto Sans
1071
 33554432
  0
STYLE
  5
2E3
330
3
100
AcDbSymbolTableRecord
100
AcDbTextStyleTableRecord
  2
ONSHAPE-STANDARD-HOLE-TAG
 70
     0
 40
0.12
 41
1.0
 50
0.0
 71
     0
 42
0.12
  3
Noto Sans
  4

1001
ACAD
1000
Noto Sans
1071
        0
  0
STYLE
  5
2E4
330
3
100
AcDbSymbolTableRecord
100
AcDbTextStyleTableRecord
  2
ONSHAPE-STANDARD-REVISIONT
 70
     0
 40
0.0
 41
1.0
 50
0.0
 71
     0
 42
0.12
  3
NotoSans-Regular.ttf
  4

1001
ACAD
1000
Noto Sans
1071
        0
  0
STYLE
  5
2E5
330
3
100
AcDbSymbolTableRecord
100
AcDbTextStyleTableRecord
  2
ONSHAPE-STANDARD-REVISION0
 70
     0
 40
0.0
 41
1.0
 50
0.0
 71
     0
 42
0.12
  3
NotoSans-Bold.ttf
  4

1001
ACAD
1000
Noto Sans
1071
 33554432
  0
STYLE
  5
2E6
330
3
100
AcDbSymbolTableRecord
100
AcDbTextStyleTableRecord
  2
ONSHAPE-STANDARD-REVISION1
 70
     0
 40
0.0
 41
1.0
 50
0.0
 71
     0
 42
0.12
  3
NotoSans-Bold.ttf
  4

1001
ACAD
1000
Noto Sans
1071
 33554432
  0
STYLE
  5
2E7
330
3
100
AcDbSymbolTableRecord
100
AcDbTextStyleTableRecord
  2
ONSHAPE-STANDARD-REVISION-
 70
     0
 40
0.12
 41
1.0
 50
0.0
 71
     0
 42
0.12
  3
Noto Sans
  4

1001
ACAD
1000
Noto Sans
1071
        0
  0
STYLE
  5
2E8
330
3
100
AcDbSymbolTableRecord
100
AcDbTextStyleTableRecord
  2
ONSHAPE-STANDARD-CUTLISTTA
 70
     0
 40
0.0
 41
1.0
 50
0.0
 71
     0
 42
0.12
  3
NotoSans-Regular.ttf
  4

1001
ACAD
1000
Noto Sans
1071
        0
  0
STYLE
  5
2E9
330
3
100
AcDbSymbolTableRecord
100
AcDbTextStyleTableRecord
  2
ONSHAPE-STANDARD-CUTLISTT0
 70
     0
 40
0.0
 41
1.0
 50
0.0
 71
     0
 42
0.12
  3
NotoSans-Bold.ttf
  4

1001
ACAD
1000
Noto Sans
1071
 33554432
  0
STYLE
  5
2EA
330
3
100
AcDbSymbolTableRecord
100
AcDbTextStyleTableRecord
  2
ONSHAPE-STANDARD-CUTLISTT1
 70
     0
 40
0.0
 41
1.0
 50
0.0
 71
     0
 42
0.12
  3
NotoSans-Bold.ttf
  4

1001
ACAD
1000
Noto Sans
1071
 33554432
  0
STYLE
  5
2EB
330
3
100
AcDbSymbolTableRecord
100
AcDbTextStyleTableRecord
  2
ONSHAPE-STANDARD-CUSTOMTAB
 70
     0
 40
0.0
 41
1.0
 50
0.0
 71
     0
 42
0.12
  3
NotoSans-Regular.ttf
  4

1001
ACAD
1000
Noto Sans
1071
        0
  0
STYLE
  5
2EC
330
3
100
AcDbSymbolTableRecord
100
AcDbTextStyleTableRecord
  2
ONSHAPE-STANDARD-CUSTOMTA0
 70
     0
 40
0.0
 41
1.0
 50
0.0
 71
     0
 42
0.12
  3
NotoSans-Bold.ttf
  4

1001
ACAD
1000
Noto Sans
1071
 33554432
  0
STYLE
  5
2ED
330
3
100
AcDbSymbolTableRecord
100
AcDbTextStyleTableRecord
  2
ONSHAPE-STANDARD-CUSTOMTA1
 70
     0
 40
0.0
 41
1.0
 50
0.0
 71
     0
 42
0.12
  3
NotoSans-Bold.ttf
  4

1001
ACAD
1000
Noto Sans
1071
 33554432
  0
ENDTAB
  0
TABLE
  2
VIEW
  5
6
330
0
100
AcDbSymbolTable
 70
     0
  0
ENDTAB
  0
TABLE
  2
UCS
  5
7
330
0
100
AcDbSymbolTable
 70
     0
  0
ENDTAB
  0
TABLE
  2
APPID
  5
9
330
0
100
AcDbSymbolTable
 70
     9
  0
APPID
  5
12
330
9
100
AcDbSymbolTableRecord
100
AcDbRegAppTableRecord
  2
ACAD
 70
     0
  0
APPID
  5
17F
330
9
100
AcDbSymbolTableRecord
100
AcDbRegAppTableRecord
  2
ONSHAPE_NOTES_ANNOTATION_D
 70
     0
  0
APPID
  5
212
330
9
100
AcDbSymbolTableRecord
100
AcDbRegAppTableRecord
  2
ACAD_DIMASSOC_CALC_DIMLFAC
 70
     0
  0
APPID
  5
213
330
9
100
AcDbSymbolTableRecord
100
AcDbRegAppTableRecord
  2
ACAD_DIMASSOC_DIMLFAC
 70
     0
  0
APPID
  5
214
330
9
100
AcDbSymbolTableRecord
100
AcDbRegAppTableRecord
  2
ACAD_DIMASSOC_OVERRIDDEN_D
 70
     0
  0
APPID
  5
207
330
9
100
AcDbSymbolTableRecord
100
AcDbRegAppTableRecord
  2
INDEX
 70
     0
  0
APPID
  5
23F
330
9
100
AcDbSymbolTableRecord
100
AcDbRegAppTableRecord
  2
ONSHAPE_HOLECALLOUT_TEXT_J
 70
     0
  0
APPID
  5
295
330
9
100
AcDbSymbolTableRecord
100
AcDbRegAppTableRecord
  2
ACAD_DSTYLE_DIMRADIAL_EXTE
 70
     0
  0
APPID
  5
34E
330
9
100
AcDbSymbolTableRecord
100
AcDbRegAppTableRecord
  2
ACAD_MLEADERVER
 70
     0
  0
ENDTAB
  0
TABLE
  2
DIMSTYLE
  5
A
330
0
100
AcDbSymbolTable
 70
    21
  0
DIMSTYLE
105
27
330
A
100
AcDbSymbolTableRecord
100
AcDbDimStyleTableRecord
  2
STANDARD
 70
     0
  3

  4

  5

  6

  7

 40
1.0
 41
0.18
 42
0.0625
 43
0.38
 44
0.18
 45
0.0
 46
0.0
 47
0.0
 48
0.0
140
0.18
141
0.09
142
0.0
143
25.4
144
1.0
145
0.0
146
1.0
147
0.09
 71
     0
 72
     0
 73
     1
 74
     1
 75
     0
 76
     0
 77
     0
 78
     0
170
     0
171
     2
172
     0
173
     0
174
     0
175
     0
176
     0
177
     0
178
     0
270
     2
271
     4
272
     4
273
     2
274
     2
340
11
275
     0
280
     0
281
     0
282
     0
283
     1
284
     0
285
     0
286
     0
287
     3
288
     0
  0
DIMSTYLE
105
72
330
A
100
AcDbSymbolTableRecord
100
AcDbDimStyleTableRecord
  2
ONSHAPE-STANDARD
 70
     0
  3

  4

  5

  6

  7

 40
1.0
 41
0.18
 42
0.0625
 43
0.38
 44
0.08
 45
0.0
 46
0.0
 47
0.0
 48
0.0
140
0.12
141
0.09
142
0.0
143
25.4
144
1.0
145
0.0
146
1.0
147
0.09
 71
     0
 72
     0
 73
     1
 74
     1
 75
     0
 76
     0
 77
     0
 78
     7
170
     0
171
     2
172
     0
173
     0
174
     0
175
     0
176
     7
177
     7
178
     7
179
     1
270
     2
271
     3
272
     3
273
     2
274
     2
340
73
275
     0
280
     0
281
     0
282
     0
283
     1
284
     7
285
     7
286
     0
287
     3
288
     1
  0
DIMSTYLE
105
202
102
{ACAD_REACTORS
330
1F9
330
215
330
299
330
2AE
102
}
330
A
100
AcDbSymbolTableRecord
100
AcDbDimStyleTableRecord
  2
ONSHAPE-STANDARD$0
 70
     0
  3

  4

  5

  6

  7

 40
1.0
 41
0.18
 42
0.0625
 43
0.38
 44
0.08
 45
0.0
 46
0.0
 47
0.0
 48
0.0
140
0.12
141
0.09
142
0.0
143
25.4
144
1.0
145
0.0
146
1.0
147
0.09
 71
     0
 72
     0
 73
     1
 74
     1
 75
     0
 76
     0
 77
     0
 78
     7
170
     0
171
     2
172
     0
173
     0
174
     0
175
     0
176
     7
177
     7
178
     7
179
     1
270
     2
271
     3
272
     3
273
     2
274
     2
340
73
275
     0
280
     0
281
     0
282
     0
283
     1
284
     7
285
     7
286
     0
287
     3
288
     1
  0
DIMSTYLE
105
28A
102
{ACAD_REACTORS
330
282
102
}
330
A
100
AcDbSymbolTableRecord
100
AcDbDimStyleTableRecord
  2
ONSHAPE-STANDARD$3
 70
     0
  3

  4

  5

  6

  7

 40
1.0
 41
0.18
 42
0.0625
 43
0.38
 44
0.08
 45
0.0
 46
0.0
 47
0.0
 48
0.0
140
0.12
141
0.0
142
0.0
143
25.4
144
1.0
145
0.0
146
1.0
147
0.09
 71
     0
 72
     0
 73
     1
 74
     1
 75
     0
 76
     0
 77
     0
 78
     7
170
     0
171
     2
172
     0
173
     0
174
     0
175
     0
176
     7
177
     7
178
     7
179
     1
270
     2
271
     3
272
     3
273
     2
274
     2
340
73
275
     0
280
     0
281
     0
282
     0
283
     1
284
     7
285
     7
286
     0
287
     3
288
     1
  0
DIMSTYLE
105
2F0
330
A
100
AcDbSymbolTableRecord
100
AcDbDimStyleTableRecord
  2
ANSI
 70
     0
  3

  4
mm
  5

  6

  7

 40
1.0
 41
0.12
 42
0.05
 43
0.5
 44
0.1
 45
0.0
 46
0.0
 47
0.1
 48
0.1
140
0.12
141
0.0
142
0.0
143
25.4
144
1.0
145
0.0
146
0.71
147
0.06
 71
     0
 72
     0
 73
     1
 74
     1
 75
     0
 76
     0
 77
     0
 78
     7
170
     0
171
     2
172
     0
173
     0
174
     0
175
     0
176
     7
177
     7
178
     7
270
     2
271
     3
272
     4
273
     2
274
     2
340
11
275
     0
280
     0
281
     0
282
     0
283
     1
284
     7
285
     7
286
     0
287
     3
288
     1
  0
DIMSTYLE
105
2F1
330
A
100
AcDbSymbolTableRecord
100
AcDbDimStyleTableRecord
  2
ANSI$3
 70
     0
  3

  4
mm
  5

  6

  7

 40
1.0
 41
0.12
 42
0.05
 43
0.5
 44
0.1
 45
0.0
 46
0.0
 47
0.1
 48
0.1
140
0.12
141
0.0
142
0.0
143
25.4
144
1.0
145
0.0
146
0.71
147
0.06
 71
     0
 72
     0
 73
     1
 74
     1
 75
     0
 76
     0
 77
     0
 78
     7
170
     0
171
     2
172
     0
173
     0
174
     0
175
     0
176
     7
177
     7
178
     7
270
     2
271
     3
272
     4
273
     2
274
     2
340
11
275
     0
280
     0
281
     0
282
     0
283
     1
284
     7
285
     7
286
     0
288
     1
  0
DIMSTYLE
105
2F2
330
A
100
AcDbSymbolTableRecord
100
AcDbDimStyleTableRecord
  2
ANSI$4
 70
     0
  3

  4
mm
  5

  6

  7

 40
1.0
 41
0.12
 42
0.05
 43
0.5
 44
0.1
 45
0.0
 46
0.0
 47
0.1
 48
0.1
140
0.12
141
0.0
142
0.0
143
25.4
144
1.0
145
0.0
146
0.71
147
0.06
 71
     0
 72
     0
 73
     1
 74
     1
 75
     0
 76
     0
 77
     0
 78
     7
170
     0
171
     2
172
     0
173
     0
174
     0
175
     0
176
     7
177
     7
178
     7
270
     2
271
     3
272
     4
273
     2
274
     2
340
11
275
     0
280
     0
281
     0
282
     0
283
     1
284
     7
285
     7
286
     0
287
     3
288
     1
  0
DIMSTYLE
105
2F3
330
A
100
AcDbSymbolTableRecord
100
AcDbDimStyleTableRecord
  2
ANSI$7
 70
     0
  3

  4
mm
  5

  6

  7

 40
1.0
 41
0.12
 42
0.05
 43
0.5
 44
0.1
 45
0.0
 46
0.0
 47
0.1
 48
0.1
140
0.12
141
0.0
142
0.0
143
25.4
144
1.0
145
0.0
146
0.71
147
0.06
 71
     0
 72
     0
 73
     1
 74
     1
 75
     0
 76
     0
 77
     0
 78
     7
170
     0
171
     2
172
     0
173
     0
174
     0
175
     0
176
     7
177
     7
178
     7
270
     2
271
     3
272
     4
273
     2
274
     2
340
11
275
     0
280
     0
281
     0
282
     0
283
     1
284
     7
285
     7
286
     0
287
     3
288
     1
  0
DIMSTYLE
105
2F4
330
A
100
AcDbSymbolTableRecord
100
AcDbDimStyleTableRecord
  2
ANSI$SF
 70
     0
  3

  4
mm
  5

  6

  7

 40
1.0
 41
0.12
 42
0.05
 43
0.5
 44
0.1
 45
0.0
 46
0.0
 47
0.1
 48
0.1
140
0.12
141
0.0
142
0.0
143
25.4
144
1.0
145
0.0
146
0.71
147
0.06
 71
     0
 72
     0
 73
     1
 74
     1
 75
     1
 76
     1
 77
     0
 78
     7
170
     0
171
     2
172
     0
173
     0
174
     0
175
     0
176
     7
177
     7
178
     7
270
     2
271
     3
272
     4
273
     2
274
     2
340
11
275
     0
280
     0
281
     0
282
     0
283
     1
284
     7
285
     7
286
     0
287
     3
288
     1
  0
DIMSTYLE
105
2F5
330
A
100
AcDbSymbolTableRecord
100
AcDbDimStyleTableRecord
  2
ANSI$SH
 70
     0
  3

  4
mm
  5

  6

  7

 40
1.0
 41
0.12
 42
0.05
 43
0.5
 44
0.1
 45
0.0
 46
0.0
 47
0.1
 48
0.1
140
0.12
141
0.0
142
0.0
143
25.4
144
1.0
145
0.0
146
0.71
147
0.06
 71
     0
 72
     0
 73
     1
 74
     1
 75
     1
 76
     1
 77
     0
 78
     7
170
     0
171
     2
172
     0
173
     1
174
     0
175
     0
176
     7
177
     7
178
     7
270
     2
271
     3
272
     4
273
     2
274
     2
340
11
275
     0
280
     0
281
     0
282
     0
283
     1
284
     7
285
     7
286
     0
287
     3
288
     1
  0
DIMSTYLE
105
2F7
330
A
100
AcDbSymbolTableRecord
100
AcDbDimStyleTableRecord
  2
ONSHAPE-STANDARD$2
 70
     0
  3

  4

  5

  6

  7

 40
1.0
 41
0.18
 42
0.0625
 43
0.38
 44
0.08
 45
0.0
 46
0.0
 47
0.0
 48
0.0
140
0.12
141
0.09
142
0.0
143
25.4
144
1.0
145
0.0
146
1.0
147
0.09
 71
     0
 72
     0
 73
     1
 74
     1
 75
     0
 76
     0
 77
     0
 78
     7
170
     0
171
     2
172
     0
173
     0
174
     0
175
     0
176
     7
177
     7
178
     7
179
     1
270
     2
271
     3
272
     3
273
     2
274
     2
340
73
275
     0
280
     0
281
     0
282
     0
283
     1
284
     7
285
     7
286
     0
287
     3
288
     1
  0
DIMSTYLE
105
2F8
330
A
100
AcDbSymbolTableRecord
100
AcDbDimStyleTableRecord
  2
ONSHAPE-STANDARD$4
 70
     0
  3

  4

  5

  6

  7

 40
1.0
 41
0.18
 42
0.0625
 43
0.38
 44
0.08
 45
0.0
 46
0.0
 47
0.0
 48
0.0
140
0.12
141
0.0
142
0.0
143
25.4
144
1.0
145
0.0
146
1.0
147
0.09
 71
     0
 72
     0
 73
     1
 74
     1
 75
     0
 76
     0
 77
     0
 78
     7
170
     0
171
     2
172
     0
173
     0
174
     0
175
     0
176
     7
177
     7
178
     7
179
     1
270
     2
271
     3
272
     3
273
     2
274
     2
340
73
275
     0
280
     0
281
     0
282
     0
283
     1
284
     7
285
     7
286
     0
287
     3
288
     1
  0
DIMSTYLE
105
2F9
330
A
100
AcDbSymbolTableRecord
100
AcDbDimStyleTableRecord
  2
ONSHAPE-STANDARD$6
 70
     0
  3

  4

  5

  6

  7

 40
1.0
 41
0.02
 42
0.0625
 43
0.38
 44
0.08
 45
0.0
 46
0.0
 47
0.0
 48
0.0
140
0.12
141
0.09
142
0.0
143
25.4
144
1.0
145
0.0
146
1.0
147
0.09
 71
     0
 72
     0
 73
     1
 74
     1
 75
     0
 76
     0
 77
     0
 78
     7
170
     0
171
     2
172
     0
173
     0
174
     0
175
     0
176
     7
177
     7
178
     7
179
     1
270
     2
271
     3
272
     3
273
     2
274
     2
340
73
275
     0
280
     0
281
     0
282
     0
283
     1
284
     7
285
     7
286
     0
287
     3
288
     1
  0
DIMSTYLE
105
2FA
330
A
100
AcDbSymbolTableRecord
100
AcDbDimStyleTableRecord
  2
ONSHAPE-STANDARD$7
 70
     0
  3

  4

  5

  6

  7

 40
1.0
 41
0.18
 42
0.0625
 43
0.38
 44
0.08
 45
0.0
 46
0.0
 47
0.0
 48
0.0
140
0.12
141
0.09
142
0.0
143
25.4
144
1.0
145
0.0
146
1.0
147
0.09
 71
     0
 72
     0
 73
     1
 74
     1
 75
     0
 76
     0
 77
     0
 78
     7
170
     0
171
     2
172
     0
173
     0
174
     0
175
     0
176
     7
177
     7
178
     7
179
     1
270
     2
271
     3
272
     3
273
     2
274
     2
340
73
275
     0
280
     0
281
     0
282
     0
283
     1
284
     7
285
     7
286
     0
287
     3
288
     1
  0
DIMSTYLE
105
2FB
330
A
100
AcDbSymbolTableRecord
100
AcDbDimStyleTableRecord
  2
ONSHAPE-STANDARD-GTOLERANC
 70
     0
  3

  4

  5

  6

  7

 40
1.0
 41
0.18
 42
0.0625
 43
0.38
 44
0.08
 45
0.0
 46
0.0
 47
0.0
 48
0.0
140
0.12
141
0.09
142
0.0
143
25.4
144
1.0
145
0.0
146
1.0
147
0.09
 71
     0
 72
     0
 73
     1
 74
     1
 75
     0
 76
     0
 77
     0
 78
     7
170
     0
171
     2
172
     0
173
     0
174
     0
175
     0
176
     7
177
     7
178
     7
179
     1
270
     2
271
     3
272
     3
273
     2
274
     2
340
2D4
275
     0
280
     0
281
     0
282
     0
283
     1
284
     7
285
     7
286
     0
287
     3
288
     1
  0
DIMSTYLE
105
2FD
330
A
100
AcDbSymbolTableRecord
100
AcDbDimStyleTableRecord
  2
ONSHAPE-ORDINATESTYLE
 70
     0
  3

  4

  5

  6

  7

 40
1.0
 41
0.02
 42
0.0625
 43
0.38
 44
0.08
 45
0.0
 46
0.0
 47
0.0
 48
0.0
140
0.12
141
0.09
142
0.0
143
25.4
144
1.0
145
0.0
146
1.0
147
0.09
 71
     0
 72
     0
 73
     1
 74
     1
 75
     0
 76
     0
 77
     0
 78
     7
170
     0
171
     2
172
     0
173
     0
174
     0
175
     0
176
     7
177
     7
178
     7
179
     1
270
     2
271
     3
272
     3
273
     2
274
     2
340
73
275
     0
280
     0
281
     0
282
     0
283
     1
284
     7
285
     7
286
     0
287
     3
288
     1
  0
DIMSTYLE
105
2FE
330
A
100
AcDbSymbolTableRecord
100
AcDbDimStyleTableRecord
  2
ONSHAPE-CHAMFERDIMSTYLE
 70
     0
  3

  4

  5

  6

  7

 40
1.0
 41
0.18
 42
0.0625
 43
0.38
 44
0.08
 45
0.0
 46
0.0
 47
0.0
 48
0.0
140
0.12
141
0.09
142
0.0
143
25.4
144
1.0
145
0.0
146
1.0
147
0.09
 71
     0
 72
     0
 73
     1
 74
     1
 75
     0
 76
     0
 77
     0
 78
     7
170
     0
171
     2
172
     0
173
     0
174
     0
175
     0
176
     7
177
     7
178
     7
179
     1
270
     2
271
     3
272
     3
273
     2
274
     2
340
73
275
     0
280
     0
281
     0
282
     0
283
     1
284
     7
285
     7
286
     0
287
     3
288
     1
  0
DIMSTYLE
105
2FF
330
A
100
AcDbSymbolTableRecord
100
AcDbDimStyleTableRecord
  2
ONSHAPE-SKETCHDRIVENDIMSTY
 70
     0
  3

  4

  5

  6

  7

 40
1.0
 41
0.18
 42
0.0625
 43
0.38
 44
0.08
 45
0.0
 46
0.0
 47
0.0
 48
0.0
140
0.12
141
0.09
142
0.0
143
25.4
144
1.0
145
0.0
146
1.0
147
0.09
 71
     0
 72
     0
 73
     1
 74
     1
 75
     0
 76
     0
 77
     0
 78
     7
170
     0
171
     2
172
     0
173
     0
174
     0
175
     0
176
   251
177
   251
178
   251
179
     1
270
     2
271
     3
272
     3
273
     2
274
     2
340
73
275
     0
280
     0
281
     0
282
     0
283
     1
284
     7
285
     7
286
     0
287
     3
288
     1
  0
DIMSTYLE
105
300
330
A
100
AcDbSymbolTableRecord
100
AcDbDimStyleTableRecord
  2
ONSHAPE-SKETCHDRIVENDIMST0
 70
     0
  3

  4

  5

  6

  7

 40
1.0
 41
0.18
 42
0.0625
 43
0.38
 44
0.08
 45
0.0
 46
0.0
 47
0.0
 48
0.0
140
0.12
141
0.09
142
0.0
143
25.4
144
1.0
145
0.0
146
1.0
147
0.09
 71
     0
 72
     0
 73
     1
 74
     1
 75
     0
 76
     0
 77
     0
 78
     7
170
     0
171
     2
172
     0
173
     0
174
     0
175
     0
176
   251
177
   251
178
   251
179
     1
270
     2
271
     3
272
     3
273
     2
274
     2
340
73
275
     0
280
     0
281
     0
282
     0
283
     1
284
     7
285
     7
286
     0
287
     3
288
     1
  0
DIMSTYLE
105
301
330
A
100
AcDbSymbolTableRecord
100
AcDbDimStyleTableRecord
  2
ONSHAPE-SKETCHDRIVENDIMST1
 70
     0
  3

  4

  5

  6

  7

 40
1.0
 41
0.18
 42
0.0625
 43
0.38
 44
0.08
 45
0.0
 46
0.0
 47
0.0
 48
0.0
140
0.12
141
0.0
142
0.0
143
25.4
144
1.0
145
0.0
146
1.0
147
0.09
 71
     0
 72
     0
 73
     1
 74
     1
 75
     0
 76
     0
 77
     0
 78
     7
170
     0
171
     2
172
     0
173
     0
174
     0
175
     0
176
   251
177
   251
178
   251
179
     1
270
     2
271
     3
272
     3
273
     2
274
     2
340
73
275
     0
280
     0
281
     0
282
     0
283
     1
284
     7
285
     7
286
     0
287
     3
288
     1
  0
DIMSTYLE
105
302
330
A
100
AcDbSymbolTableRecord
100
AcDbDimStyleTableRecord
  2
ONSHAPE-SKETCHDRIVENDIMST2
 70
     0
  3

  4

  5

  6

  7

 40
1.0
 41
0.18
 42
0.0625
 43
0.38
 44
0.08
 45
0.0
 46
0.0
 47
0.0
 48
0.0
140
0.12
141
0.0
142
0.0
143
25.4
144
1.0
145
0.0
146
1.0
147
0.09
 71
     0
 72
     0
 73
     1
 74
     1
 75
     0
 76
     0
 77
     0
 78
     7
170
     0
171
     2
172
     0
173
     0
174
     0
175
     0
176
   251
177
   251
178
   251
179
     1
270
     2
271
     3
272
     3
273
     2
274
     2
340
73
275
     0
280
     0
281
     0
282
     0
283
     1
284
     7
285
     7
286
     0
287
     3
288
     1
  0
ENDTAB
  0
TABLE
  2
BLOCK_RECORD
  5
1
330
0
100
AcDbSymbolTable
 70
     8
  0
BLOCK_RECORD
  5
1F
330
1
100
AcDbSymbolTableRecord
100
AcDbBlockTableRecord
  2
*MODEL_SPACE
  0
BLOCK_RECORD
  5
1B
330
1
100
AcDbSymbolTableRecord
100
AcDbBlockTableRecord
  2
*PAPER_SPACE
  0
BLOCK_RECORD
  5
204
330
1
100
AcDbSymbolTableRecord
100
AcDbBlockTableRecord
  2
*D1
  0
BLOCK_RECORD
  5
21B
330
1
100
AcDbSymbolTableRecord
100
AcDbBlockTableRecord
  2
*D2
  0
BLOCK_RECORD
  5
22C
330
1
100
AcDbSymbolTableRecord
100
AcDbBlockTableRecord
  2
*U3
1001
ONSHAPE_HOLECALLOUT_TEXT_J
1070
     5
  0
BLOCK_RECORD
  5
24B
330
1
100
AcDbSymbolTableRecord
100
AcDbBlockTableRecord
  2
*U4
1001
ONSHAPE_HOLECALLOUT_TEXT_J
1070
     5
  0
BLOCK_RECORD
  5
26A
330
1
100
AcDbSymbolTableRecord
100
AcDbBlockTableRecord
  2
*U5
1001
ONSHAPE_HOLECALLOUT_TEXT_J
1070
     5
  0
BLOCK_RECORD
  5
28C
330
1
100
AcDbSymbolTableRecord
100
AcDbBlockTableRecord
  2
*D6
  0
BLOCK_RECORD
  5
2A0
330
1
100
AcDbSymbolTableRecord
100
AcDbBlockTableRecord
  2
*D7
  0
BLOCK_RECORD
  5
2B4
330
1
100
AcDbSymbolTableRecord
100
AcDbBlockTableRecord
  2
*D8
  0
ENDTAB
  0
ENDSEC
  0
SECTION
  2
BLOCKS
  0
BLOCK
  5
20
330
1F
100
AcDbEntity
  8
0
100
AcDbBlockBegin
  2
*MODEL_SPACE
 70
     0
 10
0.0
 20
0.0
 30
0.0
  3
*MODEL_SPACE
  1

  0
ENDBLK
  5
21
330
1F
100
AcDbEntity
  8
0
100
AcDbBlockEnd
  0
BLOCK
  5
1C
330
1B
100
AcDbEntity
 67
     1
  8
0
100
AcDbBlockBegin
  2
*PAPER_SPACE
 70
     0
 10
0.0
 20
0.0
 30
0.0
  3
*PAPER_SPACE
  1

  0
ENDBLK
  5
1D
330
1B
100
AcDbEntity
 67
     1
  8
0
100
AcDbBlockEnd
  0
BLOCK
  5
205
330
204
100
AcDbEntity
  8
0
100
AcDbBlockBegin
  2
*D1
 70
     1
 10
0.0
 20
0.0
 30
0.0
  3
*D1
  1

  0
LINE
  5
206
330
204
100
AcDbEntity
  8
ANNOTATION_TEXT
 62
     7
100
AcDbLine
 10
1.01620767412878
 20
4.530758237331544
 30
0.0
 11
1.01620767412878
 21
4.926521157750912
 31
0.0
1001
INDEX
1070
     0
  0
LINE
  5
208
330
204
100
AcDbEntity
  8
ANNOTATION_TEXT
 62
     7
100
AcDbLine
 10
5.11620767412878
 20
4.530758237331544
 30
0.0
 11
5.11620767412878
 21
4.926521157750912
 31
0.0
1001
INDEX
1070
     1
  0
LINE
  5
209
330
204
100
AcDbEntity
  8
ANNOTATION_TEXT
 62
     7
100
AcDbLine
 10
1.196207674128779
 20
4.846521157750912
 30
0.0
 11
2.65083582695401
 21
4.846521157750912
 31
0.0
  0
LINE
  5
20A
330
204
100
AcDbEntity
  8
ANNOTATION_TEXT
 62
     7
100
AcDbLine
 10
4.93620767412878
 20
4.846521157750912
 30
0.0
 11
3.246912121231938
 21
4.846521157750912
 31
0.0
  0
SOLID
  5
20B
330
204
100
AcDbEntity
  8
ANNOTATION_TEXT
 62
     7
100
AcDbTrace
 10
1.196207674128779
 20
4.876521157750912
 30
0.0
 11
1.196207674128779
 21
4.816521157750912
 31
0.0
 12
1.01620767412878
 22
4.846521157750912
 32
0.0
 13
1.01620767412878
 23
4.846521157750912
 33
0.0
  0
SOLID
  5
20C
330
204
100
AcDbEntity
  8
ANNOTATION_TEXT
 62
     7
100
AcDbTrace
 10
4.93620767412878
 20
4.816521157750912
 30
0.0
 11
4.93620767412878
 21
4.876521157750912
 31
0.0
 12
5.11620767412878
 22
4.846521157750912
 32
0.0
 13
5.11620767412878
 23
4.846521157750912
 33
0.0
  0
MTEXT
  5
20D
330
204
100
AcDbEntity
  8
ANNOTATION_TEXT
 62
     7
100
AcDbMText
 10
2.948873974092974
 20
4.846521157750912
 30
0.0
 40
0.12
 41
0.0
 71
     5
 72
     1
  1
\A1;4.100
  7
ONSHAPE-STANDARD-DIMENSION
  0
POINT
  5
20E
330
204
100
AcDbEntity
  8
DEFPOINTS
 62
     0
100
AcDbPoint
 10
1.01620767412878
 20
4.468258237331544
 30
0.0
  0
POINT
  5
20F
330
204
100
AcDbEntity
  8
DEFPOINTS
 62
     0
100
AcDbPoint
 10
5.11620767412878
 20
4.468258237331544
 30
0.0
  0
POINT
  5
210
330
204
100
AcDbEntity
  8
DEFPOINTS
 62
     0
100
AcDbPoint
 10
5.11620767412878
 20
4.846521157750912
 30
0.0
  0
ENDBLK
  5
211
330
204
100
AcDbEntity
  8
0
100
AcDbBlockEnd
  0
BLOCK
  5
21C
330
21B
100
AcDbEntity
  8
0
100
AcDbBlockBegin
  2
*D2
 70
     1
 10
0.0
 20
0.0
 30
0.0
  3
*D2
  1

  0
LINE
  5
21D
330
21B
100
AcDbEntity
  8
ANNOTATION_TEXT
 62
     7
100
AcDbLine
 10
5.17870767412878
 20
2.968258237331544
 30
0.0
 11
5.507436371492922
 21
2.968258237331544
 31
0.0
1001
INDEX
1070
     0
  0
LINE
  5
21E
330
21B
100
AcDbEntity
  8
ANNOTATION_TEXT
 62
     7
100
AcDbLine
 10
5.17870767412878
 20
4.468258237331544
 30
0.0
 11
5.507436371492922
 21
4.468258237331544
 31
0.0
1001
INDEX
1070
     1
  0
LINE
  5
21F
330
21B
100
AcDbEntity
  8
ANNOTATION_TEXT
 62
     7
100
AcDbLine
 10
5.427436371492922
 20
3.148258237331544
 30
0.0
 11
5.427436371492922
 21
3.566378128339718
 31
0.0
  0
LINE
  5
220
330
21B
100
AcDbEntity
  8
ANNOTATION_TEXT
 62
     7
100
AcDbLine
 10
5.427436371492922
 20
4.288258237331545
 30
0.0
 11
5.427436371492922
 21
3.870138346323369
 31
0.0
  0
SOLID
  5
221
330
21B
100
AcDbEntity
  8
ANNOTATION_TEXT
 62
     7
100
AcDbTrace
 10
5.397436371492922
 20
3.148258237331544
 30
0.0
 11
5.457436371492922
 21
3.148258237331544
 31
0.0
 12
5.427436371492922
 22
2.968258237331544
 32
0.0
 13
5.427436371492922
 23
2.968258237331544
 33
0.0
  0
SOLID
  5
222
330
21B
100
AcDbEntity
  8
ANNOTATION_TEXT
 62
     7
100
AcDbTrace
 10
5.457436371492922
 20
4.288258237331545
 30
0.0
 11
5.397436371492922
 21
4.288258237331545
 31
0.0
 12
5.427436371492922
 22
4.468258237331544
 32
0.0
 13
5.427436371492922
 23
4.468258237331544
 33
0.0
  0
MTEXT
  5
223
330
21B
100
AcDbEntity
  8
ANNOTATION_TEXT
 62
     7
100
AcDbMText
 10
5.427436371492922
 20
3.718258237331544
 30
0.0
 40
0.12
 41
0.0
 71
     5
 72
     1
  1
\A1;1.500
  7
ONSHAPE-STANDARD-DIMENSION
  0
POINT
  5
224
330
21B
100
AcDbEntity
  8
DEFPOINTS
 62
     0
100
AcDbPoint
 10
5.11620767412878
 20
2.968258237331544
 30
0.0
  0
POINT
  5
225
330
21B
100
AcDbEntity
  8
DEFPOINTS
 62
     0
100
AcDbPoint
 10
5.11620767412878
 20
4.468258237331544
 30
0.0
  0
POINT
  5
226
330
21B
100
AcDbEntity
  8
DEFPOINTS
 62
     0
100
AcDbPoint
 10
5.427436371492922
 20
4.468258237331544
 30
0.0
  0
ENDBLK
  5
227
330
21B
100
AcDbEntity
  8
0
100
AcDbBlockEnd
  0
BLOCK
  5
230
330
22C
100
AcDbEntity
  8
0
100
AcDbBlockBegin
  2
*U3
 70
     3
 10
-0.09
 20
-0.1664744116918504
 30
0.0
  3
*U3
  1

  0
MTEXT
  5
238
330
22C
100
AcDbEntity
  8
ANNOTATION_TEXT
 62
     0
100
AcDbMText
 10
0.0
 20
-0.1265395095367847
 30
0.0
 40
0.12
 41
0.0
 71
     7
 72
     1
  1
6x 
  7
ONSHAPE-STANDARD-HOLE-CALL
  0
MTEXT
  5
23A
330
22C
100
AcDbEntity
  8
ANNOTATION_TEXT
 62
     0
100
AcDbMText
 10
0.2287193460490463
 20
-0.1300544959128065
 30
0.0
 40
0.12
 41
0.0
 71
     7
 72
     1
  1
%%c.136
  7
ONSHAPE-STANDARD-HOLE-CALL
  0
MTEXT
  5
23B
330
22C
100
AcDbEntity
  8
ANNOTATION_TEXT
 62
     0
100
AcDbMText
 10
0.6804359673024523
 20
-0.131559177607134
 30
0.0
 40
0.12
 41
0.0
 71
     7
 72
     1
  1
 {\fDrawing Symbols Sans|c0;\U+21A7}.300
  7
ONSHAPE-STANDARD-HOLE-CALL
  0
MTEXT
  5
23C
330
22C
100
AcDbEntity
  8
ANNOTATION_TEXT
 62
     0
100
AcDbMText
 10
0.0971934604904632
 20
-0.3279291553133514
 30
0.0
 40
0.12
 41
0.0
 71
     7
 72
     1
  1
#8\U+221232
  7
ONSHAPE-STANDARD-HOLE-CALL
  0
MTEXT
  5
23D
330
22C
100
AcDbEntity
  8
ANNOTATION_TEXT
 62
     0
100
AcDbMText
 10
0.5832425068119891
 20
-0.3329488233837007
 30
0.0
 40
0.12
 41
0.0
 71
     7
 72
     1
  1
 {\fDrawing Symbols Sans|c0;\U+21A7}.300
  7
ONSHAPE-STANDARD-HOLE-CALL
  0
ENDBLK
  5
23E
330
22C
100
AcDbEntity
  8
0
100
AcDbBlockEnd
  0
BLOCK
  5
24F
330
24B
100
AcDbEntity
  8
0
100
AcDbBlockBegin
  2
*U4
 70
     3
 10
1.306201337626951
 20
-0.1664744116918504
 30
0.0
  3
*U4
  1

  0
MTEXT
  5
257
330
24B
100
AcDbEntity
  8
ANNOTATION_TEXT
 62
     0
100
AcDbMText
 10
0.0
 20
-0.1249046321525885
 30
0.0
 40
0.12
 41
0.0
 71
     7
 72
     1
  1
2x 
  7
ONSHAPE-STANDARD-HOLE-CALL
  0
MTEXT
  5
259
330
24B
100
AcDbEntity
  8
ANNOTATION_TEXT
 62
     0
100
AcDbMText
 10
0.2307629427792915
 20
-0.1300544959128065
 30
0.0
 40
0.12
 41
0.0
 71
     7
 72
     1
  1
%%c.070
  7
ONSHAPE-STANDARD-HOLE-CALL
  0
MTEXT
  5
25A
330
24B
100
AcDbEntity
  8
ANNOTATION_TEXT
 62
     0
100
AcDbMText
 10
0.6824795640326975
 20
-0.131559177607134
 30
0.0
 40
0.12
 41
0.0
 71
     7
 72
     1
  1
 {\fDrawing Symbols Sans|c0;\U+21A7}.075
  7
ONSHAPE-STANDARD-HOLE-CALL
  0
MTEXT
  5
25B
330
24B
100
AcDbEntity
  8
ANNOTATION_TEXT
 62
     0
100
AcDbMText
 10
0.0982152588555858
 20
-0.3279291553133514
 30
0.0
 40
0.12
 41
0.0
 71
     7
 72
     1
  1
#2\U+221256
  7
ONSHAPE-STANDARD-HOLE-CALL
  0
MTEXT
  5
25C
330
24B
100
AcDbEntity
  8
ANNOTATION_TEXT
 62
     0
100
AcDbMText
 10
0.5842643051771117
 20
-0.3329488233837007
 30
0.0
 40
0.12
 41
0.0
 71
     7
 72
     1
  1
 {\fDrawing Symbols Sans|c0;\U+21A7}.075
  7
ONSHAPE-STANDARD-HOLE-CALL
  0
ENDBLK
  5
25D
330
24B
100
AcDbEntity
  8
0
100
AcDbBlockEnd
  0
BLOCK
  5
26E
330
26A
100
AcDbEntity
  8
0
100
AcDbBlockBegin
  2
*U5
 70
     3
 10
1.312005152340847
 20
-0.1664744116918504
 30
0.0
  3
*U5
  1

  0
MTEXT
  5
276
330
26A
100
AcDbEntity
  8
ANNOTATION_TEXT
 62
     0
100
AcDbMText
 10
0.0
 20
-0.1249046321525885
 30
0.0
 40
0.12
 41
0.0
 71
     7
 72
     1
  1
4x 
  7
ONSHAPE-STANDARD-HOLE-CALL
  0
MTEXT
  5
278
330
26A
100
AcDbEntity
  8
ANNOTATION_TEXT
 62
     0
100
AcDbMText
 10
0.234441416893733
 20
-0.1300544959128065
 30
0.0
 40
0.12
 41
0.0
 71
     7
 72
     1
  1
%%c.136
  7
ONSHAPE-STANDARD-HOLE-CALL
  0
MTEXT
  5
279
330
26A
100
AcDbEntity
  8
ANNOTATION_TEXT
 62
     0
100
AcDbMText
 10
0.6861580381471388
 20
-0.131559177607134
 30
0.0
 40
0.12
 41
0.0
 71
     7
 72
     1
  1
 {\fDrawing Symbols Sans|c0;\U+21A7}.300
  7
ONSHAPE-STANDARD-HOLE-CALL
  0
MTEXT
  5
27A
330
26A
100
AcDbEntity
  8
ANNOTATION_TEXT
 62
     0
100
AcDbMText
 10
0.1000544959128065
 20
-0.3279291553133514
 30
0.0
 40
0.12
 41
0.0
 71
     7
 72
     1
  1
#8\U+221232
  7
ONSHAPE-STANDARD-HOLE-CALL
  0
MTEXT
  5
27B
330
26A
100
AcDbEntity
  8
ANNOTATION_TEXT
 62
     0
100
AcDbMText
 10
0.5861035422343324
 20
-0.3329488233837007
 30
0.0
 40
0.12
 41
0.0
 71
     7
 72
     1
  1
 {\fDrawing Symbols Sans|c0;\U+21A7}.300
  7
ONSHAPE-STANDARD-HOLE-CALL
  0
ENDBLK
  5
27C
330
26A
100
AcDbEntity
  8
0
100
AcDbBlockEnd
  0
BLOCK
  5
28D
330
28C
100
AcDbEntity
  8
0
100
AcDbBlockBegin
  2
*D6
 70
     1
 10
0.0
 20
0.0
 30
0.0
  3
*D6
  1

  0
LINE
  5
28E
330
28C
100
AcDbEntity
  8
ANNOTATION_TEXT
 62
     7
100
AcDbLine
 10
9.363923542819695
 20
7.427839350026174
 30
0.0
 11
9.183923542819695
 21
7.427839350026174
 31
0.0
  0
LINE
  5
28F
330
28C
100
AcDbEntity
  8
ANNOTATION_TEXT
 62
     7
100
AcDbLine
 10
9.183923542819695
 20
7.427839350026174
 30
0.0
 11
8.472031481612571
 21
7.136201422406154
 31
0.0
  0
MTEXT
  5
290
330
28C
100
AcDbEntity
  8
ANNOTATION_TEXT
 62
     7
100
AcDbMText
 10
9.676103379331956
 20
7.427839350026174
 30
0.0
 40
0.12
 41
0.0
 71
     5
 72
     1
  1
\A1;%%c.590
  7
ONSHAPE-STANDARD-DIMENSION
  0
SOLID
  5
291
330
28C
100
AcDbEntity
  8
ANNOTATION_TEXT
 62
     7
100
AcDbTrace
 10
8.460658822935404
 20
7.163962233536463
 30
0.0
 11
8.483404140289739
 21
7.108440611275846
 31
0.0
 12
8.305466614830722
 22
7.067965470343149
 32
0.0
 13
8.305466614830722
 23
7.067965470343149
 33
0.0
  0
POINT
  5
292
330
28C
100
AcDbEntity
  8
DEFPOINTS
 62
     0
100
AcDbPoint
 10
8.305466614830722
 20
7.067965470343149
 30
0.0
  0
POINT
  5
293
330
28C
100
AcDbEntity
  8
DEFPOINTS
 62
     0
100
AcDbPoint
 10
7.75950399593466
 20
6.844303183025521
 30
0.0
  0
ENDBLK
  5
294
330
28C
100
AcDbEntity
  8
0
100
AcDbBlockEnd
  0
BLOCK
  5
2A1
330
2A0
100
AcDbEntity
  8
0
100
AcDbBlockBegin
  2
*D7
 70
     1
 10
0.0
 20
0.0
 30
0.0
  3
*D7
  1

  0
LINE
  5
2A2
330
2A0
100
AcDbEntity
  8
ANNOTATION_TEXT
 62
     7
100
AcDbLine
 10
5.17870767412878
 20
6.456134326684335
 30
0.0
 11
5.507436371492922
 21
6.456134326684335
 31
0.0
1001
INDEX
1070
     0
  0
LINE
  5
2A4
330
2A0
100
AcDbEntity
  8
ANNOTATION_TEXT
 62
     7
100
AcDbLine
 10
5.17870767412878
 20
5.864134326684335
 30
0.0
 11
5.507436371492922
 21
5.864134326684335
 31
0.0
1001
INDEX
1070
     1
  0
LINE
  5
2A5
330
2A0
100
AcDbEntity
  8
ANNOTATION_TEXT
 62
     7
100
AcDbLine
 10
5.427436371492922
 20
6.636134326684335
 30
0.0
 11
5.427436371492922
 21
6.816134326684335
 31
0.0
  0
LINE
  5
2A6
330
2A0
100
AcDbEntity
  8
ANNOTATION_TEXT
 62
     7
100
AcDbLine
 10
5.427436371492922
 20
5.684134326684335
 30
0.0
 11
5.427436371492922
 21
5.504134326684335
 31
0.0
  0
SOLID
  5
2A7
330
2A0
100
AcDbEntity
  8
ANNOTATION_TEXT
 62
     7
100
AcDbTrace
 10
5.397436371492922
 20
6.636134326684335
 30
0.0
 11
5.457436371492922
 21
6.636134326684335
 31
0.0
 12
5.427436371492922
 22
6.456134326684335
 32
0.0
 13
5.427436371492922
 23
6.456134326684335
 33
0.0
  0
SOLID
  5
2A8
330
2A0
100
AcDbEntity
  8
ANNOTATION_TEXT
 62
     7
100
AcDbTrace
 10
5.457436371492922
 20
5.684134326684335
 30
0.0
 11
5.397436371492922
 21
5.684134326684335
 31
0.0
 12
5.427436371492922
 22
5.864134326684335
 32
0.0
 13
5.427436371492922
 23
5.864134326684335
 33
0.0
  0
MTEXT
  5
2A9
330
2A0
100
AcDbEntity
  8
ANNOTATION_TEXT
 62
     7
100
AcDbMText
 10
5.427436371492922
 20
6.160134326684335
 30
0.0
 40
0.12
 41
0.0
 71
     5
 72
     1
  1
\A1;.592
  7
ONSHAPE-STANDARD-DIMENSION
  0
POINT
  5
2AA
330
2A0
100
AcDbEntity
  8
DEFPOINTS
 62
     0
100
AcDbPoint
 10
5.11620767412878
 20
6.456134326684335
 30
0.0
  0
POINT
  5
2AB
330
2A0
100
AcDbEntity
  8
DEFPOINTS
 62
     0
100
AcDbPoint
 10
5.11620767412878
 20
5.864134326684335
 30
0.0
  0
POINT
  5
2AC
330
2A0
100
AcDbEntity
  8
DEFPOINTS
 62
     0
100
AcDbPoint
 10
5.427436371492922
 20
5.864134326684335
 30
0.0
  0
ENDBLK
  5
2AD
330
2A0
100
AcDbEntity
  8
0
100
AcDbBlockEnd
  0
BLOCK
  5
2B5
330
2B4
100
AcDbEntity
  8
0
100
AcDbBlockBegin
  2
*D8
 70
     1
 10
0.0
 20
0.0
 30
0.0
  3
*D8
  1

  0
LINE
  5
2B6
330
2B4
100
AcDbEntity
  8
ANNOTATION_TEXT
 62
     7
100
AcDbLine
 10
0.9537076741287795
 20
6.324134326684335
 30
0.0
 11
0.6142553355802624
 21
6.324134326684335
 31
0.0
1001
INDEX
1070
     0
  0
LINE
  5
2B7
330
2B4
100
AcDbEntity
  8
ANNOTATION_TEXT
 62
     7
100
AcDbLine
 10
0.9537076741287795
 20
5.864134326684335
 30
0.0
 11
0.6142553355802624
 21
5.864134326684335
 31
0.0
1001
INDEX
1070
     1
  0
LINE
  5
2B8
330
2B4
100
AcDbEntity
  8
ANNOTATION_TEXT
 62
     7
100
AcDbLine
 10
0.6942553355802623
 20
6.504134326684334
 30
0.0
 11
0.6942553355802623
 21
6.684134326684334
 31
0.0
  0
LINE
  5
2B9
330
2B4
100
AcDbEntity
  8
ANNOTATION_TEXT
 62
     7
100
AcDbLine
 10
0.6942553355802623
 20
5.684134326684335
 30
0.0
 11
0.6942553355802623
 21
5.504134326684335
 31
0.0
  0
SOLID
  5
2BA
330
2B4
100
AcDbEntity
  8
ANNOTATION_TEXT
 62
     7
100
AcDbTrace
 10
0.6642553355802623
 20
6.504134326684334
 30
0.0
 11
0.7242553355802623
 21
6.504134326684334
 31
0.0
 12
0.6942553355802623
 22
6.324134326684335
 32
0.0
 13
0.6942553355802623
 23
6.324134326684335
 33
0.0
  0
SOLID
  5
2BB
330
2B4
100
AcDbEntity
  8
ANNOTATION_TEXT
 62
     7
100
AcDbTrace
 10
0.7242553355802623
 20
5.684134326684335
 30
0.0
 11
0.6642553355802623
 21
5.684134326684335
 31
0.0
 12
0.6942553355802623
 22
5.864134326684335
 32
0.0
 13
0.6942553355802623
 23
5.864134326684335
 33
0.0
  0
MTEXT
  5
2BC
330
2B4
100
AcDbEntity
  8
ANNOTATION_TEXT
 62
     7
100
AcDbMText
 10
0.6942553355802623
 20
6.094134326684335
 30
0.0
 40
0.12
 41
0.0
 71
     5
 72
     1
  1
\A1;.460
  7
ONSHAPE-STANDARD-DIMENSION
  0
POINT
  5
2BD
330
2B4
100
AcDbEntity
  8
DEFPOINTS
 62
     0
100
AcDbPoint
 10
1.01620767412878
 20
6.324134326684335
 30
0.0
  0
POINT
  5
2BE
330
2B4
100
AcDbEntity
  8
DEFPOINTS
 62
     0
100
AcDbPoint
 10
1.01620767412878
 20
5.864134326684335
 30
0.0
  0
POINT
  5
2BF
330
2B4
100
AcDbEntity
  8
DEFPOINTS
 62
     0
100
AcDbPoint
 10
0.6942553355802623
 20
5.864134326684335
 30
0.0
  0
ENDBLK
  5
2C0
330
2B4
100
AcDbEntity
  8
0
100
AcDbBlockEnd
  0
ENDSEC
  0
SECTION
  2
ENTITIES
  0
LINE
  5
76
330
1F
100
AcDbEntity
  8
VISIBLE
100
AcDbLine
 10
1.51620767412878
 20
7.324134326684335
 30
0.0
 11
1.51620767412878
 21
7.108564917637634
 31
0.0
  0
LINE
  5
77
330
1F
100
AcDbEntity
  8
VISIBLE
100
AcDbLine
 10
1.01620767412878
 20
7.108564917637634
 30
0.0
 11
1.01620767412878
 21
7.324134326684335
 31
0.0
  0
LINE
  5
78
330
1F
100
AcDbEntity
  8
VISIBLE
100
AcDbLine
 10
1.01620767412878
 20
6.424134326684334
 30
0.0
 11
1.01620767412878
 21
7.108564917637634
 31
0.0
  0
LINE
  5
79
330
1F
100
AcDbEntity
  8
VISIBLE
100
AcDbLine
 10
1.51620767412878
 20
7.108564917637634
 30
0.0
 11
1.01620767412878
 21
7.108564917637634
 31
0.0
  0
LINE
  5
7A
330
1F
100
AcDbEntity
  8
VISIBLE
100
AcDbLine
 10
1.01620767412878
 20
6.424134326684334
 30
0.0
 11
1.51620767412878
 21
6.424134326684334
 31
0.0
  0
LINE
  5
7B
330
1F
100
AcDbEntity
  8
VISIBLE
100
AcDbLine
 10
1.01620767412878
 20
5.864134326684335
 30
0.0
 11
5.11620767412878
 21
5.864134326684335
 31
0.0
  0
LINE
  5
7C
330
1F
100
AcDbEntity
  8
VISIBLE
100
AcDbLine
 10
4.516207674128779
 20
6.324134326684335
 30
0.0
 11
1.01620767412878
 21
6.324134326684335
 31
0.0
  0
LINE
  5
7D
330
1F
100
AcDbEntity
  8
VISIBLE
100
AcDbLine
 10
1.51620767412878
 20
7.108564917637634
 30
0.0
 11
1.51620767412878
 21
6.424134326684334
 31
0.0
  0
LINE
  5
7E
330
1F
100
AcDbEntity
  8
VISIBLE
100
AcDbLine
 10
4.516207674128779
 20
6.324134326684335
 30
0.0
 11
4.516207674128779
 21
6.456134326684335
 31
0.0
  0
LINE
  5
7F
330
1F
100
AcDbEntity
  8
VISIBLE
100
AcDbLine
 10
1.51620767412878
 20
7.324134326684335
 30
0.0
 11
1.01620767412878
 21
7.324134326684335
 31
0.0
  0
LINE
  5
80
330
1F
100
AcDbEntity
  8
VISIBLE
100
AcDbLine
 10
1.01620767412878
 20
6.324134326684335
 30
0.0
 11
1.01620767412878
 21
6.424134326684334
 31
0.0
  0
LINE
  5
81
330
1F
100
AcDbEntity
  8
VISIBLE
100
AcDbLine
 10
5.11620767412878
 20
6.456134326684335
 30
0.0
 11
5.11620767412878
 21
5.864134326684335
 31
0.0
  0
LINE
  5
82
330
1F
100
AcDbEntity
  8
VISIBLE
100
AcDbLine
 10
1.51620767412878
 20
6.424134326684334
 30
0.0
 11
1.51620767412878
 21
6.324134326684335
 31
0.0
  0
LINE
  5
83
330
1F
100
AcDbEntity
  8
VISIBLE
100
AcDbLine
 10
5.11620767412878
 20
6.456134326684335
 30
0.0
 11
4.516207674128779
 21
6.456134326684335
 31
0.0
  0
LINE
  5
84
330
1F
100
AcDbEntity
  8
VISIBLE
100
AcDbLine
 10
1.01620767412878
 20
6.324134326684335
 30
0.0
 11
1.01620767412878
 21
5.864134326684335
 31
0.0
  0
LINE
  5
87
330
1F
100
AcDbEntity
  8
VISIBLE
100
AcDbLine
 10
7.880054714429392
 20
7.324134326684335
 30
0.0
 11
7.664485305382691
 21
7.108564917637634
 31
0.0
  0
LINE
  5
88
330
1F
100
AcDbEntity
  8
VISIBLE
100
AcDbLine
 10
8.400485305382691
 20
7.108564917637634
 30
0.0
 11
8.18491589633599
 21
7.324134326684335
 31
0.0
  0
LINE
  5
89
330
1F
100
AcDbEntity
  8
VISIBLE
100
AcDbLine
 10
7.664485305382691
 20
7.108564917637634
 30
0.0
 11
7.664485305382691
 21
6.456134326684335
 31
0.0
  0
LINE
  5
8A
330
1F
100
AcDbEntity
  8
VISIBLE
100
AcDbLine
 10
8.782485305382691
 20
5.864134326684335
 30
0.0
 11
7.28248530538269
 21
5.864134326684335
 31
0.0
  0
LINE
  5
8B
330
1F
100
AcDbEntity
  8
VISIBLE
100
AcDbLine
 10
8.782485305382691
 20
6.456134326684335
 30
0.0
 11
7.28248530538269
 21
6.456134326684335
 31
0.0
  0
LINE
  5
8C
330
1F
100
AcDbEntity
  8
VISIBLE
100
AcDbLine
 10
8.782485305382691
 20
6.456134326684335
 30
0.0
 11
8.782485305382691
 21
5.864134326684335
 31
0.0
  0
LINE
  5
8D
330
1F
100
AcDbEntity
  8
VISIBLE
100
AcDbLine
 10
8.18491589633599
 20
7.324134326684335
 30
0.0
 11
7.880054714429392
 21
7.324134326684335
 31
0.0
  0
LINE
  5
8E
330
1F
100
AcDbEntity
  8
VISIBLE
100
AcDbLine
 10
7.28248530538269
 20
6.456134326684335
 30
0.0
 11
7.28248530538269
 21
5.864134326684335
 31
0.0
  0
LINE
  5
8F
330
1F
100
AcDbEntity
  8
VISIBLE
100
AcDbLine
 10
8.400485305382691
 20
6.456134326684335
 30
0.0
 11
8.400485305382691
 21
7.108564917637634
 31
0.0
  0
CIRCLE
  5
90
330
1F
100
AcDbEntity
  8
VISIBLE
100
AcDbCircle
 10
8.032485305382691
 20
6.956134326684335
 30
0.0
 40
0.295
  0
LINE
  5
95
330
1F
100
AcDbEntity
  8
VISIBLE
100
AcDbLine
 10
5.11620767412878
 20
2.968258237331544
 30
0.0
 11
5.11620767412878
 21
4.468258237331544
 31
0.0
  0
LINE
  5
96
330
1F
100
AcDbEntity
  8
VISIBLE
100
AcDbLine
 10
1.01620767412878
 20
2.968258237331544
 30
0.0
 11
5.11620767412878
 21
2.968258237331544
 31
0.0
  0
LINE
  5
97
330
1F
100
AcDbEntity
  8
VISIBLE
100
AcDbLine
 10
1.01620767412878
 20
4.468258237331544
 30
0.0
 11
5.11620767412878
 21
4.468258237331544
 31
0.0
  0
LINE
  5
98
330
1F
100
AcDbEntity
  8
VISIBLE
100
AcDbLine
 10
1.01620767412878
 20
2.968258237331544
 30
0.0
 11
1.01620767412878
 21
4.468258237331544
 31
0.0
  0
CIRCLE
  5
99
330
1F
100
AcDbEntity
  8
VISIBLE
100
AcDbCircle
 10
4.96620767412878
 20
3.118258237331543
 30
0.0
 40
0.0679999999999999
  0
CIRCLE
  5
9A
330
1F
100
AcDbEntity
  8
VISIBLE
100
AcDbCircle
 10
1.36620767412878
 20
4.318258237331547
 30
0.0
 40
0.0679999999999999
  0
CIRCLE
  5
9B
330
1F
100
AcDbEntity
  8
VISIBLE
100
AcDbCircle
 10
4.96620767412878
 20
4.318258237331544
 30
0.0
 40
0.0679999999999999
  0
CIRCLE
  5
9C
330
1F
100
AcDbEntity
  8
VISIBLE
100
AcDbCircle
 10
1.36620767412878
 20
3.118258237331544
 30
0.0
 40
0.0679999999999999
  0
CIRCLE
  5
9D
330
1F
100
AcDbEntity
  8
SURFACE_THREAD_SYMBOLS_ON_
100
AcDbCircle
 10
4.96620767412878
 20
4.318258237331544
 30
0.0
 40
0.082
  0
CIRCLE
  5
9E
330
1F
100
AcDbEntity
  8
SURFACE_THREAD_SYMBOLS_ON_
100
AcDbCircle
 10
1.36620767412878
 20
4.318258237331547
 30
0.0
 40
0.082
  0
CIRCLE
  5
9F
330
1F
100
AcDbEntity
  8
SURFACE_THREAD_SYMBOLS_ON_
100
AcDbCircle
 10
4.96620767412878
 20
3.118258237331543
 30
0.0
 40
0.082
  0
CIRCLE
  5
A0
330
1F
100
AcDbEntity
  8
SURFACE_THREAD_SYMBOLS_ON_
100
AcDbCircle
 10
1.36620767412878
 20
3.118258237331544
 30
0.0
 40
0.082
  0
LINE
  5
A5
330
1F
100
AcDbEntity
  8
VISIBLE
100
AcDbLine
 10
6.069810954222647
 20
3.261474290010801
 30
0.0
 11
6.069810954222647
 21
2.979474290010802
 31
0.0
  0
LINE
  5
A6
330
1F
100
AcDbEntity
  8
VISIBLE
100
AcDbLine
 10
6.069810954222647
 20
4.197474290010802
 30
0.0
 11
6.069810954222647
 21
4.479474290010802
 31
0.0
  0
LINE
  5
A7
330
1F
100
AcDbEntity
  8
VISIBLE
100
AcDbLine
 10
6.569810954222647
 20
4.197474290010802
 30
0.0
 11
6.569810954222647
 21
4.097474290010801
 31
0.0
  0
LINE
  5
A8
330
1F
100
AcDbEntity
  8
VISIBLE
100
AcDbLine
 10
6.069810954222647
 20
3.261474290010801
 30
0.0
 11
6.069810954222647
 21
3.361474290010801
 31
0.0
  0
LINE
  5
A9
330
1F
100
AcDbEntity
  8
VISIBLE
100
AcDbLine
 10
6.569810954222647
 20
3.577043699057503
 30
0.0
 11
6.569810954222647
 21
3.361474290010801
 31
0.0
  0
LINE
  5
AA
330
1F
100
AcDbEntity
  8
VISIBLE
100
AcDbLine
 10
6.069810954222647
 20
4.097474290010801
 30
0.0
 11
6.069810954222647
 21
4.197474290010802
 31
0.0
  0
LINE
  5
AB
330
1F
100
AcDbEntity
  8
VISIBLE
100
AcDbLine
 10
6.569810954222647
 20
4.097474290010802
 30
0.0
 11
6.069810954222647
 21
4.097474290010802
 31
0.0
  0
LINE
  5
AC
330
1F
100
AcDbEntity
  8
VISIBLE
100
AcDbLine
 10
6.569810954222647
 20
3.361474290010801
 30
0.0
 11
6.069810954222647
 21
3.361474290010801
 31
0.0
  0
LINE
  5
AD
330
1F
100
AcDbEntity
  8
VISIBLE
100
AcDbLine
 10
6.569810954222647
 20
3.881904880964101
 30
0.0
 11
6.569810954222647
 21
3.577043699057503
 31
0.0
  0
LINE
  5
AE
330
1F
100
AcDbEntity
  8
VISIBLE
100
AcDbLine
 10
6.069810954222647
 20
3.881904880964101
 30
0.0
 11
6.069810954222647
 21
4.097474290010802
 31
0.0
  0
LINE
  5
AF
330
1F
100
AcDbEntity
  8
VISIBLE
100
AcDbLine
 10
9.569810954222646
 20
4.479474290010802
 30
0.0
 11
6.069810954222647
 21
4.479474290010802
 31
0.0
  0
LINE
  5
B0
330
1F
100
AcDbEntity
  8
VISIBLE
100
AcDbLine
 10
9.569810954222646
 20
4.479474290010802
 30
0.0
 11
9.569810954222646
 21
2.979474290010802
 31
0.0
  0
LINE
  5
B1
330
1F
100
AcDbEntity
  8
VISIBLE
100
AcDbLine
 10
6.569810954222647
 20
3.577043699057503
 30
0.0
 11
6.069810954222647
 21
3.577043699057503
 31
0.0
  0
LINE
  5
B2
330
1F
100
AcDbEntity
  8
VISIBLE
100
AcDbLine
 10
6.569810954222647
 20
3.881904880964101
 30
0.0
 11
6.069810954222647
 21
3.881904880964101
 31
0.0
  0
LINE
  5
B3
330
1F
100
AcDbEntity
  8
VISIBLE
100
AcDbLine
 10
6.069810954222647
 20
3.361474290010801
 30
0.0
 11
6.069810954222647
 21
3.577043699057503
 31
0.0
  0
LINE
  5
B4
330
1F
100
AcDbEntity
  8
VISIBLE
100
AcDbLine
 10
6.069810954222647
 20
3.881904880964101
 30
0.0
 11
6.069810954222647
 21
3.577043699057503
 31
0.0
  0
LINE
  5
B5
330
1F
100
AcDbEntity
  8
VISIBLE
100
AcDbLine
 10
6.569810954222647
 20
4.097474290010802
 30
0.0
 11
6.569810954222647
 21
3.881904880964101
 31
0.0
  0
LINE
  5
B6
330
1F
100
AcDbEntity
  8
VISIBLE
100
AcDbLine
 10
10.16981095422265
 20
4.479474290010802
 30
0.0
 11
10.16981095422265
 21
2.979474290010802
 31
0.0
  0
LINE
  5
B7
330
1F
100
AcDbEntity
  8
VISIBLE
100
AcDbLine
 10
10.16981095422265
 20
2.979474290010802
 30
0.0
 11
9.569810954222646
 21
2.979474290010802
 31
0.0
  0
LINE
  5
B8
330
1F
100
AcDbEntity
  8
VISIBLE
100
AcDbLine
 10
9.569810954222646
 20
2.979474290010802
 30
0.0
 11
6.069810954222647
 21
2.979474290010802
 31
0.0
  0
LINE
  5
B9
330
1F
100
AcDbEntity
  8
VISIBLE
100
AcDbLine
 10
6.569810954222647
 20
3.361474290010801
 30
0.0
 11
6.569810954222647
 21
3.261474290010801
 31
0.0
  0
LINE
  5
BA
330
1F
100
AcDbEntity
  8
VISIBLE
100
AcDbLine
 10
10.16981095422265
 20
4.479474290010802
 30
0.0
 11
9.569810954222646
 21
4.479474290010802
 31
0.0
  0
LINE
  5
BB
330
1F
100
AcDbEntity
  8
VISIBLE
100
AcDbLine
 10
6.069810954222647
 20
4.197474290010802
 30
0.0
 11
6.569810954222647
 21
4.197474290010802
 31
0.0
  0
LINE
  5
BC
330
1F
100
AcDbEntity
  8
VISIBLE
100
AcDbLine
 10
6.569810954222647
 20
3.261474290010801
 30
0.0
 11
6.069810954222647
 21
3.261474290010801
 31
0.0
  0
CIRCLE
  5
BD
330
1F
100
AcDbEntity
  8
VISIBLE
100
AcDbCircle
 10
7.499810954222674
 20
4.289474290107013
 30
0.0
 40
0.0680000000000001
  0
CIRCLE
  5
BE
330
1F
100
AcDbEntity
  8
VISIBLE
100
AcDbCircle
 10
7.499810954222674
 20
3.169474290107013
 30
0.0
 40
0.0680000000000001
  0
CIRCLE
  5
BF
330
1F
100
AcDbEntity
  8
VISIBLE
100
AcDbCircle
 10
6.469810954222647
 20
3.729474290010802
 30
0.0
 40
0.035
  0
CIRCLE
  5
C0
330
1F
100
AcDbEntity
  8
VISIBLE
100
AcDbCircle
 10
6.169810954222647
 20
3.729474290010802
 30
0.0
 40
0.035
  0
CIRCLE
  5
C1
330
1F
100
AcDbEntity
  8
VISIBLE
100
AcDbCircle
 10
9.814234360520045
 20
3.728321167425179
 30
0.0
 40
0.0679999999999999
  0
CIRCLE
  5
C2
330
1F
100
AcDbEntity
  8
VISIBLE
100
AcDbCircle
 10
8.337922506073962
 20
3.627234816349177
 30
0.0
 40
0.0680000000000001
  0
CIRCLE
  5
C3
330
1F
100
AcDbEntity
  8
VISIBLE
100
AcDbCircle
 10
6.973743893586863
 20
4.289474290106927
 30
0.0
 40
0.0680000000000001
  0
CIRCLE
  5
C4
330
1F
100
AcDbEntity
  8
VISIBLE
100
AcDbCircle
 10
6.973743893586863
 20
3.169474289914675
 30
0.0
 40
0.0680000000000001
  0
CIRCLE
  5
C5
330
1F
100
AcDbEntity
  8
SURFACE_THREAD_SYMBOLS_ON_
100
AcDbCircle
 10
7.499810954222674
 20
3.169474290107013
 30
0.0
 40
0.082
  0
CIRCLE
  5
C6
330
1F
100
AcDbEntity
  8
SURFACE_THREAD_SYMBOLS_ON_
100
AcDbCircle
 10
7.499810954222674
 20
4.289474290107013
 30
0.0
 40
0.082
  0
CIRCLE
  5
C7
330
1F
100
AcDbEntity
  8
SURFACE_THREAD_SYMBOLS_ON_
100
AcDbCircle
 10
6.169810954222647
 20
3.729474290010802
 30
0.0
 40
0.043
  0
CIRCLE
  5
C8
330
1F
100
AcDbEntity
  8
SURFACE_THREAD_SYMBOLS_ON_
100
AcDbCircle
 10
9.814234360520045
 20
3.728321167425179
 30
0.0
 40
0.082
  0
CIRCLE
  5
C9
330
1F
100
AcDbEntity
  8
SURFACE_THREAD_SYMBOLS_ON_
100
AcDbCircle
 10
6.469810954222647
 20
3.729474290010802
 30
0.0
 40
0.043
  0
CIRCLE
  5
CA
330
1F
100
AcDbEntity
  8
SURFACE_THREAD_SYMBOLS_ON_
100
AcDbCircle
 10
8.337922506073962
 20
3.627234816349177
 30
0.0
 40
0.082
  0
CIRCLE
  5
CB
330
1F
100
AcDbEntity
  8
SURFACE_THREAD_SYMBOLS_ON_
100
AcDbCircle
 10
6.973743893586863
 20
3.169474289914675
 30
0.0
 40
0.082
  0
CIRCLE
  5
CC
330
1F
100
AcDbEntity
  8
SURFACE_THREAD_SYMBOLS_ON_
100
AcDbCircle
 10
6.973743893586863
 20
4.289474290106927
 30
0.0
 40
0.082
  0
LINE
  5
CD
330
1F
100
AcDbEntity
  8
BORDER_FRAME
100
AcDbLine
 10
0.399
 20
0.38
 30
0.0
 11
0.399
 21
8.12
 31
0.0
  0
LINE
  5
D0
330
1F
100
AcDbEntity
  8
BORDER_FRAME
100
AcDbLine
 10
0.399
 20
8.12
 30
0.0
 11
10.639
 21
8.12
 31
0.0
  0
LINE
  5
D1
330
1F
100
AcDbEntity
  8
BORDER_FRAME
100
AcDbLine
 10
10.639
 20
8.12
 30
0.0
 11
10.639
 21
0.38
 31
0.0
  0
LINE
  5
D2
330
1F
100
AcDbEntity
  8
BORDER_FRAME
100
AcDbLine
 10
10.639
 20
0.38
 30
0.0
 11
0.399
 21
0.38
 31
0.0
  0
LINE
  5
D3
330
1F
100
AcDbEntity
  8
BORDER_ZONES
100
AcDbLine
 10
5.519
 20
0.38
 30
0.0
 11
5.519
 21
0.019
 31
0.0
  0
LINE
  5
D5
330
1F
100
AcDbEntity
  8
BORDER_ZONES
100
AcDbLine
 10
5.519
 20
8.12
 30
0.0
 11
5.519
 21
8.481
 31
0.0
  0
MTEXT
  5
D6
330
1F
100
AcDbEntity
  8
BORDER_ZONES
100
AcDbMText
 10
2.769
 20
0.19
 30
0.0
 40
0.18
 41
0.0
 71
     5
 72
     1
  1
2
  7
ONSHAPE-STANDARD
  0
MTEXT
  5
D8
330
1F
100
AcDbEntity
  8
BORDER_ZONES
100
AcDbMText
 10
2.769
 20
8.309999999999999
 30
0.0
 40
0.18
 41
0.0
 71
     5
 72
     1
  1
2
  7
ONSHAPE-STANDARD
  0
MTEXT
  5
D9
330
1F
100
AcDbEntity
  8
BORDER_ZONES
100
AcDbMText
 10
8.269
 20
0.19
 30
0.0
 40
0.18
 41
0.0
 71
     5
 72
     1
  1
1
  7
ONSHAPE-STANDARD
  0
MTEXT
  5
DA
330
1F
100
AcDbEntity
  8
BORDER_ZONES
100
AcDbMText
 10
8.269
 20
8.309999999999999
 30
0.0
 40
0.18
 41
0.0
 71
     5
 72
     1
  1
1
  7
ONSHAPE-STANDARD
  0
LINE
  5
DB
330
1F
100
AcDbEntity
  8
BORDER_ZONES
100
AcDbLine
 10
0.399
 20
4.25
 30
0.0
 11
0.038
 21
4.25
 31
0.0
  0
LINE
  5
DC
330
1F
100
AcDbEntity
  8
BORDER_ZONES
100
AcDbLine
 10
10.639
 20
4.25
 30
0.0
 11
11.0
 21
4.25
 31
0.0
  0
MTEXT
  5
DD
330
1F
100
AcDbEntity
  8
BORDER_ZONES
100
AcDbMText
 10
0.209
 20
2.125
 30
0.0
 40
0.18
 41
0.0
 71
     5
 72
     1
  1
A
  7
ONSHAPE-STANDARD
  0
MTEXT
  5
DE
330
1F
100
AcDbEntity
  8
BORDER_ZONES
100
AcDbMText
 10
10.829
 20
2.125
 30
0.0
 40
0.18
 41
0.0
 71
     5
 72
     1
  1
A
  7
ONSHAPE-STANDARD
  0
MTEXT
  5
DF
330
1F
100
AcDbEntity
  8
BORDER_ZONES
100
AcDbMText
 10
0.209
 20
6.375
 30
0.0
 40
0.18
 41
0.0
 71
     5
 72
     1
  1
B
  7
ONSHAPE-STANDARD
  0
MTEXT
  5
E0
330
1F
100
AcDbEntity
  8
BORDER_ZONES
100
AcDbMText
 10
10.829
 20
6.375
 30
0.0
 40
0.18
 41
0.0
 71
     5
 72
     1
  1
B
  7
ONSHAPE-STANDARD
  0
LINE
  5
E1
330
1F
100
AcDbEntity
  8
TITLE_BLOCK
100
AcDbLine
 10
4.563999999999999
 20
0.38
 30
0.0
 11
4.563999999999999
 21
1.88
 31
0.0
  0
LINE
  5
E3
330
1F
100
AcDbEntity
  8
TITLE_BLOCK
100
AcDbLine
 10
4.563999999999999
 20
0.38
 30
0.0
 11
5.763999999999999
 21
0.38
 31
0.0
  0
LINE
  5
E4
330
1F
100
AcDbEntity
  8
TITLE_BLOCK
100
AcDbLine
 10
4.563999999999999
 20
0.6799999999999999
 30
0.0
 11
5.763999999999999
 21
0.6799999999999999
 31
0.0
  0
LINE
  5
E5
330
1F
100
AcDbEntity
  8
TITLE_BLOCK
100
AcDbLine
 10
4.563999999999999
 20
0.8
 30
0.0
 11
5.763999999999999
 21
0.8
 31
0.0
  0
LINE
  5
E6
330
1F
100
AcDbEntity
  8
TITLE_BLOCK
100
AcDbLine
 10
4.563999999999999
 20
1.004
 30
0.0
 11
5.763999999999999
 21
1.004
 31
0.0
  0
LINE
  5
E7
330
1F
100
AcDbEntity
  8
TITLE_BLOCK
100
AcDbLine
 10
4.563999999999999
 20
1.178
 30
0.0
 11
5.763999999999999
 21
1.178
 31
0.0
  0
LINE
  5
E8
330
1F
100
AcDbEntity
  8
TITLE_BLOCK
100
AcDbLine
 10
4.563999999999999
 20
1.88
 30
0.0
 11
5.763999999999999
 21
1.88
 31
0.0
  0
MTEXT
  5
E9
330
1F
100
AcDbEntity
  8
TITLE_BLOCK
100
AcDbMText
 10
4.590399999999999
 20
1.8368
 30
0.0
 40
0.048
 41
1.176
 71
     1
 72
     1
  1
UNLESS OTHERWISE SPECIFIED, DIMENSIONS ARE IN INCHES
  7
ONSHAPE-STANDARD
  0
MTEXT
  5
EA
330
1F
100
AcDbEntity
  8
TITLE_BLOCK
100
AcDbMText
 10
4.590399999999999
 20
1.6568
 30
0.0
 40
0.048
 41
0.5880000000000005
 71
     1
 72
     1
  1
    .XX = .0-^J  .XXX = .00-^J.XXXX = .000-
  7
ONSHAPE-STANDARD
  0
MTEXT
  5
EB
330
1F
100
AcDbEntity
  8
TITLE_BLOCK
100
AcDbMText
 10
5.18776
 20
1.66112
 30
0.0
 40
0.0432
 41
0.5879999999999996
 71
     1
 72
     1
  1
^JANGULAR =  ^JFRACTIONAL = 
  7
ONSHAPE-STANDARD
  0
MTEXT
  5
EC
330
1F
100
AcDbEntity
  8
TITLE_BLOCK
100
AcDbMText
 10
4.590399999999999
 20
1.3688
 30
0.0
 40
0.048
 41
0.5880000000000005
 71
     1
 72
     1
  1
SURFACE FINISH
  7
ONSHAPE-STANDARD
  0
LINE
  5
ED
330
1F
100
AcDbEntity
  8
TITLE_BLOCK
100
AcDbLine
 10
5.104
 20
1.298
 30
0.0
 11
5.134
 21
1.246038475772934
 31
0.0
  0
LINE
  5
EE
330
1F
100
AcDbEntity
  8
TITLE_BLOCK
100
AcDbLine
 10
5.134
 20
1.246038475772934
 30
0.0
 11
5.197
 21
1.355157676649773
 31
0.0
  0
LINE
  5
EF
330
1F
100
AcDbEntity
  8
TITLE_BLOCK
100
AcDbLine
 10
5.197
 20
1.355157676649773
 30
0.0
 11
5.263
 21
1.355157676649773
 31
0.0
  0
MTEXT
  5
F0
330
1F
100
AcDbEntity
  8
TITLE_BLOCK
100
AcDbMText
 10
5.164
 20
1.12184
 30
0.0
 40
0.0624
 41
1.176
 71
     2
 72
     1
  1
DO NOT SCALE DRAWING
  7
ONSHAPE-STANDARD
  0
MTEXT
  5
F1
330
1F
100
AcDbEntity
  8
TITLE_BLOCK
100
AcDbMText
 10
5.164
 20
0.9608
 30
0.0
 40
0.048
 41
1.176
 71
     2
 72
     1
  1
BREAK ALL SHARP EDGES AND REMOVE BURRS
  7
ONSHAPE-STANDARD
  0
CIRCLE
  5
F2
330
1F
100
AcDbEntity
  8
TITLE_BLOCK
100
AcDbCircle
 10
5.029
 20
0.5287999999999999
 30
0.0
 40
0.054
  0
CIRCLE
  5
F3
330
1F
100
AcDbEntity
  8
TITLE_BLOCK
100
AcDbCircle
 10
5.029
 20
0.5287999999999999
 30
0.0
 40
0.108
  0
LINE
  5
F4
330
1F
100
AcDbEntity
  8
TITLE_BLOCK
100
AcDbLine
 10
5.056
 20
0.5287999999999999
 30
0.0
 11
5.002
 21
0.5287999999999999
 31
0.0
  0
LINE
  5
F5
330
1F
100
AcDbEntity
  8
TITLE_BLOCK
100
AcDbLine
 10
5.029
 20
0.5558
 30
0.0
 11
5.029
 21
0.5017999999999999
 31
0.0
  0
LINE
  5
F6
330
1F
100
AcDbEntity
  8
TITLE_BLOCK
100
AcDbLine
 10
5.083
 20
0.5287999999999999
 30
0.0
 11
5.164
 21
0.5287999999999999
 31
0.0
  0
LINE
  5
F7
330
1F
100
AcDbEntity
  8
TITLE_BLOCK
100
AcDbLine
 10
5.029
 20
0.5828
 30
0.0
 11
5.029
 21
0.6638
 31
0.0
  0
LINE
  5
F8
330
1F
100
AcDbEntity
  8
TITLE_BLOCK
100
AcDbLine
 10
4.975
 20
0.5287999999999999
 30
0.0
 11
4.894
 21
0.5287999999999999
 31
0.0
  0
LINE
  5
F9
330
1F
100
AcDbEntity
  8
TITLE_BLOCK
100
AcDbLine
 10
5.029
 20
0.4747999999999999
 30
0.0
 11
5.029
 21
0.3937999999999999
 31
0.0
  0
LINE
  5
FA
330
1F
100
AcDbEntity
  8
TITLE_BLOCK
100
AcDbLine
 10
5.406999999999999
 20
0.4208
 30
0.0
 11
5.406999999999999
 21
0.6367999999999999
 31
0.0
  0
LINE
  5
FB
330
1F
100
AcDbEntity
  8
TITLE_BLOCK
100
AcDbLine
 10
5.406999999999999
 20
0.6367999999999999
 30
0.0
 11
5.191
 21
0.5828
 31
0.0
  0
LINE
  5
FC
330
1F
100
AcDbEntity
  8
TITLE_BLOCK
100
AcDbLine
 10
5.191
 20
0.5828
 30
0.0
 11
5.191
 21
0.4747999999999999
 31
0.0
  0
LINE
  5
FD
330
1F
100
AcDbEntity
  8
TITLE_BLOCK
100
AcDbLine
 10
5.191
 20
0.4747999999999999
 30
0.0
 11
5.406999999999999
 21
0.4208
 31
0.0
  0
LINE
  5
FE
330
1F
100
AcDbEntity
  8
TITLE_BLOCK
100
AcDbLine
 10
5.326
 20
0.5287999999999999
 30
0.0
 11
5.4205
 21
0.5287999999999999
 31
0.0
  0
LINE
  5
FF
330
1F
100
AcDbEntity
  8
TITLE_BLOCK
100
AcDbLine
 10
5.309799999999999
 20
0.5287999999999999
 30
0.0
 11
5.2882
 21
0.5287999999999999
 31
0.0
  0
LINE
  5
100
330
1F
100
AcDbEntity
  8
TITLE_BLOCK
100
AcDbLine
 10
5.271999999999999
 20
0.5287999999999999
 30
0.0
 11
5.177499999999999
 21
0.5287999999999999
 31
0.0
  0
MTEXT
  5
101
330
1F
100
AcDbEntity
  8
TITLE_BLOCK
100
AcDbMText
 10
5.164
 20
0.7568
 30
0.0
 40
0.048
 41
1.176
 71
     2
 72
     1
  1
THIRD ANGLE PROJECTION
  7
ONSHAPE-STANDARD
  0
LINE
  5
102
330
1F
100
AcDbEntity
  8
TITLE_BLOCK
100
AcDbLine
 10
5.763999999999999
 20
0.38
 30
0.0
 11
5.763999999999999
 21
1.88
 31
0.0
  0
LINE
  5
103
330
1F
100
AcDbEntity
  8
TITLE_BLOCK
100
AcDbLine
 10
6.364
 20
0.8
 30
0.0
 11
6.364
 21
1.88
 31
0.0
  0
LINE
  5
104
330
1F
100
AcDbEntity
  8
TITLE_BLOCK
100
AcDbLine
 10
7.113999999999999
 20
0.8
 30
0.0
 11
7.113999999999999
 21
1.88
 31
0.0
  0
LINE
  5
105
330
1F
100
AcDbEntity
  8
TITLE_BLOCK
100
AcDbLine
 10
6.664
 20
0.38
 30
0.0
 11
6.664
 21
0.8
 31
0.0
  0
LINE
  5
106
330
1F
100
AcDbEntity
  8
TITLE_BLOCK
100
AcDbLine
 10
5.763999999999999
 20
1.88
 30
0.0
 11
7.564
 21
1.88
 31
0.0
  0
LINE
  5
107
330
1F
100
AcDbEntity
  8
TITLE_BLOCK
100
AcDbLine
 10
5.763999999999999
 20
1.7
 30
0.0
 11
7.564
 21
1.7
 31
0.0
  0
LINE
  5
108
330
1F
100
AcDbEntity
  8
TITLE_BLOCK
100
AcDbLine
 10
5.763999999999999
 20
1.52
 30
0.0
 11
7.564
 21
1.52
 31
0.0
  0
LINE
  5
109
330
1F
100
AcDbEntity
  8
TITLE_BLOCK
100
AcDbLine
 10
5.763999999999999
 20
1.34
 30
0.0
 11
7.564
 21
1.34
 31
0.0
  0
LINE
  5
10A
330
1F
100
AcDbEntity
  8
TITLE_BLOCK
100
AcDbLine
 10
5.763999999999999
 20
1.16
 30
0.0
 11
7.564
 21
1.16
 31
0.0
  0
LINE
  5
10B
330
1F
100
AcDbEntity
  8
TITLE_BLOCK
100
AcDbLine
 10
5.763999999999999
 20
0.98
 30
0.0
 11
7.564
 21
0.98
 31
0.0
  0
LINE
  5
10C
330
1F
100
AcDbEntity
  8
TITLE_BLOCK
100
AcDbLine
 10
5.763999999999999
 20
0.8
 30
0.0
 11
7.564
 21
0.8
 31
0.0
  0
MTEXT
  5
10D
330
1F
100
AcDbEntity
  8
TITLE_BLOCK
100
AcDbMText
 10
6.3904
 20
1.8368
 30
0.0
 40
0.048
 41
0.7349999999999991
 71
     1
 72
     1
  1
NAME
  7
ONSHAPE-STANDARD
  0
MTEXT
  5
10E
330
1F
100
AcDbEntity
  8
TITLE_BLOCK
100
AcDbMText
 10
7.339
 20
1.8368
 30
0.0
 40
0.048
 41
0.4410000000000011
 71
     2
 72
     1
  1
DATE
  7
ONSHAPE-STANDARD
  0
MTEXT
  5
10F
330
1F
100
AcDbEntity
  8
TITLE_BLOCK
100
AcDbMText
 10
5.790399999999999
 20
1.6568
 30
0.0
 40
0.048
 41
0.5880000000000005
 71
     1
 72
     1
  1
DRAWN
  7
ONSHAPE-STANDARD
  0
MTEXT
  5
110
102
{ACAD_XDICTIONARY
360
111
102
}
330
1F
100
AcDbEntity
  8
TITLE_BLOCK
100
AcDbMText
 10
6.738999999999999
 20
1.61
 30
0.0
 40
0.04032
 41
0.7499999999999991
 71
     5
 72
     1
  1
ROBERT XI
  7
ONSHAPE-STANDARD-FIELDS
1001
ACAD
1000
ACAD_MTEXT_DEFINED_HEIGHT_BEGIN
1070
    46
1040
0.1800000000000002
1000
ACAD_MTEXT_DEFINED_HEIGHT_END
  0
MTEXT
  5
117
102
{ACAD_XDICTIONARY
360
118
102
}
330
1F
100
AcDbEntity
  8
TITLE_BLOCK
100
AcDbMText
 10
7.339
 20
1.61
 30
0.0
 40
0.04032
 41
0.4500000000000011
 71
     5
 72
     1
  1
03/17/2025
  7
ONSHAPE-STANDARD-FIELDS
1001
ACAD
1000
ACAD_MTEXT_DEFINED_HEIGHT_BEGIN
1070
    46
1040
0.1800000000000002
1000
ACAD_MTEXT_DEFINED_HEIGHT_END
  0
MTEXT
  5
11D
330
1F
100
AcDbEntity
  8
TITLE_BLOCK
100
AcDbMText
 10
5.790399999999999
 20
1.4768
 30
0.0
 40
0.048
 41
0.5880000000000005
 71
     1
 72
     1
  1
CHECKED
  7
ONSHAPE-STANDARD
  0
MTEXT
  5
11E
330
1F
100
AcDbEntity
  8
TITLE_BLOCK
100
AcDbMText
 10
6.738999999999999
 20
1.43
 30
0.0
 40
0.04032
 41
0.7499999999999991
 71
     5
 72
     1
  1
 
  7
ONSHAPE-STANDARD-FIELDS
1001
ACAD
1000
ACAD_MTEXT_DEFINED_HEIGHT_BEGIN
1070
    46
1040
0.1800000000000002
1000
ACAD_MTEXT_DEFINED_HEIGHT_END
  0
MTEXT
  5
11F
330
1F
100
AcDbEntity
  8
TITLE_BLOCK
100
AcDbMText
 10
7.339
 20
1.43
 30
0.0
 40
0.04032
 41
0.4500000000000011
 71
     5
 72
     1
  1
 
  7
ONSHAPE-STANDARD-FIELDS
1001
ACAD
1000
ACAD_MTEXT_DEFINED_HEIGHT_BEGIN
1070
    46
1040
0.1800000000000002
1000
ACAD_MTEXT_DEFINED_HEIGHT_END
  0
MTEXT
  5
120
330
1F
100
AcDbEntity
  8
TITLE_BLOCK
100
AcDbMText
 10
5.790399999999999
 20
1.2968
 30
0.0
 40
0.048
 41
0.5880000000000005
 71
     1
 72
     1
  1
APPROVED
  7
ONSHAPE-STANDARD
  0
MTEXT
  5
121
102
{ACAD_XDICTIONARY
360
122
102
}
330
1F
100
AcDbEntity
  8
TITLE_BLOCK
100
AcDbMText
 10
6.738999999999999
 20
1.25
 30
0.0
 40
0.04032
 41
0.7499999999999991
 71
     5
 72
     1
  1
----
  7
ONSHAPE-STANDARD-FIELDS
1001
ACAD
1000
ACAD_MTEXT_DEFINED_HEIGHT_BEGIN
1070
    46
1040
0.1799999999999997
1000
ACAD_MTEXT_DEFINED_HEIGHT_END
  0
MTEXT
  5
127
102
{ACAD_XDICTIONARY
360
128
102
}
330
1F
100
AcDbEntity
  8
TITLE_BLOCK
100
AcDbMText
 10
7.339
 20
1.25
 30
0.0
 40
0.04032
 41
0.4500000000000011
 71
     5
 72
     1
  1
----
  7
ONSHAPE-STANDARD-FIELDS
1001
ACAD
1000
ACAD_MTEXT_DEFINED_HEIGHT_BEGIN
1070
    46
1040
0.1799999999999997
1000
ACAD_MTEXT_DEFINED_HEIGHT_END
  0
MTEXT
  5
12D
330
1F
100
AcDbEntity
  8
TITLE_BLOCK
100
AcDbMText
 10
6.064
 20
1.07
 30
0.0
 40
0.072
 41
0.6000000000000005
 71
     5
 72
     1
  1
 
  7
ONSHAPE-STANDARD-FIELDS
1001
ACAD
1000
ACAD_MTEXT_DEFINED_HEIGHT_BEGIN
1070
    46
1040
0.1800000000000002
1000
ACAD_MTEXT_DEFINED_HEIGHT_END
  0
MTEXT
  5
12E
330
1F
100
AcDbEntity
  8
TITLE_BLOCK
100
AcDbMText
 10
6.738999999999999
 20
1.07
 30
0.0
 40
0.04032
 41
0.7499999999999991
 71
     5
 72
     1
  1
 
  7
ONSHAPE-STANDARD-FIELDS
1001
ACAD
1000
ACAD_MTEXT_DEFINED_HEIGHT_BEGIN
1070
    46
1040
0.1800000000000002
1000
ACAD_MTEXT_DEFINED_HEIGHT_END
  0
MTEXT
  5
12F
330
1F
100
AcDbEntity
  8
TITLE_BLOCK
100
AcDbMText
 10
7.339
 20
1.07
 30
0.0
 40
0.04032
 41
0.4500000000000011
 71
     5
 72
     1
  1
 
  7
ONSHAPE-STANDARD-FIELDS
1001
ACAD
1000
ACAD_MTEXT_DEFINED_HEIGHT_BEGIN
1070
    46
1040
0.1800000000000002
1000
ACAD_MTEXT_DEFINED_HEIGHT_END
  0
MTEXT
  5
130
330
1F
100
AcDbEntity
  8
TITLE_BLOCK
100
AcDbMText
 10
6.064
 20
0.89
 30
0.0
 40
0.072
 41
0.6000000000000005
 71
     5
 72
     1
  1
 
  7
ONSHAPE-STANDARD-FIELDS
1001
ACAD
1000
ACAD_MTEXT_DEFINED_HEIGHT_BEGIN
1070
    46
1040
0.1799999999999999
1000
ACAD_MTEXT_DEFINED_HEIGHT_END
  0
MTEXT
  5
131
330
1F
100
AcDbEntity
  8
TITLE_BLOCK
100
AcDbMText
 10
6.738999999999999
 20
0.89
 30
0.0
 40
0.04032
 41
0.7499999999999991
 71
     5
 72
     1
  1
 
  7
ONSHAPE-STANDARD-FIELDS
1001
ACAD
1000
ACAD_MTEXT_DEFINED_HEIGHT_BEGIN
1070
    46
1040
0.1799999999999999
1000
ACAD_MTEXT_DEFINED_HEIGHT_END
  0
MTEXT
  5
132
330
1F
100
AcDbEntity
  8
TITLE_BLOCK
100
AcDbMText
 10
7.339
 20
0.89
 30
0.0
 40
0.04032
 41
0.4500000000000011
 71
     5
 72
     1
  1
 
  7
ONSHAPE-STANDARD-FIELDS
1001
ACAD
1000
ACAD_MTEXT_DEFINED_HEIGHT_BEGIN
1070
    46
1040
0.1799999999999999
1000
ACAD_MTEXT_DEFINED_HEIGHT_END
  0
MTEXT
  5
133
330
1F
100
AcDbEntity
  8
TITLE_BLOCK
100
AcDbMText
 10
5.790399999999999
 20
0.7568
 30
0.0
 40
0.048
 41
0.8820000000000003
 71
     1
 72
     1
  1
MATERIAL
  7
ONSHAPE-STANDARD
  0
MTEXT
  5
134
330
1F
100
AcDbEntity
  8
TITLE_BLOCK
100
AcDbMText
 10
6.214
 20
0.5900000000000001
 30
0.0
 40
0.072
 41
0.9000000000000004
 71
     5
 72
     1
  1
 
  7
ONSHAPE-STANDARD-FIELDS
1001
ACAD
1000
ACAD_MTEXT_DEFINED_HEIGHT_BEGIN
1070
    46
1040
0.42
1000
ACAD_MTEXT_DEFINED_HEIGHT_END
  0
MTEXT
  5
135
330
1F
100
AcDbEntity
  8
TITLE_BLOCK
100
AcDbMText
 10
6.690399999999999
 20
0.7568
 30
0.0
 40
0.048
 41
0.8820000000000003
 71
     1
 72
     1
  1
FINISH
  7
ONSHAPE-STANDARD
  0
MTEXT
  5
136
330
1F
100
AcDbEntity
  8
TITLE_BLOCK
100
AcDbMText
 10
7.114
 20
0.5900000000000001
 30
0.0
 40
0.072
 41
0.9000000000000004
 71
     5
 72
     1
  1
 
  7
ONSHAPE-STANDARD-FIELDS
1001
ACAD
1000
ACAD_MTEXT_DEFINED_HEIGHT_BEGIN
1070
    46
1040
0.42
1000
ACAD_MTEXT_DEFINED_HEIGHT_END
  0
LINE
  5
137
330
1F
100
AcDbEntity
  8
TITLE_BLOCK
100
AcDbLine
 10
7.564
 20
0.38
 30
0.0
 11
7.564
 21
1.88
 31
0.0
  0
LINE
  5
138
330
1F
100
AcDbEntity
  8
TITLE_BLOCK
100
AcDbLine
 10
7.939
 20
0.575
 30
0.0
 11
7.939
 21
0.875
 31
0.0
  0
LINE
  5
139
330
1F
100
AcDbEntity
  8
TITLE_BLOCK
100
AcDbLine
 10
8.223999999999998
 20
0.38
 30
0.0
 11
8.223999999999998
 21
0.575
 31
0.0
  0
LINE
  5
13A
330
1F
100
AcDbEntity
  8
TITLE_BLOCK
100
AcDbLine
 10
9.588999999999999
 20
0.38
 30
0.0
 11
9.588999999999999
 21
0.575
 31
0.0
  0
LINE
  5
13B
330
1F
100
AcDbEntity
  8
TITLE_BLOCK
100
AcDbLine
 10
10.339
 20
0.575
 30
0.0
 11
10.339
 21
0.875
 31
0.0
  0
LINE
  5
13C
330
1F
100
AcDbEntity
  8
TITLE_BLOCK
100
AcDbLine
 10
7.564
 20
0.575
 30
0.0
 11
10.639
 21
0.575
 31
0.0
  0
LINE
  5
13D
330
1F
100
AcDbEntity
  8
TITLE_BLOCK
100
AcDbLine
 10
7.564
 20
0.875
 30
0.0
 11
10.639
 21
0.875
 31
0.0
  0
LINE
  5
13E
330
1F
100
AcDbEntity
  8
TITLE_BLOCK
100
AcDbLine
 10
7.564
 20
1.505
 30
0.0
 11
10.639
 21
1.505
 31
0.0
  0
LINE
  5
13F
330
1F
100
AcDbEntity
  8
TITLE_BLOCK
100
AcDbLine
 10
7.564
 20
1.88
 30
0.0
 11
10.639
 21
1.88
 31
0.0
  0
MTEXT
  5
140
330
1F
100
AcDbEntity
  8
TITLE_BLOCK
100
AcDbMText
 10
7.5904
 20
1.4618
 30
0.0
 40
0.048
 41
0.3675
 71
     1
 72
     1
  1
TITLE
  7
ONSHAPE-STANDARD
  0
MTEXT
  5
141
102
{ACAD_XDICTIONARY
360
142
102
}
330
1F
100
AcDbEntity
  8
TITLE_BLOCK
100
AcDbMText
 10
9.1015
 20
1.385
 30
0.0
 40
0.1152
 41
2.774999999999999
 71
     5
 72
     1
  1
----
  7
ONSHAPE-STANDARD-FIELDS
1001
ACAD
1000
ACAD_MTEXT_DEFINED_HEIGHT_BEGIN
1070
    46
1040
0.189
1000
ACAD_MTEXT_DEFINED_HEIGHT_END
  0
MTEXT
  5
147
102
{ACAD_XDICTIONARY
360
148
102
}
330
1F
100
AcDbEntity
  8
TITLE_BLOCK
100
AcDbMText
 10
9.1015
 20
1.196
 30
0.0
 40
0.1152
 41
2.774999999999999
 71
     5
 72
     1
  1
----
  7
ONSHAPE-STANDARD-FIELDS
1001
ACAD
1000
ACAD_MTEXT_DEFINED_HEIGHT_BEGIN
1070
    46
1040
0.189
1000
ACAD_MTEXT_DEFINED_HEIGHT_END
  0
MTEXT
  5
14D
102
{ACAD_XDICTIONARY
360
14E
102
}
330
1F
100
AcDbEntity
  8
TITLE_BLOCK
100
AcDbMText
 10
9.1015
 20
1.007
 30
0.0
 40
0.1152
 41
2.774999999999999
 71
     5
 72
     1
  1
----
  7
ONSHAPE-STANDARD-FIELDS
1001
ACAD
1000
ACAD_MTEXT_DEFINED_HEIGHT_BEGIN
1070
    46
1040
0.189
1000
ACAD_MTEXT_DEFINED_HEIGHT_END
  0
MTEXT
  5
153
330
1F
100
AcDbEntity
  8
TITLE_BLOCK
100
AcDbMText
 10
7.58512
 20
0.84044
 30
0.0
 40
0.0384
 41
0.3675
 71
     1
 72
     1
  1
SIZE
  7
ONSHAPE-STANDARD
  0
MTEXT
  5
154
102
{ACAD_XDICTIONARY
360
155
102
}
330
1F
100
AcDbEntity
  8
TITLE_BLOCK
100
AcDbMText
 10
7.7515
 20
0.725
 30
0.0
 40
0.144
 41
0.375
 71
     5
 72
     1
  1
A
  7
ONSHAPE-STANDARD-FIELDS
1001
ACAD
1000
ACAD_MTEXT_DEFINED_HEIGHT_BEGIN
1070
    46
1040
0.3
1000
ACAD_MTEXT_DEFINED_HEIGHT_END
  0
MTEXT
  5
15A
330
1F
100
AcDbEntity
  8
TITLE_BLOCK
100
AcDbMText
 10
7.96012
 20
0.84044
 30
0.0
 40
0.0384
 41
2.351999999999999
 71
     1
 72
     1
  1
DWG NO.
  7
ONSHAPE-STANDARD
  0
MTEXT
  5
15B
102
{ACAD_XDICTIONARY
360
15C
102
}
330
1F
100
AcDbEntity
  8
TITLE_BLOCK
100
AcDbMText
 10
9.139
 20
0.725
 30
0.0
 40
0.144
 41
2.399999999999999
 71
     5
 72
     1
  1
----
  7
ONSHAPE-STANDARD-FIELDS
1001
ACAD
1000
ACAD_MTEXT_DEFINED_HEIGHT_BEGIN
1070
    46
1040
0.3
1000
ACAD_MTEXT_DEFINED_HEIGHT_END
  0
MTEXT
  5
161
330
1F
100
AcDbEntity
  8
TITLE_BLOCK
100
AcDbMText
 10
10.36012
 20
0.84044
 30
0.0
 40
0.0384
 41
0.2940000000000007
 71
     1
 72
     1
  1
REV.
  7
ONSHAPE-STANDARD
  0
MTEXT
  5
162
102
{ACAD_XDICTIONARY
360
163
102
}
330
1F
100
AcDbEntity
  8
TITLE_BLOCK
100
AcDbMText
 10
10.504
 20
0.725
 30
0.0
 40
0.144
 41
0.2700000000000014
 71
     5
 72
     1
  1
-
  7
ONSHAPE-STANDARD-FIELDS
1001
ACAD
1000
ACAD_MTEXT_DEFINED_HEIGHT_BEGIN
1070
    46
1040
0.3
1000
ACAD_MTEXT_DEFINED_HEIGHT_END
  0
MTEXT
  5
168
330
1F
100
AcDbEntity
  8
TITLE_BLOCK
100
AcDbMText
 10
7.58512
 20
0.5404399999999999
 30
0.0
 40
0.0384
 41
0.6467999999999984
 71
     1
 72
     1
  1
SCALE
  7
ONSHAPE-STANDARD
  0
MTEXT
  5
169
102
{ACAD_XDICTIONARY
360
16A
102
}
330
1F
100
AcDbEntity
  8
TITLE_BLOCK
100
AcDbMText
 10
7.923999999999999
 20
0.4775
 30
0.0
 40
0.0864
 41
0.5999999999999988
 71
     5
 72
     1
  1
1:1
  7
ONSHAPE-STANDARD-FIELDS
1001
ACAD
1000
ACAD_MTEXT_DEFINED_HEIGHT_BEGIN
1070
    46
1040
0.195
1000
ACAD_MTEXT_DEFINED_HEIGHT_END
  0
MTEXT
  5
16F
330
1F
100
AcDbEntity
  8
TITLE_BLOCK
100
AcDbMText
 10
8.245119999999998
 20
0.5404399999999999
 30
0.0
 40
0.0384
 41
1.3377
 71
     1
 72
     1
  1
WEIGHT
  7
ONSHAPE-STANDARD
  0
MTEXT
  5
170
330
1F
100
AcDbEntity
  8
TITLE_BLOCK
100
AcDbMText
 10
8.9065
 20
0.4775
 30
0.0
 40
0.0864
 41
1.365
 71
     5
 72
     1
  1
 
  7
ONSHAPE-STANDARD-FIELDS
1001
ACAD
1000
ACAD_MTEXT_DEFINED_HEIGHT_BEGIN
1070
    46
1040
0.195
1000
ACAD_MTEXT_DEFINED_HEIGHT_END
  0
MTEXT
  5
171
330
1F
100
AcDbEntity
  8
TITLE_BLOCK
100
AcDbMText
 10
9.610119999999998
 20
0.5404399999999999
 30
0.0
 40
0.0384
 41
1.029000000000001
 71
     1
 72
     1
  1
SHEET
  7
ONSHAPE-STANDARD
  0
MTEXT
  5
172
102
{ACAD_XDICTIONARY
360
173
102
}
330
1F
100
AcDbEntity
  8
TITLE_BLOCK
100
AcDbMText
 10
10.144
 20
0.4775
 30
0.0
 40
0.0864
 41
0.9900000000000002
 71
     5
 72
     1
  1
1 of 1
  7
ONSHAPE-STANDARD-FIELDS
1001
ACAD
1000
ACAD_MTEXT_DEFINED_HEIGHT_BEGIN
1070
    46
1040
0.195
1000
ACAD_MTEXT_DEFINED_HEIGHT_END
  0
MTEXT
  5
178
102
{ACAD_XDICTIONARY
360
179
102
}
330
1F
100
AcDbEntity
  8
ANNOTATION_TEXT
 62
     7
 60
     1
100
AcDbMText
 10
3.06620767412878
 20
5.599134326684335
 30
0.0
 40
0.12
 41
0.0
 71
     2
 72
     1
  1

  7
ONSHAPE-STANDARD-VIEW-LABE
1001
ACAD
1000
ACAD_MTEXT_DEFINED_HEIGHT_BEGIN
1070
    46
1040
0.12
1000
ACAD_MTEXT_DEFINED_HEIGHT_END
  0
LINE
  5
182
330
1F
100
AcDbEntity
  8
CENTERMARKS
  6
CONTINUOUS
100
AcDbLine
 10
7.987485305382691
 20
6.956134326684335
 30
0.0
 11
8.077485305382691
 21
6.956134326684335
 31
0.0
  0
LINE
  5
183
330
1F
100
AcDbEntity
  8
CENTERMARKS
  6
CONTINUOUS
100
AcDbLine
 10
8.032485305382691
 20
6.911134326684335
 30
0.0
 11
8.032485305382691
 21
7.001134326684335
 31
0.0
  0
LINE
  5
184
330
1F
100
AcDbEntity
  8
CENTERMARKS
  6
CENTER
100
AcDbLine
 10
7.942485305382691
 20
6.956134326684335
 30
0.0
 11
7.647485305382691
 21
6.956134326684335
 31
0.0
  0
LINE
  5
185
330
1F
100
AcDbEntity
  8
CENTERMARKS
  6
CENTER
100
AcDbLine
 10
8.12248530538269
 20
6.956134326684335
 30
0.0
 11
8.41748530538269
 21
6.956134326684335
 31
0.0
  0
LINE
  5
186
330
1F
100
AcDbEntity
  8
CENTERMARKS
  6
CENTER
100
AcDbLine
 10
8.032485305382691
 20
7.046134326684335
 30
0.0
 11
8.032485305382691
 21
7.341134326684335
 31
0.0
  0
LINE
  5
187
330
1F
100
AcDbEntity
  8
CENTERMARKS
  6
CENTER
100
AcDbLine
 10
8.032485305382691
 20
6.866134326684335
 30
0.0
 11
8.032485305382691
 21
6.571134326684335
 31
0.0
  0
MTEXT
  5
188
102
{ACAD_XDICTIONARY
360
189
102
}
330
1F
100
AcDbEntity
  8
ANNOTATION_TEXT
 62
     7
 60
     1
100
AcDbMText
 10
8.032485305382691
 20
5.729134326684336
 30
0.0
 40
0.12
 41
0.0
 71
     2
 72
     1
  1

  7
ONSHAPE-STANDARD-VIEW-LABE
1001
ACAD
1000
ACAD_MTEXT_DEFINED_HEIGHT_BEGIN
1070
    46
1040
0.12
1000
ACAD_MTEXT_DEFINED_HEIGHT_END
  0
LINE
  5
191
330
1F
100
AcDbEntity
  8
CENTERMARKS
  6
CONTINUOUS
100
AcDbLine
 10
4.94240767412878
 20
3.118258237331543
 30
0.0
 11
4.990007674128779
 21
3.118258237331543
 31
0.0
  0
LINE
  5
192
330
1F
100
AcDbEntity
  8
CENTERMARKS
  6
CONTINUOUS
100
AcDbLine
 10
4.966207674128779
 20
3.094458237331543
 30
0.0
 11
4.966207674128779
 21
3.142058237331543
 31
0.0
  0
LINE
  5
193
330
1F
100
AcDbEntity
  8
CENTERMARKS
  6
CENTER
100
AcDbLine
 10
4.91860767412878
 20
3.118258237331543
 30
0.0
 11
4.85060767412878
 21
3.118258237331543
 31
0.0
  0
LINE
  5
194
330
1F
100
AcDbEntity
  8
CENTERMARKS
  6
CENTER
100
AcDbLine
 10
5.013807674128778
 20
3.118258237331543
 30
0.0
 11
5.081807674128778
 21
3.118258237331543
 31
0.0
  0
LINE
  5
195
330
1F
100
AcDbEntity
  8
CENTERMARKS
  6
CENTER
100
AcDbLine
 10
4.966207674128779
 20
3.165858237331543
 30
0.0
 11
4.96620767412878
 21
3.233858237331543
 31
0.0
  0
LINE
  5
196
330
1F
100
AcDbEntity
  8
CENTERMARKS
  6
CENTER
100
AcDbLine
 10
4.966207674128779
 20
3.070658237331543
 30
0.0
 11
4.966207674128778
 21
3.002658237331543
 31
0.0
  0
LINE
  5
199
330
1F
100
AcDbEntity
  8
CENTERMARKS
  6
CONTINUOUS
100
AcDbLine
 10
1.34240767412878
 20
4.318258237331547
 30
0.0
 11
1.39000767412878
 21
4.318258237331547
 31
0.0
  0
LINE
  5
19A
330
1F
100
AcDbEntity
  8
CENTERMARKS
  6
CONTINUOUS
100
AcDbLine
 10
1.36620767412878
 20
4.294458237331547
 30
0.0
 11
1.36620767412878
 21
4.342058237331546
 31
0.0
  0
LINE
  5
19B
330
1F
100
AcDbEntity
  8
CENTERMARKS
  6
CENTER
100
AcDbLine
 10
1.31860767412878
 20
4.318258237331547
 30
0.0
 11
1.25060767412878
 21
4.318258237331547
 31
0.0
  0
LINE
  5
19C
330
1F
100
AcDbEntity
  8
CENTERMARKS
  6
CENTER
100
AcDbLine
 10
1.41380767412878
 20
4.318258237331547
 30
0.0
 11
1.48180767412878
 21
4.318258237331547
 31
0.0
  0
LINE
  5
19D
330
1F
100
AcDbEntity
  8
CENTERMARKS
  6
CENTER
100
AcDbLine
 10
1.36620767412878
 20
4.365858237331546
 30
0.0
 11
1.36620767412878
 21
4.433858237331545
 31
0.0
  0
LINE
  5
19E
330
1F
100
AcDbEntity
  8
CENTERMARKS
  6
CENTER
100
AcDbLine
 10
1.36620767412878
 20
4.270658237331547
 30
0.0
 11
1.36620767412878
 21
4.202658237331548
 31
0.0
  0
LINE
  5
1A1
330
1F
100
AcDbEntity
  8
CENTERMARKS
  6
CONTINUOUS
100
AcDbLine
 10
4.942407674128781
 20
4.318258237331544
 30
0.0
 11
4.99000767412878
 21
4.318258237331544
 31
0.0
  0
LINE
  5
1A2
330
1F
100
AcDbEntity
  8
CENTERMARKS
  6
CONTINUOUS
100
AcDbLine
 10
4.96620767412878
 20
4.294458237331544
 30
0.0
 11
4.96620767412878
 21
4.342058237331544
 31
0.0
  0
LINE
  5
1A3
330
1F
100
AcDbEntity
  8
CENTERMARKS
  6
CENTER
100
AcDbLine
 10
4.918607674128781
 20
4.318258237331544
 30
0.0
 11
4.850607674128781
 21
4.318258237331544
 31
0.0
  0
LINE
  5
1A4
330
1F
100
AcDbEntity
  8
CENTERMARKS
  6
CENTER
100
AcDbLine
 10
5.013807674128779
 20
4.318258237331544
 30
0.0
 11
5.081807674128779
 21
4.318258237331544
 31
0.0
  0
LINE
  5
1A5
330
1F
100
AcDbEntity
  8
CENTERMARKS
  6
CENTER
100
AcDbLine
 10
4.96620767412878
 20
4.365858237331543
 30
0.0
 11
4.96620767412878
 21
4.433858237331543
 31
0.0
  0
LINE
  5
1A6
330
1F
100
AcDbEntity
  8
CENTERMARKS
  6
CENTER
100
AcDbLine
 10
4.96620767412878
 20
4.270658237331545
 30
0.0
 11
4.96620767412878
 21
4.202658237331545
 31
0.0
  0
LINE
  5
1A9
330
1F
100
AcDbEntity
  8
CENTERMARKS
  6
CONTINUOUS
100
AcDbLine
 10
1.34240767412878
 20
3.118258237331544
 30
0.0
 11
1.39000767412878
 21
3.118258237331544
 31
0.0
  0
LINE
  5
1AA
330
1F
100
AcDbEntity
  8
CENTERMARKS
  6
CONTINUOUS
100
AcDbLine
 10
1.36620767412878
 20
3.094458237331544
 30
0.0
 11
1.36620767412878
 21
3.142058237331544
 31
0.0
  0
LINE
  5
1AB
330
1F
100
AcDbEntity
  8
CENTERMARKS
  6
CENTER
100
AcDbLine
 10
1.31860767412878
 20
3.118258237331544
 30
0.0
 11
1.25060767412878
 21
3.118258237331544
 31
0.0
  0
LINE
  5
1AC
330
1F
100
AcDbEntity
  8
CENTERMARKS
  6
CENTER
100
AcDbLine
 10
1.41380767412878
 20
3.118258237331544
 30
0.0
 11
1.48180767412878
 21
3.118258237331544
 31
0.0
  0
LINE
  5
1AD
330
1F
100
AcDbEntity
  8
CENTERMARKS
  6
CENTER
100
AcDbLine
 10
1.36620767412878
 20
3.165858237331544
 30
0.0
 11
1.36620767412878
 21
3.233858237331544
 31
0.0
  0
LINE
  5
1AE
330
1F
100
AcDbEntity
  8
CENTERMARKS
  6
CENTER
100
AcDbLine
 10
1.36620767412878
 20
3.070658237331544
 30
0.0
 11
1.36620767412878
 21
3.002658237331544
 31
0.0
  0
MTEXT
  5
1AF
102
{ACAD_XDICTIONARY
360
1B0
102
}
330
1F
100
AcDbEntity
  8
ANNOTATION_TEXT
 62
     7
 60
     1
100
AcDbMText
 10
3.06620767412878
 20
2.703258237331544
 30
0.0
 40
0.12
 41
0.0
 71
     2
 72
     1
  1

  7
ONSHAPE-STANDARD-VIEW-LABE
1001
ACAD
1000
ACAD_MTEXT_DEFINED_HEIGHT_BEGIN
1070
    46
1040
0.12
1000
ACAD_MTEXT_DEFINED_HEIGHT_END
  0
MTEXT
  5
1B6
102
{ACAD_XDICTIONARY
360
1B7
102
}
330
1F
100
AcDbEntity
  8
ANNOTATION_TEXT
 62
     7
 60
     1
100
AcDbMText
 10
8.119810954222647
 20
2.714474290010802
 30
0.0
 40
0.12
 41
0.0
 71
     2
 72
     1
  1

  7
ONSHAPE-STANDARD-VIEW-LABE
1001
ACAD
1000
ACAD_MTEXT_DEFINED_HEIGHT_BEGIN
1070
    46
1040
0.12
1000
ACAD_MTEXT_DEFINED_HEIGHT_END
  0
LINE
  5
1BB
330
1F
100
AcDbEntity
  8
CENTERMARKS
  6
CONTINUOUS
100
AcDbLine
 10
7.476010954222675
 20
4.289474290107013
 30
0.0
 11
7.523610954222674
 21
4.289474290107013
 31
0.0
  0
LINE
  5
1BC
330
1F
100
AcDbEntity
  8
CENTERMARKS
  6
CONTINUOUS
100
AcDbLine
 10
7.499810954222674
 20
4.265674290107014
 30
0.0
 11
7.499810954222674
 21
4.313274290107013
 31
0.0
  0
LINE
  5
1BD
330
1F
100
AcDbEntity
  8
CENTERMARKS
  6
CENTER
100
AcDbLine
 10
7.452210954222675
 20
4.289474290107013
 30
0.0
 11
7.384210954222675
 21
4.289474290107013
 31
0.0
  0
LINE
  5
1BE
330
1F
100
AcDbEntity
  8
CENTERMARKS
  6
CENTER
100
AcDbLine
 10
7.547410954222673
 20
4.289474290107013
 30
0.0
 11
7.615410954222673
 21
4.289474290107013
 31
0.0
  0
LINE
  5
1BF
330
1F
100
AcDbEntity
  8
CENTERMARKS
  6
CENTER
100
AcDbLine
 10
7.499810954222674
 20
4.337074290107013
 30
0.0
 11
7.499810954222674
 21
4.405074290107012
 31
0.0
  0
LINE
  5
1C0
330
1F
100
AcDbEntity
  8
CENTERMARKS
  6
CENTER
100
AcDbLine
 10
7.499810954222674
 20
4.241874290107014
 30
0.0
 11
7.499810954222674
 21
4.173874290107014
 31
0.0
  0
LINE
  5
1C3
330
1F
100
AcDbEntity
  8
CENTERMARKS
  6
CONTINUOUS
100
AcDbLine
 10
7.476010954222675
 20
3.169474290107013
 30
0.0
 11
7.523610954222674
 21
3.169474290107013
 31
0.0
  0
LINE
  5
1C4
330
1F
100
AcDbEntity
  8
CENTERMARKS
  6
CONTINUOUS
100
AcDbLine
 10
7.499810954222674
 20
3.145674290107013
 30
0.0
 11
7.499810954222674
 21
3.193274290107013
 31
0.0
  0
LINE
  5
1C5
330
1F
100
AcDbEntity
  8
CENTERMARKS
  6
CENTER
100
AcDbLine
 10
7.452210954222675
 20
3.169474290107013
 30
0.0
 11
7.384210954222675
 21
3.169474290107013
 31
0.0
  0
LINE
  5
1C6
330
1F
100
AcDbEntity
  8
CENTERMARKS
  6
CENTER
100
AcDbLine
 10
7.547410954222673
 20
3.169474290107013
 30
0.0
 11
7.615410954222673
 21
3.169474290107013
 31
0.0
  0
LINE
  5
1C7
330
1F
100
AcDbEntity
  8
CENTERMARKS
  6
CENTER
100
AcDbLine
 10
7.499810954222674
 20
3.217074290107013
 30
0.0
 11
7.499810954222674
 21
3.285074290107013
 31
0.0
  0
LINE
  5
1C8
330
1F
100
AcDbEntity
  8
CENTERMARKS
  6
CENTER
100
AcDbLine
 10
7.499810954222674
 20
3.121874290107013
 30
0.0
 11
7.499810954222674
 21
3.053874290107013
 31
0.0
  0
LINE
  5
1CB
330
1F
100
AcDbEntity
  8
CENTERMARKS
  6
CONTINUOUS
100
AcDbLine
 10
6.457560954222647
 20
3.729474290010802
 30
0.0
 11
6.482060954222646
 21
3.729474290010802
 31
0.0
  0
LINE
  5
1CC
330
1F
100
AcDbEntity
  8
CENTERMARKS
  6
CONTINUOUS
100
AcDbLine
 10
6.469810954222647
 20
3.717224290010802
 30
0.0
 11
6.469810954222647
 21
3.741724290010802
 31
0.0
  0
LINE
  5
1CD
330
1F
100
AcDbEntity
  8
CENTERMARKS
  6
CENTER
100
AcDbLine
 10
6.445310954222647
 20
3.729474290010802
 30
0.0
 11
6.410310954222647
 21
3.729474290010802
 31
0.0
  0
LINE
  5
1CE
330
1F
100
AcDbEntity
  8
CENTERMARKS
  6
CENTER
100
AcDbLine
 10
6.494310954222646
 20
3.729474290010802
 30
0.0
 11
6.529310954222646
 21
3.729474290010802
 31
0.0
  0
LINE
  5
1CF
330
1F
100
AcDbEntity
  8
CENTERMARKS
  6
CENTER
100
AcDbLine
 10
6.469810954222647
 20
3.753974290010802
 30
0.0
 11
6.469810954222647
 21
3.788974290010802
 31
0.0
  0
LINE
  5
1D0
330
1F
100
AcDbEntity
  8
CENTERMARKS
  6
CENTER
100
AcDbLine
 10
6.469810954222647
 20
3.704974290010802
 30
0.0
 11
6.469810954222647
 21
3.669974290010802
 31
0.0
  0
LINE
  5
1D3
330
1F
100
AcDbEntity
  8
CENTERMARKS
  6
CONTINUOUS
100
AcDbLine
 10
6.157560954222647
 20
3.729474290010802
 30
0.0
 11
6.182060954222647
 21
3.729474290010802
 31
0.0
  0
LINE
  5
1D4
330
1F
100
AcDbEntity
  8
CENTERMARKS
  6
CONTINUOUS
100
AcDbLine
 10
6.169810954222647
 20
3.717224290010802
 30
0.0
 11
6.169810954222647
 21
3.741724290010802
 31
0.0
  0
LINE
  5
1D5
330
1F
100
AcDbEntity
  8
CENTERMARKS
  6
CENTER
100
AcDbLine
 10
6.145310954222647
 20
3.729474290010802
 30
0.0
 11
6.110310954222647
 21
3.729474290010802
 31
0.0
  0
LINE
  5
1D6
330
1F
100
AcDbEntity
  8
CENTERMARKS
  6
CENTER
100
AcDbLine
 10
6.194310954222646
 20
3.729474290010802
 30
0.0
 11
6.229310954222647
 21
3.729474290010802
 31
0.0
  0
LINE
  5
1D7
330
1F
100
AcDbEntity
  8
CENTERMARKS
  6
CENTER
100
AcDbLine
 10
6.169810954222647
 20
3.753974290010802
 30
0.0
 11
6.169810954222647
 21
3.788974290010802
 31
0.0
  0
LINE
  5
1D8
330
1F
100
AcDbEntity
  8
CENTERMARKS
  6
CENTER
100
AcDbLine
 10
6.169810954222647
 20
3.704974290010802
 30
0.0
 11
6.169810954222647
 21
3.669974290010802
 31
0.0
  0
LINE
  5
1DB
330
1F
100
AcDbEntity
  8
CENTERMARKS
  6
CONTINUOUS
100
AcDbLine
 10
9.790434360520045
 20
3.728321167425179
 30
0.0
 11
9.838034360520044
 21
3.728321167425179
 31
0.0
  0
LINE
  5
1DC
330
1F
100
AcDbEntity
  8
CENTERMARKS
  6
CONTINUOUS
100
AcDbLine
 10
9.814234360520045
 20
3.704521167425179
 30
0.0
 11
9.814234360520045
 21
3.752121167425179
 31
0.0
  0
LINE
  5
1DD
330
1F
100
AcDbEntity
  8
CENTERMARKS
  6
CENTER
100
AcDbLine
 10
9.766634360520046
 20
3.728321167425179
 30
0.0
 11
9.698634360520046
 21
3.728321167425178
 31
0.0
  0
LINE
  5
1DE
330
1F
100
AcDbEntity
  8
CENTERMARKS
  6
CENTER
100
AcDbLine
 10
9.861834360520044
 20
3.728321167425179
 30
0.0
 11
9.929834360520044
 21
3.728321167425179
 31
0.0
  0
LINE
  5
1DF
330
1F
100
AcDbEntity
  8
CENTERMARKS
  6
CENTER
100
AcDbLine
 10
9.814234360520045
 20
3.775921167425179
 30
0.0
 11
9.814234360520045
 21
3.843921167425179
 31
0.0
  0
LINE
  5
1E0
330
1F
100
AcDbEntity
  8
CENTERMARKS
  6
CENTER
100
AcDbLine
 10
9.814234360520045
 20
3.680721167425179
 30
0.0
 11
9.814234360520045
 21
3.612721167425179
 31
0.0
  0
LINE
  5
1E3
330
1F
100
AcDbEntity
  8
CENTERMARKS
  6
CONTINUOUS
100
AcDbLine
 10
8.314122506073963
 20
3.627234816349177
 30
0.0
 11
8.361722506073962
 21
3.627234816349177
 31
0.0
  0
LINE
  5
1E4
330
1F
100
AcDbEntity
  8
CENTERMARKS
  6
CONTINUOUS
100
AcDbLine
 10
8.337922506073962
 20
3.603434816349177
 30
0.0
 11
8.337922506073962
 21
3.651034816349177
 31
0.0
  0
LINE
  5
1E5
330
1F
100
AcDbEntity
  8
CENTERMARKS
  6
CENTER
100
AcDbLine
 10
8.290322506073963
 20
3.627234816349177
 30
0.0
 11
8.222322506073963
 21
3.627234816349177
 31
0.0
  0
LINE
  5
1E6
330
1F
100
AcDbEntity
  8
CENTERMARKS
  6
CENTER
100
AcDbLine
 10
8.385522506073961
 20
3.627234816349177
 30
0.0
 11
8.453522506073961
 21
3.627234816349177
 31
0.0
  0
LINE
  5
1E7
330
1F
100
AcDbEntity
  8
CENTERMARKS
  6
CENTER
100
AcDbLine
 10
8.337922506073962
 20
3.674834816349177
 30
0.0
 11
8.337922506073962
 21
3.742834816349177
 31
0.0
  0
LINE
  5
1E8
330
1F
100
AcDbEntity
  8
CENTERMARKS
  6
CENTER
100
AcDbLine
 10
8.337922506073962
 20
3.579634816349177
 30
0.0
 11
8.337922506073962
 21
3.511634816349177
 31
0.0
  0
LINE
  5
1EB
330
1F
100
AcDbEntity
  8
CENTERMARKS
  6
CONTINUOUS
100
AcDbLine
 10
6.949943893586863
 20
4.289474290106927
 30
0.0
 11
6.997543893586863
 21
4.289474290106927
 31
0.0
  0
LINE
  5
1EC
330
1F
100
AcDbEntity
  8
CENTERMARKS
  6
CONTINUOUS
100
AcDbLine
 10
6.973743893586863
 20
4.265674290106928
 30
0.0
 11
6.973743893586863
 21
4.313274290106927
 31
0.0
  0
LINE
  5
1ED
330
1F
100
AcDbEntity
  8
CENTERMARKS
  6
CENTER
100
AcDbLine
 10
6.926143893586864
 20
4.289474290106927
 30
0.0
 11
6.858143893586863
 21
4.289474290106927
 31
0.0
  0
LINE
  5
1EE
330
1F
100
AcDbEntity
  8
CENTERMARKS
  6
CENTER
100
AcDbLine
 10
7.021343893586862
 20
4.289474290106927
 30
0.0
 11
7.089343893586863
 21
4.289474290106927
 31
0.0
  0
LINE
  5
1EF
330
1F
100
AcDbEntity
  8
CENTERMARKS
  6
CENTER
100
AcDbLine
 10
6.973743893586863
 20
4.337074290106926
 30
0.0
 11
6.973743893586863
 21
4.405074290106926
 31
0.0
  0
LINE
  5
1F0
330
1F
100
AcDbEntity
  8
CENTERMARKS
  6
CENTER
100
AcDbLine
 10
6.973743893586863
 20
4.241874290106928
 30
0.0
 11
6.973743893586863
 21
4.173874290106928
 31
0.0
  0
LINE
  5
1F3
330
1F
100
AcDbEntity
  8
CENTERMARKS
  6
CONTINUOUS
100
AcDbLine
 10
6.949943893586863
 20
3.169474289914675
 30
0.0
 11
6.997543893586863
 21
3.169474289914675
 31
0.0
  0
LINE
  5
1F4
330
1F
100
AcDbEntity
  8
CENTERMARKS
  6
CONTINUOUS
100
AcDbLine
 10
6.973743893586863
 20
3.145674289914675
 30
0.0
 11
6.973743893586863
 21
3.193274289914675
 31
0.0
  0
LINE
  5
1F5
330
1F
100
AcDbEntity
  8
CENTERMARKS
  6
CENTER
100
AcDbLine
 10
6.926143893586864
 20
3.169474289914675
 30
0.0
 11
6.858143893586863
 21
3.169474289914675
 31
0.0
  0
LINE
  5
1F6
330
1F
100
AcDbEntity
  8
CENTERMARKS
  6
CENTER
100
AcDbLine
 10
7.021343893586862
 20
3.169474289914675
 30
0.0
 11
7.089343893586863
 21
3.169474289914675
 31
0.0
  0
LINE
  5
1F7
330
1F
100
AcDbEntity
  8
CENTERMARKS
  6
CENTER
100
AcDbLine
 10
6.973743893586863
 20
3.217074289914675
 30
0.0
 11
6.973743893586863
 21
3.285074289914675
 31
0.0
  0
LINE
  5
1F8
330
1F
100
AcDbEntity
  8
CENTERMARKS
  6
CENTER
100
AcDbLine
 10
6.973743893586863
 20
3.121874289914675
 30
0.0
 11
6.973743893586863
 21
3.053874289914675
 31
0.0
  0
DIMENSION
  5
1F9
102
{ACAD_REACTORS
102
}
102
{ACAD_XDICTIONARY
360
1FA
102
}
330
1F
100
AcDbEntity
  8
ANNOTATION_TEXT
100
AcDbDimension
  2
*D1
 10
5.11620767412878
 20
4.846521157750912
 30
0.0
 11
2.948873974092974
 21
4.846521157750912
 31
0.0
 70
   161
  3
ONSHAPE-STANDARD$0
100
AcDbAlignedDimension
 13
1.01620767412878
 23
4.468258237331544
 33
0.73
 14
5.11620767412878
 24
4.468258237331544
 34
0.73
1001
ACAD
1000
DSTYLE
1002
{
1070
     4
1000
[]
1070
   144
1040
1.0
1070
     3
1000

1070
   288
1070
     1
1002
}
1001
ACAD_DIMASSOC_CALC_DIMLFAC
1040
-1.0
1001
ACAD_DIMASSOC_DIMLFAC
1040
-1.0
1001
ACAD_DIMASSOC_OVERRIDDEN_D
1040
0.0
  0
DIMENSION
  5
215
102
{ACAD_REACTORS
102
}
102
{ACAD_XDICTIONARY
360
216
102
}
330
1F
100
AcDbEntity
  8
ANNOTATION_TEXT
100
AcDbDimension
  2
*D2
 10
5.427436371492922
 20
4.468258237331544
 30
0.0
 11
5.427436371492922
 21
3.718258237331544
 31
0.0
 70
   161
  3
ONSHAPE-STANDARD$0
100
AcDbAlignedDimension
 13
5.11620767412878
 23
2.968258237331544
 33
0.7300000000000002
 14
5.11620767412878
 24
4.468258237331544
 34
0.73
1001
ACAD
1000
DSTYLE
1002
{
1070
     4
1000
[]
1070
   144
1040
1.0
1070
     3
1000

1070
   288
1070
     1
1002
}
1001
ACAD_DIMASSOC_CALC_DIMLFAC
1040
-1.0
1001
ACAD_DIMASSOC_DIMLFAC
1040
-1.0
1001
ACAD_DIMASSOC_OVERRIDDEN_D
1040
0.0
  0
INSERT
  5
228
102
{ACAD_REACTORS
102
}
102
{ACAD_XDICTIONARY
360
229
102
}
330
1F
100
AcDbEntity
  8
ANNOTATION_TEXT
 62
     7
100
AcDbBlockReference
  2
*U3
 10
7.402746872790699
 20
5.006520461397265
 30
0.0
  0
SOLID
  5
241
330
1F
100
AcDbEntity
  8
ANNOTATION_LINES
100
AcDbTrace
 10
7.083438994946119
 20
4.513909101884829
 30
0.0
 11
6.996050976038237
 21
4.353711304923212
 31
0.0
 12
7.026759275990573
 22
4.533591821694865
 32
0.0
 13
7.026759275990573
 23
4.533591821694865
 33
0.0
  0
LINE
  5
242
330
1F
100
AcDbEntity
  8
ANNOTATION_LINES
100
AcDbLine
 10
6.996050976038237
 20
4.353711304923212
 30
-0.2500000000000001
 11
7.222746872790699
 21
5.006520461397265
 31
0.2500000000000001
  0
LINE
  5
243
330
1F
100
AcDbEntity
  8
ANNOTATION_LINES
100
AcDbLine
 10
7.222746872790699
 20
5.006520461397265
 30
0.0
 11
7.402746872790699
 21
5.006520461397265
 31
0.0
  0
INSERT
  5
244
102
{ACAD_REACTORS
102
}
102
{ACAD_XDICTIONARY
360
245
102
}
330
1F
100
AcDbEntity
  8
ANNOTATION_TEXT
 62
     7
100
AcDbBlockReference
  2
*U4
 10
6.70811534435474
 20
2.325794059421855
 30
0.0
  0
SOLID
  5
260
330
1F
100
AcDbEntity
  8
ANNOTATION_LINES
100
AcDbTrace
 10
6.502463092473978
 20
3.514861061463221
 30
0.0
 11
6.479806736298323
 21
3.695932013095011
 31
0.0
 12
6.559964138615334
 22
3.531996687878666
 32
0.0
 13
6.559964138615334
 23
3.531996687878666
 33
0.0
  0
LINE
  5
261
330
1F
100
AcDbEntity
  8
ANNOTATION_LINES
100
AcDbLine
 10
6.479806736298323
 20
3.695932013095011
 30
0.25
 11
6.888115344354739
 21
2.325794059421855
 31
-0.25
  0
LINE
  5
262
330
1F
100
AcDbEntity
  8
ANNOTATION_LINES
100
AcDbLine
 10
6.888115344354739
 20
2.325794059421855
 30
0.0
 11
6.70811534435474
 21
2.325794059421855
 31
0.0
  0
INSERT
  5
263
102
{ACAD_REACTORS
102
}
102
{ACAD_XDICTIONARY
360
264
102
}
330
1F
100
AcDbEntity
  8
ANNOTATION_TEXT
 62
     7
100
AcDbBlockReference
  2
*U5
 10
4.294278757848064
 20
5.325399451163281
 30
0.0
  0
SOLID
  5
27F
330
1F
100
AcDbEntity
  8
ANNOTATION_LINES
100
AcDbTrace
 10
4.884320442655829
 20
4.554263494310484
 30
0.0
 11
4.936363481516177
 21
4.379359171590374
 31
0.0
 12
4.83040785360392
 22
4.527930383181716
 32
0.0
 13
4.83040785360392
 23
4.527930383181716
 33
0.0
  0
LINE
  5
280
330
1F
100
AcDbEntity
  8
ANNOTATION_LINES
100
AcDbLine
 10
4.936363481516177
 20
4.379359171590374
 30
0.365
 11
4.474278757848063
 21
5.325399451163281
 31
-0.365
  0
LINE
  5
281
330
1F
100
AcDbEntity
  8
ANNOTATION_LINES
100
AcDbLine
 10
4.474278757848063
 20
5.325399451163281
 30
0.0
 11
4.294278757848064
 21
5.325399451163281
 31
0.0
  0
DIMENSION
  5
282
102
{ACAD_REACTORS
102
}
102
{ACAD_XDICTIONARY
360
283
102
}
330
1F
100
AcDbEntity
  8
ANNOTATION_TEXT
100
AcDbDimension
  2
*D6
 10
7.75950399593466
 20
6.844303183025521
 30
-1.55
 11
9.676103379331956
 21
7.427839350026174
 31
0.0
 70
   163
  3
ONSHAPE-STANDARD$3
100
AcDbDiametricDimension
 15
8.305466614830722
 25
7.067965470343149
 35
-1.55
 40
0.0
1001
ACAD
1000
DSTYLE
1002
{
1070
   287
1070
     3
1070
     4
1000
[]
1070
   144
1040
1.0
1070
   289
1070
     3
1070
   279
1070
     0
1070
   172
1070
     0
1070
     3
1000
%%c<>
1002
}
1001
ACAD_DSTYLE_DIMRADIAL_EXTE
1070
   387
1070
     1
1070
   388
1040
0.0
1070
   390
1040
6.283185307179586
1001
ACAD_DIMASSOC_CALC_DIMLFAC
1040
-1.0
1001
ACAD_DIMASSOC_DIMLFAC
1040
-1.0
1001
ACAD_DIMASSOC_OVERRIDDEN_D
1040
0.0
  0
DIMENSION
  5
299
102
{ACAD_REACTORS
102
}
102
{ACAD_XDICTIONARY
360
29A
102
}
330
1F
100
AcDbEntity
  8
ANNOTATION_TEXT
100
AcDbDimension
  2
*D7
 10
5.427436371492922
 20
5.864134326684335
 30
0.0
 11
5.427436371492922
 21
6.160134326684335
 31
0.0
 70
   161
  3
ONSHAPE-STANDARD$0
100
AcDbAlignedDimension
 13
5.11620767412878
 23
6.456134326684335
 33
0.2987847045233506
 14
5.11620767412878
 24
5.864134326684335
 34
0.2987847045233506
1001
ACAD
1000
DSTYLE
1002
{
1070
     4
1000
[]
1070
   144
1040
1.0
1070
     3
1000

1070
   288
1070
     1
1002
}
1001
ACAD_DIMASSOC_CALC_DIMLFAC
1040
-1.0
1001
ACAD_DIMASSOC_DIMLFAC
1040
-1.0
1001
ACAD_DIMASSOC_OVERRIDDEN_D
1040
0.0
  0
DIMENSION
  5
2AE
102
{ACAD_REACTORS
102
}
102
{ACAD_XDICTIONARY
360
2AF
102
}
330
1F
100
AcDbEntity
  8
ANNOTATION_TEXT
100
AcDbDimension
  2
*D8
 10
0.6942553355802623
 20
5.864134326684335
 30
0.0
 11
0.6942553355802623
 21
6.094134326684335
 31
0.0
 70
   161
  3
ONSHAPE-STANDARD$0
100
AcDbAlignedDimension
 13
1.01620767412878
 23
6.324134326684335
 33
0.2987847045233506
 14
1.01620767412878
 24
5.864134326684335
 34
0.2987847045233506
1001
ACAD
1000
DSTYLE
1002
{
1070
     4
1000
[]
1070
   144
1040
1.0
1070
     3
1000

1070
   288
1070
     1
1002
}
1001
ACAD_DIMASSOC_CALC_DIMLFAC
1040
-1.0
1001
ACAD_DIMASSOC_DIMLFAC
1040
-1.0
1001
ACAD_DIMASSOC_OVERRIDDEN_D
1040
0.0
  0
ENDSEC
  0
SECTION
  2
OBJECTS
  0
DICTIONARY
  5
C
330
0
100
AcDbDictionary
  3
ACAD_FIELDLIST
350
17E
  3
ACAD_GROUP
350
D
  3
ACAD_LAYOUT
350
1A
  3
ACAD_MATERIAL
350
43
  3
ACAD_MLEADERSTYLE
350
6B
  3
ACAD_MLINESTYLE
350
17
  3
ACAD_PLOTSETTINGS
350
19
  3
ACAD_SCALELIST
350
47
  3
ACAD_VISUALSTYLE
350
2A
  3
ACDBHEADERROUNDTRIPXREC
350
31D
  3
ACDBVARIABLEDICTIONARY
350
6E
  3
ONSHAPE_DATA
350
2C1
  0
DICTIONARY
  5
344
330
8
100
AcDbDictionary
280
     1
  3
ACAD_XREC_ROUNDTRIP
360
345
  0
DICTIONARY
  5
111
330
110
100
AcDbDictionary
280
     1
  0
DICTIONARY
  5
118
330
117
100
AcDbDictionary
280
     1
  0
DICTIONARY
  5
122
330
121
100
AcDbDictionary
280
     1
  0
DICTIONARY
  5
128
330
127
100
AcDbDictionary
280
     1
  0
DICTIONARY
  5
142
330
141
100
AcDbDictionary
280
     1
  0
DICTIONARY
  5
148
330
147
100
AcDbDictionary
280
     1
  0
DICTIONARY
  5
14E
330
14D
100
AcDbDictionary
280
     1
  0
DICTIONARY
  5
155
330
154
100
AcDbDictionary
280
     1
  0
DICTIONARY
  5
15C
330
15B
100
AcDbDictionary
280
     1
  0
DICTIONARY
  5
163
330
162
100
AcDbDictionary
280
     1
  0
DICTIONARY
  5
16A
330
169
100
AcDbDictionary
280
     1
  0
DICTIONARY
  5
173
330
172
100
AcDbDictionary
280
     1
  0
DICTIONARY
  5
179
330
178
100
AcDbDictionary
280
     1
  3
ONSHAPE_VIEW_ID
360
17A
  0
DICTIONARY
  5
189
330
188
100
AcDbDictionary
280
     1
  3
ONSHAPE_VIEW_ID
360
18A
  0
DICTIONARY
  5
1B0
330
1AF
100
AcDbDictionary
280
     1
  3
ONSHAPE_VIEW_ID
360
1B1
  0
DICTIONARY
  5
1B7
330
1B6
100
AcDbDictionary
280
     1
  3
ONSHAPE_VIEW_ID
360
1B8
  0
DICTIONARY
  5
1FA
330
1F9
100
AcDbDictionary
280
     1
  3
ACAD_BREAKDATA
360
1FE
  3
OS_DIM_DISPLAY_FLAG_DATA
360
1FB
  0
DICTIONARY
  5
216
330
215
100
AcDbDictionary
280
     1
  3
ACAD_BREAKDATA
360
21A
  3
OS_DIM_DISPLAY_FLAG_DATA
360
217
  0
DICTIONARY
  5
229
330
228
100
AcDbDictionary
280
     1
  3
OS_DIM_DISPLAY_FLAG_DATA
360
22B
  3
OS_HOLECALLOUTDIM_DATA
360
22A
  0
DICTIONARY
  5
245
330
244
100
AcDbDictionary
280
     1
  3
OS_DIM_DISPLAY_FLAG_DATA
360
247
  3
OS_HOLECALLOUTDIM_DATA
360
246
  0
DICTIONARY
  5
264
330
263
100
AcDbDictionary
280
     1
  3
OS_DIM_DISPLAY_FLAG_DATA
360
266
  3
OS_HOLECALLOUTDIM_DATA
360
265
  0
DICTIONARY
  5
283
330
282
100
AcDbDictionary
280
     1
  3
ACAD_BREAKDATA
360
286
  3
OS_DIM_DISPLAY_FLAG_DATA
360
284
  0
DICTIONARY
  5
29A
330
299
100
AcDbDictionary
280
     1
  3
ACAD_BREAKDATA
360
29E
  3
OS_DIM_DISPLAY_FLAG_DATA
360
29B
  0
DICTIONARY
  5
2AF
330
2AE
100
AcDbDictionary
280
     1
  3
ACAD_BREAKDATA
360
2B3
  3
OS_DIM_DISPLAY_FLAG_DATA
360
2B0
  0
ACAD_PROXY_OBJECT
  5
17E
102
{ACAD_REACTORS
330
C
102
}
330
C
100
AcDbProxyObject
 90
      499
 91
      509
 93
       11
310
4600
330
114
330
115
330
11B
330
11C
330
125
330
126
330
12B
330
12C
330
145
330
146
330
14B
330
14C
330
151
330
152
330
158
330
159
330
15F
330
160
330
166
330
167
330
16D
330
16E
330
176
330
177
 94
        0
  0
DICTIONARY
  5
D
102
{ACAD_REACTORS
330
C
102
}
330
C
100
AcDbDictionary
  0
DICTIONARY
  5
1A
102
{ACAD_REACTORS
330
C
102
}
330
C
100
AcDbDictionary
  0
DICTIONARY
  5
43
102
{ACAD_REACTORS
330
C
102
}
330
C
100
AcDbDictionary
  3
BYBLOCK
350
45
  3
BYLAYER
350
44
  3
GLOBAL
350
46
  0
DICTIONARY
  5
6B
102
{ACAD_REACTORS
330
C
102
}
330
C
100
AcDbDictionary
  3
STANDARD
350
6C
  0
DICTIONARY
  5
17
102
{ACAD_REACTORS
330
C
102
}
330
C
100
AcDbDictionary
  3
STANDARD
350
18
  0
DICTIONARY
  5
19
102
{ACAD_REACTORS
330
C
102
}
330
C
100
AcDbDictionary
  0
DICTIONARY
  5
47
102
{ACAD_REACTORS
330
C
102
}
330
C
100
AcDbDictionary
  3
A0
350
48
  3
A1
350
49
  3
A2
350
4A
  3
A3
350
4B
  3
A4
350
4C
  3
A5
350
4D
  3
A6
350
4E
  3
A7
350
4F
  3
A8
350
50
  3
A9
350
51
  3
B0
350
52
  3
B1
350
53
  3
B2
350
54
  3
B3
350
55
  3
B4
350
56
  3
B5
350
57
  3
B6
350
58
  3
B7
350
59
  3
B8
350
5A
  3
B9
350
5B
  3
C0
350
5C
  3
C1
350
5D
  3
C2
350
5E
  3
C3
350
5F
  3
C4
350
60
  3
C5
350
61
  3
C6
350
62
  3
C7
350
63
  3
C8
350
64
  3
C9
350
65
  3
D0
350
66
  3
D1
350
67
  3
D2
350
68
  0
DICTIONARY
  5
2A
102
{ACAD_REACTORS
330
C
102
}
330
C
100
AcDbDictionary
  3
2DWIREFRAME
350
2F
  3
BASIC
350
32
  3
BRIGHTEN
350
36
  3
COLORCHANGE
350
3A
  3
CONCEPTUAL
350
34
  3
DIM
350
35
  3
EDGECOLOROFF
350
3D
  3
FACEPATTERN
350
39
  3
FLAT
350
2B
  3
FLATWITHEDGES
350
2C
  3
GOURAUD
350
2D
  3
GOURAUDWITHEDGES
350
2E
  3
HIDDEN
350
31
  3
JITTEROFF
350
3B
  3
LINEPATTERN
350
38
  3
OVERHANGOFF
350
3C
  3
REALISTIC
350
33
  3
SHADED
350
42
  3
SHADED_WITH_EDGES
350
41
  3
SHADES_OF_GRAY
350
3E
  3
SKETCHY
350
3F
  3
THICKEN
350
37
  3
WIREFRAME
350
30
  3
X-RAY
350
40
  0
DICTIONARY
  5
31D
102
{ACAD_REACTORS
330
C
102
}
330
C
100
AcDbDictionary
  3
CEPSNID
350
327
  3
CEPSNTYPE
350
326
  3
DIMSTYLEDATA
350
33D
  3
FINGERPRINTGUID
350
328
  3
HYPERLINKBASE
350
320
  3
INSUNITS
350
325
  3
LAYOUTDICT
350
322
  3
LWETCUNION
350
324
  3
PLOTSETDICT
350
323
  3
PSVPSCALE
350
32A
  3
PUCSBASE
350
32D
  3
PUCSORGBACK
350
333
  3
PUCSORGBOTTOM
350
32F
  3
PUCSORGFRONT
350
332
  3
PUCSORGLEFT
350
330
  3
PUCSORGRIGHT
350
331
  3
PUCSORGTOP
350
32E
  3
PUCSORTHOREF
350
32B
  3
PUCSORTHOVIEW
350
32C
  3
STYLESHEET
350
321
  3
TSTACKALIGN
350
31E
  3
TSTACKSIZE
350
31F
  3
UCSBASE
350
336
  3
UCSORGBACK
350
33C
  3
UCSORGBOTTOM
350
338
  3
UCSORGFRONT
350
33B
  3
UCSORGLEFT
350
339
  3
UCSORGRIGHT
350
33A
  3
UCSORGTOP
350
337
  3
UCSORTHOREF
350
334
  3
UCSORTHOVIEW
350
335
  3
VERSIONGUID
350
329
  0
DICTIONARY
  5
6E
102
{ACAD_REACTORS
330
C
102
}
330
C
100
AcDbDictionary
  3
CANNOSCALE
350
346
  3
CMLEADERSTYLE
350
33F
  3
CTABLESTYLE
350
33E
  3
DIMASSOC
350
342
  3
HIDETEXT
350
343
  3
MSLTSCALE
350
347
  3
OLEFRAME
350
6F
  0
DICTIONARY
  5
2C1
102
{ACAD_REACTORS
330
C
102
}
330
C
100
AcDbDictionary
280
     1
  3
DIM_UNITS
360
2C2
  3
ONSHAPE_ANG_TOL_PRECISION
360
2C5
  3
ONSHAPE_BREAK_DIMENSION_DEFAULT
360
2CA
  3
ONSHAPE_DIMENSION_TEXT_HOR
360
2C9
  3
ONSHAPE_JOGDIMENSION_LOCK_
360
2C7
  3
ONSHAPE_SHOWDIMENSIONSLINE
360
2C8
  3
ONSHAPE_UNDERLINEOVERRIDEN
360
2C6
  3
ONSHAPE_VSHARP_EXTENSION
360
2C4
  3
ONSHAPE_WELD_STANDARD
360
2C3
  0
XRECORD
  5
345
102
{ACAD_REACTORS
330
344
102
}
330
344
100
AcDbXrecord
102
VTR_0.000_0.000_1.000_1.000_VISUALSTYLE
340
2F
102
VTR_0.000_0.000_1.000_1.000_GRIDDISPLAY
 70
     3
102
VTR_0.000_0.000_1.000_1.000_GRIDMAJOR
 70
     5
102
VTR_0.000_0.000_1.000_1.000_DEFAULTLIGHTING
280
     1
102
VTR_0.000_0.000_1.000_1.000_DEFAULTLIGHTINGTYPE
 70
     1
102
VTR_0.000_0.000_1.000_1.000_BRIGHTNESS
141
0.0
102
VTR_0.000_0.000_1.000_1.000_CONTRAST
142
0.0
  0
XRECORD
  5
17A
102
{ACAD_REACTORS
330
179
102
}
330
179
100
AcDbXrecord
330
0
  0
XRECORD
  5
18A
102
{ACAD_REACTORS
330
189
102
}
330
189
100
AcDbXrecord
330
0
  0
XRECORD
  5
1B1
102
{ACAD_REACTORS
330
1B0
102
}
330
1B0
100
AcDbXrecord
330
0
  0
XRECORD
  5
1B8
102
{ACAD_REACTORS
330
1B7
102
}
330
1B7
100
AcDbXrecord
330
0
  0
BREAKDATA
  5
1FE
102
{ACAD_REACTORS
330
1FA
102
}
330
1FA
100
AcDbBreakData
 70
     0
330
1F9
 90
        0
  0
XRECORD
  5
1FB
102
{ACAD_REACTORS
330
1FA
102
}
330
1FA
100
AcDbXrecord
 90
        1
 90
        0
  0
BREAKDATA
  5
21A
102
{ACAD_REACTORS
330
216
102
}
330
216
100
AcDbBreakData
 70
     0
330
215
 90
        0
  0
XRECORD
  5
217
102
{ACAD_REACTORS
330
216
102
}
330
216
100
AcDbXrecord
 90
        1
 90
        0
  0
XRECORD
  5
22B
102
{ACAD_REACTORS
330
229
102
}
330
229
100
AcDbXrecord
 90
        1
 90
        0
  0
ACAD_PROXY_OBJECT
  5
22A
102
{ACAD_REACTORS
330
229
102
}
330
229
100
AcDbProxyObject
 90
      499
 91
      512
 93
      754
310
57568000400000100040000000000000001680000000000880401680008000001680008000000A000000000000003C2FCA000000000000003C2FD6803FFFFFFFC880400880400B004000078B004080079B5B48804008804016803FFFFFFFC0
  0
XRECORD
  5
247
102
{ACAD_REACTORS
330
245
102
}
330
245
100
AcDbXrecord
 90
        1
 90
        0
  0
ACAD_PROXY_OBJECT
  5
246
102
{ACAD_REACTORS
330
245
102
}
330
245
100
AcDbProxyObject
 90
      499
 91
      512
 93
      754
310
57568000400000100040000000000000001680000000000880401680008000001680008000000A000000000000003C2FCA000000000000003C2FD6803FFFFFFFC880400880400B004000078B004080079B5B48804008804016803FFFFFFFC0
  0
XRECORD
  5
266
102
{ACAD_REACTORS
330
264
102
}
330
264
100
AcDbXrecord
 90
        1
 90
        0
  0
ACAD_PROXY_OBJECT
  5
265
102
{ACAD_REACTORS
330
264
102
}
330
264
100
AcDbProxyObject
 90
      499
 91
      512
 93
      754
310
575680004000001000400000000000000016802C23201F0880401680008000001680008000000A000000000000003C2FCA000000000000003C2FD6803FFFFFFFC880400880400B004000078B004080079B5B48804008804016803FFFFFFFC0
  0
BREAKDATA
  5
286
102
{ACAD_REACTORS
330
283
102
}
330
283
100
AcDbBreakData
 70
     0
330
282
 90
        0
  0
XRECORD
  5
284
102
{ACAD_REACTORS
330
283
102
}
330
283
100
AcDbXrecord
 90
        1
 90
        0
  0
BREAKDATA
  5
29E
102
{ACAD_REACTORS
330
29A
102
}
330
29A
100
AcDbBreakData
 70
     0
330
299
 90
        0
  0
XRECORD
  5
29B
102
{ACAD_REACTORS
330
29A
102
}
330
29A
100
AcDbXrecord
 90
        1
 90
        0
  0
BREAKDATA
  5
2B3
102
{ACAD_REACTORS
330
2AF
102
}
330
2AF
100
AcDbBreakData
 70
     0
330
2AE
 90
        0
  0
XRECORD
  5
2B0
102
{ACAD_REACTORS
330
2AF
102
}
330
2AF
100
AcDbXrecord
 90
        1
 90
        0
  0
MATERIAL
  5
45
102
{ACAD_REACTORS
330
43
102
}
102
{ACAD_XDICTIONARY
360
34A
102
}
330
43
100
AcDbMaterial
  1
BYBLOCK
  0
MATERIAL
  5
44
102
{ACAD_REACTORS
330
43
102
}
102
{ACAD_XDICTIONARY
360
348
102
}
330
43
100
AcDbMaterial
  1
BYLAYER
  0
MATERIAL
  5
46
102
{ACAD_REACTORS
330
43
102
}
102
{ACAD_XDICTIONARY
360
34C
102
}
330
43
100
AcDbMaterial
  1
GLOBAL
  0
ACAD_PROXY_OBJECT
  5
6C
102
{ACAD_REACTORS
330
6B
102
}
330
6B
100
AcDbProxyObject
 90
      499
 91
      505
 93
      610
310
40901902A4063FBFFFFFE056BD1B81E855B9FC0AD7A3703D0AD73F4214DD185B99185C9900AD7A3703D0AC73F90140501A02B5E8DC0F42B1CFC02B5E8DC0F42B1CFE5764000000000000300FC0
340
14
340
0
340
11
340
0
 94
        0
1001
ACAD_MLEADERVER
1070
     2
  0
MLINESTYLE
  5
18
102
{ACAD_REACTORS
330
17
102
}
330
17
100
AcDbMlineStyle
  2
Standard
 70
     0
  3

 62
   256
 51
90.0
 52
90.0
 71
     2
 49
0.5
 62
   256
  6
BYLAYER
 49
-0.5
 62
   256
  6
BYLAYER
  0
ACAD_PROXY_OBJECT
  5
48
102
{ACAD_REACTORS
330
47
102
}
330
47
100
AcDbProxyObject
 90
      499
 91
      503
 93
       41
310
903313A31580
  0
ACAD_PROXY_OBJECT
  5
49
102
{ACAD_REACTORS
330
47
102
}
330
47
100
AcDbProxyObject
 90
      499
 91
      503
 93
      105
310
903313A324000000000000004000
  0
ACAD_PROXY_OBJECT
  5
4A
102
{ACAD_REACTORS
330
47
102
}
330
47
100
AcDbProxyObject
 90
      499
 91
      503
 93
      105
310
903313A344000000000000104000
  0
ACAD_PROXY_OBJECT
  5
4B
102
{ACAD_REACTORS
330
47
102
}
330
47
100
AcDbProxyObject
 90
      499
 91
      503
 93
      105
310
903313A354000000000000144000
  0
ACAD_PROXY_OBJECT
  5
4C
102
{ACAD_REACTORS
330
47
102
}
330
47
100
AcDbProxyObject
 90
      499
 91
      503
 93
      105
310
903313A384000000000000204000
  0
ACAD_PROXY_OBJECT
  5
4D
102
{ACAD_REACTORS
330
47
102
}
330
47
100
AcDbProxyObject
 90
      499
 91
      503
 93
      113
310
904313A31304000000000000244000
  0
ACAD_PROXY_OBJECT
  5
4E
102
{ACAD_REACTORS
330
47
102
}
330
47
100
AcDbProxyObject
 90
      499
 91
      503
 93
      113
310
904313A31364000000000000304000
  0
ACAD_PROXY_OBJECT
  5
4F
102
{ACAD_REACTORS
330
47
102
}
330
47
100
AcDbProxyObject
 90
      499
 91
      503
 93
      113
310
904313A32304000000000000344000
  0
ACAD_PROXY_OBJECT
  5
50
102
{ACAD_REACTORS
330
47
102
}
330
47
100
AcDbProxyObject
 90
      499
 91
      503
 93
      113
310
904313A333040000000000003E4000
  0
ACAD_PROXY_OBJECT
  5
51
102
{ACAD_REACTORS
330
47
102
}
330
47
100
AcDbProxyObject
 90
      499
 91
      503
 93
      113
310
904313A34304000000000000444000
  0
ACAD_PROXY_OBJECT
  5
52
102
{ACAD_REACTORS
330
47
102
}
330
47
100
AcDbProxyObject
 90
      499
 91
      503
 93
      113
310
904313A35304000000000000494000
  0
ACAD_PROXY_OBJECT
  5
53
102
{ACAD_REACTORS
330
47
102
}
330
47
100
AcDbProxyObject
 90
      499
 91
      503
 93
      121
310
905313A3130304000000000000594000
  0
ACAD_PROXY_OBJECT
  5
54
102
{ACAD_REACTORS
330
47
102
}
330
47
100
AcDbProxyObject
 90
      499
 91
      503
 93
      105
310
903323A310000000000000010100
  0
ACAD_PROXY_OBJECT
  5
55
102
{ACAD_REACTORS
330
47
102
}
330
47
100
AcDbProxyObject
 90
      499
 91
      503
 93
      105
310
903343A310000000000000410100
  0
ACAD_PROXY_OBJECT
  5
56
102
{ACAD_REACTORS
330
47
102
}
330
47
100
AcDbProxyObject
 90
      499
 91
      503
 93
      105
310
903383A310000000000000810100
  0
ACAD_PROXY_OBJECT
  5
57
102
{ACAD_REACTORS
330
47
102
}
330
47
100
AcDbProxyObject
 90
      499
 91
      503
 93
      113
310
90431303A310000000000000910100
  0
ACAD_PROXY_OBJECT
  5
58
102
{ACAD_REACTORS
330
47
102
}
330
47
100
AcDbProxyObject
 90
      499
 91
      503
 93
      121
310
9053130303A310000000000001650100
  0
ACAD_PROXY_OBJECT
  5
59
102
{ACAD_REACTORS
330
47
102
}
330
47
100
AcDbProxyObject
 90
      499
 91
      503
 93
      257
310
90E312F31323822203D2031272D3022000000000000200FC000000000000284000
  0
ACAD_PROXY_OBJECT
  5
5A
102
{ACAD_REACTORS
330
47
102
}
330
47
100
AcDbProxyObject
 90
      499
 91
      503
 93
      249
310
90D312F363422203D2031272D3022000000000000240FC000000000000284000
  0
ACAD_PROXY_OBJECT
  5
5B
102
{ACAD_REACTORS
330
47
102
}
330
47
100
AcDbProxyObject
 90
      499
 91
      503
 93
      249
310
90D312F333222203D2031272D3022000000000000280FC000000000000284000
  0
ACAD_PROXY_OBJECT
  5
5C
102
{ACAD_REACTORS
330
47
102
}
330
47
100
AcDbProxyObject
 90
      499
 91
      503
 93
      249
310
90D312F313622203D2031272D30220000000000002C0FC000000000000284000
  0
ACAD_PROXY_OBJECT
  5
5D
102
{ACAD_REACTORS
330
47
102
}
330
47
100
AcDbProxyObject
 90
      499
 91
      503
 93
      249
310
90D332F333222203D2031272D30220000000000002E0FC000000000000284000
  0
ACAD_PROXY_OBJECT
  5
5E
102
{ACAD_REACTORS
330
47
102
}
330
47
100
AcDbProxyObject
 90
      499
 91
      503
 93
      241
310
90C312F3822203D2031272D3022000000000000300FC000000000000284000
  0
ACAD_PROXY_OBJECT
  5
5F
102
{ACAD_REACTORS
330
47
102
}
330
47
100
AcDbProxyObject
 90
      499
 91
      503
 93
      249
310
90D332F313622203D2031272D3022000000000000320FC000000000000284000
  0
ACAD_PROXY_OBJECT
  5
60
102
{ACAD_REACTORS
330
47
102
}
330
47
100
AcDbProxyObject
 90
      499
 91
      503
 93
      241
310
90C312F3422203D2031272D3022000000000000340FC000000000000284000
  0
ACAD_PROXY_OBJECT
  5
61
102
{ACAD_REACTORS
330
47
102
}
330
47
100
AcDbProxyObject
 90
      499
 91
      503
 93
      241
310
90C332F3822203D2031272D3022000000000000360FC000000000000284000
  0
ACAD_PROXY_OBJECT
  5
62
102
{ACAD_REACTORS
330
47
102
}
330
47
100
AcDbProxyObject
 90
      499
 91
      503
 93
      241
310
90C312F3222203D2031272D3022000000000000380FC000000000000284000
  0
ACAD_PROXY_OBJECT
  5
63
102
{ACAD_REACTORS
330
47
102
}
330
47
100
AcDbProxyObject
 90
      499
 91
      503
 93
      241
310
90C332F3422203D2031272D30220000000000003A0FC000000000000284000
  0
ACAD_PROXY_OBJECT
  5
64
102
{ACAD_REACTORS
330
47
102
}
330
47
100
AcDbProxyObject
 90
      499
 91
      503
 93
      161
310
90A3122203D2031272D30224000000000000284000
  0
ACAD_PROXY_OBJECT
  5
65
102
{ACAD_REACTORS
330
47
102
}
330
47
100
AcDbProxyObject
 90
      499
 91
      503
 93
      257
310
90E312D312F3222203D2031272D30220000000000003E0FC000000000000284000
  0
ACAD_PROXY_OBJECT
  5
66
102
{ACAD_REACTORS
330
47
102
}
330
47
100
AcDbProxyObject
 90
      499
 91
      503
 93
      225
310
90A3322203D2031272D302200000000000002100000000000000284000
  0
ACAD_PROXY_OBJECT
  5
67
102
{ACAD_REACTORS
330
47
102
}
330
47
100
AcDbProxyObject
 90
      499
 91
      503
 93
      225
310
90A3622203D2031272D302200000000000006100000000000000284000
  0
ACAD_PROXY_OBJECT
  5
68
102
{ACAD_REACTORS
330
47
102
}
330
47
100
AcDbProxyObject
 90
      499
 91
      503
 93
      249
310
90D31272D3022203D2031272D30220000000000000A100000000000000284000
  0
ACAD_PROXY_OBJECT
  5
2F
102
{ACAD_REACTORS
330
2A
102
}
330
2A
100
AcDbProxyObject
 90
      499
 91
      501
 93
      436
310
42CC9915DA5C99599C985B595049028333333333333E33F0000000000000F90107901411070040501600405405064090741402480A0340
1001
ACAD
1000
AcDbSavedByObjectVersion
1070
     0
  0
ACAD_PROXY_OBJECT
  5
32
102
{ACAD_REACTORS
330
2A
102
}
330
2A
100
AcDbProxyObject
 90
      499
 91
      501
 93
      388
310
4150985CDA58D07406404333333333333E33F0000000000000F90107A41107004050150841D405064090741402480A0350
1001
ACAD
1000
AcDbSavedByObjectVersion
1070
     0
  0
ACAD_PROXY_OBJECT
  5
36
102
{ACAD_REACTORS
330
2A
102
}
330
2A
100
AcDbProxyObject
 90
      499
 91
      501
 93
      428
310
42109C9A59DA1D195B90C409028333333333333E33F0000000000000F9010790141107004050150841D405064090741402480A029950
1001
ACAD
1000
AcDbSavedByObjectVersion
1070
     0
  0
ACAD_PROXY_OBJECT
  5
3A
102
{ACAD_REACTORS
330
2A
102
}
330
2A
100
AcDbProxyObject
 90
      499
 91
      501
 93
      452
310
42D0DBDB1BDC90DA185B99D95104090240C333333333333E33F0000000000000F90108901411070040501508421405064090741402480A0350
1001
ACAD
1000
AcDbSavedByObjectVersion
1070
     0
  0
ACAD_PROXY_OBJECT
  5
34
102
{ACAD_REACTORS
330
2A
102
}
330
2A
100
AcDbProxyObject
 90
      499
 91
      501
 93
      500
310
4290DBDB98D95C1D1D585B10940D028333333333333E33F0000000000000F90107902409070040501000000000018199010841D405064090740C02480A0340
1001
ACAD
1000
AcDbSavedByObjectVersion
1070
     0
  0
ACAD_PROXY_OBJECT
  5
35
102
{ACAD_REACTORS
330
2A
102
}
330
2A
100
AcDbProxyObject
 90
      499
 91
      501
 93
      412
310
40D11A5B50B409028333333333333E33F0000000000000F9010790141107004050150841D405064090741402480A02677FFFFFD0
1001
ACAD
1000
AcDbSavedByObjectVersion
1070
     0
  0
ACAD_PROXY_OBJECT
  5
3D
102
{ACAD_REACTORS
330
2A
102
}
330
2A
100
AcDbProxyObject
 90
      499
 91
      501
 93
      452
310
43115919D950DBDB1BDC93D999916409028333333333333E33F0000000000000F9010790141107004050150841D405064090741402480A0350
1001
ACAD
1000
AcDbSavedByObjectVersion
1070
     0
  0
ACAD_PROXY_OBJECT
  5
39
102
{ACAD_REACTORS
330
2A
102
}
330
2A
100
AcDbProxyObject
 90
      499
 91
      501
 93
      444
310
42D19858D95C185D1D195C9B90F409028333333333333E33F0000000000000F9010790141107004050150841D405064090741402480A0350
1001
ACAD
1000
AcDbSavedByObjectVersion
1070
     0
  0
ACAD_PROXY_OBJECT
  5
2B
102
{ACAD_REACTORS
330
2A
102
}
330
2A
100
AcDbProxyObject
 90
      499
 91
      501
 93
      380
310
41119B185D240901404333333333333E33F0000000000000F9010740A907004050150841D405064090741402480A1B50
1001
ACAD
1000
AcDbSavedByObjectVersion
1070
     0
  0
ACAD_PROXY_OBJECT
  5
2C
102
{ACAD_REACTORS
330
2A
102
}
330
2A
100
AcDbProxyObject
 90
      499
 91
      501
 93
      468
310
43519B185D15DA5D1A115919D95CD0140901404333333333333E33F0000000000000F90107409019070040501600405405064090741402480A1B50
1001
ACAD
1000
AcDbSavedByObjectVersion
1070
     0
  0
ACAD_PROXY_OBJECT
  5
2D
102
{ACAD_REACTORS
330
2A
102
}
330
2A
100
AcDbProxyObject
 90
      499
 91
      501
 93
      404
310
41D1DBDD5C985D5910240902404333333333333E33F0000000000000F9010740A9070040501641D405064090741402480A1B50
1001
ACAD
1000
AcDbSavedByObjectVersion
1070
     0
  0
ACAD_PROXY_OBJECT
  5
2E
102
{ACAD_REACTORS
330
2A
102
}
330
2A
100
AcDbProxyObject
 90
      499
 91
      501
 93
      492
310
4411DBDD5C985D5915DA5D1A115919D95CD0340902404333333333333E33F0000000000000F90107409019070040501600405405064090741402480A1B50
1001
ACAD
1000
AcDbSavedByObjectVersion
1070
     0
  0
ACAD_PROXY_OBJECT
  5
31
102
{ACAD_REACTORS
330
2A
102
}
330
2A
100
AcDbProxyObject
 90
      499
 91
      501
 93
      476
310
41921A5919195B90640502408333333333333E33F0000000000000F901079024090700405020000000000001110200405405064090740C02480A0340
1001
ACAD
1000
AcDbSavedByObjectVersion
1070
     0
  0
ACAD_PROXY_OBJECT
  5
3B
102
{ACAD_REACTORS
330
2A
102
}
330
2A
100
AcDbProxyObject
 90
      499
 91
      501
 93
      428
310
42529A5D1D195C93D999914409028333333333333E33F0000000000000F9010790141107004050150A41D405064090741402480A0350
1001
ACAD
1000
AcDbSavedByObjectVersion
1070
     0
  0
ACAD_PROXY_OBJECT
  5
38
102
{ACAD_REACTORS
330
2A
102
}
330
2A
100
AcDbProxyObject
 90
      499
 91
      501
 93
      444
310
42D31A5B995C185D1D195C9B90E409028333333333333E33F0000000000000F9010790141107004050750841D405064090741402483A0350
1001
ACAD
1000
AcDbSavedByObjectVersion
1070
     0
  0
ACAD_PROXY_OBJECT
  5
3C
102
{ACAD_REACTORS
330
2A
102
}
330
2A
100
AcDbProxyObject
 90
      499
 91
      501
 93
      444
310
42D3DD995C9A185B99D3D999915409028333333333333E33F0000000000000F9010790141107004050150941D405064090741402480A0350
1001
ACAD
1000
AcDbSavedByObjectVersion
1070
     0
  0
ACAD_PROXY_OBJECT
  5
33
102
{ACAD_REACTORS
330
2A
102
}
330
2A
100
AcDbProxyObject
 90
      499
 91
      501
 93
      428
310
425499585B1A5CDD1A58D08409038333333333333E33F0000000000000F9010740A907004050150800405405064090740C02480A1B40
1001
ACAD
1000
AcDbSavedByObjectVersion
1070
     0
  0
ACAD_PROXY_OBJECT
  5
42
102
{ACAD_REACTORS
330
2A
102
}
330
2A
100
AcDbProxyObject
 90
      499
 91
      501
 93
      420
310
4194DA1859195911B40902404333333333333E33F0000000000000F9010740A41107004050150800405405064090840C02480A0B40
1001
ACAD
1000
AcDbSavedByObjectVersion
1070
     0
  0
ACAD_PROXY_OBJECT
  5
41
102
{ACAD_REACTORS
330
2A
102
}
330
2A
100
AcDbProxyObject
 90
      499
 91
      501
 93
      516
310
4454DA18591959081DDA5D1A08195919D95CD1A40902404333333333333E33F0000000000000F901074090142907004050250800405405064090740C02480A0B40
1001
ACAD
1000
AcDbSavedByObjectVersion
1070
     0
  0
ACAD_PROXY_OBJECT
  5
3E
102
{ACAD_REACTORS
330
2A
102
}
330
2A
100
AcDbProxyObject
 90
      499
 91
      501
 93
      532
310
4394DA1859195CC81BD98811DC985E5174090240C333333333333E33F0000000000000F901079024090741D01000000000000111010841D405064090740C02480A0340
1001
ACAD
1000
AcDbSavedByObjectVersion
1070
     0
  0
ACAD_PROXY_OBJECT
  5
3F
102
{ACAD_REACTORS
330
2A
102
}
330
2A
100
AcDbProxyObject
 90
      499
 91
      501
 93
      476
310
41D4DAD95D18DA1E51840502408333333333333E33F0000000000000F901079024090741D01000000000000111010B41D405064090741802480A0340
1001
ACAD
1000
AcDbSavedByObjectVersion
1070
     0
  0
ACAD_PROXY_OBJECT
  5
37
102
{ACAD_REACTORS
330
2A
102
}
330
2A
100
AcDbProxyObject
 90
      499
 91
      501
 93
      412
310
41D51A1A58DAD95B90D409028333333333333E33F0000000000000F9010790141107004050150C41D405064090741402480A0350
1001
ACAD
1000
AcDbSavedByObjectVersion
1070
     0
  0
ACAD_PROXY_OBJECT
  5
30
102
{ACAD_REACTORS
330
2A
102
}
330
2A
100
AcDbProxyObject
 90
      499
 91
      501
 93
      420
310
4255DA5C99599C985B595059028333333333333E33F0000000000000F90107901411070040501600405405064090740C02480A0340
1001
ACAD
1000
AcDbSavedByObjectVersion
1070
     0
  0
ACAD_PROXY_OBJECT
  5
40
102
{ACAD_REACTORS
330
2A
102
}
330
2A
100
AcDbProxyObject
 90
      499
 91
      501
 93
      404
310
41560B54985E51940902404000000000000E03F0000000000000F9010740501907004050150841D405064090740C02480A1B40
1001
ACAD
1000
AcDbSavedByObjectVersion
1070
     0
  0
XRECORD
  5
327
102
{ACAD_REACTORS
330
31D
102
}
330
31D
100
AcDbXrecord
340
0
  0
XRECORD
  5
326
102
{ACAD_REACTORS
330
31D
102
}
330
31D
100
AcDbXrecord
 90
        0
  0
XRECORD
  5
33D
102
{ACAD_REACTORS
330
31D
102
}
330
31D
100
AcDbXrecord
1000
DSTYLE
1002
{
1070
   179
 70
     1
1070
   285
 70
     7
1070
   176
 70
     7
1070
   177
 70
     7
1070
   178
 70
     7
1070
   271
 70
     3
1070
    44
 40
0.08
1070
   371
 70
    13
1070
   372
 70
    13
1070
   272
 70
     3
1070
   340
340
73
1070
   140
 40
0.12
1070
   284
 70
     7
1070
   288
 70
     1
1070
    78
 70
     7
1070
    90
 70
     1
1002
}
  0
XRECORD
  5
328
102
{ACAD_REACTORS
330
31D
102
}
330
31D
100
AcDbXrecord
  1
{65707133-7975-7677-b774-b17074723071}
  0
XRECORD
  5
320
102
{ACAD_REACTORS
330
31D
102
}
330
31D
100
AcDbXrecord
  1

  0
XRECORD
  5
325
102
{ACAD_REACTORS
330
31D
102
}
330
31D
100
AcDbXrecord
 90
        1
  0
XRECORD
  5
322
102
{ACAD_REACTORS
330
31D
102
}
330
31D
100
AcDbXrecord
340
1A
  0
XRECORD
  5
324
102
{ACAD_REACTORS
330
31D
102
}
330
31D
100
AcDbXrecord
 90
    10269
  0
XRECORD
  5
323
102
{ACAD_REACTORS
330
31D
102
}
330
31D
100
AcDbXrecord
340
19
  0
XRECORD
  5
32A
102
{ACAD_REACTORS
330
31D
102
}
330
31D
100
AcDbXrecord
 40
0.0
  0
XRECORD
  5
32D
102
{ACAD_REACTORS
330
31D
102
}
330
31D
100
AcDbXrecord
340
0
  0
XRECORD
  5
333
102
{ACAD_REACTORS
330
31D
102
}
330
31D
100
AcDbXrecord
 10
0.0
 20
0.0
 30
0.0
  0
XRECORD
  5
32F
102
{ACAD_REACTORS
330
31D
102
}
330
31D
100
AcDbXrecord
 10
0.0
 20
0.0
 30
0.0
  0
XRECORD
  5
332
102
{ACAD_REACTORS
330
31D
102
}
330
31D
100
AcDbXrecord
 10
0.0
 20
0.0
 30
0.0
  0
XRECORD
  5
330
102
{ACAD_REACTORS
330
31D
102
}
330
31D
100
AcDbXrecord
 10
0.0
 20
0.0
 30
0.0
  0
XRECORD
  5
331
102
{ACAD_REACTORS
330
31D
102
}
330
31D
100
AcDbXrecord
 10
0.0
 20
0.0
 30
0.0
  0
XRECORD
  5
32E
102
{ACAD_REACTORS
330
31D
102
}
330
31D
100
AcDbXrecord
 10
0.0
 20
0.0
 30
0.0
  0
XRECORD
  5
32B
102
{ACAD_REACTORS
330
31D
102
}
330
31D
100
AcDbXrecord
340
0
  0
XRECORD
  5
32C
102
{ACAD_REACTORS
330
31D
102
}
330
31D
100
AcDbXrecord
 70
     0
  0
XRECORD
  5
321
102
{ACAD_REACTORS
330
31D
102
}
330
31D
100
AcDbXrecord
  1

  0
XRECORD
  5
31E
102
{ACAD_REACTORS
330
31D
102
}
330
31D
100
AcDbXrecord
 90
        1
  0
XRECORD
  5
31F
102
{ACAD_REACTORS
330
31D
102
}
330
31D
100
AcDbXrecord
 90
       70
  0
XRECORD
  5
336
102
{ACAD_REACTORS
330
31D
102
}
330
31D
100
AcDbXrecord
340
0
  0
XRECORD
  5
33C
102
{ACAD_REACTORS
330
31D
102
}
330
31D
100
AcDbXrecord
 10
0.0
 20
0.0
 30
0.0
  0
XRECORD
  5
338
102
{ACAD_REACTORS
330
31D
102
}
330
31D
100
AcDbXrecord
 10
0.0
 20
0.0
 30
0.0
  0
XRECORD
  5
33B
102
{ACAD_REACTORS
330
31D
102
}
330
31D
100
AcDbXrecord
 10
0.0
 20
0.0
 30
0.0
  0
XRECORD
  5
339
102
{ACAD_REACTORS
330
31D
102
}
330
31D
100
AcDbXrecord
 10
0.0
 20
0.0
 30
0.0
  0
XRECORD
  5
33A
102
{ACAD_REACTORS
330
31D
102
}
330
31D
100
AcDbXrecord
 10
0.0
 20
0.0
 30
0.0
  0
XRECORD
  5
337
102
{ACAD_REACTORS
330
31D
102
}
330
31D
100
AcDbXrecord
 10
0.0
 20
0.0
 30
0.0
  0
XRECORD
  5
334
102
{ACAD_REACTORS
330
31D
102
}
330
31D
100
AcDbXrecord
340
0
  0
XRECORD
  5
335
102
{ACAD_REACTORS
330
31D
102
}
330
31D
100
AcDbXrecord
 70
     0
  0
XRECORD
  5
329
102
{ACAD_REACTORS
330
31D
102
}
330
31D
100
AcDbXrecord
  1
{FAEB1C32-E019-11D5-929B-00C0DF256EC4}
  0
DICTIONARYVAR
  5
346
102
{ACAD_REACTORS
330
6E
102
}
330
6E
100
DictionaryVariables
280
     0
  1
1:1
  0
DICTIONARYVAR
  5
33F
102
{ACAD_REACTORS
330
6E
102
}
330
6E
100
DictionaryVariables
280
     0
  1
Standard
  0
DICTIONARYVAR
  5
33E
102
{ACAD_REACTORS
330
6E
102
}
330
6E
100
DictionaryVariables
280
     0
  1
Onshape-Standard
  0
DICTIONARYVAR
  5
342
102
{ACAD_REACTORS
330
6E
102
}
330
6E
100
DictionaryVariables
280
     0
  1
2
  0
DICTIONARYVAR
  5
343
102
{ACAD_REACTORS
330
6E
102
}
330
6E
100
DictionaryVariables
280
     0
  1
1
  0
DICTIONARYVAR
  5
347
102
{ACAD_REACTORS
330
6E
102
}
330
6E
100
DictionaryVariables
280
     0
  1
1
  0
DICTIONARYVAR
  5
6F
102
{ACAD_REACTORS
330
6E
102
}
330
6E
100
DictionaryVariables
280
     0
  1
0
  0
XRECORD
  5
2C2
102
{ACAD_REACTORS
330
2C1
102
}
330
2C1
100
AcDbXrecord
 70
     1
  0
XRECORD
  5
2C5
102
{ACAD_REACTORS
330
2C1
102
}
330
2C1
100
AcDbXrecord
 90
        0
  0
ACAD_PROXY_OBJECT
  5
2CA
102
{ACAD_REACTORS
330
2C1
102
}
330
2C1
100
AcDbProxyObject
 90
      499
 91
      512
 93
       34
310
40C8804040
  0
XRECORD
  5
2C9
102
{ACAD_REACTORS
330
2C1
102
}
330
2C1
100
AcDbXrecord
 90
        5
  0
XRECORD
  5
2C7
102
{ACAD_REACTORS
330
2C1
102
}
330
2C1
100
AcDbXrecord
 90
        0
  0
ACAD_PROXY_OBJECT
  5
2C8
102
{ACAD_REACTORS
330
2C1
102
}
330
2C1
100
AcDbProxyObject
 90
      499
 91
      512
 93
       34
310
40C8804000
  0
ACAD_PROXY_OBJECT
  5
2C6
102
{ACAD_REACTORS
330
2C1
102
}
330
2C1
100
AcDbProxyObject
 90
      499
 91
      512
 93
       34
310
40C8804040
  0
XRECORD
  5
2C4
102
{ACAD_REACTORS
330
2C1
102
}
330
2C1
100
AcDbXrecord
 90
        0
  0
XRECORD
  5
2C3
102
{ACAD_REACTORS
330
2C1
102
}
330
2C1
100
AcDbXrecord
 90
        0
  0
DICTIONARY
  5
34A
330
45
100
AcDbDictionary
280
     1
  3
ACAD_XREC_ROUNDTRIP
360
34B
  0
DICTIONARY
  5
348
330
44
100
AcDbDictionary
280
     1
  3
ACAD_XREC_ROUNDTRIP
360
349
  0
DICTIONARY
  5
34C
330
46
100
AcDbDictionary
280
     1
  3
ACAD_XREC_ROUNDTRIP
360
34D
  0
XRECORD
  5
34B
102
{ACAD_REACTORS
330
34A
102
}
330
34A
100
AcDbXrecord
102
MATERIAL
148
0.0
149
0.0
149
0.0
 93
        0
 94
      127
282
     0
 72
     1
 77
     1
171
     1
175
     1
179
     1
273
     0
  0
XRECORD
  5
349
102
{ACAD_REACTORS
330
348
102
}
330
348
100
AcDbXrecord
102
MATERIAL
148
0.0
149
0.0
149
0.0
 93
        0
 94
      127
282
     0
 72
     1
 77
     1
171
     1
175
     1
179
     1
273
     0
  0
XRECORD
  5
34D
102
{ACAD_REACTORS
330
34C
102
}
330
34C
100
AcDbXrecord
102
MATERIAL
148
0.0
149
0.0
149
0.0
 93
        0
 94
      127
282
     0
 72
     1
 77
     1
171
     1
175
     1
179
     1
273
     0
  0
ENDSEC
  0
EOF
