  0
SECTION
  2
HEADER
  9
$ACADVER
  1
AC1003
  9
$EXTMIN
 10
1.32748559021997
 20
3.76017549671125
  9
$EXTMAX
 10
1.77437722663524
 20
3.22253692967515
  9
$INSUNITS
 70
1
  9
$INSBASE
 10
1.5509314084276
 20
3.4913562131932
999
Created with OMAX LAYOUT for Windows. (www.omax.com) 4/23/2025
  0
ENDSEC
  0
SECTION
  2
TABLES
  0
TABLE
  2
LAYER
 70
    10
  0
LAYER
  2
0
 70
     0
 62
     7
  6
CONTINUOUS
  0
LAYER
  2
1
 70
     0
 62
     7
  6
CONTINUOUS
  0
LAYER
  2
2
 70
     0
 62
     7
  6
CONTINUOUS
  0
LAYER
  2
3
 70
     0
 62
     7
  6
CONTINUOUS
  0
LAYER
  2
4
 70
     0
 62
     7
  6
CONTINUOUS
  0
LAYER
  2
5
 70
     0
 62
     7
  6
CONTINUOUS
  0
LAYER
  2
6
 70
     0
 62
     7
  6
CONTINUOUS
  0
LAYER
  2
7
 70
     0
 62
     7
  6
CONTINUOUS
  0
LAYER
  2
8
 70
     0
 62
     7
  6
CONTINUOUS
  0
LAYER
  2
9
 70
     0
 62
     7
  6
CONTINUOUS
  0
LAYER
  2
10
 70
     0
 62
     7
  6
CONTINUOUS
  0
LAYER
  2
11
 70
     0
 62
     7
  6
CONTINUOUS
  0
LAYER
  2
12
 70
     0
 62
     7
  6
CONTINUOUS
  0
LAYER
  2
13
 70
     0
 62
     7
  6
CONTINUOUS
  0
LAYER
  2
14
 70
     0
 62
     7
  6
CONTINUOUS
  0
LAYER
  2
15
 70
     0
 62
     7
  6
CONTINUOUS
  0
LAYER
  2
16
 70
     0
 62
     7
  6
CONTINUOUS
  0
LAYER
  2
17
 70
     0
 62
     7
  6
CONTINUOUS
  0
LAYER
  2
18
 70
     0
 62
     7
  6
CONTINUOUS
  0
LAYER
  2
19
 70
     0
 62
     7
  6
CONTINUOUS
  0
LAYER
  2
20
 70
     0
 62
     7
  6
CONTINUOUS
  0
LAYER
  2
21
 70
     0
 62
     7
  6
CONTINUOUS
  0
LAYER
  2
22
 70
     0
 62
     7
  6
CONTINUOUS
  0
LAYER
  2
23
 70
     0
 62
     7
  6
CONTINUOUS
  0
LAYER
  2
24
 70
     0
 62
     7
  6
CONTINUOUS
  0
LAYER
  2
25
 70
     0
 62
     7
  6
CONTINUOUS
  0
LAYER
  2
26
 70
     0
 62
     7
  6
CONTINUOUS
  0
LAYER
  2
27
 70
     0
 62
     7
  6
CONTINUOUS
  0
LAYER
  2
28
 70
     0
 62
     7
  6
CONTINUOUS
  0
LAYER
  2
29
 70
     0
 62
     7
  6
CONTINUOUS
  0
LAYER
  2
30
 70
     0
 62
     7
  6
CONTINUOUS
  0
LAYER
  2
31
 70
     0
 62
     7
  6
CONTINUOUS
  0
ENDTAB
  0
ENDSEC
  0
SECTION
  2
ENTITIES
  0
LINE
  8
0
  6
CONTINUOUS
 62
0
 10
1.59992128319558
 20
3.37762015954294
 30
0.0
 11
1.32748559021997
 21
3.22265693675239
 31
0.0
  0
LINE
  8
0
  6
CONTINUOUS
 62
0
 10
1.62651980007692
 20
3.28092683801381
 30
0.0
 11
1.32748559021997
 21
3.76017549671125
 31
0.0
  0
ARC
  8
3
  6
CONTINUOUS
 62
3
 10
1.57737722663524
 20
3.41953692967515
 30
0.0
 40
0.197
 50
359.999999999999
 51
135
  0
ARC
  8
3
  6
CONTINUOUS
 62
3
 10
1.57737722663524
 20
3.41953692967515
 30
0.0
 40
0.197
 50
290.371094345668
 51
3.57066959161178E-13
  0
ARC
  8
3
  6
CONTINUOUS
 62
3
 10
1.57737722663524
 20
3.41953692967515
 30
0.0
 40
0.197
 50
180
 51
290.371094345668
  0
ARC
  8
3
  6
CONTINUOUS
 62
3
 10
1.57737722665659
 20
3.4195369296663
 30
0.0
 40
0.197000000021353
 50
135.000000002572
 51
179.999999997427
  0
LINE
  8
9
  6
CONTINUOUS
 62
9
 10
1.64595275826048
 20
3.23485775796833
 30
0.0
 11
1.59992128319558
 21
3.37762015954294
 31
0.0
  0
LINE
  8
9
  6
CONTINUOUS
 62
9
 10
1.64595275826048
 20
3.23485775796833
 30
0.0
 11
1.62651980007692
 21
3.28092683801381
 31
0.0
  0
ENDSEC
  0
EOF
